<?xml version="1.0" standalone="no"?>
<!DOCTYPE svg PUBLIC "-//W3C//DTD SVG 20010904//EN"
 "http://www.w3.org/TR/2001/REC-SVG-20010904/DTD/svg10.dtd">
<svg version="1.0" xmlns="http://www.w3.org/2000/svg"
 width="512.000000pt" height="512.000000pt" viewBox="0 0 512.000000 512.000000"
 preserveAspectRatio="xMidYMid meet">

<g transform="translate(0.000000,512.000000) scale(0.100000,-0.100000)"
fill="#000000" stroke="none">
<path d="M2375 4793 c-921 -80 -1711 -724 -1963 -1603 -68 -235 -87 -373 -86
-635 0 -249 16 -372 78 -597 165 -600 591 -1117 1154 -1402 178 -90 427 -169
652 -208 170 -29 511 -32 675 -5 511 84 939 305 1286 664 270 280 459 617 554
987 57 226 70 325 69 571 0 238 -16 365 -69 569 -192 739 -777 1345 -1517
1570 -247 76 -580 111 -833 89z m273 -820 c14 -10 35 -32 46 -47 21 -27 21
-39 24 -616 l2 -589 430 -3 c415 -3 429 -4 456 -24 53 -39 69 -71 69 -134 0
-63 -16 -95 -69 -134 -27 -21 -38 -21 -566 -21 -528 0 -539 0 -566 21 -15 11
-37 33 -48 48 -21 27 -21 39 -24 699 -2 370 0 686 3 704 7 40 49 91 90 109 40
19 120 12 153 -13z"/>
</g>
</svg>
