<?xml version="1.0" encoding="UTF-8" standalone="no"?>
<svg xmlns="http://www.w3.org/2000/svg" version="1.2" baseProfile="tiny" viewBox="0.00 0.00 500.00 500.00">
<g stroke-width="2.00" fill="none" stroke-linecap="butt">
<path stroke="#ec7c33" vector-effect="non-scaling-stroke" d="
  M 275.29 102.13
  Q 275.05 103.86 275.68 105.02
  Q 277.06 107.55 278.19 110.68"
/>
<path stroke="#ff9f46" vector-effect="non-scaling-stroke" d="
  M 278.19 110.68
  Q 278.04 112.15 275.82 113.74
  Q 274.81 114.46 274.19 115.28
  Q 273.47 116.22 272.75 117.16
  Q 271.76 118.44 271.59 120.10
  Q 271.20 123.93 271.45 128.04
  Q 271.49 128.54 271.12 128.87
  Q 270.34 129.57 270.41 130.64
  Q 270.44 131.15 270.04 131.48
  Q 269.03 132.32 268.41 133.51
  Q 267.89 134.52 267.05 135.26
  Q 266.23 135.98 265.39 136.63
  Q 265.02 136.92 264.55 136.87
  Q 264.19 136.83 263.90 137.06
  Q 263.43 137.42 263.31 138.03
  Q 262.30 143.23 260.69 148.67
  Q 259.20 153.69 255.92 158.22
  Q 250.92 165.12 244.99 170.79
  Q 239.93 175.63 233.13 179.45
  Q 226.63 183.09 219.53 186.47
  Q 214.42 188.90 210.39 190.38
  Q 205.35 192.24 201.26 194.19
  C 196.54 196.46 191.66 198.05 187.46 201.20
  Q 177.48 208.70 172.49 220.37
  Q 171.64 222.38 171.05 225.32
  Q 170.56 227.80 169.79 230.38"
/>
<path stroke="#ffab48" vector-effect="non-scaling-stroke" d="
  M 224.49 141.52
  Q 222.20 140.60 219.50 141.99
  A 0.73 0.72 -43.8 0 1 218.83 141.98
  Q 218.53 141.82 218.21 141.88
  Q 211.95 142.91 205.69 144.70
  A 0.82 0.81 79.8 0 0 205.10 145.56
  C 205.90 154.70 197.98 157.42 191.33 160.39
  Q 184.13 163.59 178.52 167.98
  Q 174.92 170.81 170.60 175.74
  Q 168.38 178.27 166.36 181.69
  Q 164.55 184.75 162.57 187.95"
/>
<path stroke="#fedd8f" vector-effect="non-scaling-stroke" d="
  M 178.87 141.32
  Q 195.45 147.01 208.29 137.12
  Q 214.39 132.42 215.87 127.36
  Q 217.93 120.33 214.06 113.54
  Q 213.70 112.92 213.01 113.04
  Q 212.51 113.13 212.39 112.63
  L 212.25 112.00"
/>
<path stroke="#ec5e29" vector-effect="non-scaling-stroke" d="
  M 200.36 232.70
  L 190.74 237.78"
/>
<path stroke="#ec5e29" vector-effect="non-scaling-stroke" d="
  M 176.59 234.09
  Q 179.46 224.68 188.07 219.63
  Q 196.47 214.71 202.14 212.64
  Q 214.94 207.98 227.13 202.37
  Q 234.89 198.80 240.76 194.97
  Q 245.50 191.89 251.08 187.36
  C 255.87 183.46 259.86 179.08 263.79 174.53
  Q 270.07 167.24 274.76 157.67
  Q 279.15 148.73 280.40 140.39
  Q 281.87 130.62 280.86 121.25
  Q 280.25 115.57 278.19 110.68"
/>
<path stroke="#ec5e29" vector-effect="non-scaling-stroke" d="
  M 304.72 114.83
  Q 303.97 115.82 304.34 117.26
  Q 309.08 135.52 304.76 152.85
  Q 301.49 165.96 296.63 174.52
  Q 287.73 190.22 275.53 202.20
  C 271.03 206.61 265.92 210.22 261.27 214.44
  C 257.36 217.98 252.60 220.21 248.24 222.97
  Q 247.86 223.21 247.68 223.61
  Q 247.18 224.76 245.83 224.87
  Q 245.26 224.91 244.84 225.31
  Q 243.73 226.39 242.29 226.79
  Q 241.73 226.94 241.32 227.37
  Q 240.92 227.79 240.65 228.27
  Q 240.42 228.70 240.02 228.99
  L 237.96 230.48"
/>
<path stroke="#ce2926" vector-effect="non-scaling-stroke" d="
  M 331.07 141.21
  Q 331.12 142.55 331.85 143.57
  C 332.64 144.68 332.49 146.03 332.92 147.29
  Q 336.48 157.81 337.15 168.96"
/>
<path stroke="#df2f2c" vector-effect="non-scaling-stroke" d="
  M 337.15 168.96
  Q 336.50 173.08 334.61 176.48
  Q 333.06 179.26 330.24 181.25
  Q 329.80 181.56 329.73 182.09
  Q 328.76 188.92 328.04 191.37
  Q 325.15 201.24 322.02 209.78
  Q 320.87 212.94 316.74 218.39
  C 314.21 221.74 312.28 225.42 309.43 228.55
  Q 306.63 231.63 303.80 234.79
  Q 301.08 237.82 297.09 240.86
  Q 285.57 249.62 277.64 254.65
  Q 271.06 258.82 255.02 264.20
  Q 253.95 264.56 252.97 265.08
  Q 252.02 265.59 251.25 266.22
  Q 249.87 267.34 249.88 268.95
  Q 249.88 269.47 249.58 269.88
  Q 246.69 274.01 244.40 276.29
  Q 242.28 278.40 238.98 279.23
  Q 237.83 279.53 236.83 280.09
  Q 235.57 280.79 234.11 281.13
  Q 233.75 281.21 233.54 281.51
  C 232.71 282.71 231.34 282.98 231.11 284.66
  Q 231.06 285.03 230.77 285.25
  Q 230.06 285.77 228.72 285.79"
/>
<path stroke="#f85e38" vector-effect="non-scaling-stroke" d="
  M 183.70 255.52
  L 201.82 257.71
  A 1.03 0.93 60.3 0 1 202.22 257.84
  L 203.48 258.53"
/>
<path stroke="#f85e38" vector-effect="non-scaling-stroke" d="
  M 239.12 255.21
  Q 241.35 254.30 242.41 252.57
  Q 242.67 252.15 243.12 251.94
  Q 244.80 251.18 246.30 250.12
  Q 248.01 248.91 249.46 248.36
  Q 257.45 245.33 265.75 240.19
  C 267.34 239.20 269.33 238.77 270.94 237.69
  C 274.78 235.09 278.70 232.96 282.40 229.94
  Q 288.14 225.28 293.76 220.91
  Q 298.74 217.04 302.32 212.82
  Q 308.81 205.17 314.87 196.71
  Q 318.88 191.12 321.03 185.88
  Q 325.02 176.12 327.34 163.99
  Q 329.53 152.60 325.68 142.46"
/>
<path stroke="#bd1e1f" vector-effect="non-scaling-stroke" d="
  M 271.35 288.50
  Q 272.13 284.79 272.87 281.36
  Q 273.29 279.39 274.40 277.40"
/>
<path stroke="#bd1e1f" vector-effect="non-scaling-stroke" d="
  M 323.93 223.36
  Q 325.73 220.52 327.54 217.66
  Q 329.48 214.58 330.67 211.73
  Q 334.18 203.27 336.31 194.36
  Q 336.96 191.65 337.26 188.58
  Q 337.63 184.81 337.69 182.75
  Q 337.86 176.92 337.15 168.96"
/>
<path stroke="#ff9f46" vector-effect="non-scaling-stroke" d="
  M 143.77 340.68
  Q 142.52 341.72 140.78 341.89
  Q 139.33 342.03 137.93 342.97
  Q 136.23 344.11 135.37 344.42
  Q 133.02 345.26 130.52 345.93"
/>
<path stroke="#ff9f46" vector-effect="non-scaling-stroke" d="
  M 99.62 358.36
  L 88.75 367.22"
/>
</g>
<path fill="#ffbd50" d="
  M 275.29 102.13
  Q 275.05 103.86 275.68 105.02
  Q 277.06 107.55 278.19 110.68
  Q 278.04 112.15 275.82 113.74
  Q 274.81 114.46 274.19 115.28
  Q 273.47 116.22 272.75 117.16
  Q 271.76 118.44 271.59 120.10
  Q 271.20 123.93 271.45 128.04
  Q 271.49 128.54 271.12 128.87
  Q 270.34 129.57 270.41 130.64
  Q 270.44 131.15 270.04 131.48
  Q 269.03 132.32 268.41 133.51
  Q 267.89 134.52 267.05 135.26
  Q 266.23 135.98 265.39 136.63
  Q 265.02 136.92 264.55 136.87
  Q 264.19 136.83 263.90 137.06
  Q 263.43 137.42 263.31 138.03
  Q 262.30 143.23 260.69 148.67
  Q 259.20 153.69 255.92 158.22
  Q 250.92 165.12 244.99 170.79
  Q 239.93 175.63 233.13 179.45
  Q 226.63 183.09 219.53 186.47
  Q 214.42 188.90 210.39 190.38
  Q 205.35 192.24 201.26 194.19
  C 196.54 196.46 191.66 198.05 187.46 201.20
  Q 177.48 208.70 172.49 220.37
  Q 171.64 222.38 171.05 225.32
  Q 170.56 227.80 169.79 230.38
  Q 167.17 224.83 169.42 216.48
  C 170.98 210.68 173.31 206.36 176.56 201.59
  Q 178.31 199.00 180.58 196.94
  C 187.78 190.37 196.17 185.74 205.29 181.16
  Q 216.10 175.73 221.22 171.75
  Q 230.12 164.83 236.43 155.95
  C 240.30 150.49 241.04 141.55 233.43 138.84
  Q 229.06 137.28 224.49 141.52
  Q 222.20 140.60 219.50 141.99
  A 0.73 0.72 -43.8 0 1 218.83 141.98
  Q 218.53 141.82 218.21 141.88
  Q 211.95 142.91 205.69 144.70
  A 0.82 0.81 79.8 0 0 205.10 145.56
  C 205.90 154.70 197.98 157.42 191.33 160.39
  Q 184.13 163.59 178.52 167.98
  Q 174.92 170.81 170.60 175.74
  Q 168.38 178.27 166.36 181.69
  Q 164.55 184.75 162.57 187.95
  Q 164.05 171.68 169.41 159.17
  Q 172.73 151.41 178.87 141.32
  Q 195.45 147.01 208.29 137.12
  Q 214.39 132.42 215.87 127.36
  Q 217.93 120.33 214.06 113.54
  Q 213.70 112.92 213.01 113.04
  Q 212.51 113.13 212.39 112.63
  L 212.25 112.00
  Q 237.09 98.10 265.38 100.38
  Q 270.66 100.80 275.29 102.13
  Z"
/>
<path fill="#d83b16" d="
  M 275.29 102.13
  C 277.79 102.46 280.88 103.16 281.64 105.42
  C 283.08 109.73 284.79 114.10 285.55 118.58
  Q 288.28 134.67 284.15 150.46
  C 283.34 153.57 282.03 156.55 281.06 159.67
  Q 280.50 161.44 279.58 163.22
  Q 274.70 172.62 271.91 175.95
  C 268.71 179.79 265.76 183.49 262.35 186.94
  C 260.72 188.59 259.70 190.42 257.91 192.04
  Q 254.19 195.40 252.55 196.55
  Q 241.51 204.29 233.62 208.71
  Q 228.04 211.84 216.43 216.38
  C 211.07 218.48 205.12 219.25 199.50 221.44
  Q 196.61 222.56 195.64 225.46
  C 194.27 229.57 197.47 231.09 200.36 232.70
  L 190.74 237.78
  Q 183.67 237.23 176.59 234.09
  Q 179.46 224.68 188.07 219.63
  Q 196.47 214.71 202.14 212.64
  Q 214.94 207.98 227.13 202.37
  Q 234.89 198.80 240.76 194.97
  Q 245.50 191.89 251.08 187.36
  C 255.87 183.46 259.86 179.08 263.79 174.53
  Q 270.07 167.24 274.76 157.67
  Q 279.15 148.73 280.40 140.39
  Q 281.87 130.62 280.86 121.25
  Q 280.25 115.57 278.19 110.68
  Q 277.06 107.55 275.68 105.02
  Q 275.05 103.86 275.29 102.13
  Z"
/>
<path fill="#ff813c" d="
  M 278.19 110.68
  Q 280.25 115.57 280.86 121.25
  Q 281.87 130.62 280.40 140.39
  Q 279.15 148.73 274.76 157.67
  Q 270.07 167.24 263.79 174.53
  C 259.86 179.08 255.87 183.46 251.08 187.36
  Q 245.50 191.89 240.76 194.97
  Q 234.89 198.80 227.13 202.37
  Q 214.94 207.98 202.14 212.64
  Q 196.47 214.71 188.07 219.63
  Q 179.46 224.68 176.59 234.09
  L 169.79 230.38
  Q 170.56 227.80 171.05 225.32
  Q 171.64 222.38 172.49 220.37
  Q 177.48 208.70 187.46 201.20
  C 191.66 198.05 196.54 196.46 201.26 194.19
  Q 205.35 192.24 210.39 190.38
  Q 214.42 188.90 219.53 186.47
  Q 226.63 183.09 233.13 179.45
  Q 239.93 175.63 244.99 170.79
  Q 250.92 165.12 255.92 158.22
  Q 259.20 153.69 260.69 148.67
  Q 262.30 143.23 263.31 138.03
  Q 263.43 137.42 263.90 137.06
  Q 264.19 136.83 264.55 136.87
  Q 265.02 136.92 265.39 136.63
  Q 266.23 135.98 267.05 135.26
  Q 267.89 134.52 268.41 133.51
  Q 269.03 132.32 270.04 131.48
  Q 270.44 131.15 270.41 130.64
  Q 270.34 129.57 271.12 128.87
  Q 271.49 128.54 271.45 128.04
  Q 271.20 123.93 271.59 120.10
  Q 271.76 118.44 272.75 117.16
  Q 273.47 116.22 274.19 115.28
  Q 274.81 114.46 275.82 113.74
  Q 278.04 112.15 278.19 110.68
  Z"
/>
<path fill="#ff813c" d="
  M 304.72 114.83
  Q 303.97 115.82 304.34 117.26
  Q 309.08 135.52 304.76 152.85
  Q 301.49 165.96 296.63 174.52
  Q 287.73 190.22 275.53 202.20
  C 271.03 206.61 265.92 210.22 261.27 214.44
  C 257.36 217.98 252.60 220.21 248.24 222.97
  Q 247.86 223.21 247.68 223.61
  Q 247.18 224.76 245.83 224.87
  Q 245.26 224.91 244.84 225.31
  Q 243.73 226.39 242.29 226.79
  Q 241.73 226.94 241.32 227.37
  Q 240.92 227.79 240.65 228.27
  Q 240.42 228.70 240.02 228.99
  L 237.96 230.48
  Q 217.77 238.58 195.50 238.45
  Q 192.97 238.44 190.74 237.78
  L 200.36 232.70
  C 204.80 231.31 210.05 230.39 213.85 229.23
  Q 236.66 222.31 256.06 207.84
  C 259.97 204.93 263.08 201.41 266.79 198.26
  Q 270.02 195.52 272.40 192.85
  C 275.46 189.42 278.79 186.07 281.14 182.12
  Q 282.63 179.63 284.30 177.18
  Q 291.59 166.47 295.47 152.79
  Q 300.94 133.50 296.32 113.50
  A 1.77 1.77 0.0 0 1 298.29 111.36
  C 301.26 111.78 302.30 113.91 304.72 114.83
  Z"
/>
<path fill="#fcfdcd" d="
  M 212.25 112.00
  L 212.39 112.63
  Q 212.51 113.13 213.01 113.04
  Q 213.70 112.92 214.06 113.54
  Q 217.93 120.33 215.87 127.36
  Q 214.39 132.42 208.29 137.12
  Q 195.45 147.01 178.87 141.32
  Q 180.76 138.20 181.99 136.76
  Q 191.71 125.39 200.75 118.21
  Q 205.08 114.76 212.25 112.00
  Z"
/>
<path fill="#d83b16" d="
  M 304.72 114.83
  C 307.97 116.73 313.77 120.87 314.34 124.79
  Q 315.31 131.47 315.18 136.12
  Q 315.04 141.19 314.08 147.73
  Q 313.21 153.61 311.52 158.88
  Q 305.14 178.70 291.24 194.26
  Q 288.90 196.87 286.26 199.08
  C 283.79 201.15 281.74 203.74 279.34 205.89
  Q 270.21 214.08 265.19 216.91
  Q 260.82 219.38 256.55 222.06
  Q 252.20 224.79 237.96 230.48
  L 240.02 228.99
  Q 240.42 228.70 240.65 228.27
  Q 240.92 227.79 241.32 227.37
  Q 241.73 226.94 242.29 226.79
  Q 243.73 226.39 244.84 225.31
  Q 245.26 224.91 245.83 224.87
  Q 247.18 224.76 247.68 223.61
  Q 247.86 223.21 248.24 222.97
  C 252.60 220.21 257.36 217.98 261.27 214.44
  C 265.92 210.22 271.03 206.61 275.53 202.20
  Q 287.73 190.22 296.63 174.52
  Q 301.49 165.96 304.76 152.85
  Q 309.08 135.52 304.34 117.26
  Q 303.97 115.82 304.72 114.83
  Z"
/>
<ellipse fill="#ff813c" cx="0.00" cy="0.00" transform="translate(142.94,139.04) rotate(99.4)" rx="16.54" ry="16.11"/>
<path fill="#ff813c" d="
  M 363.27 155.26
  Q 358.62 144.49 350.35 135.61
  Q 349.02 134.18 350.24 132.65
  Q 350.58 132.23 351.01 131.92
  Q 353.31 130.29 355.43 132.15
  Q 360.87 136.94 363.35 141.32
  C 369.10 151.48 374.30 161.69 375.97 172.89
  A 3.49 3.49 0.0 0 1 373.93 176.58
  Q 373.54 176.75 373.06 176.78
  Q 369.33 176.99 368.86 173.74
  Q 368.39 170.49 367.47 167.28
  Q 365.56 160.57 363.27 155.26
  Z"
/>
<path fill="#f03a33" d="
  M 331.07 141.21
  Q 331.12 142.55 331.85 143.57
  C 332.64 144.68 332.49 146.03 332.92 147.29
  Q 336.48 157.81 337.15 168.96
  Q 336.50 173.08 334.61 176.48
  Q 333.06 179.26 330.24 181.25
  Q 329.80 181.56 329.73 182.09
  Q 328.76 188.92 328.04 191.37
  Q 325.15 201.24 322.02 209.78
  Q 320.87 212.94 316.74 218.39
  C 314.21 221.74 312.28 225.42 309.43 228.55
  Q 306.63 231.63 303.80 234.79
  Q 301.08 237.82 297.09 240.86
  Q 285.57 249.62 277.64 254.65
  Q 271.06 258.82 255.02 264.20
  Q 253.95 264.56 252.97 265.08
  Q 252.02 265.59 251.25 266.22
  Q 249.87 267.34 249.88 268.95
  Q 249.88 269.47 249.58 269.88
  Q 246.69 274.01 244.40 276.29
  Q 242.28 278.40 238.98 279.23
  Q 237.83 279.53 236.83 280.09
  Q 235.57 280.79 234.11 281.13
  Q 233.75 281.21 233.54 281.51
  C 232.71 282.71 231.34 282.98 231.11 284.66
  Q 231.06 285.03 230.77 285.25
  Q 230.06 285.77 228.72 285.79
  Q 217.37 282.26 211.53 279.43
  Q 208.04 277.73 203.03 274.20
  Q 199.40 271.64 195.37 267.84
  Q 189.37 262.15 186.51 259.25
  Q 185.82 258.55 183.70 255.52
  L 201.82 257.71
  A 1.03 0.93 60.3 0 1 202.22 257.84
  L 203.48 258.53
  C 197.63 261.90 202.16 268.24 207.18 268.37
  Q 219.24 268.69 233.47 266.03
  Q 237.44 265.28 238.54 264.05
  Q 242.16 259.98 239.12 255.21
  Q 241.35 254.30 242.41 252.57
  Q 242.67 252.15 243.12 251.94
  Q 244.80 251.18 246.30 250.12
  Q 248.01 248.91 249.46 248.36
  Q 257.45 245.33 265.75 240.19
  C 267.34 239.20 269.33 238.77 270.94 237.69
  C 274.78 235.09 278.70 232.96 282.40 229.94
  Q 288.14 225.28 293.76 220.91
  Q 298.74 217.04 302.32 212.82
  Q 308.81 205.17 314.87 196.71
  Q 318.88 191.12 321.03 185.88
  Q 325.02 176.12 327.34 163.99
  Q 329.53 152.60 325.68 142.46
  Q 325.10 140.11 325.64 136.43
  Q 325.72 135.87 326.12 136.27
  L 331.07 141.21
  Z"
/>
<path fill="#fe9940" d="
  M 224.49 141.52
  Q 222.39 146.38 219.97 151.25
  Q 217.84 155.53 215.21 158.13
  Q 210.85 162.41 206.24 165.64
  Q 197.44 171.79 187.95 177.13
  Q 182.42 180.23 178.62 183.74
  Q 171.74 190.09 166.17 199.07
  Q 164.71 201.42 163.82 204.20
  Q 163.14 206.30 162.80 204.12
  Q 161.58 196.33 162.57 187.95
  Q 164.55 184.75 166.36 181.69
  Q 168.38 178.27 170.60 175.74
  Q 174.92 170.81 178.52 167.98
  Q 184.13 163.59 191.33 160.39
  C 197.98 157.42 205.90 154.70 205.10 145.56
  A 0.82 0.81 79.8 0 1 205.69 144.70
  Q 211.95 142.91 218.21 141.88
  Q 218.53 141.82 218.83 141.98
  A 0.73 0.72 -43.8 0 0 219.50 141.99
  Q 222.20 140.60 224.49 141.52
  Z"
/>
<path fill="#ac1819" d="
  M 331.07 141.21
  Q 339.46 151.92 343.02 162.76
  Q 344.60 167.57 346.56 177.06
  Q 347.32 180.73 347.54 183.79
  C 347.77 187.02 348.36 190.21 348.40 193.36
  Q 348.55 206.16 346.24 215.55
  Q 344.70 221.82 343.04 227.77
  C 341.04 234.90 337.53 240.76 333.43 247.06
  C 326.45 257.79 318.15 266.30 307.27 274.36
  Q 300.02 279.72 296.68 280.92
  Q 292.04 282.56 287.52 284.24
  Q 279.79 287.11 271.35 288.50
  Q 272.13 284.79 272.87 281.36
  Q 273.29 279.39 274.40 277.40
  C 291.69 269.77 307.24 259.39 319.32 244.51
  Q 323.78 239.01 327.69 233.56
  Q 330.73 229.32 328.24 225.57
  Q 326.77 223.36 323.93 223.36
  Q 325.73 220.52 327.54 217.66
  Q 329.48 214.58 330.67 211.73
  Q 334.18 203.27 336.31 194.36
  Q 336.96 191.65 337.26 188.58
  Q 337.63 184.81 337.69 182.75
  Q 337.86 176.92 337.15 168.96
  Q 336.48 157.81 332.92 147.29
  C 332.49 146.03 332.64 144.68 331.85 143.57
  Q 331.12 142.55 331.07 141.21
  Z"
/>
<path fill="#ff813c" d="
  M 325.68 142.46
  Q 329.53 152.60 327.34 163.99
  Q 325.02 176.12 321.03 185.88
  Q 318.88 191.12 314.87 196.71
  Q 308.81 205.17 302.32 212.82
  Q 298.74 217.04 293.76 220.91
  Q 288.14 225.28 282.40 229.94
  C 278.70 232.96 274.78 235.09 270.94 237.69
  C 269.33 238.77 267.34 239.20 265.75 240.19
  Q 257.45 245.33 249.46 248.36
  Q 248.01 248.91 246.30 250.12
  Q 244.80 251.18 243.12 251.94
  Q 242.67 252.15 242.41 252.57
  Q 241.35 254.30 239.12 255.21
  Q 236.89 253.24 233.99 253.96
  Q 218.61 257.76 205.20 258.02
  C 204.62 258.04 204.01 258.33 203.48 258.53
  L 202.22 257.84
  A 1.03 0.93 60.3 0 0 201.82 257.71
  L 183.70 255.52
  L 178.45 247.98
  A 0.25 0.25 0.0 0 1 178.71 247.60
  C 197.35 252.02 218.75 249.69 236.38 243.42
  Q 240.99 241.78 245.57 240.16
  Q 250.63 238.36 254.57 236.35
  C 279.09 223.82 300.64 205.13 313.94 181.49
  Q 319.43 171.73 321.56 164.53
  Q 323.04 159.54 325.68 142.46
  Z"
/>
<path fill="#ce2424" d="
  M 337.15 168.96
  Q 337.86 176.92 337.69 182.75
  Q 337.63 184.81 337.26 188.58
  Q 336.96 191.65 336.31 194.36
  Q 334.18 203.27 330.67 211.73
  Q 329.48 214.58 327.54 217.66
  Q 325.73 220.52 323.93 223.36
  C 320.39 224.06 319.27 227.07 317.73 229.67
  Q 316.15 232.35 313.93 235.00
  Q 306.69 243.62 300.72 249.05
  Q 289.24 259.49 269.40 268.20
  C 262.04 271.43 266.32 281.55 274.40 277.40
  Q 273.29 279.39 272.87 281.36
  Q 272.13 284.79 271.35 288.50
  C 256.95 290.44 242.71 290.12 228.72 285.79
  Q 230.06 285.77 230.77 285.25
  Q 231.06 285.03 231.11 284.66
  C 231.34 282.98 232.71 282.71 233.54 281.51
  Q 233.75 281.21 234.11 281.13
  Q 235.57 280.79 236.83 280.09
  Q 237.83 279.53 238.98 279.23
  Q 242.28 278.40 244.40 276.29
  Q 246.69 274.01 249.58 269.88
  Q 249.88 269.47 249.88 268.95
  Q 249.87 267.34 251.25 266.22
  Q 252.02 265.59 252.97 265.08
  Q 253.95 264.56 255.02 264.20
  Q 271.06 258.82 277.64 254.65
  Q 285.57 249.62 297.09 240.86
  Q 301.08 237.82 303.80 234.79
  Q 306.63 231.63 309.43 228.55
  C 312.28 225.42 314.21 221.74 316.74 218.39
  Q 320.87 212.94 322.02 209.78
  Q 325.15 201.24 328.04 191.37
  Q 328.76 188.92 329.73 182.09
  Q 329.80 181.56 330.24 181.25
  Q 333.06 179.26 334.61 176.48
  Q 336.50 173.08 337.15 168.96
  Z"
/>
<circle fill="#ff813c" cx="139.65" cy="208.82" r="4.65"/>
<circle fill="#fe9940" cx="369.08" cy="208.84" r="4.57"/>
<path fill="#ff813c" d="
  M 181.31 283.17
  Q 184.04 284.99 186.50 286.93
  C 187.89 288.01 188.06 290.64 186.63 291.75
  C 184.27 293.58 180.66 290.85 178.77 289.33
  Q 173.42 285.01 168.45 280.61
  Q 163.98 276.66 159.01 269.66
  Q 157.19 267.10 155.84 264.47
  Q 154.41 261.67 152.95 259.05
  Q 149.79 253.36 147.14 244.31
  Q 146.32 241.54 148.77 240.00
  Q 149.22 239.72 149.73 239.73
  Q 152.32 239.76 152.85 241.26
  C 154.06 244.62 155.45 247.92 156.50 251.34
  Q 157.74 255.34 160.07 259.14
  Q 166.76 270.05 176.46 279.29
  Q 178.73 281.45 181.31 283.17
  Z"
/>
<circle fill="#fe573e" cx="359.69" cy="244.54" r="4.46"/>
<circle fill="#fe573e" cx="341.27" cy="281.30" r="14.01"/>
<path fill="#ffbd50" d="
  M 143.77 340.68
  Q 142.52 341.72 140.78 341.89
  Q 139.33 342.03 137.93 342.97
  Q 136.23 344.11 135.37 344.42
  Q 133.02 345.26 130.52 345.93
  Q 128.30 337.95 121.69 334.56
  C 112.28 329.73 99.86 335.35 97.57 345.76
  Q 96.27 351.66 99.62 358.36
  L 88.75 367.22
  A 30.72 30.64 -75.4 0 1 86.27 362.98
  A 30.95 30.95 0.0 0 1 86.44 335.74
  A 30.94 30.92 -4.6 0 1 96.09 324.41
  A 30.95 30.94 37.7 0 1 125.25 320.67
  A 31.30 31.13 -15.0 0 1 133.41 325.35
  A 30.96 30.93 -79.1 0 1 143.77 340.68
  Z"
/>
<path fill="#fe9940" d="
  M 198.31 359.44
  A 1.40 1.40 0.0 0 0 197.97 361.58
  Q 204.07 368.50 209.17 375.05
  C 210.95 377.35 208.54 379.61 206.21 379.63
  Q 201.33 379.67 197.12 379.48
  A 2.83 2.80 72.3 0 1 194.98 378.36
  L 184.13 363.93
  Q 183.72 363.39 183.04 363.38
  L 175.00 363.30
  A 0.70 0.69 -0.4 0 0 174.30 364.00
  L 174.38 376.24
  A 3.39 3.38 -0.4 0 1 171.01 379.65
  L 163.23 379.68
  A 3.96 3.96 0.0 0 1 159.25 375.72
  L 159.24 323.95
  A 4.24 4.24 0.0 0 1 163.46 319.71
  Q 173.69 319.69 184.37 319.72
  Q 190.39 319.73 195.59 321.79
  C 211.91 328.26 213.21 350.71 198.31 359.44
  Z
  M 174.22 333.76
  L 174.30 349.12
  A 0.54 0.54 0.0 0 0 174.84 349.66
  L 185.60 349.60
  A 8.98 8.03 -0.3 0 0 194.54 341.53
  L 194.54 341.15
  A 8.98 8.03 -0.3 0 0 185.52 333.16
  L 174.76 333.22
  A 0.54 0.54 0.0 0 0 174.22 333.76
  Z"
/>
<path fill="#ff813c" d="
  M 264.70 349.04
  C 270.26 351.76 273.10 356.44 272.69 362.74
  C 272.21 370.29 266.20 376.87 259.01 378.83
  Q 255.26 379.86 249.82 379.78
  Q 237.61 379.60 226.20 379.75
  A 4.15 4.15 0.0 0 1 222.00 375.64
  Q 221.73 347.76 222.01 323.87
  C 222.03 321.51 223.87 319.77 226.17 319.76
  Q 238.57 319.71 250.75 319.74
  C 262.53 319.78 270.39 327.17 269.78 339.32
  C 269.61 342.81 267.05 345.72 264.55 347.86
  Q 263.72 348.57 264.70 349.04
  Z
  M 236.72 333.69
  L 236.78 343.37
  A 0.47 0.47 0.0 0 0 237.25 343.84
  L 250.34 343.77
  A 5.46 4.93 -0.3 0 0 255.77 338.81
  L 255.77 338.05
  A 5.46 4.93 -0.3 0 0 250.28 333.15
  L 237.19 333.22
  A 0.47 0.47 0.0 0 0 236.72 333.69
  Z
  M 236.75 356.47
  L 236.79 365.31
  A 0.67 0.67 0.0 0 0 237.46 365.98
  L 251.83 365.93
  A 6.92 4.69 -0.2 0 0 258.73 361.21
  L 258.73 360.41
  A 6.92 4.69 -0.2 0 0 251.79 355.75
  L 237.42 355.80
  A 0.67 0.67 0.0 0 0 236.75 356.47
  Z"
/>
<path fill="#ff813c" d="
  M 309.90 333.21
  A 0.53 0.52 88.9 0 0 309.40 333.74
  L 309.38 375.85
  A 3.89 3.88 -89.3 0 1 305.40 379.74
  L 298.25 379.58
  A 3.57 3.57 0.0 0 1 294.76 376.01
  L 294.73 333.72
  A 0.52 0.52 0.0 0 0 294.22 333.20
  L 282.35 333.13
  A 3.12 3.12 0.0 0 1 279.25 329.99
  L 279.27 323.34
  A 3.64 3.63 0.1 0 1 282.91 319.72
  L 320.52 319.71
  A 4.00 4.00 0.0 0 1 324.52 323.68
  Q 324.54 326.67 324.56 329.63
  C 324.57 331.61 323.03 333.27 321.00 333.20
  Q 315.13 333.02 309.90 333.21
  Z"
/>
<path fill="#fe573e" d="
  M 347.20 334.01
  L 347.28 342.78
  Q 347.29 343.52 348.03 343.52
  Q 357.55 343.47 366.90 343.59
  Q 370.28 343.64 370.61 347.08
  C 370.89 350.04 371.39 355.51 367.10 355.59
  Q 357.96 355.75 347.80 355.60
  A 0.44 0.44 0.0 0 0 347.35 356.04
  L 347.39 365.22
  Q 347.39 365.79 347.97 365.79
  L 377.54 365.81
  A 3.13 3.12 88.5 0 1 380.66 368.77
  Q 380.84 372.27 380.64 375.73
  Q 380.41 379.50 376.48 379.50
  Q 356.23 379.55 337.26 379.71
  A 4.16 4.15 -0.2 0 1 333.07 375.56
  L 333.01 323.74
  A 4.01 4.00 89.9 0 1 337.01 319.72
  L 376.71 319.70
  A 3.99 3.98 89.3 0 1 380.69 323.59
  C 380.75 326.08 381.79 333.04 377.47 333.02
  Q 363.21 332.99 348.11 333.09
  Q 347.20 333.09 347.20 334.01
  Z"
/>
<path fill="#fe573e" d="
  M 405.75 364.00
  L 405.65 376.58
  A 3.01 3.00 -90.0 0 1 402.67 379.57
  L 394.82 379.63
  A 3.56 3.56 0.0 0 1 391.23 376.07
  L 391.23 323.72
  A 4.05 4.04 0.6 0 1 395.36 319.68
  Q 403.64 319.84 412.79 319.63
  Q 421.07 319.43 425.78 321.16
  Q 435.42 324.70 438.90 334.37
  Q 441.45 341.44 438.94 348.34
  Q 436.35 355.44 429.87 359.17
  A 1.30 1.29 -35.6 0 0 429.54 361.15
  Q 435.36 367.76 440.30 374.76
  C 441.65 376.68 440.84 379.38 438.26 379.53
  Q 432.89 379.82 427.81 379.45
  Q 427.25 379.41 426.92 378.96
  L 416.07 364.50
  Q 415.25 363.40 413.87 363.38
  L 406.50 363.27
  Q 405.75 363.26 405.75 364.00
  Z
  M 405.75 333.64
  L 405.77 349.18
  A 0.42 0.42 0.0 0 0 406.19 349.60
  L 416.44 349.58
  A 9.57 8.06 -0.1 0 0 426.00 341.50
  L 426.00 341.24
  A 9.57 8.06 -0.1 0 0 416.42 333.20
  L 406.17 333.22
  A 0.42 0.42 0.0 0 0 405.75 333.64
  Z"
/>
<path fill="#ff813c" d="
  M 143.77 340.68
  A 30.95 30.93 50.3 0 1 141.66 363.63
  A 30.92 30.88 82.8 0 1 134.66 372.67
  A 30.93 30.92 25.7 0 1 112.49 380.43
  A 30.96 30.93 65.9 0 1 94.78 373.67
  A 30.93 30.92 -88.1 0 1 88.75 367.22
  L 99.62 358.36
  Q 107.52 369.00 121.72 364.42
  Q 124.38 363.56 126.39 361.14
  Q 131.85 354.56 130.52 345.93
  Q 133.02 345.26 135.37 344.42
  Q 136.23 344.11 137.93 342.97
  Q 139.33 342.03 140.78 341.89
  Q 142.52 341.72 143.77 340.68
  Z"
/>
<path fill="#fe9940" d="
  M 179.0943 405.6526
  A 6.23 5.88 87.2 0 1 172.9170 399.7172
  A 6.23 5.88 87.2 0 1 178.4857 393.2074
  A 6.23 5.88 87.2 0 1 184.6630 399.1428
  A 6.23 5.88 87.2 0 1 179.0943 405.6526
  Z
  M 179.4940 403.1745
  A 3.74 3.39 82.1 0 0 182.3378 399.0041
  A 3.74 3.39 82.1 0 0 178.4660 395.7655
  A 3.74 3.39 82.1 0 0 175.6222 399.9359
  A 3.74 3.39 82.1 0 0 179.4940 403.1745
  Z"
/>
<path fill="#fe9940" d="
  M 194.00 403.24
  Q 194.25 404.03 194.14 404.85
  Q 194.02 405.73 193.13 405.69
  L 192.54 405.66
  Q 191.72 405.62 191.71 404.79
  L 191.67 393.68
  A 0.39 0.38 0.0 0 1 192.07 393.29
  L 197.31 393.42
  Q 197.79 393.43 198.17 393.74
  Q 202.46 397.25 198.79 401.44
  Q 198.44 401.84 198.70 402.30
  L 200.08 404.73
  Q 200.53 405.53 199.62 405.64
  L 198.96 405.72
  A 1.28 1.28 0.0 0 1 197.66 404.99
  L 196.73 402.98
  Q 196.53 402.55 196.05 402.47
  Q 195.25 402.33 194.43 402.50
  A 0.58 0.57 75.6 0 0 194.00 403.24
  Z
  M 198.0196 397.1339
  A 0.83 0.83 0.0 0 0 197.1998 396.2938
  L 194.9600 396.2664
  A 0.83 0.83 0.0 0 0 194.1199 397.0862
  L 194.1004 398.6861
  A 0.83 0.83 0.0 0 0 194.9202 399.5262
  L 197.1600 399.5536
  A 0.83 0.83 0.0 0 0 198.0001 398.7338
  L 198.0196 397.1339
  Z"
/>
<path fill="#ff813c" d="
  M 214.87 402.35
  L 216.68 404.75
  Q 217.24 405.50 216.30 405.52
  L 215.00 405.53
  Q 214.26 405.55 213.84 404.92
  L 212.27 402.56
  A 1.21 1.21 0.0 0 0 210.09 402.95
  Q 209.89 403.76 210.08 404.63
  A 0.83 0.83 0.0 0 1 209.14 405.62
  L 208.38 405.50
  Q 207.63 405.38 207.63 404.62
  L 207.65 394.03
  Q 207.65 393.39 208.30 393.35
  C 210.92 393.22 214.47 392.77 216.21 395.21
  C 217.76 397.40 217.17 399.92 215.00 401.47
  Q 214.49 401.84 214.87 402.35
  Z
  M 210.14 396.40
  L 210.02 399.12
  A 0.52 0.52 0.0 0 0 210.52 399.66
  L 212.15 399.74
  A 2.29 1.63 2.5 0 0 214.51 398.21
  L 214.53 397.71
  A 2.29 1.63 2.5 0 0 212.31 395.98
  L 210.68 395.91
  A 0.52 0.52 0.0 0 0 210.14 396.40
  Z"
/>
<path fill="#ff813c" d="
  M 243.94 396.34
  L 244.12 404.92
  A 0.49 0.49 0.0 0 1 243.62 405.42
  L 242.16 405.40
  A 0.49 0.49 0.0 0 1 241.68 404.90
  L 241.83 396.27
  A 0.49 0.49 0.0 0 0 241.31 395.77
  L 239.34 395.90
  A 0.49 0.49 0.0 0 1 238.82 395.44
  L 238.72 393.88
  A 0.49 0.49 0.0 0 1 239.21 393.36
  L 247.56 393.41
  A 0.49 0.49 0.0 0 1 248.05 393.94
  L 247.90 395.42
  A 0.49 0.49 0.0 0 1 247.41 395.86
  L 244.43 395.84
  A 0.49 0.49 0.0 0 0 243.94 396.34
  Z"
/>
<path fill="#fe573e" d="
  M 257.54 400.88
  A 0.93 0.93 0.0 0 0 256.71 401.39
  Q 256.48 401.85 256.59 402.28
  Q 256.82 403.24 257.81 403.24
  L 261.82 403.22
  A 0.65 0.65 0.0 0 1 262.47 403.82
  L 262.54 404.72
  Q 262.61 405.54 261.78 405.54
  L 255.19 405.52
  A 0.84 0.83 0.3 0 1 254.36 404.69
  L 254.37 394.15
  Q 254.37 393.42 255.10 393.42
  L 261.74 393.38
  A 0.88 0.88 0.0 0 1 262.62 394.37
  L 262.47 395.51
  Q 262.39 396.15 261.74 396.15
  L 257.45 396.16
  A 0.78 0.78 0.0 0 0 256.68 397.05
  L 256.75 397.52
  Q 256.85 398.18 257.52 398.24
  L 260.55 398.50
  Q 261.29 398.56 261.24 399.30
  L 261.18 400.19
  Q 261.13 400.88 260.44 400.88
  L 257.54 400.88
  Z"
/>
<path fill="#fe573e" d="
  M 271.65 402.81
  L 271.70 404.57
  Q 271.73 405.63 270.68 405.63
  L 270.18 405.63
  Q 268.97 405.63 268.99 404.43
  L 269.13 393.99
  A 0.78 0.78 0.0 0 1 269.95 393.22
  C 273.70 393.42 279.23 393.00 278.47 398.83
  C 278.31 400.04 277.53 400.71 276.78 401.58
  A 0.82 0.81 48.8 0 0 276.72 402.55
  L 278.18 404.79
  Q 278.51 405.29 277.93 405.43
  Q 277.00 405.65 276.10 405.42
  A 1.18 1.17 -3.5 0 1 275.31 404.73
  Q 274.43 402.60 272.30 402.24
  Q 271.63 402.13 271.65 402.81
  Z
  M 271.51 397.04
  L 271.49 398.88
  A 0.68 0.68 0.0 0 0 272.17 399.57
  L 274.17 399.58
  A 1.90 1.43 0.4 0 0 276.08 398.17
  L 276.08 397.83
  A 1.90 1.43 0.4 0 0 274.19 396.38
  L 272.19 396.37
  A 0.68 0.68 0.0 0 0 271.51 397.04
  Z"
/>
<path fill="#fe573e" d="
  M 302.72 399.96
  L 302.77 404.86
  Q 302.78 405.51 302.14 405.51
  L 300.74 405.52
  Q 300.22 405.52 300.22 404.99
  L 300.31 395.71
  Q 300.36 391.25 302.91 394.91
  Q 304.92 397.78 307.39 400.25
  A 0.38 0.37 22.7 0 0 308.03 399.99
  L 308.00 394.40
  Q 308.00 393.30 309.10 393.26
  L 309.48 393.24
  A 1.00 0.99 88.9 0 1 310.51 394.24
  L 310.50 405.27
  A 0.62 0.61 3.0 0 1 309.82 405.88
  Q 309.28 405.82 308.90 405.41
  Q 306.23 402.58 303.42 399.68
  Q 302.71 398.95 302.72 399.96
  Z"
/>
<path fill="#fe573e" d="
  M 321.36 403.27
  L 325.41 403.27
  Q 326.13 403.26 326.30 403.96
  Q 326.43 404.46 326.36 404.99
  A 0.76 0.75 3.0 0 1 325.62 405.65
  L 319.22 405.74
  Q 318.17 405.76 318.18 404.71
  L 318.24 394.20
  Q 318.25 393.40 319.05 393.39
  L 325.51 393.25
  A 0.97 0.96 0.8 0 1 326.50 394.26
  L 326.46 395.06
  Q 326.41 396.02 325.44 396.00
  L 321.52 395.89
  Q 320.50 395.87 320.48 396.89
  Q 320.48 397.06 320.48 397.15
  Q 320.46 398.10 321.41 398.18
  L 324.51 398.45
  Q 325.02 398.49 325.01 399.01
  L 325.00 400.26
  Q 324.99 400.76 324.49 400.76
  L 321.39 400.76
  Q 320.53 400.76 320.50 401.61
  L 320.47 402.36
  Q 320.43 403.28 321.36 403.27
  Z"
/>
<path fill="#fe573e" d="
  M 339.06 396.47
  L 339.13 404.54
  Q 339.15 405.78 337.91 405.72
  Q 337.66 405.71 337.43 405.66
  Q 336.46 405.43 336.46 404.44
  L 336.48 396.78
  Q 336.48 396.25 335.98 396.07
  Q 335.01 395.72 333.93 395.96
  A 1.13 1.13 0.0 0 1 332.56 394.96
  L 332.51 394.49
  A 1.01 1.01 0.0 0 1 333.51 393.39
  L 341.98 393.38
  Q 343.09 393.37 342.98 394.48
  L 342.94 394.84
  Q 342.84 395.76 341.91 395.76
  L 339.78 395.75
  A 0.71 0.71 0.0 0 0 339.06 396.47
  Z"
/>
<path fill="#ff813c" d="
  M 231.68 399.43
  C 233.81 401.28 233.08 404.90 230.13 405.36
  Q 227.33 405.80 223.81 405.49
  Q 223.35 405.45 223.35 404.99
  L 223.42 394.15
  Q 223.42 393.54 224.04 393.51
  C 225.90 393.42 227.81 393.55 229.72 393.51
  C 232.27 393.46 232.52 397.42 231.60 398.93
  Q 231.43 399.21 231.68 399.43
  Z
  M 229.9171 397.3133
  A 2.24 1.50 2.9 0 0 227.7559 395.7019
  A 2.24 1.50 2.9 0 0 225.4429 397.0867
  A 2.24 1.50 2.9 0 0 227.6041 398.6981
  A 2.24 1.50 2.9 0 0 229.9171 397.3133
  Z
  M 230.3780 401.5472
  A 1.02 1.02 0.0 0 0 229.3527 400.5325
  L 226.4927 400.5475
  A 1.02 1.02 0.0 0 0 225.4781 401.5728
  L 225.4820 402.3128
  A 1.02 1.02 0.0 0 0 226.5073 403.3275
  L 229.3673 403.3125
  A 1.02 1.02 0.0 0 0 230.3819 402.2872
  L 230.3780 401.5472
  Z"
/>
<ellipse fill="#fe573e" cx="0.00" cy="0.00" transform="translate(289.71,403.69) rotate(92.6)" rx="2.30" ry="2.07"/>
</svg>
