<?xml version="1.0" encoding="UTF-8" standalone="no"?>
<svg xmlns="http://www.w3.org/2000/svg" version="1.2" baseProfile="tiny" viewBox="0.00 0.00 512.00 512.00">
<path fill="#000000" d="
  M 40.52 0.00
  L 43.54 0.00
  Q 45.57 0.82 47.35 0.00
  L 281.10 0.00
  Q 313.07 2.84 330.64 28.63
  C 338.70 40.45 341.48 53.59 341.38 68.46
  Q 341.19 98.39 341.37 126.20
  Q 341.45 139.75 331.29 146.02
  C 319.51 153.29 304.76 147.99 299.95 135.29
  Q 298.63 131.82 298.64 125.75
  Q 298.70 95.57 298.72 65.62
  C 298.72 52.81 290.31 42.75 277.00 42.74
  Q 227.62 42.70 179.81 42.68
  Q 177.74 42.68 179.72 43.26
  C 195.89 48.04 207.66 58.39 212.03 74.99
  Q 213.37 80.08 213.36 89.41
  Q 213.24 238.13 213.33 405.03
  A 0.29 0.28 -0.0 0 0 213.62 405.31
  Q 245.12 405.33 277.27 405.29
  C 289.59 405.28 298.65 395.53 298.67 383.33
  Q 298.72 337.88 298.65 300.05
  Q 298.63 289.23 305.33 283.23
  Q 315.41 274.20 328.09 278.96
  C 337.11 282.35 341.41 291.14 341.38 300.43
  Q 341.22 343.20 341.34 382.19
  Q 341.42 410.34 322.45 429.22
  Q 308.84 442.76 290.64 446.60
  Q 283.49 448.11 272.04 448.05
  Q 241.82 447.91 213.86 448.03
  Q 213.33 448.03 213.33 448.55
  Q 213.23 455.56 213.36 462.53
  Q 213.53 471.67 212.62 476.65
  C 209.06 496.36 193.18 510.39 173.14 512.00
  L 167.49 512.00
  Q 161.24 511.29 157.25 509.96
  Q 97.41 490.00 37.58 470.06
  Q 24.68 465.76 19.56 462.47
  Q 2.65 451.61 0.00 429.70
  L 0.00 40.14
  C 1.82 17.83 18.28 1.97 40.52 0.00
  Z"
/>
<path fill="#000000" d="
  M 512.00 211.29
  L 512.00 215.55
  Q 510.81 223.33 506.83 227.31
  Q 464.37 269.82 424.32 309.83
  Q 417.57 316.57 414.34 317.97
  C 402.61 323.07 389.85 317.81 385.37 306.04
  Q 383.92 302.23 383.94 295.77
  Q 384.06 263.96 383.98 235.22
  Q 383.98 234.68 383.45 234.68
  Q 341.22 234.70 299.62 234.69
  Q 287.05 234.68 280.50 224.47
  C 273.12 212.97 279.06 197.90 291.34 193.33
  Q 295.09 191.94 300.55 191.95
  Q 343.13 192.06 383.20 191.98
  A 0.79 0.79 0.0 0 0 383.99 191.19
  Q 384.02 160.25 383.98 128.25
  C 383.97 118.27 390.83 109.36 400.64 107.26
  Q 412.36 104.75 421.55 113.95
  Q 460.55 152.99 499.54 192.05
  C 506.75 199.26 510.74 202.56 512.00 211.29
  Z"
/>
</svg>
