<?xml version="1.0" encoding="UTF-8" standalone="no"?>
<svg xmlns="http://www.w3.org/2000/svg" version="1.2" baseProfile="tiny" viewBox="0.00 0.00 512.00 512.00">
<path fill="#000000" d="
  M 150.43 320.74
  L 108.87 306.55
  A 0.75 0.75 0.0 0 1 108.37 305.92
  L 103.78 262.31
  A 0.75 0.75 0.0 0 0 103.56 261.85
  L 72.30 231.07
  A 0.75 0.75 0.0 0 1 72.12 230.28
  L 86.98 188.99
  A 0.75 0.75 0.0 0 0 86.98 188.49
  L 72.12 147.19
  A 0.75 0.75 0.0 0 1 72.30 146.40
  L 103.56 115.65
  A 0.75 0.75 0.0 0 0 103.78 115.19
  L 108.38 71.56
  A 0.75 0.75 0.0 0 1 108.88 70.93
  L 150.42 56.76
  A 0.75 0.75 0.0 0 0 150.82 56.44
  L 173.87 19.04
  A 0.75 0.75 0.0 0 1 174.60 18.69
  L 218.16 23.97
  A 0.75 0.75 0.0 0 0 218.66 23.86
  L 255.64 0.26
  A 0.75 0.75 0.0 0 1 256.44 0.26
  L 293.44 23.88
  A 0.75 0.75 0.0 0 0 293.94 23.99
  L 337.45 18.75
  A 0.75 0.75 0.0 0 1 338.18 19.10
  L 361.17 56.40
  A 0.75 0.75 0.0 0 0 361.57 56.72
  L 403.12 70.89
  A 0.75 0.75 0.0 0 1 403.62 71.52
  L 408.22 115.16
  A 0.75 0.75 0.0 0 0 408.44 115.62
  L 439.71 146.39
  A 0.75 0.75 0.0 0 1 439.89 147.18
  L 425.01 188.49
  A 0.75 0.75 0.0 0 0 425.01 188.99
  L 439.88 230.30
  A 0.75 0.75 0.0 0 1 439.70 231.09
  L 408.43 261.87
  A 0.75 0.75 0.0 0 0 408.21 262.33
  L 403.62 305.96
  A 0.75 0.75 0.0 0 1 403.12 306.59
  L 361.59 320.74
  A 0.75 0.75 0.0 0 0 361.19 321.06
  L 338.17 358.39
  A 0.75 0.75 0.0 0 1 337.44 358.74
  L 293.95 353.48
  A 0.75 0.75 0.0 0 0 293.45 353.59
  L 256.44 377.23
  A 0.75 0.75 0.0 0 1 255.64 377.23
  L 218.67 353.64
  A 0.75 0.75 0.0 0 0 218.17 353.53
  L 174.60 358.78
  A 0.75 0.75 0.0 0 1 173.87 358.43
  L 150.82 321.06
  A 0.75 0.75 0.0 0 0 150.43 320.74
  Z
  M 385.39 188.74
  A 129.39 129.39 0.0 0 0 256.00 59.35
  A 129.39 129.39 0.0 0 0 126.61 188.74
  A 129.39 129.39 0.0 0 0 256.00 318.13
  A 129.39 129.39 0.0 0 0 385.39 188.74
  Z"
/>
<circle fill="#000000" cx="256.00" cy="188.73" r="99.38"/>
<path fill="#000000" d="
  M 211.49 384.66
  L 245.08 406.10
  A 0.35 0.35 0.0 0 1 245.23 406.51
  L 211.63 511.50
  A 0.35 0.35 0.0 0 1 211.08 511.66
  L 154.13 466.15
  A 0.35 0.35 0.0 0 0 153.90 466.08
  L 81.00 470.11
  A 0.35 0.35 0.0 0 1 80.64 469.66
  L 121.22 342.85
  A 0.35 0.35 0.0 0 1 121.67 342.63
  L 130.66 345.71
  A 0.35 0.35 0.0 0 1 130.85 345.86
  L 158.51 390.75
  A 0.35 0.35 0.0 0 0 158.85 390.91
  L 211.26 384.60
  A 0.35 0.35 0.0 0 1 211.49 384.66
  Z"
/>
<path fill="#000000" d="
  M 381.32 345.74
  L 390.38 342.65
  A 0.31 0.31 0.0 0 1 390.78 342.85
  L 431.34 469.63
  A 0.31 0.31 0.0 0 1 431.03 470.04
  L 358.15 466.06
  A 0.31 0.31 0.0 0 0 357.94 466.12
  L 300.88 511.73
  A 0.31 0.31 0.0 0 1 300.39 511.58
  L 266.78 406.52
  A 0.31 0.31 0.0 0 1 266.91 406.16
  L 300.67 384.61
  A 0.31 0.31 0.0 0 1 300.87 384.56
  L 353.20 390.89
  A 0.31 0.31 0.0 0 0 353.50 390.74
  L 381.15 345.87
  A 0.31 0.31 0.0 0 1 381.32 345.74
  Z"
/>
</svg>
