<?xml version="1.0" standalone="no"?>
<!DOCTYPE svg PUBLIC "-//W3C//DTD SVG 20010904//EN"
 "http://www.w3.org/TR/2001/REC-SVG-20010904/DTD/svg10.dtd">
<svg version="1.0" xmlns="http://www.w3.org/2000/svg"
 width="512.000000pt" height="512.000000pt" viewBox="0 0 512.000000 512.000000"
 preserveAspectRatio="xMidYMid meet">

<g transform="translate(0.000000,512.000000) scale(0.100000,-0.100000)"
fill="#000000" stroke="none">
<path d="M2900 4603 c-167 -16 -325 -50 -462 -99 -80 -29 -247 -110 -312 -152
-558 -360 -795 -967 -606 -1557 35 -106 96 -231 165 -335 73 -111 279 -312
400 -393 423 -280 957 -358 1442 -211 l112 34 426 -216 c463 -234 479 -240
521 -190 13 15 24 35 24 46 0 10 -79 189 -176 399 l-175 380 47 58 c95 116
178 262 228 401 95 264 95 590 0 854 -193 537 -715 917 -1343 978 -98 9 -214
11 -291 3z"/>
<path d="M1158 3391 c-326 -216 -543 -525 -619 -881 -29 -135 -31 -372 -5
-495 48 -223 158 -452 287 -599 l41 -47 -172 -372 c-94 -204 -174 -384 -177
-399 -4 -21 1 -34 25 -58 17 -16 40 -30 51 -30 11 0 218 99 460 220 439 219
440 219 473 205 19 -7 72 -23 118 -35 700 -180 1430 74 1799 624 39 60 70 111
67 113 -2 3 -39 -2 -81 -11 -43 -9 -87 -16 -99 -16 -16 0 -41 -23 -87 -82
-153 -195 -396 -359 -658 -445 -307 -100 -681 -100 -984 2 -58 19 -113 35
-122 35 -8 0 -169 -77 -356 -171 -188 -93 -342 -169 -344 -167 -2 2 57 133
131 292 74 159 134 299 134 312 0 14 -22 50 -53 86 -168 200 -252 368 -293
584 -24 130 -15 345 19 477 30 112 96 257 164 359 62 95 214 251 306 317 l74
53 7 68 c3 36 9 81 12 98 4 19 2 32 -4 32 -5 0 -57 -31 -114 -69z"/>
</g>
</svg>
