<?xml version="1.0" encoding="UTF-8" standalone="no"?>
<svg xmlns="http://www.w3.org/2000/svg" version="1.2" baseProfile="tiny" viewBox="0.00 0.00 512.00 512.00">
<path fill="#000000" d="
  M 251.60 0.00
  L 260.50 0.00
  C 336.48 3.10 395.56 64.48 395.44 140.67
  Q 395.38 179.47 395.43 211.46
  Q 395.43 212.07 396.04 212.06
  Q 405.69 212.02 415.58 212.06
  C 428.74 212.11 440.23 220.19 444.13 232.50
  Q 445.52 236.90 445.52 240.28
  Q 445.53 359.18 445.54 481.91
  C 445.54 497.93 434.24 510.26 418.24 512.00
  L 93.63 512.00
  Q 88.53 511.22 86.97 510.64
  C 74.82 506.16 66.47 495.79 66.47 482.84
  Q 66.45 363.95 66.43 241.98
  C 66.43 225.02 79.69 212.05 96.49 212.05
  Q 106.33 212.05 115.94 212.05
  Q 116.59 212.05 116.59 211.40
  Q 116.48 176.02 116.53 143.05
  Q 116.61 81.88 157.28 41.03
  Q 195.46 2.67 251.60 0.00
  Z
  M 166.97 212.05
  L 345.09 212.05
  A 0.77 0.77 0.0 0 0 345.86 211.28
  L 345.86 140.49
  A 90.76 89.78 -90.0 0 0 256.08 49.73
  L 255.98 49.73
  A 90.76 89.78 90.0 0 0 166.20 140.49
  L 166.20 211.28
  A 0.77 0.77 0.0 0 0 166.97 212.05
  Z
  M 235.44 369.55
  A 0.68 0.67 21.6 0 1 235.76 370.27
  L 224.68 423.07
  A 0.42 0.42 0.0 0 0 225.09 423.58
  L 286.79 423.58
  A 0.52 0.52 0.0 0 0 287.30 422.95
  L 276.29 370.48
  A 0.84 0.83 -23.4 0 1 276.64 369.61
  C 295.11 357.49 299.52 331.84 285.29 314.49
  C 274.35 301.16 256.81 296.98 241.00 303.61
  C 232.20 307.30 224.39 315.23 221.06 324.01
  Q 213.76 343.29 225.38 360.02
  Q 229.53 366.01 235.44 369.55
  Z"
/>
</svg>
