<?xml version="1.0" encoding="UTF-8" standalone="no"?>
<svg xmlns="http://www.w3.org/2000/svg" version="1.2" baseProfile="tiny" viewBox="0.00 0.00 500.00 500.00">
<g stroke-width="2.00" fill="none" stroke-linecap="butt">
<path stroke="#49acd3" vector-effect="non-scaling-stroke" d="
  M 489.52 343.78
  L 10.47 343.78"
/>
<path stroke="#c6c898" vector-effect="non-scaling-stroke" d="
  M 427.12 124.98
  A 10.33 10.33 0.0 0 0 416.79 114.65
  L 416.55 114.65
  A 10.33 10.33 0.0 0 0 406.22 124.98
  L 406.22 312.50
  A 10.33 10.33 0.0 0 0 416.55 322.83
  L 416.79 322.83
  A 10.33 10.33 0.0 0 0 427.12 312.50
  L 427.12 124.98"
/>
<path stroke="#49acd3" vector-effect="non-scaling-stroke" d="
  M 239.57 207.64
  A 93.77 93.76 -63.5 0 0 221.18 152.57
  A 93.73 93.72 80.6 0 0 174.24 119.00
  A 93.72 93.64 -36.2 0 0 145.77 114.59"
/>
<path stroke="#c6c898" vector-effect="non-scaling-stroke" d="
  M 145.77 114.59
  A 81.62 71.92 -5.0 0 0 134.25 115.31
  A 93.76 93.71 -68.8 0 0 84.99 137.02
  A 93.77 93.74 -19.7 0 0 52.12 206.50
  A 93.80 93.74 -63.5 0 0 72.08 266.16
  A 93.71 93.65 79.5 0 0 118.26 297.90
  A 93.70 93.55 51.9 0 0 151.25 301.89
  A 93.76 93.74 -73.4 0 0 221.14 264.14
  A 93.81 93.79 63.1 0 0 239.57 207.64"
/>
<path stroke="#7e947c" vector-effect="non-scaling-stroke" d="
  M 145.77 114.59
  Q 145.80 150.86 145.91 186.75
  C 145.95 198.91 155.47 207.68 167.50 207.65
  Q 203.11 207.55 239.57 207.64"
/>
<path stroke="#c6c898" vector-effect="non-scaling-stroke" d="
  M 385.2527 166.5619
  A 10.26 10.26 0.0 0 0 374.9748 156.3199
  L 374.6748 156.3204
  A 10.26 10.26 0.0 0 0 364.4327 166.5983
  L 364.6873 312.4781
  A 10.26 10.26 0.0 0 0 374.9652 322.7201
  L 375.2652 322.7196
  A 10.26 10.26 0.0 0 0 385.5073 312.4417
  L 385.2527 166.5619"
/>
<path stroke="#c6c898" vector-effect="non-scaling-stroke" d="
  M 343.6509 198.9019
  A 10.22 10.22 0.0 0 0 333.4130 188.6998
  L 333.0530 188.7004
  A 10.22 10.22 0.0 0 0 322.8509 198.9382
  L 323.0491 312.5181
  A 10.22 10.22 0.0 0 0 333.2870 322.7202
  L 333.6470 322.7196
  A 10.22 10.22 0.0 0 0 343.8491 312.4818
  L 343.6509 198.9019"
/>
<path stroke="#c6c898" vector-effect="non-scaling-stroke" d="
  M 302.1072 224.1282
  A 10.16 10.16 0.0 0 0 291.9649 213.9505
  L 291.5249 213.9497
  A 10.16 10.16 0.0 0 0 281.3472 224.0920
  L 281.1928 312.5518
  A 10.16 10.16 0.0 0 0 291.3351 322.7295
  L 291.7751 322.7303
  A 10.16 10.16 0.0 0 0 301.9528 312.5880
  L 302.1072 224.1282"
/>
</g>
<path fill="#91e0ef" d="
  M 489.52 343.78
  L 10.47 343.78
  Q 10.52 224.29 10.51 104.25
  C 10.51 90.67 19.26 78.61 32.28 74.44
  Q 36.31 73.14 41.20 73.14
  Q 247.25 73.04 454.27 73.08
  Q 458.33 73.08 462.45 73.31
  Q 465.63 73.48 470.53 75.49
  C 482.57 80.43 489.49 92.58 489.49 105.25
  Q 489.49 224.74 489.52 343.78
  Z
  M 427.12 124.98
  A 10.33 10.33 0.0 0 0 416.79 114.65
  L 416.55 114.65
  A 10.33 10.33 0.0 0 0 406.22 124.98
  L 406.22 312.50
  A 10.33 10.33 0.0 0 0 416.55 322.83
  L 416.79 322.83
  A 10.33 10.33 0.0 0 0 427.12 312.50
  L 427.12 124.98
  Z
  M 239.57 207.64
  A 93.77 93.76 -63.5 0 0 221.18 152.57
  A 93.73 93.72 80.6 0 0 174.24 119.00
  A 93.72 93.64 -36.2 0 0 145.77 114.59
  A 81.62 71.92 -5.0 0 0 134.25 115.31
  A 93.76 93.71 -68.8 0 0 84.99 137.02
  A 93.77 93.74 -19.7 0 0 52.12 206.50
  A 93.80 93.74 -63.5 0 0 72.08 266.16
  A 93.71 93.65 79.5 0 0 118.26 297.90
  A 93.70 93.55 51.9 0 0 151.25 301.89
  A 93.76 93.74 -73.4 0 0 221.14 264.14
  A 93.81 93.79 63.1 0 0 239.57 207.64
  Z
  M 385.2527 166.5619
  A 10.26 10.26 0.0 0 0 374.9748 156.3199
  L 374.6748 156.3204
  A 10.26 10.26 0.0 0 0 364.4327 166.5983
  L 364.6873 312.4781
  A 10.26 10.26 0.0 0 0 374.9652 322.7201
  L 375.2652 322.7196
  A 10.26 10.26 0.0 0 0 385.5073 312.4417
  L 385.2527 166.5619
  Z
  M 343.6509 198.9019
  A 10.22 10.22 0.0 0 0 333.4130 188.6998
  L 333.0530 188.7004
  A 10.22 10.22 0.0 0 0 322.8509 198.9382
  L 323.0491 312.5181
  A 10.22 10.22 0.0 0 0 333.2870 322.7202
  L 333.6470 322.7196
  A 10.22 10.22 0.0 0 0 343.8491 312.4818
  L 343.6509 198.9019
  Z
  M 302.1072 224.1282
  A 10.16 10.16 0.0 0 0 291.9649 213.9505
  L 291.5249 213.9497
  A 10.16 10.16 0.0 0 0 281.3472 224.0920
  L 281.1928 312.5518
  A 10.16 10.16 0.0 0 0 291.3351 322.7295
  L 291.7751 322.7303
  A 10.16 10.16 0.0 0 0 301.9528 312.5880
  L 302.1072 224.1282
  Z"
/>
<rect fill="#fbaf41" x="406.22" y="114.65" width="20.90" height="208.18" rx="10.33"/>
<path fill="#fbaf41" d="
  M 145.77 114.59
  Q 145.80 150.86 145.91 186.75
  C 145.95 198.91 155.47 207.68 167.50 207.65
  Q 203.11 207.55 239.57 207.64
  A 93.81 93.79 63.1 0 1 221.14 264.14
  A 93.76 93.74 -73.4 0 1 151.25 301.89
  A 93.70 93.55 51.9 0 1 118.26 297.90
  A 93.71 93.65 79.5 0 1 72.08 266.16
  A 93.80 93.74 -63.5 0 1 52.12 206.50
  A 93.77 93.74 -19.7 0 1 84.99 137.02
  A 93.76 93.71 -68.8 0 1 134.25 115.31
  A 81.62 71.92 -5.0 0 1 145.77 114.59
  Z"
/>
<path fill="#0078b7" d="
  M 145.77 114.59
  A 93.72 93.64 -36.2 0 1 174.24 119.00
  A 93.73 93.72 80.6 0 1 221.18 152.57
  A 93.77 93.76 -63.5 0 1 239.57 207.64
  Q 203.11 207.55 167.50 207.65
  C 155.47 207.68 145.95 198.91 145.91 186.75
  Q 145.80 150.86 145.77 114.59
  Z"
/>
<rect fill="#fbaf41" x="-10.41" y="-83.20" transform="translate(374.97,239.52) rotate(-0.1)" width="20.82" height="166.40" rx="10.26"/>
<rect fill="#fbaf41" x="-10.40" y="-67.01" transform="translate(333.35,255.71) rotate(-0.1)" width="20.80" height="134.02" rx="10.22"/>
<rect fill="#fbaf41" x="-10.38" y="-54.39" transform="translate(291.65,268.34) rotate(0.1)" width="20.76" height="108.78" rx="10.16"/>
<path fill="#0078b7" d="
  M 489.52 343.78
  Q 489.84 370.40 489.67 397.00
  Q 489.63 401.85 489.22 406.25
  C 488.43 414.51 483.10 422.39 475.08 425.60
  Q 471.82 426.90 467.36 426.96
  Q 463.58 427.01 459.50 427.01
  Q 381.09 427.06 299.37 427.04
  Q 298.04 427.04 298.63 428.24
  L 318.54 468.27
  A 1.19 1.18 -12.6 0 0 319.59 468.93
  Q 330.56 469.02 343.16 468.92
  C 357.56 468.81 357.33 489.37 343.59 489.37
  Q 247.02 489.39 156.36 489.35
  C 145.75 489.35 141.84 474.86 151.55 470.06
  Q 153.98 468.86 157.39 468.90
  Q 169.55 469.07 180.39 468.91
  Q 181.16 468.90 181.51 468.21
  L 201.27 428.45
  Q 201.96 427.05 200.40 427.05
  Q 123.08 427.00 45.00 426.96
  Q 38.75 426.95 32.37 426.87
  Q 27.66 426.81 24.84 425.55
  Q 13.81 420.62 11.33 408.85
  Q 10.25 403.71 10.23 394.50
  Q 10.17 369.41 10.47 343.78
  L 489.52 343.78
  Z
  M 294.94 468.97
  A 0.59 0.59 0.0 0 0 295.47 468.12
  L 275.05 427.39
  A 0.59 0.59 0.0 0 0 274.53 427.06
  L 225.48 427.05
  A 0.59 0.59 0.0 0 0 224.96 427.38
  L 204.53 468.11
  A 0.59 0.59 0.0 0 0 205.06 468.96
  L 294.94 468.97
  Z"
/>
</svg>
