<?xml version="1.0" encoding="UTF-8" standalone="no"?>
<svg xmlns="http://www.w3.org/2000/svg" version="1.2" baseProfile="tiny" viewBox="0.00 0.00 500.00 500.00">
<g stroke-width="2.00" fill="none" stroke-linecap="butt">
<path stroke="#8a1312" vector-effect="non-scaling-stroke" d="
  M 341.49 469.48
  Q 346.28 462.68 349.05 457.52
  Q 356.23 444.13 353.91 428.80"
/>
<path stroke="#9f2621" vector-effect="non-scaling-stroke" d="
  M 353.91 428.80
  Q 351.40 417.30 344.12 407.90
  Q 334.73 395.78 324.11 385.31"
/>
<path stroke="#8a1312" vector-effect="non-scaling-stroke" d="
  M 324.11 385.31
  L 319.89 380.58"
/>
<path stroke="#9f2621" vector-effect="non-scaling-stroke" d="
  M 319.89 380.58
  L 315.40 375.80
  Q 315.05 375.43 314.55 375.49
  C 304.19 376.71 292.49 374.17 283.46 370.01
  C 277.37 367.20 270.86 364.38 265.33 361.04
  Q 250.01 351.79 236.99 340.41"
/>
<path stroke="#8a1312" vector-effect="non-scaling-stroke" d="
  M 236.99 340.41
  L 226.34 330.39
  A 0.48 0.48 0.0 0 0 225.69 330.39
  Q 221.83 333.86 216.98 335.93
  Q 208.04 339.74 198.99 341.23"
/>
<path stroke="#9f2621" vector-effect="non-scaling-stroke" d="
  M 198.99 341.23
  Q 195.57 341.13 194.28 342.03
  Q 192.36 343.38 190.24 346.80
  Q 181.80 360.48 178.32 376.29"
/>
<path stroke="#8a1312" vector-effect="non-scaling-stroke" d="
  M 178.32 376.29
  Q 173.56 403.28 176.00 430.74
  Q 176.00 430.82 176.00 431.77
  Q 176.00 433.65 178.24 434.28
  Q 187.29 436.86 190.51 437.29"
/>
<path stroke="#9f2621" vector-effect="non-scaling-stroke" d="
  M 190.51 437.29
  C 211.95 440.50 234.38 440.53 255.25 434.88
  A 0.75 0.75 0.0 0 0 255.81 434.13
  Q 255.17 413.42 253.80 392.18
  Q 253.65 389.94 252.84 387.69
  Q 252.76 387.46 252.98 387.36
  L 253.30 387.22
  Q 253.39 387.19 253.44 387.27
  Q 255.67 390.97 257.89 395.03
  C 260.05 398.99 260.82 404.05 261.91 408.42
  Q 262.14 409.35 262.35 408.41
  Q 264.32 399.67 265.32 391.45
  Q 265.58 389.31 266.24 391.36
  Q 269.06 400.11 268.13 410.12"
/>
<path stroke="#8a1312" vector-effect="non-scaling-stroke" d="
  M 268.13 410.12
  Q 266.94 418.83 264.40 426.95
  Q 263.25 430.61 263.24 432.99
  Q 263.22 436.29 263.09 439.66
  A 1.76 1.74 81.2 0 1 261.95 441.23
  L 259.99 441.95
  A 1.83 1.83 0.0 0 0 258.79 443.56
  L 257.35 469.49"
/>
<path stroke="#9f624a" vector-effect="non-scaling-stroke" d="
  M 249.16 469.51
  L 250.11 449.79"
/>
<path stroke="#9a3f2f" vector-effect="non-scaling-stroke" d="
  M 250.11 449.79
  L 250.11 445.63
  Q 250.11 445.02 249.52 445.16
  Q 241.95 446.84 235.96 447.17
  Q 220.13 448.03 201.42 447.14
  Q 192.85 446.73 183.00 444.59
  Q 182.44 444.47 182.51 445.04
  L 185.54 469.54"
/>
<path stroke="#eb2c32" vector-effect="non-scaling-stroke" d="
  M 319.89 380.58
  Q 307.85 382.06 296.00 378.54
  Q 284.71 375.18 275.03 369.29
  C 269.63 366.00 265.22 363.72 260.29 360.96
  Q 259.40 360.46 258.93 361.36
  Q 258.54 362.13 259.10 362.79
  Q 260.43 364.35 262.16 365.64
  C 273.49 374.12 285.42 380.84 299.04 384.61
  C 306.71 386.74 316.59 386.64 324.11 385.31"
/>
<path stroke="#eb2c32" vector-effect="non-scaling-stroke" d="
  M 353.91 428.80
  Q 345.01 440.73 331.73 443.97
  Q 318.28 447.24 306.20 443.78
  Q 279.96 436.28 268.13 410.12"
/>
<path stroke="#eb2c32" vector-effect="non-scaling-stroke" d="
  M 236.99 340.41
  Q 230.68 342.61 224.44 344.25
  C 221.09 345.13 218.48 346.37 215.85 348.44
  Q 214.78 349.29 216.14 349.26
  C 224.92 349.11 234.13 352.07 240.14 358.63
  C 244.71 363.63 248.55 367.68 251.58 374.15
  Q 252.21 375.48 252.32 376.76
  Q 252.55 379.55 251.01 377.21
  C 248.19 372.95 245.74 368.52 241.96 365.06
  Q 239.36 362.68 236.97 360.46
  C 232.46 356.26 224.77 353.05 218.55 353.16
  C 210.40 353.31 202.58 358.98 198.52 365.38
  Q 192.42 374.99 190.36 387.75
  Q 186.70 410.44 190.51 437.29"
/>
<path stroke="#eb2c32" vector-effect="non-scaling-stroke" d="
  M 178.32 376.29
  Q 178.71 376.74 179.07 376.64
  Q 179.40 376.55 179.52 376.25
  C 183.54 365.95 189.12 357.56 195.47 348.20
  Q 196.58 346.56 198.99 341.23"
/>
<path stroke="#fa9478" vector-effect="non-scaling-stroke" d="
  M 250.11 449.79
  Q 250.17 449.38 250.12 449.13
  Q 249.98 448.52 249.52 448.94
  Q 248.47 449.89 247.05 450.19
  C 231.01 453.61 214.41 452.97 197.92 451.78
  A 0.70 0.70 0.0 0 0 197.16 452.54
  L 198.48 469.49"
/>
<path stroke="#874b32" vector-effect="non-scaling-stroke" d="
  M 146.01 220.70
  Q 152.82 215.50 156.16 209.16
  Q 165.61 191.25 170.65 167.19"
/>
<path stroke="#9a6e53" vector-effect="non-scaling-stroke" d="
  M 170.65 167.19
  Q 171.18 174.62 171.21 180.01
  Q 171.30 195.58 164.53 209.54
  Q 161.10 216.61 158.42 219.73
  C 156.96 221.41 156.24 223.61 154.90 225.13
  Q 151.15 229.36 150.53 231.19"
/>
<path stroke="#9f8680" vector-effect="non-scaling-stroke" d="
  M 150.53 231.19
  Q 140.73 240.95 137.47 250.97
  C 134.36 260.50 133.41 274.99 139.27 284.12"
/>
<path stroke="#874b32" vector-effect="non-scaling-stroke" d="
  M 139.27 284.12
  Q 142.45 290.22 147.96 294.82
  Q 148.84 295.55 148.49 294.46
  C 144.80 282.92 145.68 268.76 152.51 258.12
  C 156.86 251.33 161.68 245.92 169.02 242.34
  Q 169.11 242.29 169.05 242.37
  Q 164.47 248.69 160.64 255.89
  Q 157.11 262.54 155.93 268.92
  Q 154.21 278.19 155.21 285.67
  Q 155.92 291.03 157.05 296.39
  C 159.51 308.11 149.20 316.26 138.74 318.34
  Q 138.09 318.46 138.61 318.87
  Q 141.57 321.17 144.54 322.15
  Q 154.45 325.44 165.86 322.39
  Q 168.71 321.64 171.26 320.01
  Q 174.30 318.07 172.03 320.87
  C 169.73 323.71 166.18 325.72 162.33 326.39
  Q 159.99 326.80 162.19 327.68
  C 170.62 331.03 177.91 327.87 184.63 322.47
  Q 188.51 319.35 191.07 314.91
  Q 191.23 314.63 190.96 314.45
  Q 182.23 308.87 178.21 299.09"
/>
<path stroke="#9a6e53" vector-effect="non-scaling-stroke" d="
  M 178.21 299.09
  Q 176.91 291.15 177.25 284.25
  Q 177.99 269.55 188.94 260.17"
/>
<path stroke="#874b32" vector-effect="non-scaling-stroke" d="
  M 188.94 260.17
  L 192.83 258.47
  Q 193.79 258.05 193.21 258.92
  Q 184.86 271.51 184.94 286.61
  Q 185.02 303.02 198.71 312.69
  Q 199.20 313.04 199.78 313.19
  Q 199.94 313.22 200.09 313.25
  Q 200.79 313.35 200.54 314.00
  Q 196.01 326.14 184.70 332.33
  Q 183.71 332.87 184.83 332.98
  C 202.26 334.75 219.31 328.37 228.65 313.36
  Q 236.84 300.18 235.52 282.74
  Q 234.61 270.68 231.47 261.13"
/>
<path stroke="#9a6e53" vector-effect="non-scaling-stroke" d="
  M 231.47 261.13
  L 229.64 252.77"
/>
<path stroke="#8f5c41" vector-effect="non-scaling-stroke" d="
  M 229.64 252.77
  Q 230.05 253.02 230.27 252.68"
/>
<path stroke="#9a6e53" vector-effect="non-scaling-stroke" d="
  M 230.27 252.68
  L 237.38 262.36"
/>
<path stroke="#874b32" vector-effect="non-scaling-stroke" d="
  M 237.38 262.36
  Q 239.23 267.57 241.51 275.50
  Q 243.45 282.26 243.65 288.46"
/>
<path stroke="#803f27" vector-effect="non-scaling-stroke" d="
  M 243.65 288.46
  Q 242.71 300.56 239.20 310.75
  Q 237.31 316.22 232.89 321.11
  Q 232.55 321.49 233.05 321.39
  Q 237.10 320.53 239.11 318.99"
/>
<path stroke="#874b32" vector-effect="non-scaling-stroke" d="
  M 239.11 318.99
  Q 244.71 316.06 247.95 312.29"
/>
<path stroke="#9a6e53" vector-effect="non-scaling-stroke" d="
  M 247.95 312.29
  Q 253.83 305.09 255.38 297.38
  Q 257.56 286.45 255.44 274.63"
/>
<path stroke="#803f27" vector-effect="non-scaling-stroke" d="
  M 255.44 274.63
  Q 255.93 272.26 255.78 270.24
  Q 254.80 257.67 251.82 241.75
  Q 251.38 239.44 250.78 237.09
  Q 250.66 236.63 250.19 236.58
  C 238.33 235.30 226.96 226.78 219.89 217.63
  Q 217.52 214.57 213.22 204.99"
/>
<path stroke="#9a6e53" vector-effect="non-scaling-stroke" d="
  M 213.22 204.99
  C 209.75 191.91 212.93 177.45 224.55 169.58"
/>
<path stroke="#8f5c41" vector-effect="non-scaling-stroke" d="
  M 224.55 169.58
  Q 230.64 166.38 234.50 166.01
  Q 244.85 164.99 255.00 161.83
  C 259.03 160.57 262.73 158.66 266.66 157.23
  Q 271.00 155.65 275.14 153.32
  Q 292.73 143.43 307.77 129.23"
/>
<path stroke="#9f785f" vector-effect="non-scaling-stroke" d="
  M 307.77 129.23
  Q 302.99 136.07 299.27 140.50
  Q 290.59 150.82 278.68 158.31"
/>
<path stroke="#874b32" vector-effect="non-scaling-stroke" d="
  M 278.68 158.31
  L 267.17 164.51
  Q 266.03 165.12 267.30 164.87
  Q 271.56 164.00 275.93 162.67
  C 281.75 160.89 287.55 158.12 293.28 155.85
  Q 296.65 154.52 301.07 151.09
  Q 311.02 143.38 318.43 134.48
  Q 322.33 129.79 324.22 125.30"
/>
<path stroke="#9f785f" vector-effect="non-scaling-stroke" d="
  M 324.22 125.30
  L 328.82 115.51"
/>
<path stroke="#9a6e53" vector-effect="non-scaling-stroke" d="
  M 328.82 115.51
  C 333.14 104.58 334.08 89.96 323.81 82.05"
/>
<path stroke="#803f27" vector-effect="non-scaling-stroke" d="
  M 323.81 82.05
  Q 323.31 81.33 324.24 81.45"
/>
<path stroke="#874b32" vector-effect="non-scaling-stroke" d="
  M 324.24 81.45
  Q 331.09 84.49 337.03 88.68"
/>
<path stroke="#9a6e53" vector-effect="non-scaling-stroke" d="
  M 337.03 88.68
  L 339.09 92.05
  Q 339.35 92.47 339.84 92.38
  Q 341.69 92.00 343.51 91.60
  Q 355.21 89.06 365.06 93.34"
/>
<path stroke="#874b32" vector-effect="non-scaling-stroke" d="
  M 365.06 93.34
  Q 365.86 95.11 367.53 96.50
  Q 370.33 98.84 370.52 99.04
  Q 375.24 104.21 376.96 111.32"
/>
<path stroke="#803f27" vector-effect="non-scaling-stroke" d="
  M 376.96 111.32
  L 376.86 113.67
  Q 376.76 115.88 375.71 113.94
  C 371.87 106.88 367.42 101.37 359.52 99.12
  Q 358.05 98.70 359.11 99.81
  C 363.21 104.10 365.55 109.54 367.74 114.84
  C 372.15 125.53 372.16 136.89 369.99 148.41
  Q 369.85 149.16 370.38 148.61
  Q 373.55 145.41 374.47 142.61"
/>
<path stroke="#874b32" vector-effect="non-scaling-stroke" d="
  M 374.47 142.61
  Q 382.28 132.07 382.87 120.49"
/>
<path stroke="#9a6e53" vector-effect="non-scaling-stroke" d="
  M 382.87 120.49
  Q 384.92 106.87 379.53 95.85"
/>
<path stroke="#9f8680" vector-effect="non-scaling-stroke" d="
  M 379.53 95.85
  Q 376.84 90.41 373.03 86.96
  Q 365.57 80.20 356.40 81.16"
/>
<path stroke="#874b32" vector-effect="non-scaling-stroke" d="
  M 356.40 81.16
  Q 355.18 76.22 352.11 72.77"
/>
<path stroke="#9f8680" vector-effect="non-scaling-stroke" d="
  M 352.11 72.77
  Q 347.30 67.88 342.95 65.57
  Q 334.09 60.87 323.14 64.75"
/>
<path stroke="#9a6e53" vector-effect="non-scaling-stroke" d="
  M 323.14 64.75
  L 316.24 68.51"
/>
<path stroke="#803f27" vector-effect="non-scaling-stroke" d="
  M 316.24 68.51
  Q 312.91 70.50 309.38 73.40
  Q 309.21 74.05 308.10 73.92"
/>
<path stroke="#874b32" vector-effect="non-scaling-stroke" d="
  M 308.10 73.92
  L 308.38 66.37"
/>
<path stroke="#9a6e53" vector-effect="non-scaling-stroke" d="
  M 308.38 66.37
  Q 307.01 61.89 303.43 58.05"
/>
<path stroke="#9f8680" vector-effect="non-scaling-stroke" d="
  M 303.43 58.05
  Q 294.32 49.94 281.51 47.45
  Q 258.52 42.98 234.75 47.99
  C 225.40 49.96 215.25 52.68 206.53 56.59
  Q 200.05 59.50 192.67 64.25
  Q 183.02 70.48 179.63 73.39
  Q 174.79 77.54 166.26 87.43
  Q 159.36 95.43 155.37 102.60
  Q 145.52 120.32 142.12 137.48
  Q 137.65 160.00 143.23 182.82
  Q 144.45 187.81 145.74 192.44
  C 148.00 200.59 147.83 207.39 144.37 214.81
  C 142.19 219.48 138.86 223.52 135.30 227.51
  Q 134.70 228.18 135.52 227.82
  Q 141.46 225.17 146.01 220.70"
/>
<path stroke="#fbe7d2" vector-effect="non-scaling-stroke" d="
  M 303.43 58.05
  Q 292.60 53.38 286.74 52.84
  Q 257.42 50.14 229.93 58.50
  C 217.01 62.42 203.59 68.57 191.05 73.97
  C 181.05 78.27 174.33 85.36 166.76 93.57
  C 163.73 96.85 160.98 100.55 158.87 104.39
  Q 156.51 108.69 153.44 115.88"
/>
<path stroke="#e7c4b1" vector-effect="non-scaling-stroke" d="
  M 153.44 115.88
  Q 141.16 144.97 145.03 175.99
  Q 145.62 180.72 148.14 192.76
  C 148.64 195.13 148.72 198.05 149.36 200.78"
/>
<path stroke="#fbe7d2" vector-effect="non-scaling-stroke" d="
  M 149.36 200.78
  L 149.62 213.83"
/>
<path stroke="#e7c4b1" vector-effect="non-scaling-stroke" d="
  M 149.62 213.83
  Q 147.15 217.02 146.01 220.70"
/>
<path stroke="#e3ac84" vector-effect="non-scaling-stroke" d="
  M 308.38 66.37
  Q 306.37 63.58 305.01 62.71
  Q 297.30 57.76 287.50 57.22
  C 272.24 56.36 255.83 59.91 247.29 73.02
  Q 246.57 74.13 247.84 73.78
  Q 255.10 71.83 261.85 70.04
  C 268.34 68.32 275.71 67.71 282.33 67.69
  Q 295.48 67.64 307.27 73.81
  Q 308.13 74.26 308.10 73.92"
/>
<path stroke="#dc9f79" vector-effect="non-scaling-stroke" d="
  M 308.10 73.92
  Q 308.17 74.03 308.23 74.14
  Q 308.25 74.18 308.30 74.20
  Q 316.47 76.90 323.81 82.05"
/>
<path stroke="#fbd9b1" vector-effect="non-scaling-stroke" d="
  M 328.82 115.51
  Q 328.37 114.66 328.36 113.86
  Q 328.36 113.42 328.14 113.80
  Q 328.04 113.96 327.90 113.84
  Q 327.79 113.74 327.75 113.61
  Q 327.39 112.38 328.05 111.57
  Q 328.14 111.46 328.02 111.41
  Q 327.40 111.14 327.22 110.46
  C 326.80 108.91 325.00 108.04 323.66 109.13
  Q 322.96 109.70 322.11 109.84
  Q 321.68 109.91 321.42 110.24
  L 313.72 120.05"
/>
<path stroke="#ebbc93" vector-effect="non-scaling-stroke" d="
  M 313.72 120.05
  Q 314.09 119.14 313.99 118.55
  Q 313.87 117.83 313.29 118.27
  C 312.58 118.81 312.09 119.11 311.61 119.92
  Q 310.94 121.08 309.75 121.68"
/>
<path stroke="#fbd9b1" vector-effect="non-scaling-stroke" d="
  M 309.75 121.68
  Q 312.34 117.78 315.46 114.48
  Q 316.84 113.02 317.21 111.58
  Q 317.59 110.13 318.44 108.83
  A 0.72 0.71 27.6 0 0 318.10 107.77
  Q 317.26 107.43 317.08 106.54
  Q 316.95 105.87 316.27 105.78
  C 315.07 105.62 314.80 104.65 313.90 104.20
  Q 312.05 103.30 309.94 102.67
  A 1.13 1.13 0.0 0 1 309.31 102.17
  Q 308.97 101.56 308.29 101.27
  A 3.22 2.45 16.6 0 1 306.27 98.50
  Q 306.39 97.34 304.56 97.03"
/>
<path stroke="#ebbc93" vector-effect="non-scaling-stroke" d="
  M 304.56 97.03
  Q 307.06 92.58 308.01 89.72
  Q 309.31 85.80 306.77 89.05
  Q 301.55 95.72 294.60 102.07"
/>
<path stroke="#fbd9b1" vector-effect="non-scaling-stroke" d="
  M 294.60 102.07
  L 294.83 100.75
  A 1.23 1.23 0.0 0 0 293.07 99.43
  Q 291.35 100.28 289.48 101.59
  Q 287.69 102.85 287.85 104.63
  A 1.40 1.40 0.0 0 0 290.30 105.42
  Q 290.63 105.04 291.53 104.88"
/>
<path stroke="#ebbc93" vector-effect="non-scaling-stroke" d="
  M 291.53 104.88
  Q 289.61 107.08 287.67 109.18
  Q 285.37 111.65 275.75 118.87
  Q 274.79 119.59 273.86 121.36
  Q 273.62 121.81 273.87 122.26
  Q 274.23 122.92 274.96 123.16
  Q 275.45 123.31 275.84 122.98
  Q 278.01 121.18 280.62 121.01"
/>
<path stroke="#fbd9b1" vector-effect="non-scaling-stroke" d="
  M 280.62 121.01
  Q 269.80 128.38 258.12 134.43
  C 255.17 135.96 251.83 136.68 248.77 138.10
  Q 240.05 142.15 232.09 144.22
  Q 223.06 146.58 214.22 148.02
  C 208.24 148.99 202.20 148.61 196.08 148.69
  Q 193.84 148.72 191.80 148.20
  Q 189.86 147.70 187.69 146.88
  Q 187.03 146.63 186.50 146.96
  Q 185.91 147.33 186.44 147.79
  Q 192.45 153.04 200.60 155.64"
/>
<path stroke="#ebbc93" vector-effect="non-scaling-stroke" d="
  M 200.60 155.64
  Q 199.68 155.45 199.24 155.56
  Q 198.52 155.74 199.16 156.11
  Q 201.95 157.75 204.48 159.70
  Q 207.00 161.64 210.07 163.15
  Q 215.24 165.69 220.33 168.53
  C 221.21 169.02 222.26 169.15 223.24 168.94
  Q 224.46 168.69 224.55 169.58"
/>
<path stroke="#dc9f79" vector-effect="non-scaling-stroke" d="
  M 213.22 204.99
  Q 212.87 210.79 215.20 216.50
  Q 218.16 223.78 219.15 225.59
  Q 223.49 233.53 229.93 239.73"
/>
<path stroke="#e3ac84" vector-effect="non-scaling-stroke" d="
  M 229.93 239.73
  L 249.02 261.14"
/>
<path stroke="#dc9f79" vector-effect="non-scaling-stroke" d="
  M 249.02 261.14
  L 255.44 274.63"
/>
<path stroke="#e3ac84" vector-effect="non-scaling-stroke" d="
  M 247.95 312.29
  Q 247.02 312.38 248.01 310.95
  Q 250.80 306.91 251.27 302.01
  Q 252.25 291.88 248.35 282.54
  Q 243.92 271.89 237.38 262.36"
/>
<path stroke="#ebbc93" vector-effect="non-scaling-stroke" d="
  M 230.27 252.68
  Q 229.53 250.12 228.49 247.80
  Q 228.05 246.80 228.24 247.88
  Q 228.67 250.19 229.64 252.77"
/>
<path stroke="#e3ac84" vector-effect="non-scaling-stroke" d="
  M 231.47 261.13
  Q 231.83 273.98 231.67 277.99
  Q 231.25 289.14 225.78 300.19
  Q 223.55 304.70 218.29 310.16
  Q 217.78 310.69 217.91 309.96
  Q 220.54 295.44 217.40 281.75
  C 214.77 270.27 209.99 259.13 205.59 248.15
  C 204.93 246.51 204.62 244.77 203.97 243.13
  Q 198.40 229.10 196.79 214.64
  Q 196.76 214.40 196.52 214.42
  L 196.51 214.42
  Q 196.28 214.44 196.30 214.68
  Q 197.13 226.06 197.13 237.50
  Q 197.13 249.09 188.94 260.17"
/>
<path stroke="#e3ac84" vector-effect="non-scaling-stroke" d="
  M 178.21 299.09
  Q 177.14 299.08 176.48 296.89
  Q 176.08 295.55 175.44 294.42
  C 169.87 284.66 168.92 272.41 172.26 261.85
  Q 176.02 249.98 181.59 236.64
  Q 188.48 220.14 190.32 198.00
  Q 190.43 196.73 190.67 195.60
  Q 190.92 194.45 190.89 193.30
  Q 190.81 190.79 190.07 193.19
  C 188.01 199.87 185.44 206.32 181.68 212.38
  Q 176.97 219.95 175.05 222.23
  Q 166.32 232.60 154.08 242.57
  Q 150.98 245.09 142.47 255.59"
/>
<path stroke="#fbe7d2" vector-effect="non-scaling-stroke" d="
  M 142.47 255.59
  Q 143.85 243.59 150.53 231.19"
/>
<path stroke="#e3ac84" vector-effect="non-scaling-stroke" d="
  M 170.65 167.19
  Q 170.99 157.69 171.70 146.17
  Q 171.71 146.11 171.77 146.13
  Q 171.78 146.13 171.61 146.12
  Q 171.53 146.12 171.52 146.19
  Q 167.81 168.73 165.72 175.58
  Q 162.33 186.69 159.55 193.33
  Q 158.01 197.00 156.47 200.96
  C 154.67 205.59 152.23 209.66 149.62 213.83"
/>
<path stroke="#e3ac84" vector-effect="non-scaling-stroke" d="
  M 149.36 200.78
  Q 153.11 190.01 152.13 178.75
  Q 150.63 161.50 150.29 156.75
  Q 149.07 139.77 152.64 122.01
  Q 152.70 121.71 153.61 119.09
  Q 154.25 117.25 153.44 115.88"
/>
<path stroke="#e7c4b1" vector-effect="non-scaling-stroke" d="
  M 139.27 284.12
  Q 135.85 268.84 142.47 255.59"
/>
<path stroke="#efc79f" vector-effect="non-scaling-stroke" d="
  M 304.56 97.03
  C 301.96 102.26 297.38 106.50 293.16 110.48
  Q 291.23 112.30 287.23 115.31
  Q 283.74 117.94 280.62 121.01"
/>
<path stroke="#efc79f" vector-effect="non-scaling-stroke" d="
  M 291.53 104.88
  L 294.60 102.07"
/>
<path stroke="#efc79f" vector-effect="non-scaling-stroke" d="
  M 309.75 121.68
  Q 306.29 124.91 303.13 128.62
  Q 301.01 131.09 295.08 134.61
  C 288.77 138.34 282.95 142.36 276.34 145.57
  C 264.08 151.52 250.20 155.84 236.15 157.16
  Q 226.01 158.11 218.25 157.81
  Q 211.06 157.52 200.60 155.64"
/>
<path stroke="#c87d58" vector-effect="non-scaling-stroke" d="
  M 239.11 318.99
  Q 241.22 313.22 242.74 308.24
  Q 245.72 298.45 243.65 288.46"
/>
<path stroke="#e7b690" vector-effect="non-scaling-stroke" d="
  M 324.22 125.30
  Q 313.13 137.54 300.04 147.52
  Q 294.66 151.63 293.02 152.52
  Q 286.89 155.85 280.82 159.24
  Q 280.14 159.61 279.56 159.52
  Q 278.37 159.33 278.68 158.31"
/>
<path stroke="#efc79f" vector-effect="non-scaling-stroke" d="
  M 307.77 129.23
  L 313.72 120.05"
/>
<path stroke="#c87d58" vector-effect="non-scaling-stroke" d="
  M 249.02 261.14
  Q 246.94 254.02 243.71 247.66
  C 243.10 246.46 242.08 245.34 241.00 244.73
  Q 236.27 242.07 229.93 239.73"
/>
<path stroke="#c87d58" vector-effect="non-scaling-stroke" d="
  M 323.31 75.02
  Q 323.04 75.86 322.59 76.60
  Q 320.63 79.82 324.24 81.45"
/>
<path stroke="#e3ac84" vector-effect="non-scaling-stroke" d="
  M 346.34 72.85
  Q 336.61 75.39 329.59 79.42
  Q 329.03 79.74 329.38 79.20
  Q 332.35 74.58 336.24 71.56
  Q 337.70 70.43 335.87 70.68
  Q 328.98 71.63 324.18 75.57
  A 0.56 0.56 0.0 0 1 323.38 75.47
  Q 323.37 75.46 323.31 75.02"
/>
<path stroke="#dc9f79" vector-effect="non-scaling-stroke" d="
  M 323.31 75.02
  Q 322.61 69.33 316.24 68.51"
/>
<path stroke="#e7c4b1" vector-effect="non-scaling-stroke" d="
  M 356.40 81.16
  Q 347.57 82.27 341.12 87.00"
/>
<path stroke="#e3ac84" vector-effect="non-scaling-stroke" d="
  M 341.12 87.00
  L 337.03 88.68"
/>
<path stroke="#e7c4b1" vector-effect="non-scaling-stroke" d="
  M 352.11 72.77
  L 346.34 72.85"
/>
<path stroke="#fbe7d2" vector-effect="non-scaling-stroke" d="
  M 346.34 72.85
  Q 342.02 68.62 335.00 68.25
  Q 334.50 68.22 334.07 67.97
  Q 329.88 65.50 323.14 64.75"
/>
<path stroke="#e3ac84" vector-effect="non-scaling-stroke" d="
  M 382.87 120.49
  Q 381.60 112.60 379.93 108.01
  Q 376.22 97.83 365.06 93.34"
/>
<path stroke="#fbe7d2" vector-effect="non-scaling-stroke" d="
  M 379.53 95.85
  Q 376.21 93.62 373.24 91.28
  Q 369.31 88.17 366.79 87.07
  Q 354.65 81.79 341.12 87.00"
/>
<path stroke="#c87d58" vector-effect="non-scaling-stroke" d="
  M 374.47 142.61
  Q 378.42 132.13 378.27 122.00
  Q 378.17 115.75 376.96 111.32"
/>
<path stroke="#9f624a" vector-effect="non-scaling-stroke" d="
  M 328.52 143.37
  C 336.05 142.35 342.94 142.63 349.36 146.02
  A 4.61 4.61 0.0 0 1 351.82 149.98
  C 351.89 152.50 351.04 154.21 348.24 153.26
  Q 344.51 151.99 341.28 150.83
  Q 332.76 147.79 324.42 148.99"
/>
<path stroke="#9a3f2f" vector-effect="non-scaling-stroke" d="
  M 324.42 148.99
  Q 319.59 149.18 315.38 150.43
  C 313.54 150.97 312.59 152.36 311.25 153.57
  Q 309.82 154.87 308.12 155.91
  Q 304.46 158.15 300.93 160.65
  Q 296.07 164.09 287.59 167.32
  Q 287.09 167.51 286.92 168.02
  C 283.26 179.49 271.67 187.75 260.57 191.14"
/>
<path stroke="#9f624a" vector-effect="non-scaling-stroke" d="
  M 260.57 191.14
  Q 256.35 178.10 244.02 174.75
  C 236.30 172.65 226.67 175.55 222.71 183.03
  C 216.71 194.36 221.18 208.99 230.59 217.51
  C 234.26 220.84 239.12 224.71 243.81 226.56
  Q 254.21 230.66 263.65 227.31
  Q 264.29 227.09 264.25 227.76
  L 264.22 228.38"
/>
<path stroke="#9a3f2f" vector-effect="non-scaling-stroke" d="
  M 264.22 228.38
  L 259.26 236.05
  A 1.11 1.11 0.0 0 0 259.10 236.83
  Q 261.51 250.65 263.14 264.51
  Q 264.53 276.38 264.67 286.96"
/>
<path stroke="#9f624a" vector-effect="non-scaling-stroke" d="
  M 264.67 286.96
  Q 264.37 296.16 262.65 301.18
  Q 261.33 305.03 260.19 308.97
  Q 259.26 312.19 254.45 318.17"
/>
<path stroke="#9a3f2f" vector-effect="non-scaling-stroke" d="
  M 254.45 318.17
  Q 246.73 325.15 237.52 328.66
  Q 237.01 328.85 237.38 329.25
  L 243.03 335.32"
/>
<path stroke="#9f624a" vector-effect="non-scaling-stroke" d="
  M 243.03 335.32
  Q 249.96 341.28 252.00 342.50
  Q 254.70 344.11 262.47 349.76
  Q 271.88 356.60 288.06 363.48
  Q 293.21 365.67 305.40 367.08"
/>
<path stroke="#9f8680" vector-effect="non-scaling-stroke" d="
  M 305.40 367.08
  L 306.86 366.96
  Q 307.98 366.86 307.16 366.09
  C 304.22 363.35 302.23 360.15 299.78 357.02
  Q 293.60 349.10 287.35 341.27
  Q 282.17 334.78 282.79 325.00
  Q 283.51 313.42 284.65 307.06"
/>
<path stroke="#9a3f2f" vector-effect="non-scaling-stroke" d="
  M 284.65 307.06
  Q 287.04 295.66 291.63 285.00
  C 292.44 283.11 293.64 281.30 295.02 279.76
  A 0.69 0.69 0.0 0 0 294.99 278.81
  Q 287.43 271.48 281.46 263.74
  Q 279.44 261.13 277.15 258.63
  C 274.26 255.47 271.85 251.78 269.40 248.16
  C 268.24 246.44 266.31 243.19 266.34 241.03
  Q 266.36 240.24 266.75 240.93
  Q 267.37 242.03 268.29 242.90
  Q 271.40 245.83 274.36 248.93
  Q 280.33 255.17 287.84 259.40
  Q 292.84 262.22 305.55 267.32
  Q 308.39 268.46 311.23 269.28"
/>
<path stroke="#9f624a" vector-effect="non-scaling-stroke" d="
  M 311.23 269.28
  L 322.43 272.61"
/>
<path stroke="#9f8680" vector-effect="non-scaling-stroke" d="
  M 322.43 272.61
  Q 331.73 275.39 341.01 276.93
  C 347.69 278.04 355.71 277.50 357.79 270.13
  Q 358.09 269.05 358.05 264.33
  Q 358.01 258.26 361.82 253.57"
/>
<path stroke="#9a3f2f" vector-effect="non-scaling-stroke" d="
  M 361.82 253.57
  Q 367.89 249.15 364.36 242.12"
/>
<path stroke="#9f2621" vector-effect="non-scaling-stroke" d="
  M 364.36 242.12
  Q 363.65 241.10 364.07 240.85
  Q 369.01 237.79 369.50 231.91"
/>
<path stroke="#9f624a" vector-effect="non-scaling-stroke" d="
  M 369.50 231.91
  L 366.83 225.98"
/>
<path stroke="#9a3f2f" vector-effect="non-scaling-stroke" d="
  M 366.83 225.98
  Q 366.57 221.06 369.98 219.70
  Q 375.38 217.55 378.70 214.33
  C 381.07 212.02 383.17 209.62 384.17 206.52"
/>
<path stroke="#9f785f" vector-effect="non-scaling-stroke" d="
  M 384.17 206.52
  Q 384.47 205.99 384.43 205.63
  Q 384.40 205.31 384.11 205.19
  Q 377.99 202.58 371.09 198.03
  Q 367.98 195.98 365.87 193.15
  Q 362.42 188.52 359.75 182.12
  Q 358.66 179.50 357.65 175.90"
/>
<path stroke="#9f624a" vector-effect="non-scaling-stroke" d="
  M 357.65 175.90
  Q 357.49 168.55 357.82 166.50
  Q 358.77 160.62 359.79 154.76
  Q 361.21 146.53 359.50 134.65"
/>
<path stroke="#9a3f2f" vector-effect="non-scaling-stroke" d="
  M 359.50 134.65
  C 358.28 121.80 354.65 107.99 346.87 97.48
  Q 346.40 96.85 345.62 96.71
  L 340.23 95.79
  Q 339.61 95.68 339.69 96.31
  Q 340.80 104.46 338.23 113.43
  C 335.74 122.11 331.91 130.77 326.09 137.57
  Q 323.35 140.78 320.63 144.48
  Q 319.85 145.54 318.82 146.47
  Q 317.58 147.59 319.14 146.99
  L 328.52 143.37"
/>
<path stroke="#fa9478" vector-effect="non-scaling-stroke" d="
  M 359.50 134.65
  Q 357.10 130.03 355.26 125.30
  Q 352.58 118.38 351.17 115.93
  Q 347.96 110.32 343.69 105.44
  Q 343.37 105.08 343.35 105.56
  Q 342.74 118.87 336.92 130.81
  Q 335.64 133.43 332.87 137.18
  Q 330.69 140.11 328.52 143.37"
/>
<path stroke="#ffcda8" vector-effect="non-scaling-stroke" d="
  M 357.65 175.90
  Q 356.26 178.54 358.41 183.24
  Q 360.72 188.31 363.38 192.37
  Q 366.26 196.75 370.41 199.86
  Q 376.38 204.32 383.36 206.70"
/>
<path stroke="#fa9478" vector-effect="non-scaling-stroke" d="
  M 383.36 206.70
  Q 382.37 207.25 381.43 208.21
  C 379.40 210.28 376.00 211.48 373.21 212.25
  Q 366.71 214.04 360.84 217.06
  A 1.29 1.28 63.5 0 0 360.28 218.75
  Q 362.47 223.37 366.83 225.98"
/>
<path stroke="#ff7b69" vector-effect="non-scaling-stroke" d="
  M 369.50 231.91
  Q 368.72 232.36 367.50 232.33
  Q 366.18 232.31 364.95 232.61
  Q 358.85 234.12 353.24 235.60
  Q 346.14 237.46 339.58 235.03
  A 1.01 1.01 0.0 0 0 338.22 235.92
  Q 338.16 236.99 339.13 237.46
  Q 340.68 238.22 342.55 238.72"
/>
<path stroke="#fa9478" vector-effect="non-scaling-stroke" d="
  M 342.55 238.72
  C 344.86 244.65 349.61 250.02 355.79 251.94
  Q 357.49 252.47 359.26 252.96"
/>
<path stroke="#ffdbc8" vector-effect="non-scaling-stroke" d="
  M 359.26 252.96
  Q 354.51 258.03 354.16 265.26
  Q 353.99 268.70 353.43 269.91
  C 350.15 276.99 337.26 274.24 331.19 273.55
  Q 331.02 273.53 326.87 272.71
  Q 324.65 272.27 322.43 272.61"
/>
<path stroke="#fa9478" vector-effect="non-scaling-stroke" d="
  M 311.23 269.28
  Q 311.41 268.73 312.07 268.58
  Q 312.53 268.47 312.56 268.00
  Q 312.58 267.55 312.14 267.41
  C 306.52 265.55 301.09 262.68 295.81 260.01
  C 286.05 255.09 279.79 248.47 270.72 238.53
  Q 268.12 235.69 264.22 228.38"
/>
<path stroke="#fa9478" vector-effect="non-scaling-stroke" d="
  M 260.57 191.14
  L 262.10 196.36
  A 0.80 0.80 0.0 0 0 263.29 196.81
  Q 275.34 189.39 282.73 177.83
  Q 283.04 177.34 283.15 176.77
  Q 283.25 176.26 283.65 175.71
  Q 283.97 175.27 284.52 175.33
  C 285.16 175.41 285.52 175.40 286.13 175.13
  Q 297.14 170.27 304.66 165.03
  Q 312.26 159.74 319.87 153.87
  Q 322.54 151.81 324.42 148.99"
/>
<path stroke="#faaa8d" vector-effect="non-scaling-stroke" d="
  M 384.17 206.52
  L 383.36 206.70"
/>
<path stroke="#fab8ae" vector-effect="non-scaling-stroke" d="
  M 361.82 253.57
  Q 361.27 253.00 359.26 252.96"
/>
<path stroke="#fab8ae" vector-effect="non-scaling-stroke" d="
  M 284.65 307.06
  Q 284.64 306.56 284.44 306.31
  Q 284.29 306.11 284.03 306.15"
/>
<path stroke="#fa9478" vector-effect="non-scaling-stroke" d="
  M 284.03 306.15
  Q 281.63 304.42 279.26 302.64
  Q 276.86 300.83 274.86 298.70
  Q 269.77 293.29 264.67 286.96"
/>
<path stroke="#fa584f" vector-effect="non-scaling-stroke" d="
  M 364.36 242.12
  Q 353.10 241.09 342.55 238.72"
/>
<path stroke="#ffdbc8" vector-effect="non-scaling-stroke" d="
  M 284.03 306.15
  Q 283.02 306.03 282.86 306.87
  Q 280.55 318.63 281.51 331.50
  Q 281.90 336.77 284.95 341.05
  Q 294.39 354.29 305.40 367.08"
/>
<path stroke="#fa9478" vector-effect="non-scaling-stroke" d="
  M 243.03 335.32
  Q 251.74 328.52 254.45 318.17"
/>
<path stroke="#874b32" vector-effect="non-scaling-stroke" d="
  M 276.06 171.39
  Q 267.67 174.40 259.31 174.61
  Q 258.56 174.62 259.13 175.12
  L 264.78 179.94
  Q 265.24 180.34 265.72 179.97
  Q 267.30 178.73 269.20 177.84
  C 272.12 176.48 274.28 174.24 276.38 171.87
  Q 277.17 170.99 276.06 171.39"
/>
<path stroke="#9f8680" vector-effect="non-scaling-stroke" d="
  M 131.36 239.09
  L 128.38 239.62
  Q 127.82 239.71 127.52 240.19
  C 120.42 251.53 117.66 262.26 120.84 275.20
  Q 122.77 283.03 129.14 288.58"
/>
<path stroke="#874b32" vector-effect="non-scaling-stroke" d="
  M 129.14 288.58
  Q 131.69 292.16 137.55 295.17
  Q 138.03 295.41 137.66 295.02
  Q 128.32 285.13 126.93 272.27
  C 125.68 260.70 128.96 247.93 136.06 238.18
  Q 136.58 237.46 135.74 237.73
  L 131.36 239.09"
/>
<path stroke="#e7c4b1" vector-effect="non-scaling-stroke" d="
  M 129.14 288.58
  Q 118.63 269.66 125.10 250.90
  Q 127.22 244.74 131.36 239.09"
/>
<path stroke="#fbd9b1" vector-effect="non-scaling-stroke" d="
  M 203.0388 77.1102
  A 7.08 2.48 -34.3 0 0 195.7925 79.0513
  A 7.08 2.48 -34.3 0 0 191.3412 85.0898
  A 7.08 2.48 -34.3 0 0 198.5875 83.1487
  A 7.08 2.48 -34.3 0 0 203.0388 77.1102"
/>
<path stroke="#fbd9b1" vector-effect="non-scaling-stroke" d="
  M 211.5340 81.0869
  A 7.81 3.69 -35.3 0 0 203.0277 82.5885
  A 7.81 3.69 -35.3 0 0 198.7860 90.1131
  A 7.81 3.69 -35.3 0 0 207.2923 88.6115
  A 7.81 3.69 -35.3 0 0 211.5340 81.0869"
/>
<path stroke="#fbd9b1" vector-effect="non-scaling-stroke" d="
  M 236.1774 88.1376
  A 9.52 3.55 -26.8 0 0 226.0794 89.2613
  A 9.52 3.55 -26.8 0 0 219.1826 96.7224
  A 9.52 3.55 -26.8 0 0 229.2806 95.5987
  A 9.52 3.55 -26.8 0 0 236.1774 88.1376"
/>
<path stroke="#fbd9b1" vector-effect="non-scaling-stroke" d="
  M 248.9068 89.8505
  A 10.61 3.55 -31.6 0 0 238.0099 92.3864
  A 10.61 3.55 -31.6 0 0 230.8332 100.9695
  A 10.61 3.55 -31.6 0 0 241.7301 98.4336
  A 10.61 3.55 -31.6 0 0 248.9068 89.8505"
/>
<path stroke="#fbd9b1" vector-effect="non-scaling-stroke" d="
  M 266.6558 97.8514
  A 4.69 2.02 -37.4 0 0 261.7031 99.0953
  A 4.69 2.02 -37.4 0 0 259.2042 103.5486
  A 4.69 2.02 -37.4 0 0 264.1569 102.3047
  A 4.69 2.02 -37.4 0 0 266.6558 97.8514"
/>
<path stroke="#ffdbc8" vector-effect="non-scaling-stroke" d="
  M 315.21 178.51
  Q 315.69 179.16 316.76 179.33
  A 1.04 1.01 -9.6 0 1 317.49 179.83
  Q 324.79 192.49 338.63 195.88
  Q 339.50 196.09 339.05 195.36"
/>
<path stroke="#9f624a" vector-effect="non-scaling-stroke" d="
  M 339.05 195.36
  C 341.64 195.61 342.55 193.62 343.03 191.54
  Q 345.41 181.32 343.87 172.66
  Q 343.77 172.09 344.34 171.96
  Q 349.29 170.88 352.27 166.26
  A 0.29 0.29 0.0 0 0 351.98 165.82
  L 347.25 166.54
  Q 346.04 166.72 347.06 166.06
  L 349.78 164.29
  Q 352.65 162.43 349.30 163.13
  Q 346.98 163.62 344.63 163.39
  Q 342.61 163.20 344.30 162.08
  Q 345.54 161.25 346.50 160.01
  Q 347.37 158.89 346.03 159.34
  C 343.50 160.19 340.89 161.80 338.11 161.34
  Q 330.82 160.12 323.67 164.93
  C 320.19 167.27 317.24 170.18 313.12 171.39
  Q 307.10 173.16 300.91 171.27
  Q 299.64 170.88 300.26 172.06
  Q 304.97 181.07 315.21 178.51"
/>
<path stroke="#9f8680" vector-effect="non-scaling-stroke" d="
  M 339.05 195.36
  Q 334.94 191.03 334.03 184.22
  Q 333.04 176.78 334.34 170.74
  Q 334.46 170.18 333.91 170.33
  Q 327.72 171.95 324.21 174.20
  Q 319.38 177.29 315.21 178.51"
/>
<path stroke="#fa9478" vector-effect="non-scaling-stroke" d="
  M 229.69 198.75
  Q 231.70 206.20 238.19 210.89
  Q 240.64 212.66 244.43 213.40
  Q 247.79 214.07 251.37 214.66"
/>
<path stroke="#eb685b" vector-effect="non-scaling-stroke" d="
  M 251.37 214.66
  Q 252.85 215.42 254.93 215.65
  A 0.31 0.31 0.0 0 0 255.25 215.22
  Q 253.47 210.85 250.56 207.07
  A 1.59 1.58 -49.2 0 1 250.44 205.32
  C 255.44 196.55 248.15 182.25 237.45 182.43
  Q 230.43 182.56 228.63 190.98
  Q 227.99 194.01 229.69 198.75"
/>
<path stroke="#e64540" vector-effect="non-scaling-stroke" d="
  M 251.37 214.66
  Q 249.46 212.05 245.59 208.16
  C 243.82 206.38 243.45 203.35 244.72 201.09
  C 246.91 197.20 246.96 193.17 243.31 190.01
  Q 239.73 186.91 235.16 189.14
  Q 231.35 190.99 229.69 198.75"
/>
<path stroke="#e64540" vector-effect="non-scaling-stroke" d="
  M 372.22 216.98
  L 371.86 215.62
  A 0.29 0.29 0.0 0 0 371.51 215.42
  L 370.54 215.68
  A 6.13 0.75 -15.0 0 0 364.81 217.99
  L 364.94 218.45
  A 6.13 0.75 -15.0 0 0 371.05 217.59
  L 372.02 217.33
  A 0.29 0.29 0.0 0 0 372.22 216.98"
/>
</g>
<path fill="#3e0d01" d="
  M 341.49 469.48
  Q 346.28 462.68 349.05 457.52
  Q 356.23 444.13 353.91 428.80
  Q 351.40 417.30 344.12 407.90
  Q 334.73 395.78 324.11 385.31
  L 319.89 380.58
  L 315.40 375.80
  Q 315.05 375.43 314.55 375.49
  C 304.19 376.71 292.49 374.17 283.46 370.01
  C 277.37 367.20 270.86 364.38 265.33 361.04
  Q 250.01 351.79 236.99 340.41
  L 226.34 330.39
  A 0.48 0.48 0.0 0 0 225.69 330.39
  Q 221.83 333.86 216.98 335.93
  Q 208.04 339.74 198.99 341.23
  Q 195.57 341.13 194.28 342.03
  Q 192.36 343.38 190.24 346.80
  Q 181.80 360.48 178.32 376.29
  Q 173.56 403.28 176.00 430.74
  Q 176.00 430.82 176.00 431.77
  Q 176.00 433.65 178.24 434.28
  Q 187.29 436.86 190.51 437.29
  C 211.95 440.50 234.38 440.53 255.25 434.88
  A 0.75 0.75 0.0 0 0 255.81 434.13
  Q 255.17 413.42 253.80 392.18
  Q 253.65 389.94 252.84 387.69
  Q 252.76 387.46 252.98 387.36
  L 253.30 387.22
  Q 253.39 387.19 253.44 387.27
  Q 255.67 390.97 257.89 395.03
  C 260.05 398.99 260.82 404.05 261.91 408.42
  Q 262.14 409.35 262.35 408.41
  Q 264.32 399.67 265.32 391.45
  Q 265.58 389.31 266.24 391.36
  Q 269.06 400.11 268.13 410.12
  Q 266.94 418.83 264.40 426.95
  Q 263.25 430.61 263.24 432.99
  Q 263.22 436.29 263.09 439.66
  A 1.76 1.74 81.2 0 1 261.95 441.23
  L 259.99 441.95
  A 1.83 1.83 0.0 0 0 258.79 443.56
  L 257.35 469.49
  L 249.16 469.51
  L 250.11 449.79
  L 250.11 445.63
  Q 250.11 445.02 249.52 445.16
  Q 241.95 446.84 235.96 447.17
  Q 220.13 448.03 201.42 447.14
  Q 192.85 446.73 183.00 444.59
  Q 182.44 444.47 182.51 445.04
  L 185.54 469.54
  L 177.89 469.52
  A 0.39 0.38 85.6 0 1 177.51 469.19
  L 174.11 442.53
  Q 174.04 442.01 173.56 441.81
  C 172.09 441.22 168.48 440.12 168.27 438.21
  C 165.65 414.44 165.82 389.79 172.49 366.83
  Q 173.56 363.13 178.35 350.95
  C 179.68 347.56 181.53 344.58 183.78 341.71
  Q 184.63 340.63 183.26 340.75
  C 176.74 341.33 168.34 337.46 163.50 333.70
  Q 163.04 333.35 162.47 333.37
  C 153.66 333.74 140.71 331.51 134.22 325.04
  C 132.44 323.26 130.40 321.94 128.78 319.95
  Q 124.78 315.00 122.31 309.20
  A 0.47 0.47 0.0 0 1 122.90 308.58
  C 130.80 311.44 141.41 311.32 147.12 304.49
  A 0.22 0.21 -71.4 0 0 146.95 304.14
  C 140.37 304.41 133.41 303.08 127.97 299.18
  C 114.04 289.18 109.08 272.33 112.88 255.72
  Q 113.94 251.11 115.52 246.74
  Q 115.75 246.10 115.07 246.03
  Q 105.92 245.05 98.19 237.11
  Q 97.32 236.21 98.57 236.34
  C 113.08 237.80 124.15 229.83 132.92 218.62
  Q 134.95 216.03 136.14 212.71
  C 137.87 207.85 139.95 202.36 138.33 197.35
  Q 135.53 188.68 133.42 174.63
  Q 130.63 156.05 133.97 137.52
  C 134.91 132.29 135.82 126.88 137.50 121.92
  Q 141.58 109.89 148.58 97.94
  Q 150.41 94.82 152.98 91.74
  C 155.19 89.07 156.56 85.96 158.75 83.22
  Q 163.15 77.70 167.45 73.72
  Q 172.66 68.91 178.16 64.20
  Q 184.06 59.15 192.80 54.34
  C 218.78 40.04 249.85 33.73 279.47 38.52
  C 287.84 39.87 297.18 42.78 303.79 48.23
  C 308.25 51.91 312.20 55.41 312.92 61.47
  A 0.24 0.24 0.0 0 0 313.32 61.61
  C 319.74 55.59 327.81 53.96 336.41 54.81
  Q 340.70 55.23 344.64 57.08
  C 352.17 60.62 356.95 65.14 361.29 71.87
  A 1.51 1.50 77.4 0 0 362.32 72.53
  Q 375.14 74.51 383.44 86.16
  C 385.12 88.52 385.92 91.06 387.26 93.60
  Q 388.09 95.17 388.67 97.01
  Q 394.94 117.02 386.93 136.40
  Q 386.06 138.51 385.27 140.68
  C 381.73 150.51 373.01 157.75 366.00 164.99
  Q 365.63 165.37 365.55 165.90
  Q 364.03 176.91 369.62 185.32
  Q 374.23 192.27 381.27 195.93
  Q 385.26 198.00 389.10 200.01
  Q 393.16 202.13 391.95 206.43
  Q 388.15 220.01 374.45 224.17
  Q 373.69 224.41 374.18 225.04
  C 377.43 229.25 377.60 234.63 374.18 238.77
  C 373.58 239.51 372.57 239.84 372.04 240.57
  Q 371.75 240.96 371.93 241.41
  C 374.86 248.87 371.71 254.42 365.35 258.92
  A 0.90 0.89 66.2 0 0 365.00 259.83
  C 366.39 266.28 366.29 276.31 360.52 280.67
  C 353.59 285.92 346.03 285.97 337.67 284.36
  Q 322.79 281.49 309.83 278.13
  Q 309.42 278.03 309.05 278.22
  Q 305.70 279.89 303.51 282.17
  Q 301.75 284.00 299.99 287.41
  Q 298.53 290.25 297.43 293.14
  Q 291.04 310.00 291.26 328.25
  C 291.32 333.51 295.12 338.09 298.42 341.86
  Q 301.16 345.00 303.64 348.41
  Q 310.02 357.18 315.44 363.11
  Q 319.72 367.80 323.75 372.43
  C 327.84 377.14 332.14 382.05 336.79 386.42
  Q 340.14 389.57 343.49 393.89
  Q 347.26 398.75 351.12 403.40
  C 362.46 417.07 366.09 435.94 360.29 452.39
  C 358.43 457.68 356.30 462.78 352.92 467.35
  Q 352.10 468.45 350.95 469.25
  A 1.65 1.59 -61.5 0 1 350.03 469.54
  L 341.49 469.48
  Z
  M 146.01 220.70
  Q 152.82 215.50 156.16 209.16
  Q 165.61 191.25 170.65 167.19
  Q 171.18 174.62 171.21 180.01
  Q 171.30 195.58 164.53 209.54
  Q 161.10 216.61 158.42 219.73
  C 156.96 221.41 156.24 223.61 154.90 225.13
  Q 151.15 229.36 150.53 231.19
  Q 140.73 240.95 137.47 250.97
  C 134.36 260.50 133.41 274.99 139.27 284.12
  Q 142.45 290.22 147.96 294.82
  Q 148.84 295.55 148.49 294.46
  C 144.80 282.92 145.68 268.76 152.51 258.12
  C 156.86 251.33 161.68 245.92 169.02 242.34
  Q 169.11 242.29 169.05 242.37
  Q 164.47 248.69 160.64 255.89
  Q 157.11 262.54 155.93 268.92
  Q 154.21 278.19 155.21 285.67
  Q 155.92 291.03 157.05 296.39
  C 159.51 308.11 149.20 316.26 138.74 318.34
  Q 138.09 318.46 138.61 318.87
  Q 141.57 321.17 144.54 322.15
  Q 154.45 325.44 165.86 322.39
  Q 168.71 321.64 171.26 320.01
  Q 174.30 318.07 172.03 320.87
  C 169.73 323.71 166.18 325.72 162.33 326.39
  Q 159.99 326.80 162.19 327.68
  C 170.62 331.03 177.91 327.87 184.63 322.47
  Q 188.51 319.35 191.07 314.91
  Q 191.23 314.63 190.96 314.45
  Q 182.23 308.87 178.21 299.09
  Q 176.91 291.15 177.25 284.25
  Q 177.99 269.55 188.94 260.17
  L 192.83 258.47
  Q 193.79 258.05 193.21 258.92
  Q 184.86 271.51 184.94 286.61
  Q 185.02 303.02 198.71 312.69
  Q 199.20 313.04 199.78 313.19
  Q 199.94 313.22 200.09 313.25
  Q 200.79 313.35 200.54 314.00
  Q 196.01 326.14 184.70 332.33
  Q 183.71 332.87 184.83 332.98
  C 202.26 334.75 219.31 328.37 228.65 313.36
  Q 236.84 300.18 235.52 282.74
  Q 234.61 270.68 231.47 261.13
  L 229.64 252.77
  Q 230.05 253.02 230.27 252.68
  L 237.38 262.36
  Q 239.23 267.57 241.51 275.50
  Q 243.45 282.26 243.65 288.46
  Q 242.71 300.56 239.20 310.75
  Q 237.31 316.22 232.89 321.11
  Q 232.55 321.49 233.05 321.39
  Q 237.10 320.53 239.11 318.99
  Q 244.71 316.06 247.95 312.29
  Q 253.83 305.09 255.38 297.38
  Q 257.56 286.45 255.44 274.63
  Q 255.93 272.26 255.78 270.24
  Q 254.80 257.67 251.82 241.75
  Q 251.38 239.44 250.78 237.09
  Q 250.66 236.63 250.19 236.58
  C 238.33 235.30 226.96 226.78 219.89 217.63
  Q 217.52 214.57 213.22 204.99
  C 209.75 191.91 212.93 177.45 224.55 169.58
  Q 230.64 166.38 234.50 166.01
  Q 244.85 164.99 255.00 161.83
  C 259.03 160.57 262.73 158.66 266.66 157.23
  Q 271.00 155.65 275.14 153.32
  Q 292.73 143.43 307.77 129.23
  Q 302.99 136.07 299.27 140.50
  Q 290.59 150.82 278.68 158.31
  L 267.17 164.51
  Q 266.03 165.12 267.30 164.87
  Q 271.56 164.00 275.93 162.67
  C 281.75 160.89 287.55 158.12 293.28 155.85
  Q 296.65 154.52 301.07 151.09
  Q 311.02 143.38 318.43 134.48
  Q 322.33 129.79 324.22 125.30
  L 328.82 115.51
  C 333.14 104.58 334.08 89.96 323.81 82.05
  Q 323.31 81.33 324.24 81.45
  Q 331.09 84.49 337.03 88.68
  L 339.09 92.05
  Q 339.35 92.47 339.84 92.38
  Q 341.69 92.00 343.51 91.60
  Q 355.21 89.06 365.06 93.34
  Q 365.86 95.11 367.53 96.50
  Q 370.33 98.84 370.52 99.04
  Q 375.24 104.21 376.96 111.32
  L 376.86 113.67
  Q 376.76 115.88 375.71 113.94
  C 371.87 106.88 367.42 101.37 359.52 99.12
  Q 358.05 98.70 359.11 99.81
  C 363.21 104.10 365.55 109.54 367.74 114.84
  C 372.15 125.53 372.16 136.89 369.99 148.41
  Q 369.85 149.16 370.38 148.61
  Q 373.55 145.41 374.47 142.61
  Q 382.28 132.07 382.87 120.49
  Q 384.92 106.87 379.53 95.85
  Q 376.84 90.41 373.03 86.96
  Q 365.57 80.20 356.40 81.16
  Q 355.18 76.22 352.11 72.77
  Q 347.30 67.88 342.95 65.57
  Q 334.09 60.87 323.14 64.75
  L 316.24 68.51
  Q 312.91 70.50 309.38 73.40
  Q 309.21 74.05 308.10 73.92
  L 308.38 66.37
  Q 307.01 61.89 303.43 58.05
  Q 294.32 49.94 281.51 47.45
  Q 258.52 42.98 234.75 47.99
  C 225.40 49.96 215.25 52.68 206.53 56.59
  Q 200.05 59.50 192.67 64.25
  Q 183.02 70.48 179.63 73.39
  Q 174.79 77.54 166.26 87.43
  Q 159.36 95.43 155.37 102.60
  Q 145.52 120.32 142.12 137.48
  Q 137.65 160.00 143.23 182.82
  Q 144.45 187.81 145.74 192.44
  C 148.00 200.59 147.83 207.39 144.37 214.81
  C 142.19 219.48 138.86 223.52 135.30 227.51
  Q 134.70 228.18 135.52 227.82
  Q 141.46 225.17 146.01 220.70
  Z
  M 328.52 143.37
  C 336.05 142.35 342.94 142.63 349.36 146.02
  A 4.61 4.61 0.0 0 1 351.82 149.98
  C 351.89 152.50 351.04 154.21 348.24 153.26
  Q 344.51 151.99 341.28 150.83
  Q 332.76 147.79 324.42 148.99
  Q 319.59 149.18 315.38 150.43
  C 313.54 150.97 312.59 152.36 311.25 153.57
  Q 309.82 154.87 308.12 155.91
  Q 304.46 158.15 300.93 160.65
  Q 296.07 164.09 287.59 167.32
  Q 287.09 167.51 286.92 168.02
  C 283.26 179.49 271.67 187.75 260.57 191.14
  Q 256.35 178.10 244.02 174.75
  C 236.30 172.65 226.67 175.55 222.71 183.03
  C 216.71 194.36 221.18 208.99 230.59 217.51
  C 234.26 220.84 239.12 224.71 243.81 226.56
  Q 254.21 230.66 263.65 227.31
  Q 264.29 227.09 264.25 227.76
  L 264.22 228.38
  L 259.26 236.05
  A 1.11 1.11 0.0 0 0 259.10 236.83
  Q 261.51 250.65 263.14 264.51
  Q 264.53 276.38 264.67 286.96
  Q 264.37 296.16 262.65 301.18
  Q 261.33 305.03 260.19 308.97
  Q 259.26 312.19 254.45 318.17
  Q 246.73 325.15 237.52 328.66
  Q 237.01 328.85 237.38 329.25
  L 243.03 335.32
  Q 249.96 341.28 252.00 342.50
  Q 254.70 344.11 262.47 349.76
  Q 271.88 356.60 288.06 363.48
  Q 293.21 365.67 305.40 367.08
  L 306.86 366.96
  Q 307.98 366.86 307.16 366.09
  C 304.22 363.35 302.23 360.15 299.78 357.02
  Q 293.60 349.10 287.35 341.27
  Q 282.17 334.78 282.79 325.00
  Q 283.51 313.42 284.65 307.06
  Q 287.04 295.66 291.63 285.00
  C 292.44 283.11 293.64 281.30 295.02 279.76
  A 0.69 0.69 0.0 0 0 294.99 278.81
  Q 287.43 271.48 281.46 263.74
  Q 279.44 261.13 277.15 258.63
  C 274.26 255.47 271.85 251.78 269.40 248.16
  C 268.24 246.44 266.31 243.19 266.34 241.03
  Q 266.36 240.24 266.75 240.93
  Q 267.37 242.03 268.29 242.90
  Q 271.40 245.83 274.36 248.93
  Q 280.33 255.17 287.84 259.40
  Q 292.84 262.22 305.55 267.32
  Q 308.39 268.46 311.23 269.28
  L 322.43 272.61
  Q 331.73 275.39 341.01 276.93
  C 347.69 278.04 355.71 277.50 357.79 270.13
  Q 358.09 269.05 358.05 264.33
  Q 358.01 258.26 361.82 253.57
  Q 367.89 249.15 364.36 242.12
  Q 363.65 241.10 364.07 240.85
  Q 369.01 237.79 369.50 231.91
  L 366.83 225.98
  Q 366.57 221.06 369.98 219.70
  Q 375.38 217.55 378.70 214.33
  C 381.07 212.02 383.17 209.62 384.17 206.52
  Q 384.47 205.99 384.43 205.63
  Q 384.40 205.31 384.11 205.19
  Q 377.99 202.58 371.09 198.03
  Q 367.98 195.98 365.87 193.15
  Q 362.42 188.52 359.75 182.12
  Q 358.66 179.50 357.65 175.90
  Q 357.49 168.55 357.82 166.50
  Q 358.77 160.62 359.79 154.76
  Q 361.21 146.53 359.50 134.65
  C 358.28 121.80 354.65 107.99 346.87 97.48
  Q 346.40 96.85 345.62 96.71
  L 340.23 95.79
  Q 339.61 95.68 339.69 96.31
  Q 340.80 104.46 338.23 113.43
  C 335.74 122.11 331.91 130.77 326.09 137.57
  Q 323.35 140.78 320.63 144.48
  Q 319.85 145.54 318.82 146.47
  Q 317.58 147.59 319.14 146.99
  L 328.52 143.37
  Z
  M 276.06 171.39
  Q 267.67 174.40 259.31 174.61
  Q 258.56 174.62 259.13 175.12
  L 264.78 179.94
  Q 265.24 180.34 265.72 179.97
  Q 267.30 178.73 269.20 177.84
  C 272.12 176.48 274.28 174.24 276.38 171.87
  Q 277.17 170.99 276.06 171.39
  Z
  M 131.36 239.09
  L 128.38 239.62
  Q 127.82 239.71 127.52 240.19
  C 120.42 251.53 117.66 262.26 120.84 275.20
  Q 122.77 283.03 129.14 288.58
  Q 131.69 292.16 137.55 295.17
  Q 138.03 295.41 137.66 295.02
  Q 128.32 285.13 126.93 272.27
  C 125.68 260.70 128.96 247.93 136.06 238.18
  Q 136.58 237.46 135.74 237.73
  L 131.36 239.09
  Z"
/>
<path fill="#fffffe" d="
  M 303.43 58.05
  Q 292.60 53.38 286.74 52.84
  Q 257.42 50.14 229.93 58.50
  C 217.01 62.42 203.59 68.57 191.05 73.97
  C 181.05 78.27 174.33 85.36 166.76 93.57
  C 163.73 96.85 160.98 100.55 158.87 104.39
  Q 156.51 108.69 153.44 115.88
  Q 141.16 144.97 145.03 175.99
  Q 145.62 180.72 148.14 192.76
  C 148.64 195.13 148.72 198.05 149.36 200.78
  L 149.62 213.83
  Q 147.15 217.02 146.01 220.70
  Q 141.46 225.17 135.52 227.82
  Q 134.70 228.18 135.30 227.51
  C 138.86 223.52 142.19 219.48 144.37 214.81
  C 147.83 207.39 148.00 200.59 145.74 192.44
  Q 144.45 187.81 143.23 182.82
  Q 137.65 160.00 142.12 137.48
  Q 145.52 120.32 155.37 102.60
  Q 159.36 95.43 166.26 87.43
  Q 174.79 77.54 179.63 73.39
  Q 183.02 70.48 192.67 64.25
  Q 200.05 59.50 206.53 56.59
  C 215.25 52.68 225.40 49.96 234.75 47.99
  Q 258.52 42.98 281.51 47.45
  Q 294.32 49.94 303.43 58.05
  Z"
/>
<path fill="#f6cea5" d="
  M 303.43 58.05
  Q 307.01 61.89 308.38 66.37
  Q 306.37 63.58 305.01 62.71
  Q 297.30 57.76 287.50 57.22
  C 272.24 56.36 255.83 59.91 247.29 73.02
  Q 246.57 74.13 247.84 73.78
  Q 255.10 71.83 261.85 70.04
  C 268.34 68.32 275.71 67.71 282.33 67.69
  Q 295.48 67.64 307.27 73.81
  Q 308.13 74.26 308.10 73.92
  Q 308.17 74.03 308.23 74.14
  Q 308.25 74.18 308.30 74.20
  Q 316.47 76.90 323.81 82.05
  C 334.08 89.96 333.14 104.58 328.82 115.51
  Q 328.37 114.66 328.36 113.86
  Q 328.36 113.42 328.14 113.80
  Q 328.04 113.96 327.90 113.84
  Q 327.79 113.74 327.75 113.61
  Q 327.39 112.38 328.05 111.57
  Q 328.14 111.46 328.02 111.41
  Q 327.40 111.14 327.22 110.46
  C 326.80 108.91 325.00 108.04 323.66 109.13
  Q 322.96 109.70 322.11 109.84
  Q 321.68 109.91 321.42 110.24
  L 313.72 120.05
  Q 314.09 119.14 313.99 118.55
  Q 313.87 117.83 313.29 118.27
  C 312.58 118.81 312.09 119.11 311.61 119.92
  Q 310.94 121.08 309.75 121.68
  Q 312.34 117.78 315.46 114.48
  Q 316.84 113.02 317.21 111.58
  Q 317.59 110.13 318.44 108.83
  A 0.72 0.71 27.6 0 0 318.10 107.77
  Q 317.26 107.43 317.08 106.54
  Q 316.95 105.87 316.27 105.78
  C 315.07 105.62 314.80 104.65 313.90 104.20
  Q 312.05 103.30 309.94 102.67
  A 1.13 1.13 0.0 0 1 309.31 102.17
  Q 308.97 101.56 308.29 101.27
  A 3.22 2.45 16.6 0 1 306.27 98.50
  Q 306.39 97.34 304.56 97.03
  Q 307.06 92.58 308.01 89.72
  Q 309.31 85.80 306.77 89.05
  Q 301.55 95.72 294.60 102.07
  L 294.83 100.75
  A 1.23 1.23 0.0 0 0 293.07 99.43
  Q 291.35 100.28 289.48 101.59
  Q 287.69 102.85 287.85 104.63
  A 1.40 1.40 0.0 0 0 290.30 105.42
  Q 290.63 105.04 291.53 104.88
  Q 289.61 107.08 287.67 109.18
  Q 285.37 111.65 275.75 118.87
  Q 274.79 119.59 273.86 121.36
  Q 273.62 121.81 273.87 122.26
  Q 274.23 122.92 274.96 123.16
  Q 275.45 123.31 275.84 122.98
  Q 278.01 121.18 280.62 121.01
  Q 269.80 128.38 258.12 134.43
  C 255.17 135.96 251.83 136.68 248.77 138.10
  Q 240.05 142.15 232.09 144.22
  Q 223.06 146.58 214.22 148.02
  C 208.24 148.99 202.20 148.61 196.08 148.69
  Q 193.84 148.72 191.80 148.20
  Q 189.86 147.70 187.69 146.88
  Q 187.03 146.63 186.50 146.96
  Q 185.91 147.33 186.44 147.79
  Q 192.45 153.04 200.60 155.64
  Q 199.68 155.45 199.24 155.56
  Q 198.52 155.74 199.16 156.11
  Q 201.95 157.75 204.48 159.70
  Q 207.00 161.64 210.07 163.15
  Q 215.24 165.69 220.33 168.53
  C 221.21 169.02 222.26 169.15 223.24 168.94
  Q 224.46 168.69 224.55 169.58
  C 212.93 177.45 209.75 191.91 213.22 204.99
  Q 212.87 210.79 215.20 216.50
  Q 218.16 223.78 219.15 225.59
  Q 223.49 233.53 229.93 239.73
  L 249.02 261.14
  L 255.44 274.63
  Q 257.56 286.45 255.38 297.38
  Q 253.83 305.09 247.95 312.29
  Q 247.02 312.38 248.01 310.95
  Q 250.80 306.91 251.27 302.01
  Q 252.25 291.88 248.35 282.54
  Q 243.92 271.89 237.38 262.36
  L 230.27 252.68
  Q 229.53 250.12 228.49 247.80
  Q 228.05 246.80 228.24 247.88
  Q 228.67 250.19 229.64 252.77
  L 231.47 261.13
  Q 231.83 273.98 231.67 277.99
  Q 231.25 289.14 225.78 300.19
  Q 223.55 304.70 218.29 310.16
  Q 217.78 310.69 217.91 309.96
  Q 220.54 295.44 217.40 281.75
  C 214.77 270.27 209.99 259.13 205.59 248.15
  C 204.93 246.51 204.62 244.77 203.97 243.13
  Q 198.40 229.10 196.79 214.64
  Q 196.76 214.40 196.52 214.42
  L 196.51 214.42
  Q 196.28 214.44 196.30 214.68
  Q 197.13 226.06 197.13 237.50
  Q 197.13 249.09 188.94 260.17
  Q 177.99 269.55 177.25 284.25
  Q 176.91 291.15 178.21 299.09
  Q 177.14 299.08 176.48 296.89
  Q 176.08 295.55 175.44 294.42
  C 169.87 284.66 168.92 272.41 172.26 261.85
  Q 176.02 249.98 181.59 236.64
  Q 188.48 220.14 190.32 198.00
  Q 190.43 196.73 190.67 195.60
  Q 190.92 194.45 190.89 193.30
  Q 190.81 190.79 190.07 193.19
  C 188.01 199.87 185.44 206.32 181.68 212.38
  Q 176.97 219.95 175.05 222.23
  Q 166.32 232.60 154.08 242.57
  Q 150.98 245.09 142.47 255.59
  Q 143.85 243.59 150.53 231.19
  Q 151.15 229.36 154.90 225.13
  C 156.24 223.61 156.96 221.41 158.42 219.73
  Q 161.10 216.61 164.53 209.54
  Q 171.30 195.58 171.21 180.01
  Q 171.18 174.62 170.65 167.19
  Q 170.99 157.69 171.70 146.17
  Q 171.71 146.11 171.77 146.13
  Q 171.78 146.13 171.61 146.12
  Q 171.53 146.12 171.52 146.19
  Q 167.81 168.73 165.72 175.58
  Q 162.33 186.69 159.55 193.33
  Q 158.01 197.00 156.47 200.96
  C 154.67 205.59 152.23 209.66 149.62 213.83
  L 149.36 200.78
  Q 153.11 190.01 152.13 178.75
  Q 150.63 161.50 150.29 156.75
  Q 149.07 139.77 152.64 122.01
  Q 152.70 121.71 153.61 119.09
  Q 154.25 117.25 153.44 115.88
  Q 156.51 108.69 158.87 104.39
  C 160.98 100.55 163.73 96.85 166.76 93.57
  C 174.33 85.36 181.05 78.27 191.05 73.97
  C 203.59 68.57 217.01 62.42 229.93 58.50
  Q 257.42 50.14 286.74 52.84
  Q 292.60 53.38 303.43 58.05
  Z
  M 203.0388 77.1102
  A 7.08 2.48 -34.3 0 0 195.7925 79.0513
  A 7.08 2.48 -34.3 0 0 191.3412 85.0898
  A 7.08 2.48 -34.3 0 0 198.5875 83.1487
  A 7.08 2.48 -34.3 0 0 203.0388 77.1102
  Z
  M 211.5340 81.0869
  A 7.81 3.69 -35.3 0 0 203.0277 82.5885
  A 7.81 3.69 -35.3 0 0 198.7860 90.1131
  A 7.81 3.69 -35.3 0 0 207.2923 88.6115
  A 7.81 3.69 -35.3 0 0 211.5340 81.0869
  Z
  M 236.1774 88.1376
  A 9.52 3.55 -26.8 0 0 226.0794 89.2613
  A 9.52 3.55 -26.8 0 0 219.1826 96.7224
  A 9.52 3.55 -26.8 0 0 229.2806 95.5987
  A 9.52 3.55 -26.8 0 0 236.1774 88.1376
  Z
  M 248.9068 89.8505
  A 10.61 3.55 -31.6 0 0 238.0099 92.3864
  A 10.61 3.55 -31.6 0 0 230.8332 100.9695
  A 10.61 3.55 -31.6 0 0 241.7301 98.4336
  A 10.61 3.55 -31.6 0 0 248.9068 89.8505
  Z
  M 266.6558 97.8514
  A 4.69 2.02 -37.4 0 0 261.7031 99.0953
  A 4.69 2.02 -37.4 0 0 259.2042 103.5486
  A 4.69 2.02 -37.4 0 0 264.1569 102.3047
  A 4.69 2.02 -37.4 0 0 266.6558 97.8514
  Z"
/>
<path fill="#cf8963" d="
  M 308.38 66.37
  L 308.10 73.92
  Q 308.13 74.26 307.27 73.81
  Q 295.48 67.64 282.33 67.69
  C 275.71 67.71 268.34 68.32 261.85 70.04
  Q 255.10 71.83 247.84 73.78
  Q 246.57 74.13 247.29 73.02
  C 255.83 59.91 272.24 56.36 287.50 57.22
  Q 297.30 57.76 305.01 62.71
  Q 306.37 63.58 308.38 66.37
  Z"
/>
<path fill="#fffffe" d="
  M 352.11 72.77
  L 346.34 72.85
  Q 342.02 68.62 335.00 68.25
  Q 334.50 68.22 334.07 67.97
  Q 329.88 65.50 323.14 64.75
  Q 334.09 60.87 342.95 65.57
  Q 347.30 67.88 352.11 72.77
  Z"
/>
<path fill="#f6cea5" d="
  M 323.14 64.75
  Q 329.88 65.50 334.07 67.97
  Q 334.50 68.22 335.00 68.25
  Q 342.02 68.62 346.34 72.85
  Q 336.61 75.39 329.59 79.42
  Q 329.03 79.74 329.38 79.20
  Q 332.35 74.58 336.24 71.56
  Q 337.70 70.43 335.87 70.68
  Q 328.98 71.63 324.18 75.57
  A 0.56 0.56 0.0 0 1 323.38 75.47
  Q 323.37 75.46 323.31 75.02
  Q 322.61 69.33 316.24 68.51
  L 323.14 64.75
  Z"
/>
<path fill="#c1704c" d="
  M 316.24 68.51
  Q 322.61 69.33 323.31 75.02
  Q 323.04 75.86 322.59 76.60
  Q 320.63 79.82 324.24 81.45
  Q 323.31 81.33 323.81 82.05
  Q 316.47 76.90 308.30 74.20
  Q 308.25 74.18 308.23 74.14
  Q 308.17 74.03 308.10 73.92
  Q 309.21 74.05 309.38 73.40
  Q 312.91 70.50 316.24 68.51
  Z"
/>
<path fill="#cf8963" d="
  M 346.34 72.85
  L 352.11 72.77
  Q 355.18 76.22 356.40 81.16
  Q 347.57 82.27 341.12 87.00
  L 337.03 88.68
  Q 331.09 84.49 324.24 81.45
  Q 320.63 79.82 322.59 76.60
  Q 323.04 75.86 323.31 75.02
  Q 323.37 75.46 323.38 75.47
  A 0.56 0.56 0.0 0 0 324.18 75.57
  Q 328.98 71.63 335.87 70.68
  Q 337.70 70.43 336.24 71.56
  Q 332.35 74.58 329.38 79.20
  Q 329.03 79.74 329.59 79.42
  Q 336.61 75.39 346.34 72.85
  Z"
/>
<ellipse fill="#ffe3bd" cx="0.00" cy="0.00" transform="translate(197.19,81.10) rotate(-34.3)" rx="7.08" ry="2.48"/>
<ellipse fill="#ffe3bd" cx="0.00" cy="0.00" transform="translate(205.16,85.60) rotate(-35.3)" rx="7.81" ry="3.69"/>
<path fill="#fffffe" d="
  M 356.40 81.16
  Q 365.57 80.20 373.03 86.96
  Q 376.84 90.41 379.53 95.85
  Q 376.21 93.62 373.24 91.28
  Q 369.31 88.17 366.79 87.07
  Q 354.65 81.79 341.12 87.00
  Q 347.57 82.27 356.40 81.16
  Z"
/>
<path fill="#f6cea5" d="
  M 379.53 95.85
  Q 384.92 106.87 382.87 120.49
  Q 381.60 112.60 379.93 108.01
  Q 376.22 97.83 365.06 93.34
  Q 355.21 89.06 343.51 91.60
  Q 341.69 92.00 339.84 92.38
  Q 339.35 92.47 339.09 92.05
  L 337.03 88.68
  L 341.12 87.00
  Q 354.65 81.79 366.79 87.07
  Q 369.31 88.17 373.24 91.28
  Q 376.21 93.62 379.53 95.85
  Z"
/>
<ellipse fill="#ffe3bd" cx="0.00" cy="0.00" transform="translate(227.68,92.43) rotate(-26.8)" rx="9.52" ry="3.55"/>
<path fill="#dfaa81" d="
  M 304.56 97.03
  C 301.96 102.26 297.38 106.50 293.16 110.48
  Q 291.23 112.30 287.23 115.31
  Q 283.74 117.94 280.62 121.01
  Q 278.01 121.18 275.84 122.98
  Q 275.45 123.31 274.96 123.16
  Q 274.23 122.92 273.87 122.26
  Q 273.62 121.81 273.86 121.36
  Q 274.79 119.59 275.75 118.87
  Q 285.37 111.65 287.67 109.18
  Q 289.61 107.08 291.53 104.88
  L 294.60 102.07
  Q 301.55 95.72 306.77 89.05
  Q 309.31 85.80 308.01 89.72
  Q 307.06 92.58 304.56 97.03
  Z"
/>
<ellipse fill="#ffe3bd" cx="0.00" cy="0.00" transform="translate(239.87,95.41) rotate(-31.6)" rx="10.61" ry="3.55"/>
<path fill="#cf8963" d="
  M 365.06 93.34
  Q 376.22 97.83 379.93 108.01
  Q 381.60 112.60 382.87 120.49
  Q 382.28 132.07 374.47 142.61
  Q 378.42 132.13 378.27 122.00
  Q 378.17 115.75 376.96 111.32
  Q 375.24 104.21 370.52 99.04
  Q 370.33 98.84 367.53 96.50
  Q 365.86 95.11 365.06 93.34
  Z"
/>
<path fill="#f5715d" d="
  M 359.50 134.65
  Q 357.10 130.03 355.26 125.30
  Q 352.58 118.38 351.17 115.93
  Q 347.96 110.32 343.69 105.44
  Q 343.37 105.08 343.35 105.56
  Q 342.74 118.87 336.92 130.81
  Q 335.64 133.43 332.87 137.18
  Q 330.69 140.11 328.52 143.37
  L 319.14 146.99
  Q 317.58 147.59 318.82 146.47
  Q 319.85 145.54 320.63 144.48
  Q 323.35 140.78 326.09 137.57
  C 331.91 130.77 335.74 122.11 338.23 113.43
  Q 340.80 104.46 339.69 96.31
  Q 339.61 95.68 340.23 95.79
  L 345.62 96.71
  Q 346.40 96.85 346.87 97.48
  C 354.65 107.99 358.28 121.80 359.50 134.65
  Z"
/>
<path fill="#ffe3bd" d="
  M 304.56 97.03
  Q 306.39 97.34 306.27 98.50
  A 3.22 2.45 16.6 0 0 308.29 101.27
  Q 308.97 101.56 309.31 102.17
  A 1.13 1.13 0.0 0 0 309.94 102.67
  Q 312.05 103.30 313.90 104.20
  C 314.80 104.65 315.07 105.62 316.27 105.78
  Q 316.95 105.87 317.08 106.54
  Q 317.26 107.43 318.10 107.77
  A 0.72 0.71 27.6 0 1 318.44 108.83
  Q 317.59 110.13 317.21 111.58
  Q 316.84 113.02 315.46 114.48
  Q 312.34 117.78 309.75 121.68
  Q 306.29 124.91 303.13 128.62
  Q 301.01 131.09 295.08 134.61
  C 288.77 138.34 282.95 142.36 276.34 145.57
  C 264.08 151.52 250.20 155.84 236.15 157.16
  Q 226.01 158.11 218.25 157.81
  Q 211.06 157.52 200.60 155.64
  Q 192.45 153.04 186.44 147.79
  Q 185.91 147.33 186.50 146.96
  Q 187.03 146.63 187.69 146.88
  Q 189.86 147.70 191.80 148.20
  Q 193.84 148.72 196.08 148.69
  C 202.20 148.61 208.24 148.99 214.22 148.02
  Q 223.06 146.58 232.09 144.22
  Q 240.05 142.15 248.77 138.10
  C 251.83 136.68 255.17 135.96 258.12 134.43
  Q 269.80 128.38 280.62 121.01
  Q 283.74 117.94 287.23 115.31
  Q 291.23 112.30 293.16 110.48
  C 297.38 106.50 301.96 102.26 304.56 97.03
  Z"
/>
<ellipse fill="#ffe3bd" cx="0.00" cy="0.00" transform="translate(262.93,100.70) rotate(-37.4)" rx="4.69" ry="2.02"/>
<path fill="#c1704c" d="
  M 376.96 111.32
  Q 378.17 115.75 378.27 122.00
  Q 378.42 132.13 374.47 142.61
  Q 373.55 145.41 370.38 148.61
  Q 369.85 149.16 369.99 148.41
  C 372.16 136.89 372.15 125.53 367.74 114.84
  C 365.55 109.54 363.21 104.10 359.11 99.81
  Q 358.05 98.70 359.52 99.12
  C 367.42 101.37 371.87 106.88 375.71 113.94
  Q 376.76 115.88 376.86 113.67
  L 376.96 111.32
  Z"
/>
<path fill="#ffe3bd" d="
  M 294.60 102.07
  L 291.53 104.88
  Q 290.63 105.04 290.30 105.42
  A 1.40 1.40 0.0 0 1 287.85 104.63
  Q 287.69 102.85 289.48 101.59
  Q 291.35 100.28 293.07 99.43
  A 1.23 1.23 0.0 0 1 294.83 100.75
  L 294.60 102.07
  Z"
/>
<path fill="#ffb792" d="
  M 359.50 134.65
  Q 361.21 146.53 359.79 154.76
  Q 358.77 160.62 357.82 166.50
  Q 357.49 168.55 357.65 175.90
  Q 356.26 178.54 358.41 183.24
  Q 360.72 188.31 363.38 192.37
  Q 366.26 196.75 370.41 199.86
  Q 376.38 204.32 383.36 206.70
  Q 382.37 207.25 381.43 208.21
  C 379.40 210.28 376.00 211.48 373.21 212.25
  Q 366.71 214.04 360.84 217.06
  A 1.29 1.28 63.5 0 0 360.28 218.75
  Q 362.47 223.37 366.83 225.98
  L 369.50 231.91
  Q 368.72 232.36 367.50 232.33
  Q 366.18 232.31 364.95 232.61
  Q 358.85 234.12 353.24 235.60
  Q 346.14 237.46 339.58 235.03
  A 1.01 1.01 0.0 0 0 338.22 235.92
  Q 338.16 236.99 339.13 237.46
  Q 340.68 238.22 342.55 238.72
  C 344.86 244.65 349.61 250.02 355.79 251.94
  Q 357.49 252.47 359.26 252.96
  Q 354.51 258.03 354.16 265.26
  Q 353.99 268.70 353.43 269.91
  C 350.15 276.99 337.26 274.24 331.19 273.55
  Q 331.02 273.53 326.87 272.71
  Q 324.65 272.27 322.43 272.61
  L 311.23 269.28
  Q 311.41 268.73 312.07 268.58
  Q 312.53 268.47 312.56 268.00
  Q 312.58 267.55 312.14 267.41
  C 306.52 265.55 301.09 262.68 295.81 260.01
  C 286.05 255.09 279.79 248.47 270.72 238.53
  Q 268.12 235.69 264.22 228.38
  L 264.25 227.76
  Q 264.29 227.09 263.65 227.31
  Q 254.21 230.66 243.81 226.56
  C 239.12 224.71 234.26 220.84 230.59 217.51
  C 221.18 208.99 216.71 194.36 222.71 183.03
  C 226.67 175.55 236.30 172.65 244.02 174.75
  Q 256.35 178.10 260.57 191.14
  L 262.10 196.36
  A 0.80 0.80 0.0 0 0 263.29 196.81
  Q 275.34 189.39 282.73 177.83
  Q 283.04 177.34 283.15 176.77
  Q 283.25 176.26 283.65 175.71
  Q 283.97 175.27 284.52 175.33
  C 285.16 175.41 285.52 175.40 286.13 175.13
  Q 297.14 170.27 304.66 165.03
  Q 312.26 159.74 319.87 153.87
  Q 322.54 151.81 324.42 148.99
  Q 332.76 147.79 341.28 150.83
  Q 344.51 151.99 348.24 153.26
  C 351.04 154.21 351.89 152.50 351.82 149.98
  A 4.61 4.61 0.0 0 0 349.36 146.02
  C 342.94 142.63 336.05 142.35 328.52 143.37
  Q 330.69 140.11 332.87 137.18
  Q 335.64 133.43 336.92 130.81
  Q 342.74 118.87 343.35 105.56
  Q 343.37 105.08 343.69 105.44
  Q 347.96 110.32 351.17 115.93
  Q 352.58 118.38 355.26 125.30
  Q 357.10 130.03 359.50 134.65
  Z
  M 315.21 178.51
  Q 315.69 179.16 316.76 179.33
  A 1.04 1.01 -9.6 0 1 317.49 179.83
  Q 324.79 192.49 338.63 195.88
  Q 339.50 196.09 339.05 195.36
  C 341.64 195.61 342.55 193.62 343.03 191.54
  Q 345.41 181.32 343.87 172.66
  Q 343.77 172.09 344.34 171.96
  Q 349.29 170.88 352.27 166.26
  A 0.29 0.29 0.0 0 0 351.98 165.82
  L 347.25 166.54
  Q 346.04 166.72 347.06 166.06
  L 349.78 164.29
  Q 352.65 162.43 349.30 163.13
  Q 346.98 163.62 344.63 163.39
  Q 342.61 163.20 344.30 162.08
  Q 345.54 161.25 346.50 160.01
  Q 347.37 158.89 346.03 159.34
  C 343.50 160.19 340.89 161.80 338.11 161.34
  Q 330.82 160.12 323.67 164.93
  C 320.19 167.27 317.24 170.18 313.12 171.39
  Q 307.10 173.16 300.91 171.27
  Q 299.64 170.88 300.26 172.06
  Q 304.97 181.07 315.21 178.51
  Z
  M 229.69 198.75
  Q 231.70 206.20 238.19 210.89
  Q 240.64 212.66 244.43 213.40
  Q 247.79 214.07 251.37 214.66
  Q 252.85 215.42 254.93 215.65
  A 0.31 0.31 0.0 0 0 255.25 215.22
  Q 253.47 210.85 250.56 207.07
  A 1.59 1.58 -49.2 0 1 250.44 205.32
  C 255.44 196.55 248.15 182.25 237.45 182.43
  Q 230.43 182.56 228.63 190.98
  Q 227.99 194.01 229.69 198.75
  Z"
/>
<path fill="#ffe3bd" d="
  M 328.82 115.51
  L 324.22 125.30
  Q 313.13 137.54 300.04 147.52
  Q 294.66 151.63 293.02 152.52
  Q 286.89 155.85 280.82 159.24
  Q 280.14 159.61 279.56 159.52
  Q 278.37 159.33 278.68 158.31
  Q 290.59 150.82 299.27 140.50
  Q 302.99 136.07 307.77 129.23
  L 313.72 120.05
  L 321.42 110.24
  Q 321.68 109.91 322.11 109.84
  Q 322.96 109.70 323.66 109.13
  C 325.00 108.04 326.80 108.91 327.22 110.46
  Q 327.40 111.14 328.02 111.41
  Q 328.14 111.46 328.05 111.57
  Q 327.39 112.38 327.75 113.61
  Q 327.79 113.74 327.90 113.84
  Q 328.04 113.96 328.14 113.80
  Q 328.36 113.42 328.36 113.86
  Q 328.37 114.66 328.82 115.51
  Z"
/>
<path fill="#cf8963" d="
  M 153.44 115.88
  Q 154.25 117.25 153.61 119.09
  Q 152.70 121.71 152.64 122.01
  Q 149.07 139.77 150.29 156.75
  Q 150.63 161.50 152.13 178.75
  Q 153.11 190.01 149.36 200.78
  C 148.72 198.05 148.64 195.13 148.14 192.76
  Q 145.62 180.72 145.03 175.99
  Q 141.16 144.97 153.44 115.88
  Z"
/>
<path fill="#dfaa81" d="
  M 313.72 120.05
  L 307.77 129.23
  Q 292.73 143.43 275.14 153.32
  Q 271.00 155.65 266.66 157.23
  C 262.73 158.66 259.03 160.57 255.00 161.83
  Q 244.85 164.99 234.50 166.01
  Q 230.64 166.38 224.55 169.58
  Q 224.46 168.69 223.24 168.94
  C 222.26 169.15 221.21 169.02 220.33 168.53
  Q 215.24 165.69 210.07 163.15
  Q 207.00 161.64 204.48 159.70
  Q 201.95 157.75 199.16 156.11
  Q 198.52 155.74 199.24 155.56
  Q 199.68 155.45 200.60 155.64
  Q 211.06 157.52 218.25 157.81
  Q 226.01 158.11 236.15 157.16
  C 250.20 155.84 264.08 151.52 276.34 145.57
  C 282.95 142.36 288.77 138.34 295.08 134.61
  Q 301.01 131.09 303.13 128.62
  Q 306.29 124.91 309.75 121.68
  Q 310.94 121.08 311.61 119.92
  C 312.09 119.11 312.58 118.81 313.29 118.27
  Q 313.87 117.83 313.99 118.55
  Q 314.09 119.14 313.72 120.05
  Z"
/>
<path fill="#cf8963" d="
  M 324.22 125.30
  Q 322.33 129.79 318.43 134.48
  Q 311.02 143.38 301.07 151.09
  Q 296.65 154.52 293.28 155.85
  C 287.55 158.12 281.75 160.89 275.93 162.67
  Q 271.56 164.00 267.30 164.87
  Q 266.03 165.12 267.17 164.51
  L 278.68 158.31
  Q 278.37 159.33 279.56 159.52
  Q 280.14 159.61 280.82 159.24
  Q 286.89 155.85 293.02 152.52
  Q 294.66 151.63 300.04 147.52
  Q 313.13 137.54 324.22 125.30
  Z"
/>
<path fill="#cf8963" d="
  M 170.65 167.19
  Q 165.61 191.25 156.16 209.16
  Q 152.82 215.50 146.01 220.70
  Q 147.15 217.02 149.62 213.83
  C 152.23 209.66 154.67 205.59 156.47 200.96
  Q 158.01 197.00 159.55 193.33
  Q 162.33 186.69 165.72 175.58
  Q 167.81 168.73 171.52 146.19
  Q 171.53 146.12 171.61 146.12
  Q 171.78 146.13 171.77 146.13
  Q 171.71 146.11 171.70 146.17
  Q 170.99 157.69 170.65 167.19
  Z"
/>
<path fill="#f5715d" d="
  M 324.42 148.99
  Q 322.54 151.81 319.87 153.87
  Q 312.26 159.74 304.66 165.03
  Q 297.14 170.27 286.13 175.13
  C 285.52 175.40 285.16 175.41 284.52 175.33
  Q 283.97 175.27 283.65 175.71
  Q 283.25 176.26 283.15 176.77
  Q 283.04 177.34 282.73 177.83
  Q 275.34 189.39 263.29 196.81
  A 0.80 0.80 0.0 0 1 262.10 196.36
  L 260.57 191.14
  C 271.67 187.75 283.26 179.49 286.92 168.02
  Q 287.09 167.51 287.59 167.32
  Q 296.07 164.09 300.93 160.65
  Q 304.46 158.15 308.12 155.91
  Q 309.82 154.87 311.25 153.57
  C 312.59 152.36 313.54 150.97 315.38 150.43
  Q 319.59 149.18 324.42 148.99
  Z"
/>
<path fill="#3e0d01" d="
  M 339.05 195.36
  Q 334.94 191.03 334.03 184.22
  Q 333.04 176.78 334.34 170.74
  Q 334.46 170.18 333.91 170.33
  Q 327.72 171.95 324.21 174.20
  Q 319.38 177.29 315.21 178.51
  Q 304.97 181.07 300.26 172.06
  Q 299.64 170.88 300.91 171.27
  Q 307.10 173.16 313.12 171.39
  C 317.24 170.18 320.19 167.27 323.67 164.93
  Q 330.82 160.12 338.11 161.34
  C 340.89 161.80 343.50 160.19 346.03 159.34
  Q 347.37 158.89 346.50 160.01
  Q 345.54 161.25 344.30 162.08
  Q 342.61 163.20 344.63 163.39
  Q 346.98 163.62 349.30 163.13
  Q 352.65 162.43 349.78 164.29
  L 347.06 166.06
  Q 346.04 166.72 347.25 166.54
  L 351.98 165.82
  A 0.29 0.29 0.0 0 1 352.27 166.26
  Q 349.29 170.88 344.34 171.96
  Q 343.77 172.09 343.87 172.66
  Q 345.41 181.32 343.03 191.54
  C 342.55 193.62 341.64 195.61 339.05 195.36
  Z"
/>
<path fill="#fffffe" d="
  M 339.05 195.36
  Q 339.50 196.09 338.63 195.88
  Q 324.79 192.49 317.49 179.83
  A 1.04 1.01 -9.6 0 0 316.76 179.33
  Q 315.69 179.16 315.21 178.51
  Q 319.38 177.29 324.21 174.20
  Q 327.72 171.95 333.91 170.33
  Q 334.46 170.18 334.34 170.74
  Q 333.04 176.78 334.03 184.22
  Q 334.94 191.03 339.05 195.36
  Z"
/>
<path fill="#cf8963" d="
  M 276.06 171.39
  Q 277.17 170.99 276.38 171.87
  C 274.28 174.24 272.12 176.48 269.20 177.84
  Q 267.30 178.73 265.72 179.97
  Q 265.24 180.34 264.78 179.94
  L 259.13 175.12
  Q 258.56 174.62 259.31 174.61
  Q 267.67 174.40 276.06 171.39
  Z"
/>
<path fill="#ffe3bd" d="
  M 357.65 175.90
  Q 358.66 179.50 359.75 182.12
  Q 362.42 188.52 365.87 193.15
  Q 367.98 195.98 371.09 198.03
  Q 377.99 202.58 384.11 205.19
  Q 384.40 205.31 384.43 205.63
  Q 384.47 205.99 384.17 206.52
  L 383.36 206.70
  Q 376.38 204.32 370.41 199.86
  Q 366.26 196.75 363.38 192.37
  Q 360.72 188.31 358.41 183.24
  Q 356.26 178.54 357.65 175.90
  Z"
/>
<path fill="#d61923" d="
  M 251.37 214.66
  Q 249.46 212.05 245.59 208.16
  C 243.82 206.38 243.45 203.35 244.72 201.09
  C 246.91 197.20 246.96 193.17 243.31 190.01
  Q 239.73 186.91 235.16 189.14
  Q 231.35 190.99 229.69 198.75
  Q 227.99 194.01 228.63 190.98
  Q 230.43 182.56 237.45 182.43
  C 248.15 182.25 255.44 196.55 250.44 205.32
  A 1.59 1.58 -49.2 0 0 250.56 207.07
  Q 253.47 210.85 255.25 215.22
  A 0.31 0.31 0.0 0 1 254.93 215.65
  Q 252.85 215.42 251.37 214.66
  Z"
/>
<path fill="#f5715d" d="
  M 251.37 214.66
  Q 247.79 214.07 244.43 213.40
  Q 240.64 212.66 238.19 210.89
  Q 231.70 206.20 229.69 198.75
  Q 231.35 190.99 235.16 189.14
  Q 239.73 186.91 243.31 190.01
  C 246.96 193.17 246.91 197.20 244.72 201.09
  C 243.45 203.35 243.82 206.38 245.59 208.16
  Q 249.46 212.05 251.37 214.66
  Z"
/>
<path fill="#cf8963" d="
  M 178.21 299.09
  Q 182.23 308.87 190.96 314.45
  Q 191.23 314.63 191.07 314.91
  Q 188.51 319.35 184.63 322.47
  C 177.91 327.87 170.62 331.03 162.19 327.68
  Q 159.99 326.80 162.33 326.39
  C 166.18 325.72 169.73 323.71 172.03 320.87
  Q 174.30 318.07 171.26 320.01
  Q 168.71 321.64 165.86 322.39
  Q 154.45 325.44 144.54 322.15
  Q 141.57 321.17 138.61 318.87
  Q 138.09 318.46 138.74 318.34
  C 149.20 316.26 159.51 308.11 157.05 296.39
  Q 155.92 291.03 155.21 285.67
  Q 154.21 278.19 155.93 268.92
  Q 157.11 262.54 160.64 255.89
  Q 164.47 248.69 169.05 242.37
  Q 169.11 242.29 169.02 242.34
  C 161.68 245.92 156.86 251.33 152.51 258.12
  C 145.68 268.76 144.80 282.92 148.49 294.46
  Q 148.84 295.55 147.96 294.82
  Q 142.45 290.22 139.27 284.12
  Q 135.85 268.84 142.47 255.59
  Q 150.98 245.09 154.08 242.57
  Q 166.32 232.60 175.05 222.23
  Q 176.97 219.95 181.68 212.38
  C 185.44 206.32 188.01 199.87 190.07 193.19
  Q 190.81 190.79 190.89 193.30
  Q 190.92 194.45 190.67 195.60
  Q 190.43 196.73 190.32 198.00
  Q 188.48 220.14 181.59 236.64
  Q 176.02 249.98 172.26 261.85
  C 168.92 272.41 169.87 284.66 175.44 294.42
  Q 176.08 295.55 176.48 296.89
  Q 177.14 299.08 178.21 299.09
  Z"
/>
<path fill="#c1704c" d="
  M 213.22 204.99
  Q 217.52 214.57 219.89 217.63
  C 226.96 226.78 238.33 235.30 250.19 236.58
  Q 250.66 236.63 250.78 237.09
  Q 251.38 239.44 251.82 241.75
  Q 254.80 257.67 255.78 270.24
  Q 255.93 272.26 255.44 274.63
  L 249.02 261.14
  Q 246.94 254.02 243.71 247.66
  C 243.10 246.46 242.08 245.34 241.00 244.73
  Q 236.27 242.07 229.93 239.73
  Q 223.49 233.53 219.15 225.59
  Q 218.16 223.78 215.20 216.50
  Q 212.87 210.79 213.22 204.99
  Z"
/>
<path fill="#f5715d" d="
  M 383.36 206.70
  L 384.17 206.52
  C 383.17 209.62 381.07 212.02 378.70 214.33
  Q 375.38 217.55 369.98 219.70
  Q 366.57 221.06 366.83 225.98
  Q 362.47 223.37 360.28 218.75
  A 1.29 1.28 63.5 0 1 360.84 217.06
  Q 366.71 214.04 373.21 212.25
  C 376.00 211.48 379.40 210.28 381.43 208.21
  Q 382.37 207.25 383.36 206.70
  Z
  M 372.22 216.98
  L 371.86 215.62
  A 0.29 0.29 0.0 0 0 371.51 215.42
  L 370.54 215.68
  A 6.13 0.75 -15.0 0 0 364.81 217.99
  L 364.94 218.45
  A 6.13 0.75 -15.0 0 0 371.05 217.59
  L 372.02 217.33
  A 0.29 0.29 0.0 0 0 372.22 216.98
  Z"
/>
<path fill="#cf8963" d="
  M 231.47 261.13
  Q 234.61 270.68 235.52 282.74
  Q 236.84 300.18 228.65 313.36
  C 219.31 328.37 202.26 334.75 184.83 332.98
  Q 183.71 332.87 184.70 332.33
  Q 196.01 326.14 200.54 314.00
  Q 200.79 313.35 200.09 313.25
  Q 199.94 313.22 199.78 313.19
  Q 199.20 313.04 198.71 312.69
  Q 185.02 303.02 184.94 286.61
  Q 184.86 271.51 193.21 258.92
  Q 193.79 258.05 192.83 258.47
  L 188.94 260.17
  Q 197.13 249.09 197.13 237.50
  Q 197.13 226.06 196.30 214.68
  Q 196.28 214.44 196.51 214.42
  L 196.52 214.42
  Q 196.76 214.40 196.79 214.64
  Q 198.40 229.10 203.97 243.13
  C 204.62 244.77 204.93 246.51 205.59 248.15
  C 209.99 259.13 214.77 270.27 217.40 281.75
  Q 220.54 295.44 217.91 309.96
  Q 217.78 310.69 218.29 310.16
  Q 223.55 304.70 225.78 300.19
  Q 231.25 289.14 231.67 277.99
  Q 231.83 273.98 231.47 261.13
  Z"
/>
<path fill="#d61923" d="
  M 372.22 216.98
  A 0.29 0.29 0.0 0 1 372.02 217.33
  L 371.05 217.59
  A 6.13 0.75 -15.0 0 1 364.94 218.45
  L 364.81 217.99
  A 6.13 0.75 -15.0 0 1 370.54 215.68
  L 371.51 215.42
  A 0.29 0.29 0.0 0 1 371.86 215.62
  L 372.22 216.98
  Z"
/>
<path fill="#f5715d" d="
  M 264.22 228.38
  Q 268.12 235.69 270.72 238.53
  C 279.79 248.47 286.05 255.09 295.81 260.01
  C 301.09 262.68 306.52 265.55 312.14 267.41
  Q 312.58 267.55 312.56 268.00
  Q 312.53 268.47 312.07 268.58
  Q 311.41 268.73 311.23 269.28
  Q 308.39 268.46 305.55 267.32
  Q 292.84 262.22 287.84 259.40
  Q 280.33 255.17 274.36 248.93
  Q 271.40 245.83 268.29 242.90
  Q 267.37 242.03 266.75 240.93
  Q 266.36 240.24 266.34 241.03
  C 266.31 243.19 268.24 246.44 269.40 248.16
  C 271.85 251.78 274.26 255.47 277.15 258.63
  Q 279.44 261.13 281.46 263.74
  Q 287.43 271.48 294.99 278.81
  A 0.69 0.69 0.0 0 1 295.02 279.76
  C 293.64 281.30 292.44 283.11 291.63 285.00
  Q 287.04 295.66 284.65 307.06
  Q 284.64 306.56 284.44 306.31
  Q 284.29 306.11 284.03 306.15
  Q 281.63 304.42 279.26 302.64
  Q 276.86 300.83 274.86 298.70
  Q 269.77 293.29 264.67 286.96
  Q 264.53 276.38 263.14 264.51
  Q 261.51 250.65 259.10 236.83
  A 1.11 1.11 0.0 0 1 259.26 236.05
  L 264.22 228.38
  Z"
/>
<path fill="#fffffe" d="
  M 150.53 231.19
  Q 143.85 243.59 142.47 255.59
  Q 135.85 268.84 139.27 284.12
  C 133.41 274.99 134.36 260.50 137.47 250.97
  Q 140.73 240.95 150.53 231.19
  Z"
/>
<path fill="#ff3f40" d="
  M 369.50 231.91
  Q 369.01 237.79 364.07 240.85
  Q 363.65 241.10 364.36 242.12
  Q 353.10 241.09 342.55 238.72
  Q 340.68 238.22 339.13 237.46
  Q 338.16 236.99 338.22 235.92
  A 1.01 1.01 0.0 0 1 339.58 235.03
  Q 346.14 237.46 353.24 235.60
  Q 358.85 234.12 364.95 232.61
  Q 366.18 232.31 367.50 232.33
  Q 368.72 232.36 369.50 231.91
  Z"
/>
<path fill="#cf8963" d="
  M 129.14 288.58
  Q 118.63 269.66 125.10 250.90
  Q 127.22 244.74 131.36 239.09
  L 135.74 237.73
  Q 136.58 237.46 136.06 238.18
  C 128.96 247.93 125.68 260.70 126.93 272.27
  Q 128.32 285.13 137.66 295.02
  Q 138.03 295.41 137.55 295.17
  Q 131.69 292.16 129.14 288.58
  Z"
/>
<path fill="#f5715d" d="
  M 342.55 238.72
  Q 353.10 241.09 364.36 242.12
  Q 367.89 249.15 361.82 253.57
  Q 361.27 253.00 359.26 252.96
  Q 357.49 252.47 355.79 251.94
  C 349.61 250.02 344.86 244.65 342.55 238.72
  Z"
/>
<path fill="#fffffe" d="
  M 131.36 239.09
  Q 127.22 244.74 125.10 250.90
  Q 118.63 269.66 129.14 288.58
  Q 122.77 283.03 120.84 275.20
  C 117.66 262.26 120.42 251.53 127.52 240.19
  Q 127.82 239.71 128.38 239.62
  L 131.36 239.09
  Z"
/>
<path fill="#cf8963" d="
  M 229.93 239.73
  Q 236.27 242.07 241.00 244.73
  C 242.08 245.34 243.10 246.46 243.71 247.66
  Q 246.94 254.02 249.02 261.14
  L 229.93 239.73
  Z"
/>
<path fill="#dfaa81" d="
  M 230.27 252.68
  Q 230.05 253.02 229.64 252.77
  Q 228.67 250.19 228.24 247.88
  Q 228.05 246.80 228.49 247.80
  Q 229.53 250.12 230.27 252.68
  Z"
/>
<path fill="#fffffe" d="
  M 359.26 252.96
  Q 361.27 253.00 361.82 253.57
  Q 358.01 258.26 358.05 264.33
  Q 358.09 269.05 357.79 270.13
  C 355.71 277.50 347.69 278.04 341.01 276.93
  Q 331.73 275.39 322.43 272.61
  Q 324.65 272.27 326.87 272.71
  Q 331.02 273.53 331.19 273.55
  C 337.26 274.24 350.15 276.99 353.43 269.91
  Q 353.99 268.70 354.16 265.26
  Q 354.51 258.03 359.26 252.96
  Z"
/>
<path fill="#cf8963" d="
  M 237.38 262.36
  Q 243.92 271.89 248.35 282.54
  Q 252.25 291.88 251.27 302.01
  Q 250.80 306.91 248.01 310.95
  Q 247.02 312.38 247.95 312.29
  Q 244.71 316.06 239.11 318.99
  Q 241.22 313.22 242.74 308.24
  Q 245.72 298.45 243.65 288.46
  Q 243.45 282.26 241.51 275.50
  Q 239.23 267.57 237.38 262.36
  Z"
/>
<path fill="#ffb792" d="
  M 264.67 286.96
  Q 269.77 293.29 274.86 298.70
  Q 276.86 300.83 279.26 302.64
  Q 281.63 304.42 284.03 306.15
  Q 283.02 306.03 282.86 306.87
  Q 280.55 318.63 281.51 331.50
  Q 281.90 336.77 284.95 341.05
  Q 294.39 354.29 305.40 367.08
  Q 293.21 365.67 288.06 363.48
  Q 271.88 356.60 262.47 349.76
  Q 254.70 344.11 252.00 342.50
  Q 249.96 341.28 243.03 335.32
  Q 251.74 328.52 254.45 318.17
  Q 259.26 312.19 260.19 308.97
  Q 261.33 305.03 262.65 301.18
  Q 264.37 296.16 264.67 286.96
  Z"
/>
<path fill="#c1704c" d="
  M 243.65 288.46
  Q 245.72 298.45 242.74 308.24
  Q 241.22 313.22 239.11 318.99
  Q 237.10 320.53 233.05 321.39
  Q 232.55 321.49 232.89 321.11
  Q 237.31 316.22 239.20 310.75
  Q 242.71 300.56 243.65 288.46
  Z"
/>
<path fill="#fffffe" d="
  M 284.03 306.15
  Q 284.29 306.11 284.44 306.31
  Q 284.64 306.56 284.65 307.06
  Q 283.51 313.42 282.79 325.00
  Q 282.17 334.78 287.35 341.27
  Q 293.60 349.10 299.78 357.02
  C 302.23 360.15 304.22 363.35 307.16 366.09
  Q 307.98 366.86 306.86 366.96
  L 305.40 367.08
  Q 294.39 354.29 284.95 341.05
  Q 281.90 336.77 281.51 331.50
  Q 280.55 318.63 282.86 306.87
  Q 283.02 306.03 284.03 306.15
  Z"
/>
<path fill="#f5715d" d="
  M 254.45 318.17
  Q 251.74 328.52 243.03 335.32
  L 237.38 329.25
  Q 237.01 328.85 237.52 328.66
  Q 246.73 325.15 254.45 318.17
  Z"
/>
<path fill="#d61923" d="
  M 236.99 340.41
  Q 230.68 342.61 224.44 344.25
  C 221.09 345.13 218.48 346.37 215.85 348.44
  Q 214.78 349.29 216.14 349.26
  C 224.92 349.11 234.13 352.07 240.14 358.63
  C 244.71 363.63 248.55 367.68 251.58 374.15
  Q 252.21 375.48 252.32 376.76
  Q 252.55 379.55 251.01 377.21
  C 248.19 372.95 245.74 368.52 241.96 365.06
  Q 239.36 362.68 236.97 360.46
  C 232.46 356.26 224.77 353.05 218.55 353.16
  C 210.40 353.31 202.58 358.98 198.52 365.38
  Q 192.42 374.99 190.36 387.75
  Q 186.70 410.44 190.51 437.29
  Q 187.29 436.86 178.24 434.28
  Q 176.00 433.65 176.00 431.77
  Q 176.00 430.82 176.00 430.74
  Q 173.56 403.28 178.32 376.29
  Q 178.71 376.74 179.07 376.64
  Q 179.40 376.55 179.52 376.25
  C 183.54 365.95 189.12 357.56 195.47 348.20
  Q 196.58 346.56 198.99 341.23
  Q 208.04 339.74 216.98 335.93
  Q 221.83 333.86 225.69 330.39
  A 0.48 0.48 0.0 0 1 226.34 330.39
  L 236.99 340.41
  Z"
/>
<path fill="#ff3f40" d="
  M 236.99 340.41
  Q 250.01 351.79 265.33 361.04
  C 270.86 364.38 277.37 367.20 283.46 370.01
  C 292.49 374.17 304.19 376.71 314.55 375.49
  Q 315.05 375.43 315.40 375.80
  L 319.89 380.58
  Q 307.85 382.06 296.00 378.54
  Q 284.71 375.18 275.03 369.29
  C 269.63 366.00 265.22 363.72 260.29 360.96
  Q 259.40 360.46 258.93 361.36
  Q 258.54 362.13 259.10 362.79
  Q 260.43 364.35 262.16 365.64
  C 273.49 374.12 285.42 380.84 299.04 384.61
  C 306.71 386.74 316.59 386.64 324.11 385.31
  Q 334.73 395.78 344.12 407.90
  Q 351.40 417.30 353.91 428.80
  Q 345.01 440.73 331.73 443.97
  Q 318.28 447.24 306.20 443.78
  Q 279.96 436.28 268.13 410.12
  Q 269.06 400.11 266.24 391.36
  Q 265.58 389.31 265.32 391.45
  Q 264.32 399.67 262.35 408.41
  Q 262.14 409.35 261.91 408.42
  C 260.82 404.05 260.05 398.99 257.89 395.03
  Q 255.67 390.97 253.44 387.27
  Q 253.39 387.19 253.30 387.22
  L 252.98 387.36
  Q 252.76 387.46 252.84 387.69
  Q 253.65 389.94 253.80 392.18
  Q 255.17 413.42 255.81 434.13
  A 0.75 0.75 0.0 0 1 255.25 434.88
  C 234.38 440.53 211.95 440.50 190.51 437.29
  Q 186.70 410.44 190.36 387.75
  Q 192.42 374.99 198.52 365.38
  C 202.58 358.98 210.40 353.31 218.55 353.16
  C 224.77 353.05 232.46 356.26 236.97 360.46
  Q 239.36 362.68 241.96 365.06
  C 245.74 368.52 248.19 372.95 251.01 377.21
  Q 252.55 379.55 252.32 376.76
  Q 252.21 375.48 251.58 374.15
  C 248.55 367.68 244.71 363.63 240.14 358.63
  C 234.13 352.07 224.92 349.11 216.14 349.26
  Q 214.78 349.29 215.85 348.44
  C 218.48 346.37 221.09 345.13 224.44 344.25
  Q 230.68 342.61 236.99 340.41
  Z"
/>
<path fill="#ff3f40" d="
  M 198.99 341.23
  Q 196.58 346.56 195.47 348.20
  C 189.12 357.56 183.54 365.95 179.52 376.25
  Q 179.40 376.55 179.07 376.64
  Q 178.71 376.74 178.32 376.29
  Q 181.80 360.48 190.24 346.80
  Q 192.36 343.38 194.28 342.03
  Q 195.57 341.13 198.99 341.23
  Z"
/>
<path fill="#d61923" d="
  M 319.89 380.58
  L 324.11 385.31
  C 316.59 386.64 306.71 386.74 299.04 384.61
  C 285.42 380.84 273.49 374.12 262.16 365.64
  Q 260.43 364.35 259.10 362.79
  Q 258.54 362.13 258.93 361.36
  Q 259.40 360.46 260.29 360.96
  C 265.22 363.72 269.63 366.00 275.03 369.29
  Q 284.71 375.18 296.00 378.54
  Q 307.85 382.06 319.89 380.58
  Z"
/>
<path fill="#d61923" d="
  M 268.13 410.12
  Q 279.96 436.28 306.20 443.78
  Q 318.28 447.24 331.73 443.97
  Q 345.01 440.73 353.91 428.80
  Q 356.23 444.13 349.05 457.52
  Q 346.28 462.68 341.49 469.48
  L 257.35 469.49
  L 258.79 443.56
  A 1.83 1.83 0.0 0 1 259.99 441.95
  L 261.95 441.23
  A 1.76 1.74 81.2 0 0 263.09 439.66
  Q 263.22 436.29 263.24 432.99
  Q 263.25 430.61 264.40 426.95
  Q 266.94 418.83 268.13 410.12
  Z"
/>
<path fill="#f5715d" d="
  M 250.11 449.79
  Q 250.17 449.38 250.12 449.13
  Q 249.98 448.52 249.52 448.94
  Q 248.47 449.89 247.05 450.19
  C 231.01 453.61 214.41 452.97 197.92 451.78
  A 0.70 0.70 0.0 0 0 197.16 452.54
  L 198.48 469.49
  L 185.54 469.54
  L 182.51 445.04
  Q 182.44 444.47 183.00 444.59
  Q 192.85 446.73 201.42 447.14
  Q 220.13 448.03 235.96 447.17
  Q 241.95 446.84 249.52 445.16
  Q 250.11 445.02 250.11 445.63
  L 250.11 449.79
  Z"
/>
<path fill="#ffb792" d="
  M 250.11 449.79
  L 249.16 469.51
  L 198.48 469.49
  L 197.16 452.54
  A 0.70 0.70 0.0 0 1 197.92 451.78
  C 214.41 452.97 231.01 453.61 247.05 450.19
  Q 248.47 449.89 249.52 448.94
  Q 249.98 448.52 250.12 449.13
  Q 250.17 449.38 250.11 449.79
  Z"
/>
</svg>
