<?xml version="1.0" encoding="UTF-8" standalone="no"?>
<svg xmlns="http://www.w3.org/2000/svg" version="1.2" baseProfile="tiny" viewBox="0.00 0.00 800.00 800.00">
<g stroke-width="2.00" fill="none" stroke-linecap="butt">
<path stroke="#101f23" vector-effect="non-scaling-stroke" d="
  M 555.26 97.77
  L 554.98 96.89
  Q 554.84 96.46 554.44 96.26
  Q 545.07 91.37 536.17 88.33
  C 531.36 86.70 526.86 84.78 522.01 83.34
  Q 512.67 80.57 503.85 77.73
  Q 495.23 74.97 484.54 72.78
  C 479.97 71.85 475.55 70.57 470.94 69.76
  C 461.72 68.12 452.58 66.32 443.22 65.19
  C 435.27 64.23 427.42 63.30 419.09 62.92
  Q 413.29 62.66 406.74 62.36
  Q 392.35 61.72 375.26 63.40
  Q 366.94 64.21 353.08 66.56
  C 346.66 67.65 340.17 69.42 333.74 70.98
  Q 325.34 73.03 317.68 76.69"
/>
<path stroke="#11303b" vector-effect="non-scaling-stroke" d="
  M 317.68 76.69
  L 308.01 80.69"
/>
<path stroke="#101f23" vector-effect="non-scaling-stroke" d="
  M 308.01 80.69
  Q 282.57 91.58 263.91 111.65
  C 257.96 118.05 251.21 128.02 251.07 136.95
  C 250.98 142.74 256.83 143.47 261.18 142.77
  Q 267.75 141.72 275.06 137.82
  Q 286.05 131.96 295.85 125.71
  Q 300.53 122.72 305.69 121.24
  A 0.65 0.65 0.0 0 1 306.46 122.12
  Q 306.09 122.98 305.42 123.65
  Q 295.95 133.19 285.47 143.33
  Q 276.36 152.13 270.62 162.51
  Q 269.30 164.90 269.31 167.56
  C 269.33 170.48 272.40 171.44 274.82 170.55
  Q 280.16 168.60 284.13 165.54
  Q 292.24 159.29 310.16 144.46
  C 312.44 142.58 315.05 141.02 317.61 139.51
  A 0.85 0.85 0.0 0 1 318.87 140.42
  Q 318.68 141.34 318.26 142.12
  Q 313.90 150.31 309.25 158.77
  Q 306.37 164.01 304.95 169.36
  C 304.55 170.88 304.48 174.30 305.38 175.61
  C 307.52 178.71 317.17 176.85 319.78 176.12
  Q 339.39 170.58 356.43 160.67
  Q 372.88 151.12 393.05 135.51
  Q 395.42 133.67 398.34 132.72
  A 1.82 1.82 0.0 0 1 400.73 134.43
  Q 400.75 135.60 399.98 136.59
  Q 391.04 148.16 381.64 162.84
  Q 378.29 168.07 375.60 175.12
  C 373.69 180.11 371.91 189.17 376.96 192.48
  C 383.31 196.65 397.63 188.55 403.35 184.56
  Q 408.30 181.09 413.27 177.59
  Q 414.40 176.79 414.98 177.83
  A 0.97 0.94 40.6 0 1 415.05 178.59
  Q 412.05 188.15 409.46 198.69
  Q 408.56 202.37 409.14 208.60
  C 409.57 213.16 412.79 216.20 417.52 215.45
  Q 426.52 214.02 433.28 209.85
  Q 438.32 206.75 445.10 200.92
  C 453.14 194.01 459.64 186.71 466.62 178.73
  Q 468.08 177.06 470.04 177.11
  A 1.56 1.56 0.0 0 1 471.51 179.08
  C 470.27 183.74 469.30 188.55 467.71 193.05
  Q 463.77 204.13 460.24 214.93
  Q 459.06 218.53 458.77 222.29
  A 1.43 1.43 0.0 0 0 460.80 223.69
  C 461.94 223.16 462.86 222.69 463.71 221.72
  Q 480.05 202.91 487.36 179.65
  Q 490.53 169.56 491.15 160.93
  Q 492.26 145.36 490.49 132.09
  Q 489.91 127.74 488.80 124.34
  Q 487.70 120.99 487.28 117.45
  A 1.55 1.55 0.0 0 1 488.97 115.72
  C 490.81 115.91 492.45 116.88 493.85 118.07
  Q 501.33 124.45 509.38 131.36
  C 513.82 135.17 518.58 138.77 523.05 142.59
  C 530.42 148.90 537.99 154.08 545.78 159.71
  Q 554.23 165.81 562.88 168.69
  A 2.18 2.18 0.0 0 0 565.68 167.15
  Q 566.10 165.49 565.17 163.83
  Q 557.86 150.86 548.74 141.38
  Q 546.96 139.52 545.88 137.20
  Q 545.46 136.27 546.06 135.45
  A 1.34 1.34 0.0 0 1 547.56 134.98
  Q 550.84 136.10 553.48 137.93
  Q 572.80 151.32 585.59 167.17
  Q 599.25 184.08 607.34 205.70
  Q 609.19 210.63 610.20 215.78
  A 0.76 0.75 -6.6 0 0 610.98 216.39
  Q 611.49 216.37 611.67 215.90
  Q 613.11 212.18 613.49 208.34
  Q 614.90 194.07 611.95 183.27
  Q 606.96 164.98 597.43 152.26
  Q 587.04 138.38 574.22 128.62
  Q 572.50 127.32 573.26 125.39
  C 574.05 123.39 576.36 123.72 577.94 124.41
  C 586.55 128.17 594.40 133.79 602.09 139.62
  C 607.92 144.04 613.33 149.10 619.32 153.16
  C 622.98 155.63 631.05 158.13 629.80 150.23"
/>
<path stroke="#723f30" vector-effect="non-scaling-stroke" d="
  M 561.81 800.00
  L 552.23 780.77
  Q 551.92 780.15 551.91 780.84
  Q 551.66 790.33 549.71 800.00"
/>
<path stroke="#15607e" vector-effect="non-scaling-stroke" d="
  M 538.36 800.00
  Q 542.47 779.55 541.32 762.49
  Q 540.17 745.34 533.06 729.66
  C 530.93 724.96 528.85 720.19 526.39 715.63
  Q 512.55 690.01 499.06 664.21
  Q 497.37 660.98 496.42 657.46"
/>
<path stroke="#11303b" vector-effect="non-scaling-stroke" d="
  M 496.42 657.46
  Q 496.70 654.60 496.86 651.74
  Q 497.11 647.51 496.45 646.31
  Q 492.43 639.05 486.51 632.58"
/>
<path stroke="#15607e" vector-effect="non-scaling-stroke" d="
  M 486.51 632.58
  Q 485.42 630.60 483.52 628.49
  Q 470.21 613.71 452.48 603.37"
/>
<path stroke="#11303b" vector-effect="non-scaling-stroke" d="
  M 452.48 603.37
  L 440.72 596.29"
/>
<path stroke="#805e47" vector-effect="non-scaling-stroke" d="
  M 440.72 596.29
  Q 436.26 593.26 430.13 589.89
  C 424.35 586.72 424.10 578.28 424.95 572.25
  Q 425.97 565.04 426.79 558.55"
/>
<path stroke="#723f30" vector-effect="non-scaling-stroke" d="
  M 426.79 558.55
  L 430.60 537.98
  A 0.84 0.84 0.0 0 0 430.06 537.04
  C 405.73 528.13 385.25 510.20 370.64 488.67
  A 1.28 1.26 66.8 0 0 369.34 488.14
  Q 363.76 489.30 358.52 489.64
  A 1.33 1.32 -84.1 0 0 357.33 490.62
  L 351.64 511.93"
/>
<path stroke="#805e47" vector-effect="non-scaling-stroke" d="
  M 351.64 511.93
  Q 349.72 519.51 347.25 527.01
  Q 344.17 536.36 339.41 544.97
  C 336.14 550.90 331.25 554.03 326.28 558.09"
/>
<path stroke="#11303b" vector-effect="non-scaling-stroke" d="
  M 326.28 558.09
  L 312.86 568.06"
/>
<path stroke="#15607e" vector-effect="non-scaling-stroke" d="
  M 312.86 568.06
  Q 302.74 576.26 294.39 583.39
  Q 276.00 599.11 260.77 618.77"
/>
<path stroke="#11303b" vector-effect="non-scaling-stroke" d="
  M 260.77 618.77
  Q 254.16 626.65 249.35 637.23"
/>
<path stroke="#15607e" vector-effect="non-scaling-stroke" d="
  M 249.35 637.23
  Q 244.93 643.51 242.53 649.24
  Q 234.53 668.31 234.17 690.25
  Q 233.81 711.93 239.80 741.78"
/>
<path stroke="#11303b" vector-effect="non-scaling-stroke" d="
  M 239.80 741.78
  L 242.26 755.06"
/>
<path stroke="#15607e" vector-effect="non-scaling-stroke" d="
  M 242.26 755.06
  L 247.98 780.45
  Q 248.23 781.54 249.29 781.21
  Q 264.80 776.39 279.89 771.66
  C 299.23 765.58 319.12 760.22 338.36 754.85
  C 355.22 750.14 372.21 746.44 389.17 742.81
  A 0.69 0.69 0.0 0 0 389.65 741.85
  L 379.23 719.49"
/>
<path stroke="#11303b" vector-effect="non-scaling-stroke" d="
  M 379.23 719.49
  L 373.10 706.01"
/>
<path stroke="#15607e" vector-effect="non-scaling-stroke" d="
  M 373.10 706.01
  L 363.93 685.98"
/>
<path stroke="#11303b" vector-effect="non-scaling-stroke" d="
  M 363.93 685.98
  C 367.29 682.44 369.49 683.93 373.28 683.83"
/>
<path stroke="#15607e" vector-effect="non-scaling-stroke" d="
  M 373.28 683.83
  Q 377.40 690.20 379.42 694.33
  Q 389.92 715.67 401.80 743.16
  C 405.10 750.78 397.25 753.60 391.62 754.59
  A 1.09 1.09 0.0 0 0 390.81 756.10
  L 410.04 800.00"
/>
<path stroke="#805e47" vector-effect="non-scaling-stroke" d="
  M 398.22 800.00
  L 384.72 769.42"
/>
<path stroke="#723f30" vector-effect="non-scaling-stroke" d="
  M 384.72 769.42
  L 379.22 757.80
  Q 379.01 757.34 378.52 757.46
  Q 368.50 759.97 357.36 762.71
  C 340.82 766.78 324.41 771.67 308.32 776.23
  C 298.88 778.90 289.71 782.03 280.20 784.60
  A 1.02 1.02 0.0 0 0 279.54 786.03
  L 286.27 800.00"
/>
<path stroke="#805e47" vector-effect="non-scaling-stroke" d="
  M 504.41 160.29
  C 504.43 188.55 498.36 215.21 481.86 238.45
  C 477.96 243.95 474.14 249.00 469.43 253.80
  Q 461.59 261.77 453.54 268.34
  C 444.03 276.11 432.59 281.85 420.70 286.74"
/>
<path stroke="#723f30" vector-effect="non-scaling-stroke" d="
  M 420.70 286.74
  Q 417.93 287.43 415.93 289.01
  Q 415.53 289.33 415.44 289.83
  L 414.60 294.53"
/>
<path stroke="#805e47" vector-effect="non-scaling-stroke" d="
  M 414.60 294.53
  Q 409.98 328.04 412.71 360.01
  Q 413.20 365.69 414.26 371.44
  Q 415.84 380.03 416.51 382.81
  Q 421.51 403.67 434.12 420.63
  C 438.84 426.99 444.92 431.37 451.01 436.08
  A 1.23 1.23 0.0 0 1 450.67 438.21
  C 447.52 439.34 442.84 438.35 439.63 437.56
  C 431.83 435.65 424.41 430.49 418.48 424.77
  Q 411.71 418.23 407.40 411.60
  Q 407.37 411.55 407.32 411.58
  L 407.08 411.72
  Q 406.98 411.78 407.03 411.88
  C 416.90 432.89 436.28 454.64 462.22 449.55
  A 0.97 0.97 0.0 0 1 463.30 450.88
  Q 462.01 453.89 459.38 456.15
  C 449.81 464.35 437.97 467.69 425.53 467.97
  Q 423.95 468.00 425.24 468.91
  Q 428.07 470.91 431.05 472.29
  Q 455.92 483.76 483.89 492.51
  C 488.89 494.08 493.93 495.08 499.00 496.58
  Q 503.16 497.82 507.59 498.65
  C 514.67 499.98 521.53 501.20 528.73 501.50
  C 537.64 501.87 546.08 501.79 553.85 497.50
  C 566.73 490.39 573.36 477.16 576.36 462.73
  Q 579.07 449.68 580.78 439.03
  Q 580.89 438.34 580.19 438.39
  C 577.29 438.60 574.31 438.63 571.41 438.25
  Q 556.88 436.39 543.52 429.83
  Q 540.23 428.21 537.33 426.08
  Q 535.22 424.53 536.23 422.12
  Q 536.39 421.73 536.67 421.40
  Q 537.92 419.90 539.62 420.86
  Q 545.96 424.42 551.39 426.04
  C 560.09 428.62 569.75 430.33 579.44 429.33
  Q 581.18 429.16 582.36 428.21
  Q 587.65 423.96 587.04 416.78
  Q 586.51 410.57 585.64 404.35
  A 3.00 2.98 73.3 0 1 587.31 401.24
  L 594.32 397.89"
/>
<path stroke="#723f30" vector-effect="non-scaling-stroke" d="
  M 594.32 397.89
  Q 610.27 389.46 611.42 373.77"
/>
<path stroke="#7f7f7d" vector-effect="non-scaling-stroke" d="
  M 611.42 373.77
  Q 610.22 369.29 606.76 367.67
  Q 603.30 366.05 598.72 365.12"
/>
<path stroke="#805e47" vector-effect="non-scaling-stroke" d="
  M 598.72 365.12
  Q 581.91 357.90 576.22 341.14
  C 571.85 328.24 574.02 314.37 576.23 301.41
  C 578.59 287.56 582.92 273.61 587.05 260.03"
/>
<path stroke="#723f30" vector-effect="non-scaling-stroke" d="
  M 587.05 260.03
  L 588.82 252.39
  A 1.00 1.00 0.0 0 0 588.32 251.29
  C 579.62 246.66 570.69 241.93 562.97 235.97
  Q 548.94 225.12 538.02 210.97
  Q 527.09 196.82 518.27 179.21
  Q 510.09 162.90 505.00 147.73
  C 504.60 146.53 503.87 145.47 503.26 144.35
  Q 502.98 143.83 503.03 144.42
  L 504.41 160.29"
/>
<path stroke="#f29c77" vector-effect="non-scaling-stroke" d="
  M 587.05 260.03
  C 585.22 258.68 583.52 257.29 581.56 256.13
  Q 570.15 249.37 560.99 240.13
  C 559.88 239.00 558.57 238.68 557.53 237.38
  Q 552.40 230.96 546.24 225.22
  Q 545.87 224.88 545.71 224.40
  C 545.46 223.64 545.10 223.04 544.49 222.51
  Q 542.60 220.89 540.87 218.25
  Q 539.83 216.67 538.25 215.27
  Q 536.76 213.94 535.85 212.36
  Q 533.54 208.35 530.39 204.44
  C 529.03 202.75 528.33 200.73 526.96 199.12
  Q 525.58 197.50 524.63 195.56
  C 523.17 192.59 520.85 189.94 519.46 187.27
  Q 516.86 182.26 513.99 176.31
  Q 513.95 176.23 511.36 170.10
  C 509.63 166.03 506.75 162.61 505.71 158.00
  A 0.35 0.34 46.4 0 0 505.04 157.98
  L 504.41 160.29"
/>
<path stroke="#ffdcc4" vector-effect="non-scaling-stroke" d="
  M 598.72 365.12
  L 605.33 376.02"
/>
<path stroke="#f29c77" vector-effect="non-scaling-stroke" d="
  M 605.33 376.02
  Q 602.04 377.59 598.13 379.11
  Q 593.21 381.04 590.86 382.58
  Q 586.92 385.17 583.30 390.27
  C 582.16 391.89 580.75 393.28 579.45 394.76
  A 0.41 0.40 22.5 0 0 579.73 395.43
  Q 582.49 395.63 585.54 395.31
  Q 587.20 395.14 588.98 396.39
  Q 589.48 396.74 590.08 396.64
  Q 591.99 396.33 593.98 396.33
  Q 594.44 396.33 594.62 396.72
  Q 594.82 397.15 594.32 397.89"
/>
<path stroke="#f29c77" vector-effect="non-scaling-stroke" d="
  M 414.60 294.53
  L 436.91 282.11
  A 0.37 0.37 0.0 0 0 436.85 281.44
  Q 436.16 281.19 435.49 281.52
  Q 427.84 285.35 420.88 288.40
  Q 420.45 288.59 420.16 288.24
  Q 419.83 287.86 420.22 287.54
  Q 420.64 287.19 420.70 286.74"
/>
<path stroke="#f1bdac" vector-effect="non-scaling-stroke" d="
  M 611.42 373.77
  L 605.33 376.02"
/>
<path stroke="#7f7f7d" vector-effect="non-scaling-stroke" d="
  M 595.22 270.85
  L 596.21 271.10
  A 0.19 0.19 0.0 0 0 596.44 270.97
  L 596.49 270.76
  A 7.48 0.70 -75.5 0 0 597.69 263.35
  L 597.69 263.35
  A 7.48 0.70 -75.5 0 0 595.14 270.41
  L 595.08 270.62
  A 0.19 0.19 0.0 0 0 595.22 270.85"
/>
<path stroke="#723f30" vector-effect="non-scaling-stroke" d="
  M 337.27 359.05
  Q 332.42 349.21 338.62 340.62
  Q 341.66 336.42 346.80 335.71
  A 0.77 0.77 0.0 0 0 347.44 334.72
  C 344.15 324.19 338.52 315.60 328.18 310.84
  Q 320.83 307.47 311.65 308.99"
/>
<path stroke="#805e47" vector-effect="non-scaling-stroke" d="
  M 311.65 308.99
  Q 320.90 299.14 335.24 304.32
  C 351.11 310.05 359.25 326.52 359.25 342.62
  Q 359.25 344.31 357.81 345.44
  Q 354.65 347.93 353.16 351.40
  Q 352.93 351.93 353.07 352.49
  C 354.20 357.17 357.89 360.76 360.70 364.45
  Q 361.81 365.90 361.91 364.08
  Q 362.02 361.82 362.46 359.48
  Q 366.89 335.84 374.16 311.83
  Q 374.56 310.52 373.99 309.26
  C 367.56 294.99 357.21 284.07 342.29 279.50
  C 327.37 274.93 311.26 279.70 300.06 290.33
  C 283.91 305.64 279.67 328.15 286.50 349.00
  C 296.38 379.17 324.79 399.28 356.98 390.38
  Q 359.68 389.63 359.64 387.16
  Q 359.61 384.95 359.62 384.85
  Q 360.59 375.34 361.20 366.55
  Q 361.26 365.62 360.61 366.28
  Q 359.69 367.19 358.99 368.41
  A 1.58 1.57 6.5 0 1 358.09 369.12
  Q 356.80 369.50 355.52 369.46
  Q 343.34 369.08 337.27 359.05"
/>
<path stroke="#f29c77" vector-effect="non-scaling-stroke" d="
  M 311.65 308.99
  Q 305.21 315.32 303.30 324.26
  Q 302.82 326.52 303.19 328.80
  Q 303.27 329.34 303.75 329.07
  Q 308.35 326.50 313.76 329.02
  Q 320.17 332.00 323.92 337.21
  Q 329.33 344.71 332.77 354.46
  Q 333.69 357.07 337.27 359.05"
/>
<path stroke="#7f7f7d" vector-effect="non-scaling-stroke" d="
  M 161.56 317.01
  L 161.84 317.08
  A 0.44 0.43 16.9 0 0 162.37 316.80
  Q 163.11 314.53 163.56 312.39
  Q 163.81 311.22 163.21 312.26
  Q 162.03 314.31 161.26 316.45
  Q 161.10 316.89 161.56 317.01"
/>
<path stroke="#7f7f7d" vector-effect="non-scaling-stroke" d="
  M 244.08 447.76
  Q 244.51 449.87 245.64 451.63
  A 0.62 0.62 0.0 0 0 246.42 451.86
  L 246.69 451.74
  Q 247.02 451.60 246.84 451.28
  Q 245.69 449.31 244.33 447.64
  Q 243.97 447.19 244.08 447.76"
/>
<path stroke="#101f23" vector-effect="non-scaling-stroke" d="
  M 562.67 110.08
  Q 566.22 113.75 570.93 115.78
  Q 572.59 116.50 574.99 118.02
  Q 576.97 119.28 579.32 119.90"
/>
<path stroke="#101f23" vector-effect="non-scaling-stroke" d="
  M 595.37 116.28
  Q 595.44 115.33 596.96 115.84
  A 4.29 4.27 76.7 0 1 598.62 116.87
  Q 600.74 119.00 603.28 120.86
  C 607.57 123.98 611.47 128.45 614.90 132.35
  Q 615.72 133.29 616.87 133.49"
/>
<path stroke="#101f23" vector-effect="non-scaling-stroke" d="
  M 617.22 133.98
  Q 620.55 139.36 625.15 143.52"
/>
<path stroke="#204f5e" vector-effect="non-scaling-stroke" d="
  M 308.01 80.69
  L 302.33 86.28
  A 2.62 2.62 0.0 0 0 302.37 90.06
  Q 304.49 92.05 308.62 90.83
  Q 315.63 88.77 320.22 83.26
  C 322.62 80.39 320.32 78.41 317.68 76.69"
/>
<path stroke="#204f5e" vector-effect="non-scaling-stroke" d="
  M 309.63 104.31
  Q 311.18 106.99 314.90 105.66
  Q 322.37 102.98 327.93 96.27
  C 330.64 93.01 328.88 88.76 324.23 90.42
  C 320.14 91.89 316.88 94.05 313.85 97.50
  Q 311.94 99.68 309.89 101.90
  A 2.04 2.04 0.0 0 0 309.63 104.31"
/>
<path stroke="#204f5e" vector-effect="non-scaling-stroke" d="
  M 537.2268 110.3773
  A 9.27 6.95 21.3 0 0 531.1146 100.5347
  A 9.27 6.95 21.3 0 0 519.9532 103.6427
  A 9.27 6.95 21.3 0 0 526.0654 113.4853
  A 9.27 6.95 21.3 0 0 537.2268 110.3773"
/>
<path stroke="#204f5e" vector-effect="non-scaling-stroke" d="
  M 329.8568 122.4126
  A 3.79 2.41 -33.6 0 0 325.3663 122.5027
  A 3.79 2.41 -33.6 0 0 323.5432 126.6074
  A 3.79 2.41 -33.6 0 0 328.0337 126.5173
  A 3.79 2.41 -33.6 0 0 329.8568 122.4126"
/>
<path stroke="#101f23" vector-effect="non-scaling-stroke" d="
  M 539.5653 143.5762
  A 3.83 2.50 39.5 0 0 538.2002 139.2109
  A 3.83 2.50 39.5 0 0 533.6547 138.7038
  A 3.83 2.50 39.5 0 0 535.0198 143.0691
  A 3.83 2.50 39.5 0 0 539.5653 143.5762"
/>
<path stroke="#101f23" vector-effect="non-scaling-stroke" d="
  M 351.4257 141.6735
  A 7.37 4.73 -44.4 0 0 342.8506 143.4505
  A 7.37 4.73 -44.4 0 0 340.8943 151.9865
  A 7.37 4.73 -44.4 0 0 349.4694 150.2095
  A 7.37 4.73 -44.4 0 0 351.4257 141.6735"
/>
<path stroke="#101f23" vector-effect="non-scaling-stroke" d="
  M 434.4721 180.4176
  A 7.55 4.67 127.9 0 0 442.7950 177.3287
  A 7.55 4.67 127.9 0 0 443.7479 168.5024
  A 7.55 4.67 127.9 0 0 435.4250 171.5913
  A 7.55 4.67 127.9 0 0 434.4721 180.4176"
/>
<path stroke="#805e47" vector-effect="non-scaling-stroke" d="
  M 555.33 258.35
  C 559.08 253.66 557.03 246.88 553.21 242.74
  Q 546.94 235.93 538.40 234.04
  Q 517.94 229.50 497.66 238.57
  Q 490.37 241.83 485.28 247.43
  Q 484.69 248.08 484.70 249.00
  A 0.65 0.65 0.0 0 0 485.53 249.62
  Q 504.61 244.38 524.01 249.20
  Q 537.86 252.65 550.65 258.93
  C 552.32 259.75 554.05 259.96 555.33 258.35"
/>
<path stroke="#ffdcc4" vector-effect="non-scaling-stroke" d="
  M 484.35 324.80
  Q 484.01 325.35 484.25 326.05
  Q 493.27 351.79 519.50 360.07
  C 522.47 361.01 525.55 360.79 528.61 361.00
  Q 531.94 361.23 534.81 359.83
  Q 539.51 357.54 540.99 352.59"
/>
<path stroke="#805e47" vector-effect="non-scaling-stroke" d="
  M 540.99 352.59
  Q 543.76 345.69 544.68 341.50
  Q 550.13 316.93 544.00 292.78
  Q 539.18 273.76 519.97 273.99
  Q 510.19 274.11 501.88 278.95
  C 494.58 283.21 487.69 288.96 483.58 296.72
  Q 483.35 297.16 482.86 297.22
  Q 480.95 297.47 479.04 297.07
  Q 471.43 295.47 462.81 293.37
  Q 461.57 293.06 461.59 294.34
  Q 461.61 295.65 462.29 296.94
  Q 466.83 305.44 476.05 309.97
  Q 476.51 310.20 476.59 310.69
  Q 477.94 318.24 482.71 324.05
  Q 483.24 324.69 484.35 324.80"
/>
<path stroke="#7f7f7d" vector-effect="non-scaling-stroke" d="
  M 540.99 352.59
  Q 537.71 356.69 536.31 357.36
  C 531.19 359.82 527.55 354.66 525.89 350.61
  Q 518.45 332.35 519.90 312.90
  Q 520.53 304.43 523.09 296.94
  Q 525.32 290.43 529.90 288.25
  Q 530.65 287.90 529.84 287.73
  Q 521.51 286.02 513.37 289.01
  Q 497.25 294.93 488.26 309.30
  C 487.37 310.72 486.92 312.35 486.17 313.86
  Q 485.40 315.41 485.12 317.33
  Q 484.60 321.04 484.35 324.80"
/>
<path stroke="#f29c77" vector-effect="non-scaling-stroke" d="
  M 426.79 558.55
  Q 410.97 555.97 395.57 547.39
  Q 372.04 534.27 355.61 516.85
  Q 354.02 515.16 352.81 513.33
  Q 352.53 512.91 352.64 512.42
  Q 352.77 511.80 352.14 511.87
  L 351.64 511.93"
/>
<path stroke="#908e82" vector-effect="non-scaling-stroke" d="
  M 440.72 596.29
  Q 444.14 606.88 444.11 610.12
  C 444.04 618.42 437.34 621.00 430.19 620.19
  Q 419.57 618.99 408.61 614.87
  Q 398.45 611.05 392.59 608.13
  Q 358.58 591.16 331.39 563.86
  Q 328.69 561.15 326.28 558.09"
/>
<path stroke="#2590b8" vector-effect="non-scaling-stroke" d="
  M 452.48 603.37
  Q 458.58 612.53 458.75 621.55
  Q 458.84 626.37 456.67 629.41
  C 454.06 633.07 449.40 635.55 444.90 636.22
  Q 435.07 637.66 425.61 635.90
  Q 409.96 632.99 393.51 625.57
  Q 369.16 614.60 345.01 596.65
  Q 338.82 592.05 330.32 584.32
  Q 321.48 576.28 312.86 568.06"
/>
<path stroke="#2590b8" vector-effect="non-scaling-stroke" d="
  M 486.51 632.58
  L 496.42 657.46"
/>
<path stroke="#2590b8" vector-effect="non-scaling-stroke" d="
  M 494.22 800.00
  Q 504.04 790.38 511.50 778.49
  Q 513.08 775.98 511.58 773.97
  A 1.86 1.86 0.0 0 0 508.83 773.71
  Q 505.30 776.95 501.98 780.47
  Q 493.07 789.93 484.31 800.00"
/>
<path stroke="#2590b8" vector-effect="non-scaling-stroke" d="
  M 373.28 683.83
  Q 371.02 677.95 367.79 672.71
  C 360.16 660.30 352.60 648.71 342.20 637.44
  Q 326.61 620.53 304.02 614.00
  Q 282.43 607.76 260.77 618.77"
/>
<path stroke="#2590b8" vector-effect="non-scaling-stroke" d="
  M 363.93 685.98
  Q 359.29 676.75 354.15 668.05
  C 341.34 646.39 319.42 623.96 293.16 621.85
  Q 274.40 620.34 258.67 630.45
  Q 252.81 634.21 249.35 637.23"
/>
<path stroke="#2590b8" vector-effect="non-scaling-stroke" d="
  M 373.10 706.01
  C 363.47 707.26 353.65 708.39 344.39 710.24
  Q 316.00 715.90 288.26 724.20
  Q 263.66 731.57 239.80 741.78"
/>
<path stroke="#2590b8" vector-effect="non-scaling-stroke" d="
  M 379.23 719.49
  C 374.23 719.99 369.09 720.34 364.29 721.08
  Q 301.26 730.78 242.26 755.06"
/>
<path stroke="#f29c77" vector-effect="non-scaling-stroke" d="
  M 384.72 769.42
  Q 373.67 775.03 358.95 780.19
  C 345.18 785.02 331.35 789.68 317.72 794.93
  Q 311.07 797.49 304.09 800.00"
/>
</g>
<path fill="#000000" d="
  M 555.26 97.77
  L 554.98 96.89
  Q 554.84 96.46 554.44 96.26
  Q 545.07 91.37 536.17 88.33
  C 531.36 86.70 526.86 84.78 522.01 83.34
  Q 512.67 80.57 503.85 77.73
  Q 495.23 74.97 484.54 72.78
  C 479.97 71.85 475.55 70.57 470.94 69.76
  C 461.72 68.12 452.58 66.32 443.22 65.19
  C 435.27 64.23 427.42 63.30 419.09 62.92
  Q 413.29 62.66 406.74 62.36
  Q 392.35 61.72 375.26 63.40
  Q 366.94 64.21 353.08 66.56
  C 346.66 67.65 340.17 69.42 333.74 70.98
  Q 325.34 73.03 317.68 76.69
  L 308.01 80.69
  Q 282.57 91.58 263.91 111.65
  C 257.96 118.05 251.21 128.02 251.07 136.95
  C 250.98 142.74 256.83 143.47 261.18 142.77
  Q 267.75 141.72 275.06 137.82
  Q 286.05 131.96 295.85 125.71
  Q 300.53 122.72 305.69 121.24
  A 0.65 0.65 0.0 0 1 306.46 122.12
  Q 306.09 122.98 305.42 123.65
  Q 295.95 133.19 285.47 143.33
  Q 276.36 152.13 270.62 162.51
  Q 269.30 164.90 269.31 167.56
  C 269.33 170.48 272.40 171.44 274.82 170.55
  Q 280.16 168.60 284.13 165.54
  Q 292.24 159.29 310.16 144.46
  C 312.44 142.58 315.05 141.02 317.61 139.51
  A 0.85 0.85 0.0 0 1 318.87 140.42
  Q 318.68 141.34 318.26 142.12
  Q 313.90 150.31 309.25 158.77
  Q 306.37 164.01 304.95 169.36
  C 304.55 170.88 304.48 174.30 305.38 175.61
  C 307.52 178.71 317.17 176.85 319.78 176.12
  Q 339.39 170.58 356.43 160.67
  Q 372.88 151.12 393.05 135.51
  Q 395.42 133.67 398.34 132.72
  A 1.82 1.82 0.0 0 1 400.73 134.43
  Q 400.75 135.60 399.98 136.59
  Q 391.04 148.16 381.64 162.84
  Q 378.29 168.07 375.60 175.12
  C 373.69 180.11 371.91 189.17 376.96 192.48
  C 383.31 196.65 397.63 188.55 403.35 184.56
  Q 408.30 181.09 413.27 177.59
  Q 414.40 176.79 414.98 177.83
  A 0.97 0.94 40.6 0 1 415.05 178.59
  Q 412.05 188.15 409.46 198.69
  Q 408.56 202.37 409.14 208.60
  C 409.57 213.16 412.79 216.20 417.52 215.45
  Q 426.52 214.02 433.28 209.85
  Q 438.32 206.75 445.10 200.92
  C 453.14 194.01 459.64 186.71 466.62 178.73
  Q 468.08 177.06 470.04 177.11
  A 1.56 1.56 0.0 0 1 471.51 179.08
  C 470.27 183.74 469.30 188.55 467.71 193.05
  Q 463.77 204.13 460.24 214.93
  Q 459.06 218.53 458.77 222.29
  A 1.43 1.43 0.0 0 0 460.80 223.69
  C 461.94 223.16 462.86 222.69 463.71 221.72
  Q 480.05 202.91 487.36 179.65
  Q 490.53 169.56 491.15 160.93
  Q 492.26 145.36 490.49 132.09
  Q 489.91 127.74 488.80 124.34
  Q 487.70 120.99 487.28 117.45
  A 1.55 1.55 0.0 0 1 488.97 115.72
  C 490.81 115.91 492.45 116.88 493.85 118.07
  Q 501.33 124.45 509.38 131.36
  C 513.82 135.17 518.58 138.77 523.05 142.59
  C 530.42 148.90 537.99 154.08 545.78 159.71
  Q 554.23 165.81 562.88 168.69
  A 2.18 2.18 0.0 0 0 565.68 167.15
  Q 566.10 165.49 565.17 163.83
  Q 557.86 150.86 548.74 141.38
  Q 546.96 139.52 545.88 137.20
  Q 545.46 136.27 546.06 135.45
  A 1.34 1.34 0.0 0 1 547.56 134.98
  Q 550.84 136.10 553.48 137.93
  Q 572.80 151.32 585.59 167.17
  Q 599.25 184.08 607.34 205.70
  Q 609.19 210.63 610.20 215.78
  A 0.76 0.75 -6.6 0 0 610.98 216.39
  Q 611.49 216.37 611.67 215.90
  Q 613.11 212.18 613.49 208.34
  Q 614.90 194.07 611.95 183.27
  Q 606.96 164.98 597.43 152.26
  Q 587.04 138.38 574.22 128.62
  Q 572.50 127.32 573.26 125.39
  C 574.05 123.39 576.36 123.72 577.94 124.41
  C 586.55 128.17 594.40 133.79 602.09 139.62
  C 607.92 144.04 613.33 149.10 619.32 153.16
  C 622.98 155.63 631.05 158.13 629.80 150.23
  Q 643.69 171.59 646.97 196.68
  C 647.51 200.79 647.47 204.94 647.55 209.02
  Q 647.85 222.77 643.12 236.55
  Q 634.58 261.42 611.07 274.18
  Q 605.54 277.19 599.62 278.62
  A 1.78 1.77 86.0 0 1 597.44 276.72
  L 597.78 273.22
  A 1.60 1.59 -75.1 0 0 596.85 271.61
  Q 594.60 270.58 593.68 272.92
  Q 592.29 276.44 591.31 279.90
  Q 587.29 294.13 584.93 310.53
  Q 583.33 321.63 583.94 330.52
  Q 584.82 343.18 593.30 350.66
  C 597.90 354.72 604.71 358.07 610.70 360.99
  Q 615.11 363.14 617.20 366.02
  Q 622.12 372.82 619.85 381.42
  C 616.63 393.64 607.94 400.64 596.82 406.07
  A 2.32 2.31 -11.2 0 0 595.53 407.99
  C 595.38 410.36 595.68 412.68 596.21 414.99
  Q 597.80 421.98 593.45 428.67
  C 591.80 431.21 590.49 433.35 590.19 436.53
  Q 589.72 441.72 589.21 446.80
  Q 587.73 461.50 583.28 475.48
  C 577.93 492.26 566.85 504.84 550.15 510.31
  Q 543.97 512.33 535.93 512.28
  Q 525.04 512.23 517.42 511.00
  Q 498.29 507.91 476.31 500.89
  Q 465.60 497.47 455.63 494.21
  Q 453.29 493.45 450.79 494.11
  Q 450.30 494.24 450.06 494.68
  Q 449.03 496.60 448.74 497.77
  C 443.96 516.81 440.76 535.91 437.51 555.15
  Q 435.60 566.41 435.02 576.97
  Q 434.81 580.74 438.06 582.62
  Q 449.52 589.23 459.91 596.07
  Q 482.13 610.67 496.96 629.00
  Q 507.40 641.92 518.86 661.91
  Q 532.24 685.28 544.64 707.73
  Q 548.07 713.95 550.91 720.11
  Q 552.07 722.62 550.44 724.93
  Q 548.19 728.13 545.43 731.34
  C 543.47 733.62 543.80 736.20 544.90 738.83
  Q 551.42 754.44 554.64 761.07
  Q 563.96 780.25 572.97 800.00
  L 561.81 800.00
  L 552.23 780.77
  Q 551.92 780.15 551.91 780.84
  Q 551.66 790.33 549.71 800.00
  L 538.36 800.00
  Q 542.47 779.55 541.32 762.49
  Q 540.17 745.34 533.06 729.66
  C 530.93 724.96 528.85 720.19 526.39 715.63
  Q 512.55 690.01 499.06 664.21
  Q 497.37 660.98 496.42 657.46
  Q 496.70 654.60 496.86 651.74
  Q 497.11 647.51 496.45 646.31
  Q 492.43 639.05 486.51 632.58
  Q 485.42 630.60 483.52 628.49
  Q 470.21 613.71 452.48 603.37
  L 440.72 596.29
  Q 436.26 593.26 430.13 589.89
  C 424.35 586.72 424.10 578.28 424.95 572.25
  Q 425.97 565.04 426.79 558.55
  L 430.60 537.98
  A 0.84 0.84 0.0 0 0 430.06 537.04
  C 405.73 528.13 385.25 510.20 370.64 488.67
  A 1.28 1.26 66.8 0 0 369.34 488.14
  Q 363.76 489.30 358.52 489.64
  A 1.33 1.32 -84.1 0 0 357.33 490.62
  L 351.64 511.93
  Q 349.72 519.51 347.25 527.01
  Q 344.17 536.36 339.41 544.97
  C 336.14 550.90 331.25 554.03 326.28 558.09
  L 312.86 568.06
  Q 302.74 576.26 294.39 583.39
  Q 276.00 599.11 260.77 618.77
  Q 254.16 626.65 249.35 637.23
  Q 244.93 643.51 242.53 649.24
  Q 234.53 668.31 234.17 690.25
  Q 233.81 711.93 239.80 741.78
  L 242.26 755.06
  L 247.98 780.45
  Q 248.23 781.54 249.29 781.21
  Q 264.80 776.39 279.89 771.66
  C 299.23 765.58 319.12 760.22 338.36 754.85
  C 355.22 750.14 372.21 746.44 389.17 742.81
  A 0.69 0.69 0.0 0 0 389.65 741.85
  L 379.23 719.49
  L 373.10 706.01
  L 363.93 685.98
  C 367.29 682.44 369.49 683.93 373.28 683.83
  Q 377.40 690.20 379.42 694.33
  Q 389.92 715.67 401.80 743.16
  C 405.10 750.78 397.25 753.60 391.62 754.59
  A 1.09 1.09 0.0 0 0 390.81 756.10
  L 410.04 800.00
  L 398.22 800.00
  L 384.72 769.42
  L 379.22 757.80
  Q 379.01 757.34 378.52 757.46
  Q 368.50 759.97 357.36 762.71
  C 340.82 766.78 324.41 771.67 308.32 776.23
  C 298.88 778.90 289.71 782.03 280.20 784.60
  A 1.02 1.02 0.0 0 0 279.54 786.03
  L 286.27 800.00
  L 263.28 800.00
  Q 262.02 795.79 259.58 792.31
  A 1.36 1.34 77.0 0 0 258.68 791.74
  C 255.27 791.17 251.46 792.26 248.15 793.26
  C 241.99 795.12 240.14 789.34 239.07 784.88
  Q 234.88 767.48 231.28 750.51
  Q 226.02 725.65 224.65 703.40
  C 224.08 694.06 224.23 684.12 225.61 674.97
  Q 228.47 655.95 235.85 640.16
  C 242.55 625.83 252.30 611.45 263.47 599.36
  Q 281.79 579.53 301.32 563.86
  Q 314.18 553.54 327.40 543.97
  Q 331.33 541.12 333.19 536.33
  Q 341.52 514.83 347.01 492.00
  C 347.44 490.24 346.16 489.30 344.44 489.22
  C 339.31 488.98 334.45 488.75 329.29 488.74
  Q 314.47 488.70 298.58 484.59
  Q 275.23 478.54 259.22 462.30
  Q 254.59 457.60 249.83 453.05
  Q 248.52 451.79 246.83 452.33
  Q 245.20 452.84 245.96 454.38
  Q 252.40 467.39 263.15 477.60
  A 0.90 0.89 -29.6 0 1 262.73 479.12
  C 261.21 479.45 260.03 478.94 258.59 478.58
  Q 223.44 469.74 197.43 443.26
  Q 190.26 435.96 184.83 429.69
  Q 167.16 409.28 160.59 383.40
  C 157.68 371.96 157.77 360.43 158.35 348.04
  Q 158.85 337.18 162.88 321.46
  Q 163.18 320.29 163.11 319.13
  Q 163.00 317.29 160.86 317.30
  A 2.08 2.07 -75.5 0 0 159.07 318.36
  Q 148.52 337.19 145.72 358.14
  Q 145.17 362.20 145.68 376.44
  C 146.33 394.58 155.89 411.98 169.04 424.54
  Q 174.22 429.50 180.11 434.69
  A 1.19 1.18 39.7 0 1 180.26 436.31
  Q 179.39 437.42 177.99 436.97
  C 174.92 435.99 171.55 434.41 168.82 432.57
  Q 146.61 417.62 138.93 392.35
  Q 135.30 380.42 135.36 367.81
  C 135.38 362.01 136.46 355.99 137.37 350.10
  Q 138.18 344.83 140.13 338.29
  C 150.43 303.67 174.42 275.65 189.49 243.26
  C 191.75 238.41 193.24 232.58 194.41 226.45
  C 199.77 198.58 208.58 171.48 222.13 146.59
  C 230.33 131.52 241.50 116.94 253.91 104.62
  Q 274.44 84.24 299.37 72.69
  Q 308.14 68.62 318.80 65.27
  Q 343.96 57.37 364.57 54.74
  Q 379.80 52.79 399.89 52.64
  C 406.53 52.58 413.22 53.35 419.99 53.39
  Q 424.06 53.42 427.97 53.82
  C 434.91 54.52 441.93 54.99 448.65 56.00
  Q 481.93 60.97 514.51 70.99
  Q 541.91 79.42 566.48 92.39
  C 569.32 93.89 572.48 96.22 568.83 99.54
  Q 567.21 101.01 565.52 99.90
  Q 561.45 97.23 556.79 97.11
  Q 556.26 97.10 555.81 97.40
  L 555.26 97.77
  Z
  M 504.41 160.29
  C 504.43 188.55 498.36 215.21 481.86 238.45
  C 477.96 243.95 474.14 249.00 469.43 253.80
  Q 461.59 261.77 453.54 268.34
  C 444.03 276.11 432.59 281.85 420.70 286.74
  Q 417.93 287.43 415.93 289.01
  Q 415.53 289.33 415.44 289.83
  L 414.60 294.53
  Q 409.98 328.04 412.71 360.01
  Q 413.20 365.69 414.26 371.44
  Q 415.84 380.03 416.51 382.81
  Q 421.51 403.67 434.12 420.63
  C 438.84 426.99 444.92 431.37 451.01 436.08
  A 1.23 1.23 0.0 0 1 450.67 438.21
  C 447.52 439.34 442.84 438.35 439.63 437.56
  C 431.83 435.65 424.41 430.49 418.48 424.77
  Q 411.71 418.23 407.40 411.60
  Q 407.37 411.55 407.32 411.58
  L 407.08 411.72
  Q 406.98 411.78 407.03 411.88
  C 416.90 432.89 436.28 454.64 462.22 449.55
  A 0.97 0.97 0.0 0 1 463.30 450.88
  Q 462.01 453.89 459.38 456.15
  C 449.81 464.35 437.97 467.69 425.53 467.97
  Q 423.95 468.00 425.24 468.91
  Q 428.07 470.91 431.05 472.29
  Q 455.92 483.76 483.89 492.51
  C 488.89 494.08 493.93 495.08 499.00 496.58
  Q 503.16 497.82 507.59 498.65
  C 514.67 499.98 521.53 501.20 528.73 501.50
  C 537.64 501.87 546.08 501.79 553.85 497.50
  C 566.73 490.39 573.36 477.16 576.36 462.73
  Q 579.07 449.68 580.78 439.03
  Q 580.89 438.34 580.19 438.39
  C 577.29 438.60 574.31 438.63 571.41 438.25
  Q 556.88 436.39 543.52 429.83
  Q 540.23 428.21 537.33 426.08
  Q 535.22 424.53 536.23 422.12
  Q 536.39 421.73 536.67 421.40
  Q 537.92 419.90 539.62 420.86
  Q 545.96 424.42 551.39 426.04
  C 560.09 428.62 569.75 430.33 579.44 429.33
  Q 581.18 429.16 582.36 428.21
  Q 587.65 423.96 587.04 416.78
  Q 586.51 410.57 585.64 404.35
  A 3.00 2.98 73.3 0 1 587.31 401.24
  L 594.32 397.89
  Q 610.27 389.46 611.42 373.77
  Q 610.22 369.29 606.76 367.67
  Q 603.30 366.05 598.72 365.12
  Q 581.91 357.90 576.22 341.14
  C 571.85 328.24 574.02 314.37 576.23 301.41
  C 578.59 287.56 582.92 273.61 587.05 260.03
  L 588.82 252.39
  A 1.00 1.00 0.0 0 0 588.32 251.29
  C 579.62 246.66 570.69 241.93 562.97 235.97
  Q 548.94 225.12 538.02 210.97
  Q 527.09 196.82 518.27 179.21
  Q 510.09 162.90 505.00 147.73
  C 504.60 146.53 503.87 145.47 503.26 144.35
  Q 502.98 143.83 503.03 144.42
  L 504.41 160.29
  Z
  M 595.22 270.85
  L 596.21 271.10
  A 0.19 0.19 0.0 0 0 596.44 270.97
  L 596.49 270.76
  A 7.48 0.70 -75.5 0 0 597.69 263.35
  L 597.69 263.35
  A 7.48 0.70 -75.5 0 0 595.14 270.41
  L 595.08 270.62
  A 0.19 0.19 0.0 0 0 595.22 270.85
  Z
  M 337.27 359.05
  Q 332.42 349.21 338.62 340.62
  Q 341.66 336.42 346.80 335.71
  A 0.77 0.77 0.0 0 0 347.44 334.72
  C 344.15 324.19 338.52 315.60 328.18 310.84
  Q 320.83 307.47 311.65 308.99
  Q 320.90 299.14 335.24 304.32
  C 351.11 310.05 359.25 326.52 359.25 342.62
  Q 359.25 344.31 357.81 345.44
  Q 354.65 347.93 353.16 351.40
  Q 352.93 351.93 353.07 352.49
  C 354.20 357.17 357.89 360.76 360.70 364.45
  Q 361.81 365.90 361.91 364.08
  Q 362.02 361.82 362.46 359.48
  Q 366.89 335.84 374.16 311.83
  Q 374.56 310.52 373.99 309.26
  C 367.56 294.99 357.21 284.07 342.29 279.50
  C 327.37 274.93 311.26 279.70 300.06 290.33
  C 283.91 305.64 279.67 328.15 286.50 349.00
  C 296.38 379.17 324.79 399.28 356.98 390.38
  Q 359.68 389.63 359.64 387.16
  Q 359.61 384.95 359.62 384.85
  Q 360.59 375.34 361.20 366.55
  Q 361.26 365.62 360.61 366.28
  Q 359.69 367.19 358.99 368.41
  A 1.58 1.57 6.5 0 1 358.09 369.12
  Q 356.80 369.50 355.52 369.46
  Q 343.34 369.08 337.27 359.05
  Z
  M 161.56 317.01
  L 161.84 317.08
  A 0.44 0.43 16.9 0 0 162.37 316.80
  Q 163.11 314.53 163.56 312.39
  Q 163.81 311.22 163.21 312.26
  Q 162.03 314.31 161.26 316.45
  Q 161.10 316.89 161.56 317.01
  Z
  M 244.08 447.76
  Q 244.51 449.87 245.64 451.63
  A 0.62 0.62 0.0 0 0 246.42 451.86
  L 246.69 451.74
  Q 247.02 451.60 246.84 451.28
  Q 245.69 449.31 244.33 447.64
  Q 243.97 447.19 244.08 447.76
  Z"
/>
<path fill="#1f3d46" d="
  M 555.26 97.77
  Q 554.19 101.38 555.57 103.19
  Q 556.99 105.04 562.67 110.08
  Q 566.22 113.75 570.93 115.78
  Q 572.59 116.50 574.99 118.02
  Q 576.97 119.28 579.32 119.90
  C 584.86 122.80 589.26 125.39 594.73 121.54
  A 1.02 1.02 0.0 0 0 595.16 120.75
  L 595.37 116.28
  Q 595.44 115.33 596.96 115.84
  A 4.29 4.27 76.7 0 1 598.62 116.87
  Q 600.74 119.00 603.28 120.86
  C 607.57 123.98 611.47 128.45 614.90 132.35
  Q 615.72 133.29 616.87 133.49
  L 617.22 133.98
  Q 620.55 139.36 625.15 143.52
  L 629.80 150.23
  C 631.05 158.13 622.98 155.63 619.32 153.16
  C 613.33 149.10 607.92 144.04 602.09 139.62
  C 594.40 133.79 586.55 128.17 577.94 124.41
  C 576.36 123.72 574.05 123.39 573.26 125.39
  Q 572.50 127.32 574.22 128.62
  Q 587.04 138.38 597.43 152.26
  Q 606.96 164.98 611.95 183.27
  Q 614.90 194.07 613.49 208.34
  Q 613.11 212.18 611.67 215.90
  Q 611.49 216.37 610.98 216.39
  A 0.76 0.75 -6.6 0 1 610.20 215.78
  Q 609.19 210.63 607.34 205.70
  Q 599.25 184.08 585.59 167.17
  Q 572.80 151.32 553.48 137.93
  Q 550.84 136.10 547.56 134.98
  A 1.34 1.34 0.0 0 0 546.06 135.45
  Q 545.46 136.27 545.88 137.20
  Q 546.96 139.52 548.74 141.38
  Q 557.86 150.86 565.17 163.83
  Q 566.10 165.49 565.68 167.15
  A 2.18 2.18 0.0 0 1 562.88 168.69
  Q 554.23 165.81 545.78 159.71
  C 537.99 154.08 530.42 148.90 523.05 142.59
  C 518.58 138.77 513.82 135.17 509.38 131.36
  Q 501.33 124.45 493.85 118.07
  C 492.45 116.88 490.81 115.91 488.97 115.72
  A 1.55 1.55 0.0 0 0 487.28 117.45
  Q 487.70 120.99 488.80 124.34
  Q 489.91 127.74 490.49 132.09
  Q 492.26 145.36 491.15 160.93
  Q 490.53 169.56 487.36 179.65
  Q 480.05 202.91 463.71 221.72
  C 462.86 222.69 461.94 223.16 460.80 223.69
  A 1.43 1.43 0.0 0 1 458.77 222.29
  Q 459.06 218.53 460.24 214.93
  Q 463.77 204.13 467.71 193.05
  C 469.30 188.55 470.27 183.74 471.51 179.08
  A 1.56 1.56 0.0 0 0 470.04 177.11
  Q 468.08 177.06 466.62 178.73
  C 459.64 186.71 453.14 194.01 445.10 200.92
  Q 438.32 206.75 433.28 209.85
  Q 426.52 214.02 417.52 215.45
  C 412.79 216.20 409.57 213.16 409.14 208.60
  Q 408.56 202.37 409.46 198.69
  Q 412.05 188.15 415.05 178.59
  A 0.97 0.94 40.6 0 0 414.98 177.83
  Q 414.40 176.79 413.27 177.59
  Q 408.30 181.09 403.35 184.56
  C 397.63 188.55 383.31 196.65 376.96 192.48
  C 371.91 189.17 373.69 180.11 375.60 175.12
  Q 378.29 168.07 381.64 162.84
  Q 391.04 148.16 399.98 136.59
  Q 400.75 135.60 400.73 134.43
  A 1.82 1.82 0.0 0 0 398.34 132.72
  Q 395.42 133.67 393.05 135.51
  Q 372.88 151.12 356.43 160.67
  Q 339.39 170.58 319.78 176.12
  C 317.17 176.85 307.52 178.71 305.38 175.61
  C 304.48 174.30 304.55 170.88 304.95 169.36
  Q 306.37 164.01 309.25 158.77
  Q 313.90 150.31 318.26 142.12
  Q 318.68 141.34 318.87 140.42
  A 0.85 0.85 0.0 0 0 317.61 139.51
  C 315.05 141.02 312.44 142.58 310.16 144.46
  Q 292.24 159.29 284.13 165.54
  Q 280.16 168.60 274.82 170.55
  C 272.40 171.44 269.33 170.48 269.31 167.56
  Q 269.30 164.90 270.62 162.51
  Q 276.36 152.13 285.47 143.33
  Q 295.95 133.19 305.42 123.65
  Q 306.09 122.98 306.46 122.12
  A 0.65 0.65 0.0 0 0 305.69 121.24
  Q 300.53 122.72 295.85 125.71
  Q 286.05 131.96 275.06 137.82
  Q 267.75 141.72 261.18 142.77
  C 256.83 143.47 250.98 142.74 251.07 136.95
  C 251.21 128.02 257.96 118.05 263.91 111.65
  Q 282.57 91.58 308.01 80.69
  L 302.33 86.28
  A 2.62 2.62 0.0 0 0 302.37 90.06
  Q 304.49 92.05 308.62 90.83
  Q 315.63 88.77 320.22 83.26
  C 322.62 80.39 320.32 78.41 317.68 76.69
  Q 325.34 73.03 333.74 70.98
  C 340.17 69.42 346.66 67.65 353.08 66.56
  Q 366.94 64.21 375.26 63.40
  Q 392.35 61.72 406.74 62.36
  Q 413.29 62.66 419.09 62.92
  C 427.42 63.30 435.27 64.23 443.22 65.19
  C 452.58 66.32 461.72 68.12 470.94 69.76
  C 475.55 70.57 479.97 71.85 484.54 72.78
  Q 495.23 74.97 503.85 77.73
  Q 512.67 80.57 522.01 83.34
  C 526.86 84.78 531.36 86.70 536.17 88.33
  Q 545.07 91.37 554.44 96.26
  Q 554.84 96.46 554.98 96.89
  L 555.26 97.77
  Z
  M 309.63 104.31
  Q 311.18 106.99 314.90 105.66
  Q 322.37 102.98 327.93 96.27
  C 330.64 93.01 328.88 88.76 324.23 90.42
  C 320.14 91.89 316.88 94.05 313.85 97.50
  Q 311.94 99.68 309.89 101.90
  A 2.04 2.04 0.0 0 0 309.63 104.31
  Z
  M 537.2268 110.3773
  A 9.27 6.95 21.3 0 0 531.1146 100.5347
  A 9.27 6.95 21.3 0 0 519.9532 103.6427
  A 9.27 6.95 21.3 0 0 526.0654 113.4853
  A 9.27 6.95 21.3 0 0 537.2268 110.3773
  Z
  M 329.8568 122.4126
  A 3.79 2.41 -33.6 0 0 325.3663 122.5027
  A 3.79 2.41 -33.6 0 0 323.5432 126.6074
  A 3.79 2.41 -33.6 0 0 328.0337 126.5173
  A 3.79 2.41 -33.6 0 0 329.8568 122.4126
  Z
  M 539.5653 143.5762
  A 3.83 2.50 39.5 0 0 538.2002 139.2109
  A 3.83 2.50 39.5 0 0 533.6547 138.7038
  A 3.83 2.50 39.5 0 0 535.0198 143.0691
  A 3.83 2.50 39.5 0 0 539.5653 143.5762
  Z
  M 351.4257 141.6735
  A 7.37 4.73 -44.4 0 0 342.8506 143.4505
  A 7.37 4.73 -44.4 0 0 340.8943 151.9865
  A 7.37 4.73 -44.4 0 0 349.4694 150.2095
  A 7.37 4.73 -44.4 0 0 351.4257 141.6735
  Z
  M 434.4721 180.4176
  A 7.55 4.67 127.9 0 0 442.7950 177.3287
  A 7.55 4.67 127.9 0 0 443.7479 168.5024
  A 7.55 4.67 127.9 0 0 435.4250 171.5913
  A 7.55 4.67 127.9 0 0 434.4721 180.4176
  Z"
/>
<path fill="#216075" d="
  M 317.68 76.69
  C 320.32 78.41 322.62 80.39 320.22 83.26
  Q 315.63 88.77 308.62 90.83
  Q 304.49 92.05 302.37 90.06
  A 2.62 2.62 0.0 0 1 302.33 86.28
  L 308.01 80.69
  L 317.68 76.69
  Z"
/>
<path fill="#216075" d="
  M 309.63 104.31
  A 2.04 2.04 0.0 0 1 309.89 101.90
  Q 311.94 99.68 313.85 97.50
  C 316.88 94.05 320.14 91.89 324.23 90.42
  C 328.88 88.76 330.64 93.01 327.93 96.27
  Q 322.37 102.98 314.90 105.66
  Q 311.18 106.99 309.63 104.31
  Z"
/>
<ellipse fill="#216075" cx="0.00" cy="0.00" transform="translate(528.59,107.01) rotate(21.3)" rx="9.27" ry="6.95"/>
<path fill="#000000" d="
  M 616.87 133.49
  Q 615.72 133.29 614.90 132.35
  C 611.47 128.45 607.57 123.98 603.28 120.86
  Q 600.74 119.00 598.62 116.87
  A 4.29 4.27 76.7 0 0 596.96 115.84
  Q 595.44 115.33 595.37 116.28
  C 594.86 113.18 593.10 112.11 591.05 110.11
  Q 590.03 109.11 591.24 109.87
  Q 592.94 110.95 594.54 112.45
  Q 600.30 117.90 605.30 121.69
  Q 608.29 123.95 616.87 133.49
  Z"
/>
<path fill="#000000" d="
  M 562.67 110.08
  L 579.32 119.90
  Q 576.97 119.28 574.99 118.02
  Q 572.59 116.50 570.93 115.78
  Q 566.22 113.75 562.67 110.08
  Z"
/>
<ellipse fill="#216075" cx="0.00" cy="0.00" transform="translate(326.70,124.51) rotate(-33.6)" rx="3.79" ry="2.41"/>
<path fill="#000000" d="
  M 617.22 133.98
  L 625.15 143.52
  Q 620.55 139.36 617.22 133.98
  Z"
/>
<ellipse fill="#000000" cx="0.00" cy="0.00" transform="translate(536.61,141.14) rotate(39.5)" rx="3.83" ry="2.50"/>
<ellipse fill="#000000" cx="0.00" cy="0.00" transform="translate(346.16,146.83) rotate(-44.4)" rx="7.37" ry="4.73"/>
<path fill="#e47d5f" d="
  M 587.05 260.03
  C 585.22 258.68 583.52 257.29 581.56 256.13
  Q 570.15 249.37 560.99 240.13
  C 559.88 239.00 558.57 238.68 557.53 237.38
  Q 552.40 230.96 546.24 225.22
  Q 545.87 224.88 545.71 224.40
  C 545.46 223.64 545.10 223.04 544.49 222.51
  Q 542.60 220.89 540.87 218.25
  Q 539.83 216.67 538.25 215.27
  Q 536.76 213.94 535.85 212.36
  Q 533.54 208.35 530.39 204.44
  C 529.03 202.75 528.33 200.73 526.96 199.12
  Q 525.58 197.50 524.63 195.56
  C 523.17 192.59 520.85 189.94 519.46 187.27
  Q 516.86 182.26 513.99 176.31
  Q 513.95 176.23 511.36 170.10
  C 509.63 166.03 506.75 162.61 505.71 158.00
  A 0.35 0.34 46.4 0 0 505.04 157.98
  L 504.41 160.29
  L 503.03 144.42
  Q 502.98 143.83 503.26 144.35
  C 503.87 145.47 504.60 146.53 505.00 147.73
  Q 510.09 162.90 518.27 179.21
  Q 527.09 196.82 538.02 210.97
  Q 548.94 225.12 562.97 235.97
  C 570.69 241.93 579.62 246.66 588.32 251.29
  A 1.00 1.00 0.0 0 1 588.82 252.39
  L 587.05 260.03
  Z"
/>
<path fill="#ffbb8e" d="
  M 587.05 260.03
  C 582.92 273.61 578.59 287.56 576.23 301.41
  C 574.02 314.37 571.85 328.24 576.22 341.14
  Q 581.91 357.90 598.72 365.12
  L 605.33 376.02
  Q 602.04 377.59 598.13 379.11
  Q 593.21 381.04 590.86 382.58
  Q 586.92 385.17 583.30 390.27
  C 582.16 391.89 580.75 393.28 579.45 394.76
  A 0.41 0.40 22.5 0 0 579.73 395.43
  Q 582.49 395.63 585.54 395.31
  Q 587.20 395.14 588.98 396.39
  Q 589.48 396.74 590.08 396.64
  Q 591.99 396.33 593.98 396.33
  Q 594.44 396.33 594.62 396.72
  Q 594.82 397.15 594.32 397.89
  L 587.31 401.24
  A 3.00 2.98 73.3 0 0 585.64 404.35
  Q 586.51 410.57 587.04 416.78
  Q 587.65 423.96 582.36 428.21
  Q 581.18 429.16 579.44 429.33
  C 569.75 430.33 560.09 428.62 551.39 426.04
  Q 545.96 424.42 539.62 420.86
  Q 537.92 419.90 536.67 421.40
  Q 536.39 421.73 536.23 422.12
  Q 535.22 424.53 537.33 426.08
  Q 540.23 428.21 543.52 429.83
  Q 556.88 436.39 571.41 438.25
  C 574.31 438.63 577.29 438.60 580.19 438.39
  Q 580.89 438.34 580.78 439.03
  Q 579.07 449.68 576.36 462.73
  C 573.36 477.16 566.73 490.39 553.85 497.50
  C 546.08 501.79 537.64 501.87 528.73 501.50
  C 521.53 501.20 514.67 499.98 507.59 498.65
  Q 503.16 497.82 499.00 496.58
  C 493.93 495.08 488.89 494.08 483.89 492.51
  Q 455.92 483.76 431.05 472.29
  Q 428.07 470.91 425.24 468.91
  Q 423.95 468.00 425.53 467.97
  C 437.97 467.69 449.81 464.35 459.38 456.15
  Q 462.01 453.89 463.30 450.88
  A 0.97 0.97 0.0 0 0 462.22 449.55
  C 436.28 454.64 416.90 432.89 407.03 411.88
  Q 406.98 411.78 407.08 411.72
  L 407.32 411.58
  Q 407.37 411.55 407.40 411.60
  Q 411.71 418.23 418.48 424.77
  C 424.41 430.49 431.83 435.65 439.63 437.56
  C 442.84 438.35 447.52 439.34 450.67 438.21
  A 1.23 1.23 0.0 0 0 451.01 436.08
  C 444.92 431.37 438.84 426.99 434.12 420.63
  Q 421.51 403.67 416.51 382.81
  Q 415.84 380.03 414.26 371.44
  Q 413.20 365.69 412.71 360.01
  Q 409.98 328.04 414.60 294.53
  L 436.91 282.11
  A 0.37 0.37 0.0 0 0 436.85 281.44
  Q 436.16 281.19 435.49 281.52
  Q 427.84 285.35 420.88 288.40
  Q 420.45 288.59 420.16 288.24
  Q 419.83 287.86 420.22 287.54
  Q 420.64 287.19 420.70 286.74
  C 432.59 281.85 444.03 276.11 453.54 268.34
  Q 461.59 261.77 469.43 253.80
  C 474.14 249.00 477.96 243.95 481.86 238.45
  C 498.36 215.21 504.43 188.55 504.41 160.29
  L 505.04 157.98
  A 0.35 0.34 46.4 0 1 505.71 158.00
  C 506.75 162.61 509.63 166.03 511.36 170.10
  Q 513.95 176.23 513.99 176.31
  Q 516.86 182.26 519.46 187.27
  C 520.85 189.94 523.17 192.59 524.63 195.56
  Q 525.58 197.50 526.96 199.12
  C 528.33 200.73 529.03 202.75 530.39 204.44
  Q 533.54 208.35 535.85 212.36
  Q 536.76 213.94 538.25 215.27
  Q 539.83 216.67 540.87 218.25
  Q 542.60 220.89 544.49 222.51
  C 545.10 223.04 545.46 223.64 545.71 224.40
  Q 545.87 224.88 546.24 225.22
  Q 552.40 230.96 557.53 237.38
  C 558.57 238.68 559.88 239.00 560.99 240.13
  Q 570.15 249.37 581.56 256.13
  C 583.52 257.29 585.22 258.68 587.05 260.03
  Z
  M 555.33 258.35
  C 559.08 253.66 557.03 246.88 553.21 242.74
  Q 546.94 235.93 538.40 234.04
  Q 517.94 229.50 497.66 238.57
  Q 490.37 241.83 485.28 247.43
  Q 484.69 248.08 484.70 249.00
  A 0.65 0.65 0.0 0 0 485.53 249.62
  Q 504.61 244.38 524.01 249.20
  Q 537.86 252.65 550.65 258.93
  C 552.32 259.75 554.05 259.96 555.33 258.35
  Z
  M 484.35 324.80
  Q 484.01 325.35 484.25 326.05
  Q 493.27 351.79 519.50 360.07
  C 522.47 361.01 525.55 360.79 528.61 361.00
  Q 531.94 361.23 534.81 359.83
  Q 539.51 357.54 540.99 352.59
  Q 543.76 345.69 544.68 341.50
  Q 550.13 316.93 544.00 292.78
  Q 539.18 273.76 519.97 273.99
  Q 510.19 274.11 501.88 278.95
  C 494.58 283.21 487.69 288.96 483.58 296.72
  Q 483.35 297.16 482.86 297.22
  Q 480.95 297.47 479.04 297.07
  Q 471.43 295.47 462.81 293.37
  Q 461.57 293.06 461.59 294.34
  Q 461.61 295.65 462.29 296.94
  Q 466.83 305.44 476.05 309.97
  Q 476.51 310.20 476.59 310.69
  Q 477.94 318.24 482.71 324.05
  Q 483.24 324.69 484.35 324.80
  Z"
/>
<ellipse fill="#000000" cx="0.00" cy="0.00" transform="translate(439.11,174.46) rotate(127.9)" rx="7.55" ry="4.67"/>
<path fill="#000000" d="
  M 553.21 242.74
  C 557.03 246.88 559.08 253.66 555.33 258.35
  C 554.05 259.96 552.32 259.75 550.65 258.93
  Q 537.86 252.65 524.01 249.20
  Q 504.61 244.38 485.53 249.62
  A 0.65 0.65 0.0 0 1 484.70 249.00
  Q 484.69 248.08 485.28 247.43
  Q 490.37 241.83 497.66 238.57
  Q 517.94 229.50 538.40 234.04
  Q 546.94 235.93 553.21 242.74
  Z"
/>
<path fill="#fefdf9" d="
  M 595.22 270.85
  A 0.19 0.19 0.0 0 1 595.08 270.62
  L 595.14 270.41
  A 7.48 0.70 -75.5 0 1 597.69 263.35
  L 597.69 263.35
  A 7.48 0.70 -75.5 0 1 596.49 270.76
  L 596.44 270.97
  A 0.19 0.19 0.0 0 1 596.21 271.10
  L 595.22 270.85
  Z"
/>
<path fill="#000000" d="
  M 540.99 352.59
  Q 537.71 356.69 536.31 357.36
  C 531.19 359.82 527.55 354.66 525.89 350.61
  Q 518.45 332.35 519.90 312.90
  Q 520.53 304.43 523.09 296.94
  Q 525.32 290.43 529.90 288.25
  Q 530.65 287.90 529.84 287.73
  Q 521.51 286.02 513.37 289.01
  Q 497.25 294.93 488.26 309.30
  C 487.37 310.72 486.92 312.35 486.17 313.86
  Q 485.40 315.41 485.12 317.33
  Q 484.60 321.04 484.35 324.80
  Q 483.24 324.69 482.71 324.05
  Q 477.94 318.24 476.59 310.69
  Q 476.51 310.20 476.05 309.97
  Q 466.83 305.44 462.29 296.94
  Q 461.61 295.65 461.59 294.34
  Q 461.57 293.06 462.81 293.37
  Q 471.43 295.47 479.04 297.07
  Q 480.95 297.47 482.86 297.22
  Q 483.35 297.16 483.58 296.72
  C 487.69 288.96 494.58 283.21 501.88 278.95
  Q 510.19 274.11 519.97 273.99
  Q 539.18 273.76 544.00 292.78
  Q 550.13 316.93 544.68 341.50
  Q 543.76 345.69 540.99 352.59
  Z"
/>
<path fill="#ffbb8e" d="
  M 311.65 308.99
  Q 305.21 315.32 303.30 324.26
  Q 302.82 326.52 303.19 328.80
  Q 303.27 329.34 303.75 329.07
  Q 308.35 326.50 313.76 329.02
  Q 320.17 332.00 323.92 337.21
  Q 329.33 344.71 332.77 354.46
  Q 333.69 357.07 337.27 359.05
  Q 343.34 369.08 355.52 369.46
  Q 356.80 369.50 358.09 369.12
  A 1.58 1.57 6.5 0 0 358.99 368.41
  Q 359.69 367.19 360.61 366.28
  Q 361.26 365.62 361.20 366.55
  Q 360.59 375.34 359.62 384.85
  Q 359.61 384.95 359.64 387.16
  Q 359.68 389.63 356.98 390.38
  C 324.79 399.28 296.38 379.17 286.50 349.00
  C 279.67 328.15 283.91 305.64 300.06 290.33
  C 311.26 279.70 327.37 274.93 342.29 279.50
  C 357.21 284.07 367.56 294.99 373.99 309.26
  Q 374.56 310.52 374.16 311.83
  Q 366.89 335.84 362.46 359.48
  Q 362.02 361.82 361.91 364.08
  Q 361.81 365.90 360.70 364.45
  C 357.89 360.76 354.20 357.17 353.07 352.49
  Q 352.93 351.93 353.16 351.40
  Q 354.65 347.93 357.81 345.44
  Q 359.25 344.31 359.25 342.62
  C 359.25 326.52 351.11 310.05 335.24 304.32
  Q 320.90 299.14 311.65 308.99
  Z"
/>
<path fill="#e47d5f" d="
  M 414.60 294.53
  L 415.44 289.83
  Q 415.53 289.33 415.93 289.01
  Q 417.93 287.43 420.70 286.74
  Q 420.64 287.19 420.22 287.54
  Q 419.83 287.86 420.16 288.24
  Q 420.45 288.59 420.88 288.40
  Q 427.84 285.35 435.49 281.52
  Q 436.16 281.19 436.85 281.44
  A 0.37 0.37 0.0 0 1 436.91 282.11
  L 414.60 294.53
  Z"
/>
<path fill="#fefdf9" d="
  M 540.99 352.59
  Q 539.51 357.54 534.81 359.83
  Q 531.94 361.23 528.61 361.00
  C 525.55 360.79 522.47 361.01 519.50 360.07
  Q 493.27 351.79 484.25 326.05
  Q 484.01 325.35 484.35 324.80
  Q 484.60 321.04 485.12 317.33
  Q 485.40 315.41 486.17 313.86
  C 486.92 312.35 487.37 310.72 488.26 309.30
  Q 497.25 294.93 513.37 289.01
  Q 521.51 286.02 529.84 287.73
  Q 530.65 287.90 529.90 288.25
  Q 525.32 290.43 523.09 296.94
  Q 520.53 304.43 519.90 312.90
  Q 518.45 332.35 525.89 350.61
  C 527.55 354.66 531.19 359.82 536.31 357.36
  Q 537.71 356.69 540.99 352.59
  Z"
/>
<path fill="#e47d5f" d="
  M 337.27 359.05
  Q 333.69 357.07 332.77 354.46
  Q 329.33 344.71 323.92 337.21
  Q 320.17 332.00 313.76 329.02
  Q 308.35 326.50 303.75 329.07
  Q 303.27 329.34 303.19 328.80
  Q 302.82 326.52 303.30 324.26
  Q 305.21 315.32 311.65 308.99
  Q 320.83 307.47 328.18 310.84
  C 338.52 315.60 344.15 324.19 347.44 334.72
  A 0.77 0.77 0.0 0 1 346.80 335.71
  Q 341.66 336.42 338.62 340.62
  Q 332.42 349.21 337.27 359.05
  Z"
/>
<path fill="#fefdf9" d="
  M 161.26 316.45
  Q 162.03 314.31 163.21 312.26
  Q 163.81 311.22 163.56 312.39
  Q 163.11 314.53 162.37 316.80
  A 0.44 0.43 16.9 0 1 161.84 317.08
  L 161.56 317.01
  Q 161.10 316.89 161.26 316.45
  Z"
/>
<path fill="#fefdf9" d="
  M 598.72 365.12
  Q 603.30 366.05 606.76 367.67
  Q 610.22 369.29 611.42 373.77
  L 605.33 376.02
  L 598.72 365.12
  Z"
/>
<path fill="#e47d5f" d="
  M 611.42 373.77
  Q 610.27 389.46 594.32 397.89
  Q 594.82 397.15 594.62 396.72
  Q 594.44 396.33 593.98 396.33
  Q 591.99 396.33 590.08 396.64
  Q 589.48 396.74 588.98 396.39
  Q 587.20 395.14 585.54 395.31
  Q 582.49 395.63 579.73 395.43
  A 0.41 0.40 22.5 0 1 579.45 394.76
  C 580.75 393.28 582.16 391.89 583.30 390.27
  Q 586.92 385.17 590.86 382.58
  Q 593.21 381.04 598.13 379.11
  Q 602.04 377.59 605.33 376.02
  L 611.42 373.77
  Z"
/>
<path fill="#fefdf9" d="
  M 244.08 447.76
  Q 243.97 447.19 244.33 447.64
  Q 245.69 449.31 246.84 451.28
  Q 247.02 451.60 246.69 451.74
  L 246.42 451.86
  A 0.62 0.62 0.0 0 1 245.64 451.63
  Q 244.51 449.87 244.08 447.76
  Z"
/>
<path fill="#e47d5f" d="
  M 426.79 558.55
  Q 410.97 555.97 395.57 547.39
  Q 372.04 534.27 355.61 516.85
  Q 354.02 515.16 352.81 513.33
  Q 352.53 512.91 352.64 512.42
  Q 352.77 511.80 352.14 511.87
  L 351.64 511.93
  L 357.33 490.62
  A 1.33 1.32 -84.1 0 1 358.52 489.64
  Q 363.76 489.30 369.34 488.14
  A 1.28 1.26 66.8 0 1 370.64 488.67
  C 385.25 510.20 405.73 528.13 430.06 537.04
  A 0.84 0.84 0.0 0 1 430.60 537.98
  L 426.79 558.55
  Z"
/>
<path fill="#ffbb8e" d="
  M 426.79 558.55
  Q 425.97 565.04 424.95 572.25
  C 424.10 578.28 424.35 586.72 430.13 589.89
  Q 436.26 593.26 440.72 596.29
  Q 444.14 606.88 444.11 610.12
  C 444.04 618.42 437.34 621.00 430.19 620.19
  Q 419.57 618.99 408.61 614.87
  Q 398.45 611.05 392.59 608.13
  Q 358.58 591.16 331.39 563.86
  Q 328.69 561.15 326.28 558.09
  C 331.25 554.03 336.14 550.90 339.41 544.97
  Q 344.17 536.36 347.25 527.01
  Q 349.72 519.51 351.64 511.93
  L 352.14 511.87
  Q 352.77 511.80 352.64 512.42
  Q 352.53 512.91 352.81 513.33
  Q 354.02 515.16 355.61 516.85
  Q 372.04 534.27 395.57 547.39
  Q 410.97 555.97 426.79 558.55
  Z"
/>
<path fill="#216075" d="
  M 326.28 558.09
  Q 328.69 561.15 331.39 563.86
  Q 358.58 591.16 392.59 608.13
  Q 398.45 611.05 408.61 614.87
  Q 419.57 618.99 430.19 620.19
  C 437.34 621.00 444.04 618.42 444.11 610.12
  Q 444.14 606.88 440.72 596.29
  L 452.48 603.37
  Q 458.58 612.53 458.75 621.55
  Q 458.84 626.37 456.67 629.41
  C 454.06 633.07 449.40 635.55 444.90 636.22
  Q 435.07 637.66 425.61 635.90
  Q 409.96 632.99 393.51 625.57
  Q 369.16 614.60 345.01 596.65
  Q 338.82 592.05 330.32 584.32
  Q 321.48 576.28 312.86 568.06
  L 326.28 558.09
  Z"
/>
<path fill="#29c0fb" d="
  M 312.86 568.06
  Q 321.48 576.28 330.32 584.32
  Q 338.82 592.05 345.01 596.65
  Q 369.16 614.60 393.51 625.57
  Q 409.96 632.99 425.61 635.90
  Q 435.07 637.66 444.90 636.22
  C 449.40 635.55 454.06 633.07 456.67 629.41
  Q 458.84 626.37 458.75 621.55
  Q 458.58 612.53 452.48 603.37
  Q 470.21 613.71 483.52 628.49
  Q 485.42 630.60 486.51 632.58
  L 496.42 657.46
  Q 497.37 660.98 499.06 664.21
  Q 512.55 690.01 526.39 715.63
  C 528.85 720.19 530.93 724.96 533.06 729.66
  Q 540.17 745.34 541.32 762.49
  Q 542.47 779.55 538.36 800.00
  L 494.22 800.00
  Q 504.04 790.38 511.50 778.49
  Q 513.08 775.98 511.58 773.97
  A 1.86 1.86 0.0 0 0 508.83 773.71
  Q 505.30 776.95 501.98 780.47
  Q 493.07 789.93 484.31 800.00
  L 410.04 800.00
  L 390.81 756.10
  A 1.09 1.09 0.0 0 1 391.62 754.59
  C 397.25 753.60 405.10 750.78 401.80 743.16
  Q 389.92 715.67 379.42 694.33
  Q 377.40 690.20 373.28 683.83
  Q 371.02 677.95 367.79 672.71
  C 360.16 660.30 352.60 648.71 342.20 637.44
  Q 326.61 620.53 304.02 614.00
  Q 282.43 607.76 260.77 618.77
  Q 276.00 599.11 294.39 583.39
  Q 302.74 576.26 312.86 568.06
  Z"
/>
<path fill="#216075" d="
  M 373.28 683.83
  C 369.49 683.93 367.29 682.44 363.93 685.98
  Q 359.29 676.75 354.15 668.05
  C 341.34 646.39 319.42 623.96 293.16 621.85
  Q 274.40 620.34 258.67 630.45
  Q 252.81 634.21 249.35 637.23
  Q 254.16 626.65 260.77 618.77
  Q 282.43 607.76 304.02 614.00
  Q 326.61 620.53 342.20 637.44
  C 352.60 648.71 360.16 660.30 367.79 672.71
  Q 371.02 677.95 373.28 683.83
  Z"
/>
<path fill="#29c0fb" d="
  M 363.93 685.98
  L 373.10 706.01
  C 363.47 707.26 353.65 708.39 344.39 710.24
  Q 316.00 715.90 288.26 724.20
  Q 263.66 731.57 239.80 741.78
  Q 233.81 711.93 234.17 690.25
  Q 234.53 668.31 242.53 649.24
  Q 244.93 643.51 249.35 637.23
  Q 252.81 634.21 258.67 630.45
  Q 274.40 620.34 293.16 621.85
  C 319.42 623.96 341.34 646.39 354.15 668.05
  Q 359.29 676.75 363.93 685.98
  Z"
/>
<path fill="#216075" d="
  M 486.51 632.58
  Q 492.43 639.05 496.45 646.31
  Q 497.11 647.51 496.86 651.74
  Q 496.70 654.60 496.42 657.46
  L 486.51 632.58
  Z"
/>
<path fill="#216075" d="
  M 373.10 706.01
  L 379.23 719.49
  C 374.23 719.99 369.09 720.34 364.29 721.08
  Q 301.26 730.78 242.26 755.06
  L 239.80 741.78
  Q 263.66 731.57 288.26 724.20
  Q 316.00 715.90 344.39 710.24
  C 353.65 708.39 363.47 707.26 373.10 706.01
  Z"
/>
<path fill="#29c0fb" d="
  M 379.23 719.49
  L 389.65 741.85
  A 0.69 0.69 0.0 0 1 389.17 742.81
  C 372.21 746.44 355.22 750.14 338.36 754.85
  C 319.12 760.22 299.23 765.58 279.89 771.66
  Q 264.80 776.39 249.29 781.21
  Q 248.23 781.54 247.98 780.45
  L 242.26 755.06
  Q 301.26 730.78 364.29 721.08
  C 369.09 720.34 374.23 719.99 379.23 719.49
  Z"
/>
<path fill="#e47d5f" d="
  M 384.72 769.42
  Q 373.67 775.03 358.95 780.19
  C 345.18 785.02 331.35 789.68 317.72 794.93
  Q 311.07 797.49 304.09 800.00
  L 286.27 800.00
  L 279.54 786.03
  A 1.02 1.02 0.0 0 1 280.20 784.60
  C 289.71 782.03 298.88 778.90 308.32 776.23
  C 324.41 771.67 340.82 766.78 357.36 762.71
  Q 368.50 759.97 378.52 757.46
  Q 379.01 757.34 379.22 757.80
  L 384.72 769.42
  Z"
/>
<path fill="#ffbb8e" d="
  M 384.72 769.42
  L 398.22 800.00
  L 304.09 800.00
  Q 311.07 797.49 317.72 794.93
  C 331.35 789.68 345.18 785.02 358.95 780.19
  Q 373.67 775.03 384.72 769.42
  Z"
/>
<path fill="#216075" d="
  M 494.22 800.00
  L 484.31 800.00
  Q 493.07 789.93 501.98 780.47
  Q 505.30 776.95 508.83 773.71
  A 1.86 1.86 0.0 0 1 511.58 773.97
  Q 513.08 775.98 511.50 778.49
  Q 504.04 790.38 494.22 800.00
  Z"
/>
<path fill="#e47d5f" d="
  M 561.81 800.00
  L 549.71 800.00
  Q 551.66 790.33 551.91 780.84
  Q 551.92 780.15 552.23 780.77
  L 561.81 800.00
  Z"
/>
</svg>
