<?xml version="1.0" encoding="UTF-8" standalone="no"?>
<svg xmlns="http://www.w3.org/2000/svg" version="1.2" baseProfile="tiny" viewBox="0.00 0.00 500.00 500.00">
<path fill="#000000" d="
  M 500.00 30.39
  L 500.00 35.33
  Q 498.62 47.57 491.10 55.09
  Q 393.69 152.55 296.20 250.00
  Q 295.80 250.40 296.20 250.80
  Q 391.87 346.53 487.94 442.46
  C 495.08 449.59 498.91 455.98 500.00 465.58
  L 500.00 470.55
  Q 496.48 494.34 473.24 500.00
  L 461.76 500.00
  Q 451.37 497.59 445.77 491.99
  Q 348.22 394.41 250.47 296.68
  A 0.66 0.66 0.0 0 0 249.53 296.68
  Q 151.92 394.30 54.23 491.98
  Q 48.32 497.89 37.96 500.00
  L 26.71 500.00
  Q 3.53 494.27 0.00 470.65
  L 0.00 465.41
  Q 1.24 454.73 8.14 446.88
  Q 12.70 441.70 20.55 433.88
  Q 112.39 342.40 203.87 250.68
  A 0.42 0.42 0.0 0 0 203.87 250.08
  Q 106.41 152.60 8.89 55.11
  Q 1.47 47.69 0.00 35.43
  L 0.00 30.21
  Q 1.38 18.22 8.87 10.63
  C 22.45 -3.13 42.67 -2.77 56.29 10.86
  Q 154.05 108.68 249.70 204.33
  A 0.40 0.40 0.0 0 0 250.27 204.32
  Q 345.48 109.17 441.85 12.70
  C 446.38 8.18 451.26 3.91 457.41 2.10
  Q 473.86 -2.72 486.93 6.82
  Q 498.31 15.12 500.00 30.39
  Z"
/>
</svg>
