<?xml version="1.0" encoding="UTF-8" standalone="no"?>
<svg xmlns="http://www.w3.org/2000/svg" version="1.2" baseProfile="tiny" viewBox="0.00 0.00 500.00 500.00">
<g stroke-width="2.00" fill="none" stroke-linecap="butt">
<path stroke="#898080" vector-effect="non-scaling-stroke" d="
  M 221.75 77.22
  Q 202.69 77.14 188.30 89.27
  Q 187.59 89.88 185.83 92.54"
/>
<path stroke="#763b31" vector-effect="non-scaling-stroke" d="
  M 177.74 107.34
  Q 176.84 109.16 177.36 111.87"
/>
<path stroke="#370e0a" vector-effect="non-scaling-stroke" d="
  M 177.36 111.87
  Q 176.56 116.40 177.50 121.71
  A 1.11 1.10 79.0 0 1 176.64 122.99
  L 174.83 123.35"
/>
<path stroke="#898080" vector-effect="non-scaling-stroke" d="
  M 174.83 123.35
  Q 166.38 124.73 159.63 129.63
  C 157.49 131.18 155.84 133.20 153.89 134.96
  Q 151.70 136.94 150.02 139.38
  Q 140.11 153.87 140.15 171.74
  Q 140.17 181.41 142.41 191.55"
/>
<path stroke="#370e0a" vector-effect="non-scaling-stroke" d="
  M 142.41 191.55
  Q 145.77 205.30 152.37 218.54
  Q 154.76 223.35 156.65 227.73
  Q 158.66 232.37 161.08 236.88
  C 166.03 246.12 169.93 254.71 174.31 263.62
  C 177.27 269.65 178.87 275.88 181.32 282.05
  A 1.01 1.01 0.0 0 0 183.09 282.24
  Q 188.82 273.71 194.75 266.88
  A 1.12 1.12 0.0 0 0 194.43 265.16
  C 186.51 260.90 180.39 254.69 176.52 246.70
  Q 174.32 242.17 173.31 238.55
  Q 169.06 223.50 177.58 210.11
  C 182.54 202.31 192.29 198.29 201.27 198.03
  C 204.98 197.92 208.51 198.27 212.29 197.62
  C 226.34 195.18 238.88 188.78 247.94 177.41
  Q 250.52 174.17 251.01 170.01
  Q 251.62 164.73 249.18 159.72"
/>
<path stroke="#522219" vector-effect="non-scaling-stroke" d="
  M 249.18 159.72
  Q 245.48 153.42 240.23 147.90"
/>
<path stroke="#370e0a" vector-effect="non-scaling-stroke" d="
  M 240.23 147.90
  Q 240.58 144.52 246.56 147.61"
/>
<path stroke="#522219" vector-effect="non-scaling-stroke" d="
  M 246.56 147.61
  Q 255.27 152.99 260.40 161.71"
/>
<path stroke="#370e0a" vector-effect="non-scaling-stroke" d="
  M 260.40 161.71
  L 261.03 165.31
  Q 261.25 166.61 261.67 165.36
  Q 262.45 163.05 263.77 160.51
  Q 264.91 158.32 264.40 152.96"
/>
<path stroke="#522219" vector-effect="non-scaling-stroke" d="
  M 264.40 152.96
  Q 259.77 145.83 249.17 141.92"
/>
<path stroke="#370e0a" vector-effect="non-scaling-stroke" d="
  M 249.17 141.92
  L 228.77 132.82
  A 0.35 0.35 0.0 0 1 228.57 132.52
  Q 228.56 132.23 228.75 132.10
  Q 229.01 131.94 229.30 131.99
  C 232.38 132.55 235.41 132.17 238.56 132.78
  Q 247.45 134.49 256.48 134.93
  Q 275.39 135.85 293.03 135.36
  Q 310.57 134.88 327.03 129.81
  C 338.30 126.33 347.06 120.72 355.35 112.52
  C 360.10 107.81 362.83 102.33 363.33 95.69
  Q 363.96 87.32 362.53 79.80"
/>
<path stroke="#522219" vector-effect="non-scaling-stroke" d="
  M 362.53 79.80
  L 360.11 71.19
  A 0.43 0.43 0.0 0 0 359.36 71.03
  Q 350.44 82.07 336.14 87.07
  Q 335.58 87.27 335.86 86.74
  L 340.48 78.25"
/>
<path stroke="#522219" vector-effect="non-scaling-stroke" d="
  M 278.42 87.15
  L 276.18 86.95
  Q 275.12 86.86 276.08 86.41
  Q 287.76 80.95 296.93 70.82
  Q 299.05 68.47 296.33 70.08
  C 293.32 71.87 291.23 72.22 286.83 73.07
  Q 283.96 73.62 281.97 75.02"
/>
<path stroke="#742f22" vector-effect="non-scaling-stroke" d="
  M 362.53 79.80
  Q 361.07 86.69 355.42 92.92
  Q 347.91 101.20 341.76 107.02
  Q 336.83 111.69 331.45 114.53
  Q 327.15 116.81 322.49 119.64
  Q 317.86 122.44 311.64 124.25
  Q 311.37 124.33 311.37 124.05
  L 311.37 123.80
  A 0.09 0.08 -9.7 0 1 311.43 123.72
  C 317.75 121.66 322.43 117.63 328.13 114.33
  Q 336.30 109.59 342.78 101.85
  Q 348.71 94.75 354.97 85.44
  A 0.34 0.33 40.0 0 0 354.93 85.01
  L 354.72 84.80
  Q 354.66 84.74 354.61 84.80
  C 344.45 96.05 331.16 104.92 316.75 111.92
  C 310.75 114.84 303.81 117.22 297.16 119.59
  Q 262.24 132.02 224.82 126.34
  Q 220.91 125.74 216.08 124.18
  Q 215.70 124.06 215.31 124.14
  Q 215.06 124.19 214.83 124.12
  Q 213.84 123.82 214.88 123.86
  C 217.18 123.94 219.36 124.29 221.68 124.15
  C 230.93 123.58 239.79 122.94 248.98 120.84
  C 256.50 119.12 263.32 116.23 270.51 113.55
  Q 274.12 112.20 277.01 110.47
  Q 288.15 103.79 298.89 96.32
  Q 299.52 95.88 298.75 95.87
  Q 298.32 95.87 297.88 95.86
  Q 297.55 95.85 297.23 95.98
  C 280.94 102.89 263.37 108.42 245.25 111.51
  Q 228.10 114.43 210.98 112.73
  Q 210.10 112.64 210.89 112.25
  C 215.45 110.03 219.58 107.25 224.06 104.94
  Q 233.18 100.25 241.65 96.01
  C 245.31 94.18 249.10 93.09 252.85 91.54
  Q 255.26 90.54 257.77 89.55
  Q 257.98 89.47 257.92 89.26
  L 257.85 89.01
  A 0.50 0.49 -13.1 0 0 257.27 88.66
  Q 250.47 90.03 242.95 91.65
  Q 238.42 92.64 233.06 93.62
  C 222.44 95.56 212.56 99.85 202.96 104.70
  Q 195.75 108.34 188.81 113.83
  A 0.38 0.38 0.0 0 1 188.20 113.61
  Q 188.08 113.01 188.33 112.45
  Q 191.13 106.02 195.61 99.88
  C 199.84 94.09 205.40 89.79 211.46 86.88
  A 0.71 0.70 70.0 0 0 211.83 86.07
  Q 211.79 85.90 211.28 85.83"
/>
<path stroke="#c6a198" vector-effect="non-scaling-stroke" d="
  M 211.28 85.83
  Q 222.15 83.35 231.56 83.12
  Q 236.71 82.99 240.08 82.45"
/>
<path stroke="#ab8d88" vector-effect="non-scaling-stroke" d="
  M 211.28 85.83
  C 202.23 87.74 195.02 91.42 187.37 96.73"
/>
<path stroke="#742f22" vector-effect="non-scaling-stroke" d="
  M 249.17 141.92
  Q 246.47 141.71 245.03 142.20
  Q 240.44 143.77 244.83 145.83
  Q 245.20 146.01 246.56 147.61"
/>
<path stroke="#742f22" vector-effect="non-scaling-stroke" d="
  M 240.23 147.90
  Q 238.15 145.29 235.09 143.43
  Q 221.80 135.35 207.39 131.36
  Q 197.85 128.72 186.70 129.86
  C 181.22 130.43 176.67 133.04 172.13 135.76
  Q 166.86 138.91 165.30 143.73
  Q 164.64 145.77 164.11 143.69
  Q 162.60 137.86 163.63 129.87"
/>
<path stroke="#ab8d88" vector-effect="non-scaling-stroke" d="
  M 163.63 129.87
  Q 167.15 126.73 170.25 125.43
  Q 172.54 124.47 174.83 123.35"
/>
<path stroke="#99473a" vector-effect="non-scaling-stroke" d="
  M 177.36 111.87
  L 178.54 108.40"
/>
<path stroke="#c6a198" vector-effect="non-scaling-stroke" d="
  M 163.63 129.87
  Q 159.43 132.80 157.31 136.05
  Q 152.10 144.06 149.11 153.72"
/>
<path stroke="#ab8d88" vector-effect="non-scaling-stroke" d="
  M 149.11 153.72
  Q 141.84 171.28 142.41 191.55"
/>
<path stroke="#742f22" vector-effect="non-scaling-stroke" d="
  M 249.18 159.72
  C 249.11 162.16 246.68 165.72 245.12 167.57
  C 241.89 171.41 239.15 175.45 235.30 178.84
  Q 228.50 184.83 221.28 189.53
  Q 221.14 189.62 221.04 189.49
  L 221.03 189.48
  Q 220.90 189.31 221.06 189.17
  Q 227.62 183.46 232.27 175.48
  Q 235.03 170.75 237.93 165.06
  Q 240.14 160.73 236.69 164.16
  C 231.72 169.09 225.87 173.64 219.46 176.59
  C 213.33 179.41 206.76 181.34 200.19 183.03
  Q 197.76 183.65 195.36 183.70
  Q 194.35 183.72 195.29 183.35
  C 199.35 181.74 203.53 179.07 207.22 176.74
  C 209.90 175.05 212.37 172.65 214.73 170.47
  Q 217.08 168.30 219.74 164.74
  Q 222.50 161.06 225.91 157.29
  Q 226.65 156.48 225.56 156.63
  Q 224.62 156.76 223.91 157.31
  Q 213.30 165.46 199.61 169.99
  Q 186.73 174.24 173.24 172.34
  Q 166.95 171.45 161.19 168.80
  Q 151.28 164.23 149.11 153.72"
/>
<path stroke="#742f22" vector-effect="non-scaling-stroke" d="
  M 264.40 152.96
  L 260.40 161.71"
/>
<path stroke="#8a6454" vector-effect="non-scaling-stroke" d="
  M 241.29 200.39
  L 243.72 236.72"
/>
<path stroke="#522219" vector-effect="non-scaling-stroke" d="
  M 243.72 236.72
  L 235.65 232.40
  Q 234.95 232.02 234.95 232.81
  L 235.00 239.56"
/>
<path stroke="#370e0a" vector-effect="non-scaling-stroke" d="
  M 235.00 239.56
  Q 235.97 259.13 236.73 278.75
  C 236.77 279.74 237.08 280.85 237.74 281.62
  Q 242.64 287.30 249.17 290.78
  A 0.39 0.39 0.0 0 0 249.74 290.42
  L 249.34 284.41"
/>
<path stroke="#522219" vector-effect="non-scaling-stroke" d="
  M 249.34 284.41
  L 250.44 275.47"
/>
<path stroke="#370e0a" vector-effect="non-scaling-stroke" d="
  M 250.44 275.47
  Q 251.07 275.31 251.22 275.15
  A 0.58 0.58 0.0 0 1 252.22 275.50
  Q 252.66 280.01 253.18 284.49
  C 253.66 288.72 255.02 293.50 259.06 295.75
  Q 264.58 298.81 269.64 300.61
  A 0.48 0.47 -84.7 0 0 270.27 300.08
  L 269.08 293.00"
/>
<path stroke="#522219" vector-effect="non-scaling-stroke" d="
  M 269.08 293.00
  L 268.82 285.06"
/>
<path stroke="#370e0a" vector-effect="non-scaling-stroke" d="
  M 268.82 285.06
  Q 269.92 281.33 269.80 277.50
  Q 269.77 276.34 270.09 275.85
  Q 270.94 274.55 270.86 276.10
  C 270.65 280.38 271.93 284.11 272.70 288.18
  Q 274.20 296.04 277.02 300.89
  Q 279.40 304.98 284.23 306.79
  Q 288.64 308.44 293.17 310.06
  A 0.28 0.27 3.0 0 0 293.53 309.74
  L 292.31 304.47"
/>
<path stroke="#522219" vector-effect="non-scaling-stroke" d="
  M 292.31 304.47
  L 291.16 296.03"
/>
<path stroke="#370e0a" vector-effect="non-scaling-stroke" d="
  M 291.16 296.03
  Q 291.54 293.99 291.61 291.92
  Q 291.65 290.92 291.76 289.92
  Q 292.01 287.83 292.60 287.94
  Q 292.93 288.00 292.97 288.34
  Q 293.30 291.20 294.08 294.05
  Q 294.86 296.90 295.71 300.03
  Q 297.50 306.66 301.76 312.25
  C 302.33 313.00 303.23 313.28 304.07 313.58
  Q 314.31 317.35 325.31 320.18
  C 329.76 321.32 336.37 321.93 341.06 320.39
  Q 341.60 320.21 341.85 319.71
  Q 343.62 316.19 342.79 312.58"
/>
<path stroke="#522219" vector-effect="non-scaling-stroke" d="
  M 342.79 312.58
  C 343.25 306.29 341.74 301.10 339.78 294.83
  Q 339.77 294.81 339.85 294.73
  L 340.05 294.52
  Q 340.23 294.34 340.32 294.58
  L 346.13 310.45"
/>
<path stroke="#370e0a" vector-effect="non-scaling-stroke" d="
  M 346.13 310.45
  L 345.99 318.09
  Q 345.97 319.28 346.91 318.55
  Q 352.20 314.43 354.58 309.12"
/>
<path stroke="#898080" vector-effect="non-scaling-stroke" d="
  M 354.58 309.12
  Q 355.44 301.08 352.19 294.53
  Q 348.80 287.71 348.50 283.90
  Q 347.87 276.04 347.56 265.62
  A 0.66 0.66 0.0 0 0 346.69 265.01
  L 345.23 265.49"
/>
<path stroke="#8a6454" vector-effect="non-scaling-stroke" d="
  M 345.23 265.49
  Q 330.81 267.93 322.25 267.17
  Q 313.57 266.40 305.38 264.03
  A 0.95 0.95 0.0 0 0 304.21 264.65
  L 302.71 269.32"
/>
<path stroke="#522219" vector-effect="non-scaling-stroke" d="
  M 302.71 269.32
  Q 301.02 267.75 302.54 263.79"
/>
<path stroke="#370e0a" vector-effect="non-scaling-stroke" d="
  M 302.54 263.79
  Q 302.88 260.61 305.01 260.19
  Q 306.40 259.91 308.28 260.35
  Q 313.09 261.49 318.12 262.42
  C 327.97 264.23 338.19 263.79 347.82 261.34
  C 350.89 260.56 353.05 258.79 355.12 256.55
  Q 355.76 255.86 355.27 255.06
  L 349.47 245.58"
/>
<path stroke="#763b31" vector-effect="non-scaling-stroke" d="
  M 349.47 245.58
  Q 356.97 242.42 361.82 238.29
  Q 364.87 235.69 367.52 230.15"
/>
<path stroke="#898080" vector-effect="non-scaling-stroke" d="
  M 367.52 230.15
  Q 367.82 230.08 367.73 229.76
  Q 367.69 229.61 367.57 229.52
  Q 358.42 221.94 353.62 217.06
  C 346.61 209.93 341.92 199.84 338.01 191.24"
/>
<path stroke="#8a6454" vector-effect="non-scaling-stroke" d="
  M 338.01 191.24
  Q 342.09 183.63 348.47 175.68"
/>
<path stroke="#898080" vector-effect="non-scaling-stroke" d="
  M 348.47 175.68
  L 337.87 150.48"
/>
<path stroke="#763b31" vector-effect="non-scaling-stroke" d="
  M 337.87 150.48
  L 333.46 139.40
  Q 333.27 138.93 332.76 139.01
  Q 314.54 141.92 301.08 142.68
  Q 282.23 143.76 264.65 141.99
  A 0.59 0.58 -5.1 0 0 264.03 142.73
  Q 265.67 148.71 266.02 155.39
  C 266.40 162.60 264.45 167.03 261.14 172.76
  Q 259.78 175.11 258.04 176.83
  Q 249.87 184.90 241.47 189.96
  Q 241.02 190.23 241.03 190.76
  L 241.29 200.39"
/>
<path stroke="#ebbab0" vector-effect="non-scaling-stroke" d="
  M 337.87 150.48
  L 335.69 150.51"
/>
<path stroke="#ec9e84" vector-effect="non-scaling-stroke" d="
  M 335.69 150.51
  Q 335.39 150.15 334.91 150.07
  C 313.05 146.44 290.10 148.96 268.43 152.69
  A 0.46 0.46 0.0 0 0 268.05 153.20
  Q 269.18 163.64 264.34 174.28
  C 263.36 176.44 261.93 178.19 260.75 180.27
  Q 259.48 182.51 257.70 184.82
  Q 250.70 193.90 241.29 200.39"
/>
<path stroke="#fee3d2" vector-effect="non-scaling-stroke" d="
  M 335.69 150.51
  Q 335.42 152.36 336.25 155.00
  Q 339.33 164.80 343.27 174.04
  A 1.12 1.12 0.0 0 0 344.05 174.70
  L 348.47 175.68"
/>
<path stroke="#fee3d2" vector-effect="non-scaling-stroke" d="
  M 338.01 191.24
  Q 336.50 193.38 336.08 196.30
  A 2.74 2.74 0.0 0 0 336.40 198.05
  C 340.31 205.00 344.05 212.42 348.86 218.45
  Q 353.27 223.98 358.48 228.55
  A 0.77 0.77 0.0 0 1 358.19 229.87
  L 339.30 235.39
  A 0.66 0.65 -4.3 0 0 338.84 235.92
  Q 338.74 236.56 339.01 236.72"
/>
<path stroke="#ec9e84" vector-effect="non-scaling-stroke" d="
  M 339.01 236.72
  C 338.06 237.83 336.68 237.24 335.79 238.28
  Q 335.33 238.81 334.68 239.15
  Q 332.31 240.37 330.91 240.31
  Q 328.55 240.21 330.58 241.41
  Q 332.46 242.52 334.49 244.42"
/>
<path stroke="#c7856c" vector-effect="non-scaling-stroke" d="
  M 334.49 244.42
  Q 322.47 247.37 310.21 248.36
  Q 302.74 248.97 299.93 249.89
  C 291.84 252.56 285.44 258.94 285.37 267.85
  Q 285.36 268.79 284.49 268.43
  L 279.94 266.56
  Q 279.04 266.18 278.97 265.21
  L 277.96 251.91
  A 1.11 1.11 0.0 0 0 277.13 250.92
  Q 265.51 247.88 254.19 242.37
  Q 248.91 239.80 245.01 238.49
  Q 243.80 238.08 243.72 236.72"
/>
<path stroke="#ebbab0" vector-effect="non-scaling-stroke" d="
  M 367.52 230.15
  L 339.01 236.72"
/>
<path stroke="#99473a" vector-effect="non-scaling-stroke" d="
  M 349.47 245.58
  C 343.93 246.09 340.74 244.83 336.06 243.70"
/>
<path stroke="#b45c49" vector-effect="non-scaling-stroke" d="
  M 336.06 243.70
  Q 335.31 243.01 334.79 243.15
  Q 334.25 243.29 334.56 243.75
  Q 335.30 244.82 334.49 244.42"
/>
<path stroke="#742f22" vector-effect="non-scaling-stroke" d="
  M 336.06 243.70
  Q 334.90 243.55 335.69 244.68
  A 0.77 0.71 86.2 0 0 335.91 244.89
  Q 340.21 247.57 344.01 250.77
  C 345.41 251.95 347.11 252.70 348.56 253.83
  A 0.57 0.56 53.6 0 1 348.42 254.80
  Q 343.82 256.57 339.06 257.40
  Q 327.69 259.41 317.41 259.10
  Q 313.83 258.99 317.32 258.19
  Q 318.99 257.81 320.66 257.61
  Q 320.76 257.60 320.78 257.50
  L 320.91 256.82
  Q 320.95 256.63 320.76 256.61
  Q 308.21 254.89 296.82 259.21
  Q 296.22 259.44 296.36 260.04
  Q 296.48 260.56 297.01 260.56
  Q 298.16 260.57 299.53 260.54
  Q 302.51 260.48 302.54 263.79"
/>
<path stroke="#c7856c" vector-effect="non-scaling-stroke" d="
  M 302.71 269.32
  Q 302.61 271.64 302.46 274.49
  Q 302.20 279.66 303.78 283.86
  C 306.47 291.00 313.77 294.45 321.06 292.78
  Q 329.04 290.95 329.90 281.16"
/>
<path stroke="#742f22" vector-effect="non-scaling-stroke" d="
  M 329.90 281.16
  L 334.18 281.74
  Q 334.85 281.83 334.87 282.51
  Q 334.90 283.50 335.78 284.00
  Q 336.59 284.47 336.42 283.55
  L 336.16 282.09
  Q 336.07 281.55 336.57 281.32
  Q 337.89 280.73 339.29 280.29
  Q 341.10 279.71 342.59 280.99
  Q 342.80 281.18 342.95 280.93
  Q 343.49 280.00 344.69 279.73
  Q 345.14 279.62 345.50 279.92
  Q 345.93 280.28 346.76 280.17"
/>
<path stroke="#c6a198" vector-effect="non-scaling-stroke" d="
  M 346.76 280.17
  Q 347.30 283.09 347.47 286.01
  Q 347.64 288.81 350.72 296.25
  Q 351.91 299.10 353.01 303.45"
/>
<path stroke="#742f22" vector-effect="non-scaling-stroke" d="
  M 353.01 303.45
  Q 350.14 310.03 346.13 310.45"
/>
<path stroke="#742f22" vector-effect="non-scaling-stroke" d="
  M 342.79 312.58
  C 337.60 315.63 328.63 316.71 323.82 312.22
  Q 320.71 309.31 318.51 305.60
  Q 317.97 304.67 318.04 305.74
  Q 318.24 308.51 318.75 311.30
  A 0.61 0.61 0.0 0 1 318.09 312.02
  C 306.56 310.99 301.15 304.02 298.88 293.61
  C 298.46 291.67 297.63 289.92 297.12 287.99
  Q 297.09 287.89 296.98 287.91
  L 296.71 287.96
  Q 296.40 288.03 296.40 288.35
  Q 296.43 289.28 295.97 289.99
  A 0.52 0.52 0.0 0 1 295.05 289.88
  Q 293.57 285.76 293.64 281.50
  Q 293.65 280.55 292.94 279.99
  A 0.39 0.39 0.0 0 0 292.31 280.22
  Q 290.88 288.12 291.16 296.03"
/>
<path stroke="#742f22" vector-effect="non-scaling-stroke" d="
  M 292.31 304.47
  Q 287.18 303.81 284.24 301.95
  C 280.85 299.82 277.94 294.81 276.88 291.55
  Q 273.46 281.09 272.20 273.55
  Q 271.34 268.40 271.29 261.48
  Q 271.27 259.01 270.85 256.57
  Q 270.75 256.01 270.22 255.81
  C 266.32 254.35 262.35 253.36 258.61 251.58
  Q 252.76 248.79 246.63 245.56
  Q 244.49 244.43 242.15 242.76
  Q 241.06 241.98 238.45 240.76
  Q 237.97 240.53 237.67 240.09
  Q 236.68 238.64 235.00 239.56"
/>
<path stroke="#ab8d88" vector-effect="non-scaling-stroke" d="
  M 354.58 309.12
  L 353.01 303.45"
/>
<path stroke="#ab8d88" vector-effect="non-scaling-stroke" d="
  M 346.76 280.17
  L 346.22 273.77"
/>
<path stroke="#fee3d2" vector-effect="non-scaling-stroke" d="
  M 345.23 265.49
  Q 344.99 269.92 346.22 273.77"
/>
<path stroke="#ac715c" vector-effect="non-scaling-stroke" d="
  M 346.22 273.77
  L 330.02 277.74
  Q 329.50 277.86 329.57 278.40
  L 329.90 281.16"
/>
<path stroke="#742f22" vector-effect="non-scaling-stroke" d="
  M 268.82 285.06
  Q 268.48 280.54 268.85 278.49
  Q 270.67 268.56 269.82 258.59
  Q 269.71 257.30 268.51 256.86
  L 256.81 252.51
  Q 255.38 251.98 255.29 253.50
  Q 254.96 259.42 255.50 265.49
  Q 256.06 271.74 257.60 276.31
  Q 259.24 281.17 261.71 286.29
  Q 264.44 291.96 269.08 293.00"
/>
<path stroke="#742f22" vector-effect="non-scaling-stroke" d="
  M 250.44 275.47
  L 253.87 252.48
  A 1.42 1.42 0.0 0 0 253.14 251.03
  L 240.64 244.35
  A 0.60 0.60 0.0 0 0 239.76 244.87
  C 239.63 255.52 239.44 266.44 241.68 276.97
  Q 241.76 277.38 242.18 277.34
  L 242.49 277.31
  Q 242.61 277.30 242.61 277.18
  Q 242.64 271.76 243.16 266.16
  Q 243.29 264.80 243.82 263.44
  Q 244.40 261.96 244.13 260.05
  Q 244.12 259.97 244.20 259.96
  L 244.47 259.92
  Q 244.91 259.86 244.91 260.30
  Q 244.97 263.77 244.66 267.18
  Q 244.17 272.74 244.84 279.58
  Q 244.98 281.09 245.77 282.46
  Q 247.38 285.26 249.34 284.41"
/>
<path stroke="#8a6454" vector-effect="non-scaling-stroke" d="
  M 181.90 220.61
  Q 179.77 228.02 181.78 234.89"
/>
<path stroke="#763b31" vector-effect="non-scaling-stroke" d="
  M 181.78 234.89
  Q 184.27 245.11 190.98 251.04
  Q 198.08 257.32 201.78 259.37
  Q 213.32 265.78 225.18 259.27
  A 1.85 1.84 -16.0 0 0 226.13 257.56
  L 225.95 254.39"
/>
<path stroke="#8a6454" vector-effect="non-scaling-stroke" d="
  M 225.95 254.39
  Q 225.68 244.52 225.22 234.50
  Q 225.03 230.59 223.94 229.42"
/>
<path stroke="#898080" vector-effect="non-scaling-stroke" d="
  M 223.94 229.42
  Q 222.87 220.32 217.19 213.56
  C 211.78 207.13 202.13 203.27 194.05 206.81
  Q 185.13 210.72 181.90 220.61"
/>
<path stroke="#fee3d2" vector-effect="non-scaling-stroke" d="
  M 223.94 229.42
  Q 217.68 215.71 205.39 210.80
  C 195.95 207.04 187.41 212.49 183.17 220.94
  A 0.66 0.65 30.9 0 1 182.20 221.18
  Q 181.88 220.96 181.90 220.61"
/>
<path stroke="#ec9e84" vector-effect="non-scaling-stroke" d="
  M 225.95 254.39
  Q 220.11 256.86 218.25 257.46
  Q 211.27 259.69 202.02 257.44
  A 0.56 0.56 0.0 0 1 201.74 256.52
  L 202.05 256.17
  Q 202.75 255.38 203.80 255.45
  Q 204.98 255.52 206.00 255.14
  Q 206.90 254.81 206.00 254.49
  Q 198.57 251.91 192.75 247.19
  Q 190.58 245.43 187.14 241.12
  Q 184.67 238.03 181.78 234.89"
/>
<path stroke="#8a6454" vector-effect="non-scaling-stroke" d="
  M 186.60 326.11
  Q 193.87 332.71 201.98 338.72
  Q 205.01 340.95 211.37 344.77
  Q 215.10 347.00 220.88 350.63
  Q 229.13 355.82 246.13 363.45"
/>
<path stroke="#763b31" vector-effect="non-scaling-stroke" d="
  M 246.13 363.45
  Q 254.83 371.18 262.21 382.52
  Q 263.08 383.87 264.79 384.99
  Q 265.29 385.31 265.25 384.72
  L 263.82 363.32
  Q 263.80 362.92 263.99 362.57
  L 274.16 343.79
  Q 274.43 343.29 273.97 342.94
  Q 265.68 336.75 263.57 334.35
  C 256.09 325.86 248.37 318.37 241.67 308.73
  C 237.31 302.48 232.84 296.31 228.75 289.79
  Q 227.68 288.08 227.58 286.30
  Q 227.01 276.03 226.52 266.84
  Q 226.48 266.20 225.88 266.44
  Q 218.18 269.51 209.03 273.92
  Q 192.36 281.95 183.52 298.64
  Q 178.16 308.77 177.53 317.43
  C 177.46 318.45 177.89 319.21 178.65 319.86
  Q 182.29 323.00 186.60 326.11"
/>
<path stroke="#ec9e84" vector-effect="non-scaling-stroke" d="
  M 246.13 363.45
  Q 242.30 357.72 239.46 352.12
  C 237.26 347.78 234.72 343.67 232.58 339.47
  Q 228.21 330.88 223.40 321.13
  Q 220.97 316.22 219.33 311.91
  C 216.17 303.61 212.31 295.55 209.10 287.27
  A 0.61 0.61 0.0 0 0 208.14 287.02
  C 203.94 290.52 199.75 294.78 197.08 299.41
  C 195.42 302.28 193.51 304.75 192.08 307.90
  Q 190.44 311.47 190.02 313.25
  Q 188.49 319.61 186.60 326.11"
/>
<path stroke="#7a6f72" vector-effect="non-scaling-stroke" d="
  M 157.15 337.65
  L 153.82 344.98"
/>
<path stroke="#705d61" vector-effect="non-scaling-stroke" d="
  M 153.82 344.98
  L 150.63 351.08
  Q 150.39 351.52 150.69 351.92
  Q 156.42 359.58 160.96 363.84
  C 169.84 372.20 178.66 380.69 188.84 387.35
  C 194.00 390.72 198.81 394.44 204.16 397.45
  Q 212.35 402.06 221.39 406.64
  Q 222.68 407.30 223.04 405.89
  L 224.44 400.31"
/>
<path stroke="#7a6f72" vector-effect="non-scaling-stroke" d="
  M 224.44 400.31
  L 226.24 393.21"
/>
<path stroke="#898080" vector-effect="non-scaling-stroke" d="
  M 226.24 393.21
  L 230.74 376.15
  Q 230.88 375.64 231.41 375.65
  L 238.04 375.85
  Q 238.55 375.87 238.92 376.22
  Q 239.67 376.95 239.90 377.79"
/>
<path stroke="#705d61" vector-effect="non-scaling-stroke" d="
  M 239.90 377.79
  L 231.73 409.94
  Q 231.60 410.43 232.08 410.61
  L 237.03 412.48"
/>
<path stroke="#7a6f72" vector-effect="non-scaling-stroke" d="
  M 237.03 412.48
  Q 256.49 418.77 276.90 418.15
  Q 277.43 418.13 277.13 417.69
  L 273.40 412.22"
/>
<path stroke="#898080" vector-effect="non-scaling-stroke" d="
  M 273.40 412.22
  C 268.70 406.06 264.04 400.44 259.92 394.49
  Q 258.96 393.11 257.89 391.82
  Q 250.18 382.55 242.44 373.41
  Q 240.97 371.66 238.71 370.48
  Q 232.81 367.37 227.70 365.30
  Q 223.39 363.55 219.54 361.36
  Q 209.72 355.75 201.21 350.21
  C 198.50 348.45 196.30 346.24 193.61 344.51
  Q 185.21 339.12 179.64 333.69
  Q 172.85 327.08 166.25 320.97
  A 0.55 0.55 0.0 0 0 165.39 321.13
  L 157.15 337.65"
/>
<path stroke="#efeef0" vector-effect="non-scaling-stroke" d="
  M 273.40 412.22
  Q 256.12 411.22 239.84 405.61"
/>
<path stroke="#e4dce0" vector-effect="non-scaling-stroke" d="
  M 239.84 405.61
  L 242.49 398.54
  Q 242.67 398.06 243.18 398.04
  Q 249.76 397.83 256.31 398.75
  Q 257.08 398.86 256.59 398.26
  L 239.90 377.79"
/>
<path stroke="#efeef0" vector-effect="non-scaling-stroke" d="
  M 226.24 393.21
  C 221.70 391.07 217.56 388.26 213.16 386.08
  Q 205.66 382.36 198.97 377.27
  Q 188.92 369.63 179.29 361.46
  Q 174.16 357.11 157.15 337.65"
/>
<path stroke="#d6cbd2" vector-effect="non-scaling-stroke" d="
  M 239.84 405.61
  Q 239.09 409.70 237.03 412.48"
/>
<path stroke="#d6cbd2" vector-effect="non-scaling-stroke" d="
  M 224.44 400.31
  Q 218.96 399.27 214.73 395.76
  C 212.94 394.27 209.24 393.54 206.70 392.07
  Q 205.43 391.33 204.12 390.77
  Q 202.23 389.96 200.40 388.55
  Q 198.60 387.15 196.61 385.94
  C 194.39 384.58 192.47 382.89 190.28 381.48
  Q 189.99 381.30 189.93 380.96
  L 189.88 380.71
  A 1.20 1.18 -83.9 0 0 189.16 379.80
  Q 186.70 378.78 185.12 376.75
  Q 184.39 375.80 183.25 375.38
  Q 182.21 375.00 181.31 374.38
  Q 177.01 371.39 173.22 367.31
  Q 172.88 366.94 172.43 366.72
  Q 171.73 366.36 171.28 365.73
  Q 169.62 363.39 167.47 361.46
  Q 164.48 358.77 163.39 357.44
  Q 160.52 353.95 157.81 350.60
  Q 157.16 349.80 155.99 347.72
  Q 155.08 346.12 153.82 344.98"
/>
<path stroke="#705d61" vector-effect="non-scaling-stroke" d="
  M 274.18 364.55
  Q 272.91 365.72 273.05 367.26
  Q 274.52 383.82 277.06 399.75
  Q 277.38 401.75 278.04 399.84
  L 283.62 383.63"
/>
<path stroke="#898080" vector-effect="non-scaling-stroke" d="
  M 283.62 383.63
  L 288.81 369.19
  A 1.31 1.31 0.0 0 0 288.27 367.63
  Q 282.73 364.17 277.54 359.70
  A 0.62 0.62 0.0 0 0 276.58 359.88
  L 274.18 364.55"
/>
<path stroke="#e4dce0" vector-effect="non-scaling-stroke" d="
  M 283.62 383.63
  Q 283.37 377.60 282.69 371.98
  C 282.26 368.40 277.30 366.02 274.18 364.55"
/>
<path stroke="#705d61" vector-effect="non-scaling-stroke" d="
  M 284.85 407.94
  Q 283.48 412.08 282.84 416.55
  A 0.41 0.40 -5.7 0 0 283.38 416.99
  L 293.47 413.41
  A 0.76 0.76 0.0 0 0 293.93 412.42
  L 288.63 398.24
  Q 288.39 397.62 288.13 398.23
  C 286.80 401.33 285.93 404.68 284.85 407.94"
/>
<path stroke="#c6a198" vector-effect="non-scaling-stroke" d="
  M 162.1219 161.1203
  A 8.15 4.10 92.8 0 0 166.6151 153.1803
  A 8.15 4.10 92.8 0 0 162.9181 144.8397
  A 8.15 4.10 92.8 0 0 158.4249 152.7797
  A 8.15 4.10 92.8 0 0 162.1219 161.1203"
/>
<path stroke="#b45c49" vector-effect="non-scaling-stroke" d="
  M 196.5154 157.8310
  A 3.73 2.62 67.7 0 0 197.5240 153.3858
  A 3.73 2.62 67.7 0 0 193.6846 150.9290
  A 3.73 2.62 67.7 0 0 192.6760 155.3742
  A 3.73 2.62 67.7 0 0 196.5154 157.8310"
/>
<path stroke="#c7856c" vector-effect="non-scaling-stroke" d="
  M 174.7890 159.8503
  A 2.52 2.00 65.9 0 0 175.5857 156.7333
  A 2.52 2.00 65.9 0 0 172.7310 155.2497
  A 2.52 2.00 65.9 0 0 171.9343 158.3667
  A 2.52 2.00 65.9 0 0 174.7890 159.8503"
/>
<path stroke="#c6a198" vector-effect="non-scaling-stroke" d="
  M 183.5178 158.2654
  A 2.31 1.38 38.1 0 0 182.5515 155.7540
  A 2.31 1.38 38.1 0 0 179.8822 155.4146
  A 2.31 1.38 38.1 0 0 180.8485 157.9260
  A 2.31 1.38 38.1 0 0 183.5178 158.2654"
/>
<path stroke="#ec9e84" vector-effect="non-scaling-stroke" d="
  M 273.34 186.61
  Q 278.48 188.59 280.03 189.95
  Q 282.12 191.79 284.35 193.49"
/>
<path stroke="#8a6454" vector-effect="non-scaling-stroke" d="
  M 284.35 193.49
  L 275.39 201.78
  A 0.41 0.41 0.0 0 0 275.60 202.48
  C 277.36 202.78 278.68 203.37 280.18 204.61
  Q 283.73 207.54 287.80 209.36"
/>
<path stroke="#fee3d2" vector-effect="non-scaling-stroke" d="
  M 287.80 209.36
  Q 297.75 214.67 309.00 213.74
  C 315.74 213.19 314.28 206.36 314.03 201.88
  Q 313.99 201.19 313.11 201.30"
/>
<path stroke="#8a6454" vector-effect="non-scaling-stroke" d="
  M 313.11 201.30
  L 313.49 198.77"
/>
<path stroke="#ec9e84" vector-effect="non-scaling-stroke" d="
  M 313.49 198.77
  L 331.61 185.01"
/>
<path stroke="#8a6454" vector-effect="non-scaling-stroke" d="
  M 331.61 185.01
  L 341.16 175.19
  A 0.66 0.65 -64.2 0 0 340.78 174.08
  Q 317.82 171.01 293.34 167.83
  C 290.70 167.49 285.50 172.47 283.80 174.04
  C 278.36 179.04 272.53 183.65 267.42 188.81
  Q 266.39 189.85 267.71 189.23
  L 273.34 186.61"
/>
<path stroke="#763b31" vector-effect="non-scaling-stroke" d="
  M 331.61 185.01
  L 321.52 183.71
  Q 321.04 183.65 320.86 184.10
  Q 318.98 188.83 314.01 191.02
  Q 313.60 191.20 313.59 191.66
  L 313.49 198.77"
/>
<path stroke="#898080" vector-effect="non-scaling-stroke" d="
  M 313.11 201.30
  Q 312.90 203.76 312.08 206.13
  C 310.49 210.70 306.33 211.89 302.91 208.04
  Q 301.08 205.98 299.44 199.78"
/>
<path stroke="#705d61" vector-effect="non-scaling-stroke" d="
  M 299.44 199.78
  L 298.38 195.02
  Q 298.27 194.53 297.80 194.71
  Q 293.18 196.50 288.58 198.37
  Q 283.11 200.59 283.29 203.34"
/>
<path stroke="#898080" vector-effect="non-scaling-stroke" d="
  M 283.29 203.34
  L 287.80 209.36"
/>
<path stroke="#763b31" vector-effect="non-scaling-stroke" d="
  M 284.35 193.49
  Q 286.28 192.37 288.19 191.01
  Q 300.75 182.08 315.76 184.18
  Q 316.99 184.35 318.33 183.94
  Q 320.48 183.27 318.23 183.10
  Q 310.09 182.50 300.50 181.50
  Q 286.49 180.04 273.34 186.61"
/>
<path stroke="#e4dce0" vector-effect="non-scaling-stroke" d="
  M 299.44 199.78
  L 283.29 203.34"
/>
<path stroke="#ec9e84" vector-effect="non-scaling-stroke" d="
  M 186.43 222.39
  Q 184.57 224.61 184.03 228.71
  A 0.38 0.38 0.0 0 0 184.72 228.98
  C 187.30 225.34 191.90 224.79 194.03 229.11
  A 4.64 4.60 -56.2 0 1 194.49 231.48
  C 194.28 234.42 193.97 237.23 195.32 240.03
  Q 200.86 251.46 214.71 249.26"
/>
<path stroke="#8a6454" vector-effect="non-scaling-stroke" d="
  M 214.71 249.26
  Q 218.68 248.17 221.51 245.62
  Q 221.94 245.23 221.51 244.86
  Q 219.07 242.69 217.08 239.94
  Q 216.71 239.43 216.72 238.80
  C 217.00 227.51 212.74 218.73 201.05 215.75
  C 196.07 214.48 188.46 216.79 186.43 222.39"
/>
<path stroke="#763b31" vector-effect="non-scaling-stroke" d="
  M 214.71 249.26
  Q 211.91 248.30 209.68 246.51
  C 206.45 243.91 205.42 239.81 202.20 236.95
  Q 200.40 235.34 198.10 236.80
  Q 197.16 237.40 197.82 236.51
  C 200.08 233.45 203.38 232.25 207.10 231.69
  Q 208.42 231.49 207.93 230.25
  Q 205.10 223.12 197.89 220.14
  Q 192.16 217.78 186.43 222.39"
/>
<path stroke="#b45c49" vector-effect="non-scaling-stroke" d="
  M 352.22 242.07
  A 2.36 2.28 20.5 0 0 353.16 241.66
  L 358.24 237.98
  Q 360.06 236.67 357.83 236.86
  Q 350.09 237.54 341.92 239.18
  Q 340.05 239.55 338.09 239.64
  Q 337.19 239.68 337.37 240.58
  Q 337.45 241.02 337.88 241.17
  Q 344.59 243.55 352.22 242.07"
/>
</g>
<path fill="#140101" d="
  M 169.35 113.90
  C 168.17 105.54 169.86 97.92 174.29 90.88
  Q 176.42 87.50 178.52 84.86
  Q 184.52 77.32 193.98 73.34
  Q 206.07 68.27 218.65 67.68
  C 229.78 67.17 240.56 68.07 251.73 68.65
  Q 264.96 69.34 279.42 68.46
  Q 294.40 67.54 306.79 62.35
  Q 308.44 61.65 307.69 63.28
  Q 304.59 69.99 300.07 75.78
  Q 299.61 76.37 300.36 76.40
  Q 311.65 76.96 318.28 76.01
  Q 322.41 75.42 328.23 73.55
  Q 333.20 71.94 336.52 69.59
  Q 343.49 64.66 345.72 57.21
  Q 345.96 56.41 346.33 57.16
  Q 349.93 64.60 349.47 72.96
  Q 349.43 73.72 350.04 73.26
  Q 355.64 69.01 357.81 62.57
  A 0.48 0.48 0.0 0 1 358.66 62.45
  Q 367.73 76.01 368.54 92.07
  Q 368.58 92.80 369.22 92.44
  Q 376.12 88.55 381.03 81.76
  Q 382.00 80.41 381.98 82.07
  Q 381.61 110.92 361.76 129.58
  A 0.26 0.26 0.0 0 0 361.84 130.00
  C 367.44 132.37 372.82 130.67 378.14 128.48
  Q 379.57 127.88 378.86 129.26
  C 376.56 133.74 372.58 137.06 368.61 139.76
  Q 358.67 146.52 346.57 146.09
  A 0.67 0.67 0.0 0 0 345.93 147.02
  L 358.28 175.39
  Q 358.69 176.34 358.05 177.15
  L 347.47 190.57
  A 1.08 1.07 51.2 0 0 347.35 191.71
  Q 353.98 204.82 363.14 214.72
  Q 366.19 218.00 370.04 220.44
  Q 374.30 223.13 378.55 225.28
  Q 378.93 225.47 378.80 225.88
  Q 376.48 233.19 372.12 238.13
  Q 367.29 243.62 359.84 248.58
  Q 359.35 248.90 359.65 249.39
  L 363.61 255.95
  Q 364.05 256.69 363.39 257.25
  L 356.78 262.84
  A 2.45 2.41 -22.2 0 0 355.92 264.83
  Q 356.42 274.06 356.88 283.18
  Q 356.99 285.45 357.97 287.24
  C 364.04 298.36 366.60 308.91 358.80 319.84
  C 357.02 322.33 353.13 325.10 350.44 326.56
  C 340.68 331.86 330.34 331.16 319.88 328.06
  Q 311.90 325.70 303.89 323.04
  Q 301.21 322.16 298.72 321.75
  Q 297.41 321.54 296.74 322.68
  L 281.53 348.30
  Q 280.41 350.19 282.14 351.54
  L 299.62 365.24
  Q 300.00 365.54 299.95 366.03
  Q 298.79 378.95 298.45 392.20
  C 298.34 396.33 299.58 399.43 300.84 403.06
  C 302.59 408.08 303.58 413.25 305.51 418.11
  A 0.65 0.65 0.0 0 1 305.23 418.91
  C 297.16 423.63 288.28 427.24 278.97 427.80
  Q 264.21 428.70 252.76 426.97
  Q 234.93 424.27 218.54 416.36
  Q 208.19 411.37 198.72 406.26
  Q 191.93 402.59 182.49 395.83
  Q 179.02 393.35 175.18 389.97
  Q 171.85 387.03 167.89 384.13
  C 163.51 380.90 159.23 376.63 155.43 372.49
  Q 151.63 368.35 147.71 364.51
  Q 143.21 360.09 138.68 354.51
  Q 138.37 354.14 138.59 353.70
  L 160.78 309.00
  A 0.91 0.81 -75.4 0 1 161.54 308.49
  L 169.53 308.54
  A 0.75 0.75 0.0 0 0 170.24 308.03
  Q 172.69 300.88 176.20 293.16
  Q 176.88 291.67 176.18 289.97
  Q 174.72 286.48 173.26 283.21
  Q 166.50 268.10 159.17 253.99
  Q 157.26 250.31 155.49 246.00
  C 154.00 242.38 151.78 239.06 150.04 235.54
  Q 145.69 226.71 141.19 217.30
  Q 137.96 210.55 136.22 204.67
  Q 135.26 201.43 134.21 198.20
  Q 133.04 194.59 132.41 191.70
  Q 127.00 166.65 136.74 143.09
  Q 138.00 140.04 140.68 136.53
  Q 147.30 127.86 156.68 122.05
  Q 157.21 121.72 156.94 121.16
  Q 155.85 118.94 154.57 116.66
  C 150.84 110.00 153.13 103.04 156.94 97.09
  C 158.86 94.10 162.87 93.01 165.92 91.61
  Q 167.27 90.99 166.36 92.16
  C 161.08 98.90 161.97 108.82 168.55 114.35
  Q 169.53 115.17 169.35 113.90
  Z
  M 281.97 75.02
  Q 270.75 77.28 260.00 77.51
  Q 249.62 77.74 239.25 77.36
  Q 230.49 77.04 221.75 77.22
  Q 202.69 77.14 188.30 89.27
  Q 187.59 89.88 185.83 92.54
  C 181.48 95.54 178.80 102.20 177.74 107.34
  Q 176.84 109.16 177.36 111.87
  Q 176.56 116.40 177.50 121.71
  A 1.11 1.10 79.0 0 1 176.64 122.99
  L 174.83 123.35
  Q 166.38 124.73 159.63 129.63
  C 157.49 131.18 155.84 133.20 153.89 134.96
  Q 151.70 136.94 150.02 139.38
  Q 140.11 153.87 140.15 171.74
  Q 140.17 181.41 142.41 191.55
  Q 145.77 205.30 152.37 218.54
  Q 154.76 223.35 156.65 227.73
  Q 158.66 232.37 161.08 236.88
  C 166.03 246.12 169.93 254.71 174.31 263.62
  C 177.27 269.65 178.87 275.88 181.32 282.05
  A 1.01 1.01 0.0 0 0 183.09 282.24
  Q 188.82 273.71 194.75 266.88
  A 1.12 1.12 0.0 0 0 194.43 265.16
  C 186.51 260.90 180.39 254.69 176.52 246.70
  Q 174.32 242.17 173.31 238.55
  Q 169.06 223.50 177.58 210.11
  C 182.54 202.31 192.29 198.29 201.27 198.03
  C 204.98 197.92 208.51 198.27 212.29 197.62
  C 226.34 195.18 238.88 188.78 247.94 177.41
  Q 250.52 174.17 251.01 170.01
  Q 251.62 164.73 249.18 159.72
  Q 245.48 153.42 240.23 147.90
  Q 240.58 144.52 246.56 147.61
  Q 255.27 152.99 260.40 161.71
  L 261.03 165.31
  Q 261.25 166.61 261.67 165.36
  Q 262.45 163.05 263.77 160.51
  Q 264.91 158.32 264.40 152.96
  Q 259.77 145.83 249.17 141.92
  L 228.77 132.82
  A 0.35 0.35 0.0 0 1 228.57 132.52
  Q 228.56 132.23 228.75 132.10
  Q 229.01 131.94 229.30 131.99
  C 232.38 132.55 235.41 132.17 238.56 132.78
  Q 247.45 134.49 256.48 134.93
  Q 275.39 135.85 293.03 135.36
  Q 310.57 134.88 327.03 129.81
  C 338.30 126.33 347.06 120.72 355.35 112.52
  C 360.10 107.81 362.83 102.33 363.33 95.69
  Q 363.96 87.32 362.53 79.80
  L 360.11 71.19
  A 0.43 0.43 0.0 0 0 359.36 71.03
  Q 350.44 82.07 336.14 87.07
  Q 335.58 87.27 335.86 86.74
  L 340.48 78.25
  Q 343.44 74.06 337.64 78.76
  Q 336.60 79.61 335.47 80.23
  C 322.46 87.35 308.63 88.24 294.08 87.75
  Q 286.31 87.49 278.42 87.15
  L 276.18 86.95
  Q 275.12 86.86 276.08 86.41
  Q 287.76 80.95 296.93 70.82
  Q 299.05 68.47 296.33 70.08
  C 293.32 71.87 291.23 72.22 286.83 73.07
  Q 283.96 73.62 281.97 75.02
  Z
  M 241.29 200.39
  L 243.72 236.72
  L 235.65 232.40
  Q 234.95 232.02 234.95 232.81
  L 235.00 239.56
  Q 235.97 259.13 236.73 278.75
  C 236.77 279.74 237.08 280.85 237.74 281.62
  Q 242.64 287.30 249.17 290.78
  A 0.39 0.39 0.0 0 0 249.74 290.42
  L 249.34 284.41
  L 250.44 275.47
  Q 251.07 275.31 251.22 275.15
  A 0.58 0.58 0.0 0 1 252.22 275.50
  Q 252.66 280.01 253.18 284.49
  C 253.66 288.72 255.02 293.50 259.06 295.75
  Q 264.58 298.81 269.64 300.61
  A 0.48 0.47 -84.7 0 0 270.27 300.08
  L 269.08 293.00
  L 268.82 285.06
  Q 269.92 281.33 269.80 277.50
  Q 269.77 276.34 270.09 275.85
  Q 270.94 274.55 270.86 276.10
  C 270.65 280.38 271.93 284.11 272.70 288.18
  Q 274.20 296.04 277.02 300.89
  Q 279.40 304.98 284.23 306.79
  Q 288.64 308.44 293.17 310.06
  A 0.28 0.27 3.0 0 0 293.53 309.74
  L 292.31 304.47
  L 291.16 296.03
  Q 291.54 293.99 291.61 291.92
  Q 291.65 290.92 291.76 289.92
  Q 292.01 287.83 292.60 287.94
  Q 292.93 288.00 292.97 288.34
  Q 293.30 291.20 294.08 294.05
  Q 294.86 296.90 295.71 300.03
  Q 297.50 306.66 301.76 312.25
  C 302.33 313.00 303.23 313.28 304.07 313.58
  Q 314.31 317.35 325.31 320.18
  C 329.76 321.32 336.37 321.93 341.06 320.39
  Q 341.60 320.21 341.85 319.71
  Q 343.62 316.19 342.79 312.58
  C 343.25 306.29 341.74 301.10 339.78 294.83
  Q 339.77 294.81 339.85 294.73
  L 340.05 294.52
  Q 340.23 294.34 340.32 294.58
  L 346.13 310.45
  L 345.99 318.09
  Q 345.97 319.28 346.91 318.55
  Q 352.20 314.43 354.58 309.12
  Q 355.44 301.08 352.19 294.53
  Q 348.80 287.71 348.50 283.90
  Q 347.87 276.04 347.56 265.62
  A 0.66 0.66 0.0 0 0 346.69 265.01
  L 345.23 265.49
  Q 330.81 267.93 322.25 267.17
  Q 313.57 266.40 305.38 264.03
  A 0.95 0.95 0.0 0 0 304.21 264.65
  L 302.71 269.32
  Q 301.02 267.75 302.54 263.79
  Q 302.88 260.61 305.01 260.19
  Q 306.40 259.91 308.28 260.35
  Q 313.09 261.49 318.12 262.42
  C 327.97 264.23 338.19 263.79 347.82 261.34
  C 350.89 260.56 353.05 258.79 355.12 256.55
  Q 355.76 255.86 355.27 255.06
  L 349.47 245.58
  Q 356.97 242.42 361.82 238.29
  Q 364.87 235.69 367.52 230.15
  Q 367.82 230.08 367.73 229.76
  Q 367.69 229.61 367.57 229.52
  Q 358.42 221.94 353.62 217.06
  C 346.61 209.93 341.92 199.84 338.01 191.24
  Q 342.09 183.63 348.47 175.68
  L 337.87 150.48
  L 333.46 139.40
  Q 333.27 138.93 332.76 139.01
  Q 314.54 141.92 301.08 142.68
  Q 282.23 143.76 264.65 141.99
  A 0.59 0.58 -5.1 0 0 264.03 142.73
  Q 265.67 148.71 266.02 155.39
  C 266.40 162.60 264.45 167.03 261.14 172.76
  Q 259.78 175.11 258.04 176.83
  Q 249.87 184.90 241.47 189.96
  Q 241.02 190.23 241.03 190.76
  L 241.29 200.39
  Z
  M 181.90 220.61
  Q 179.77 228.02 181.78 234.89
  Q 184.27 245.11 190.98 251.04
  Q 198.08 257.32 201.78 259.37
  Q 213.32 265.78 225.18 259.27
  A 1.85 1.84 -16.0 0 0 226.13 257.56
  L 225.95 254.39
  Q 225.68 244.52 225.22 234.50
  Q 225.03 230.59 223.94 229.42
  Q 222.87 220.32 217.19 213.56
  C 211.78 207.13 202.13 203.27 194.05 206.81
  Q 185.13 210.72 181.90 220.61
  Z
  M 186.60 326.11
  Q 193.87 332.71 201.98 338.72
  Q 205.01 340.95 211.37 344.77
  Q 215.10 347.00 220.88 350.63
  Q 229.13 355.82 246.13 363.45
  Q 254.83 371.18 262.21 382.52
  Q 263.08 383.87 264.79 384.99
  Q 265.29 385.31 265.25 384.72
  L 263.82 363.32
  Q 263.80 362.92 263.99 362.57
  L 274.16 343.79
  Q 274.43 343.29 273.97 342.94
  Q 265.68 336.75 263.57 334.35
  C 256.09 325.86 248.37 318.37 241.67 308.73
  C 237.31 302.48 232.84 296.31 228.75 289.79
  Q 227.68 288.08 227.58 286.30
  Q 227.01 276.03 226.52 266.84
  Q 226.48 266.20 225.88 266.44
  Q 218.18 269.51 209.03 273.92
  Q 192.36 281.95 183.52 298.64
  Q 178.16 308.77 177.53 317.43
  C 177.46 318.45 177.89 319.21 178.65 319.86
  Q 182.29 323.00 186.60 326.11
  Z
  M 157.15 337.65
  L 153.82 344.98
  L 150.63 351.08
  Q 150.39 351.52 150.69 351.92
  Q 156.42 359.58 160.96 363.84
  C 169.84 372.20 178.66 380.69 188.84 387.35
  C 194.00 390.72 198.81 394.44 204.16 397.45
  Q 212.35 402.06 221.39 406.64
  Q 222.68 407.30 223.04 405.89
  L 224.44 400.31
  L 226.24 393.21
  L 230.74 376.15
  Q 230.88 375.64 231.41 375.65
  L 238.04 375.85
  Q 238.55 375.87 238.92 376.22
  Q 239.67 376.95 239.90 377.79
  L 231.73 409.94
  Q 231.60 410.43 232.08 410.61
  L 237.03 412.48
  Q 256.49 418.77 276.90 418.15
  Q 277.43 418.13 277.13 417.69
  L 273.40 412.22
  C 268.70 406.06 264.04 400.44 259.92 394.49
  Q 258.96 393.11 257.89 391.82
  Q 250.18 382.55 242.44 373.41
  Q 240.97 371.66 238.71 370.48
  Q 232.81 367.37 227.70 365.30
  Q 223.39 363.55 219.54 361.36
  Q 209.72 355.75 201.21 350.21
  C 198.50 348.45 196.30 346.24 193.61 344.51
  Q 185.21 339.12 179.64 333.69
  Q 172.85 327.08 166.25 320.97
  A 0.55 0.55 0.0 0 0 165.39 321.13
  L 157.15 337.65
  Z
  M 274.18 364.55
  Q 272.91 365.72 273.05 367.26
  Q 274.52 383.82 277.06 399.75
  Q 277.38 401.75 278.04 399.84
  L 283.62 383.63
  L 288.81 369.19
  A 1.31 1.31 0.0 0 0 288.27 367.63
  Q 282.73 364.17 277.54 359.70
  A 0.62 0.62 0.0 0 0 276.58 359.88
  L 274.18 364.55
  Z
  M 284.85 407.94
  Q 283.48 412.08 282.84 416.55
  A 0.41 0.40 -5.7 0 0 283.38 416.99
  L 293.47 413.41
  A 0.76 0.76 0.0 0 0 293.93 412.42
  L 288.63 398.24
  Q 288.39 397.62 288.13 398.23
  C 286.80 401.33 285.93 404.68 284.85 407.94
  Z"
/>
<path fill="#8f4331" d="
  M 278.42 87.15
  Q 281.98 88.39 283.50 88.67
  Q 292.22 90.29 298.95 90.91
  Q 305.08 91.49 313.79 91.11
  C 323.29 90.71 333.38 84.59 340.48 78.25
  L 335.86 86.74
  Q 335.58 87.27 336.14 87.07
  Q 350.44 82.07 359.36 71.03
  A 0.43 0.43 0.0 0 1 360.11 71.19
  L 362.53 79.80
  Q 361.07 86.69 355.42 92.92
  Q 347.91 101.20 341.76 107.02
  Q 336.83 111.69 331.45 114.53
  Q 327.15 116.81 322.49 119.64
  Q 317.86 122.44 311.64 124.25
  Q 311.37 124.33 311.37 124.05
  L 311.37 123.80
  A 0.09 0.08 -9.7 0 1 311.43 123.72
  C 317.75 121.66 322.43 117.63 328.13 114.33
  Q 336.30 109.59 342.78 101.85
  Q 348.71 94.75 354.97 85.44
  A 0.34 0.33 40.0 0 0 354.93 85.01
  L 354.72 84.80
  Q 354.66 84.74 354.61 84.80
  C 344.45 96.05 331.16 104.92 316.75 111.92
  C 310.75 114.84 303.81 117.22 297.16 119.59
  Q 262.24 132.02 224.82 126.34
  Q 220.91 125.74 216.08 124.18
  Q 215.70 124.06 215.31 124.14
  Q 215.06 124.19 214.83 124.12
  Q 213.84 123.82 214.88 123.86
  C 217.18 123.94 219.36 124.29 221.68 124.15
  C 230.93 123.58 239.79 122.94 248.98 120.84
  C 256.50 119.12 263.32 116.23 270.51 113.55
  Q 274.12 112.20 277.01 110.47
  Q 288.15 103.79 298.89 96.32
  Q 299.52 95.88 298.75 95.87
  Q 298.32 95.87 297.88 95.86
  Q 297.55 95.85 297.23 95.98
  C 280.94 102.89 263.37 108.42 245.25 111.51
  Q 228.10 114.43 210.98 112.73
  Q 210.10 112.64 210.89 112.25
  C 215.45 110.03 219.58 107.25 224.06 104.94
  Q 233.18 100.25 241.65 96.01
  C 245.31 94.18 249.10 93.09 252.85 91.54
  Q 255.26 90.54 257.77 89.55
  Q 257.98 89.47 257.92 89.26
  L 257.85 89.01
  A 0.50 0.49 -13.1 0 0 257.27 88.66
  Q 250.47 90.03 242.95 91.65
  Q 238.42 92.64 233.06 93.62
  C 222.44 95.56 212.56 99.85 202.96 104.70
  Q 195.75 108.34 188.81 113.83
  A 0.38 0.38 0.0 0 1 188.20 113.61
  Q 188.08 113.01 188.33 112.45
  Q 191.13 106.02 195.61 99.88
  C 199.84 94.09 205.40 89.79 211.46 86.88
  A 0.71 0.70 70.0 0 0 211.83 86.07
  Q 211.79 85.90 211.28 85.83
  Q 222.15 83.35 231.56 83.12
  Q 236.71 82.99 240.08 82.45
  Q 245.83 82.70 254.75 82.00
  Q 262.00 81.42 268.16 80.10
  Q 273.73 78.90 275.33 78.40
  Q 278.93 77.25 281.97 75.02
  Q 283.96 73.62 286.83 73.07
  C 291.23 72.22 293.32 71.87 296.33 70.08
  Q 299.05 68.47 296.93 70.82
  Q 287.76 80.95 276.08 86.41
  Q 275.12 86.86 276.18 86.95
  L 278.42 87.15
  Z"
/>
<path fill="#fdfffe" d="
  M 221.75 77.22
  Q 223.82 79.55 225.75 79.59
  Q 232.96 79.76 240.08 82.45
  Q 236.71 82.99 231.56 83.12
  Q 222.15 83.35 211.28 85.83
  C 202.23 87.74 195.02 91.42 187.37 96.73
  Q 187.38 95.27 186.80 93.98
  Q 186.57 93.48 186.73 92.95
  L 186.85 92.54
  Q 187.13 91.60 186.33 92.17
  L 185.83 92.54
  Q 187.59 89.88 188.30 89.27
  Q 202.69 77.14 221.75 77.22
  Z"
/>
<path fill="#591a12" d="
  M 362.53 79.80
  Q 363.96 87.32 363.33 95.69
  C 362.83 102.33 360.10 107.81 355.35 112.52
  C 347.06 120.72 338.30 126.33 327.03 129.81
  Q 310.57 134.88 293.03 135.36
  Q 275.39 135.85 256.48 134.93
  Q 247.45 134.49 238.56 132.78
  C 235.41 132.17 232.38 132.55 229.30 131.99
  Q 229.01 131.94 228.75 132.10
  Q 228.56 132.23 228.57 132.52
  A 0.35 0.35 0.0 0 0 228.77 132.82
  L 249.17 141.92
  Q 246.47 141.71 245.03 142.20
  Q 240.44 143.77 244.83 145.83
  Q 245.20 146.01 246.56 147.61
  Q 240.58 144.52 240.23 147.90
  Q 238.15 145.29 235.09 143.43
  Q 221.80 135.35 207.39 131.36
  Q 197.85 128.72 186.70 129.86
  C 181.22 130.43 176.67 133.04 172.13 135.76
  Q 166.86 138.91 165.30 143.73
  Q 164.64 145.77 164.11 143.69
  Q 162.60 137.86 163.63 129.87
  Q 167.15 126.73 170.25 125.43
  Q 172.54 124.47 174.83 123.35
  L 176.64 122.99
  A 1.11 1.10 79.0 0 0 177.50 121.71
  Q 176.56 116.40 177.36 111.87
  L 178.54 108.40
  Q 181.90 101.96 187.37 96.73
  C 195.02 91.42 202.23 87.74 211.28 85.83
  Q 211.79 85.90 211.83 86.07
  A 0.71 0.70 70.0 0 1 211.46 86.88
  C 205.40 89.79 199.84 94.09 195.61 99.88
  Q 191.13 106.02 188.33 112.45
  Q 188.08 113.01 188.20 113.61
  A 0.38 0.38 0.0 0 0 188.81 113.83
  Q 195.75 108.34 202.96 104.70
  C 212.56 99.85 222.44 95.56 233.06 93.62
  Q 238.42 92.64 242.95 91.65
  Q 250.47 90.03 257.27 88.66
  A 0.50 0.49 -13.1 0 1 257.85 89.01
  L 257.92 89.26
  Q 257.98 89.47 257.77 89.55
  Q 255.26 90.54 252.85 91.54
  C 249.10 93.09 245.31 94.18 241.65 96.01
  Q 233.18 100.25 224.06 104.94
  C 219.58 107.25 215.45 110.03 210.89 112.25
  Q 210.10 112.64 210.98 112.73
  Q 228.10 114.43 245.25 111.51
  C 263.37 108.42 280.94 102.89 297.23 95.98
  Q 297.55 95.85 297.88 95.86
  Q 298.32 95.87 298.75 95.87
  Q 299.52 95.88 298.89 96.32
  Q 288.15 103.79 277.01 110.47
  Q 274.12 112.20 270.51 113.55
  C 263.32 116.23 256.50 119.12 248.98 120.84
  C 239.79 122.94 230.93 123.58 221.68 124.15
  C 219.36 124.29 217.18 123.94 214.88 123.86
  Q 213.84 123.82 214.83 124.12
  Q 215.06 124.19 215.31 124.14
  Q 215.70 124.06 216.08 124.18
  Q 220.91 125.74 224.82 126.34
  Q 262.24 132.02 297.16 119.59
  C 303.81 117.22 310.75 114.84 316.75 111.92
  C 331.16 104.92 344.45 96.05 354.61 84.80
  Q 354.66 84.74 354.72 84.80
  L 354.93 85.01
  A 0.34 0.33 40.0 0 1 354.97 85.44
  Q 348.71 94.75 342.78 101.85
  Q 336.30 109.59 328.13 114.33
  C 322.43 117.63 317.75 121.66 311.43 123.72
  A 0.09 0.08 -9.7 0 0 311.37 123.80
  L 311.37 124.05
  Q 311.37 124.33 311.64 124.25
  Q 317.86 122.44 322.49 119.64
  Q 327.15 116.81 331.45 114.53
  Q 336.83 111.69 341.76 107.02
  Q 347.91 101.20 355.42 92.92
  Q 361.07 86.69 362.53 79.80
  Z"
/>
<path fill="#d87461" d="
  M 177.74 107.34
  Q 178.03 108.26 178.54 108.40
  L 177.36 111.87
  Q 176.84 109.16 177.74 107.34
  Z"
/>
<path fill="#fdfffe" d="
  M 174.83 123.35
  Q 172.54 124.47 170.25 125.43
  Q 167.15 126.73 163.63 129.87
  Q 159.43 132.80 157.31 136.05
  Q 152.10 144.06 149.11 153.72
  Q 141.84 171.28 142.41 191.55
  Q 140.17 181.41 140.15 171.74
  Q 140.11 153.87 150.02 139.38
  Q 151.70 136.94 153.89 134.96
  C 155.84 133.20 157.49 131.18 159.63 129.63
  Q 166.38 124.73 174.83 123.35
  Z"
/>
<path fill="#8f4331" d="
  M 240.23 147.90
  Q 245.48 153.42 249.18 159.72
  C 249.11 162.16 246.68 165.72 245.12 167.57
  C 241.89 171.41 239.15 175.45 235.30 178.84
  Q 228.50 184.83 221.28 189.53
  Q 221.14 189.62 221.04 189.49
  L 221.03 189.48
  Q 220.90 189.31 221.06 189.17
  Q 227.62 183.46 232.27 175.48
  Q 235.03 170.75 237.93 165.06
  Q 240.14 160.73 236.69 164.16
  C 231.72 169.09 225.87 173.64 219.46 176.59
  C 213.33 179.41 206.76 181.34 200.19 183.03
  Q 197.76 183.65 195.36 183.70
  Q 194.35 183.72 195.29 183.35
  C 199.35 181.74 203.53 179.07 207.22 176.74
  C 209.90 175.05 212.37 172.65 214.73 170.47
  Q 217.08 168.30 219.74 164.74
  Q 222.50 161.06 225.91 157.29
  Q 226.65 156.48 225.56 156.63
  Q 224.62 156.76 223.91 157.31
  Q 213.30 165.46 199.61 169.99
  Q 186.73 174.24 173.24 172.34
  Q 166.95 171.45 161.19 168.80
  Q 151.28 164.23 149.11 153.72
  Q 152.10 144.06 157.31 136.05
  Q 159.43 132.80 163.63 129.87
  Q 162.60 137.86 164.11 143.69
  Q 164.64 145.77 165.30 143.73
  Q 166.86 138.91 172.13 135.76
  C 176.67 133.04 181.22 130.43 186.70 129.86
  Q 197.85 128.72 207.39 131.36
  Q 221.80 135.35 235.09 143.43
  Q 238.15 145.29 240.23 147.90
  Z
  M 162.1219 161.1203
  A 8.15 4.10 92.8 0 0 166.6151 153.1803
  A 8.15 4.10 92.8 0 0 162.9181 144.8397
  A 8.15 4.10 92.8 0 0 158.4249 152.7797
  A 8.15 4.10 92.8 0 0 162.1219 161.1203
  Z
  M 196.5154 157.8310
  A 3.73 2.62 67.7 0 0 197.5240 153.3858
  A 3.73 2.62 67.7 0 0 193.6846 150.9290
  A 3.73 2.62 67.7 0 0 192.6760 155.3742
  A 3.73 2.62 67.7 0 0 196.5154 157.8310
  Z
  M 174.7890 159.8503
  A 2.52 2.00 65.9 0 0 175.5857 156.7333
  A 2.52 2.00 65.9 0 0 172.7310 155.2497
  A 2.52 2.00 65.9 0 0 171.9343 158.3667
  A 2.52 2.00 65.9 0 0 174.7890 159.8503
  Z
  M 183.5178 158.2654
  A 2.31 1.38 38.1 0 0 182.5515 155.7540
  A 2.31 1.38 38.1 0 0 179.8822 155.4146
  A 2.31 1.38 38.1 0 0 180.8485 157.9260
  A 2.31 1.38 38.1 0 0 183.5178 158.2654
  Z"
/>
<path fill="#d87461" d="
  M 337.87 150.48
  L 335.69 150.51
  Q 335.39 150.15 334.91 150.07
  C 313.05 146.44 290.10 148.96 268.43 152.69
  A 0.46 0.46 0.0 0 0 268.05 153.20
  Q 269.18 163.64 264.34 174.28
  C 263.36 176.44 261.93 178.19 260.75 180.27
  Q 259.48 182.51 257.70 184.82
  Q 250.70 193.90 241.29 200.39
  L 241.03 190.76
  Q 241.02 190.23 241.47 189.96
  Q 249.87 184.90 258.04 176.83
  Q 259.78 175.11 261.14 172.76
  C 264.45 167.03 266.40 162.60 266.02 155.39
  Q 265.67 148.71 264.03 142.73
  A 0.59 0.58 -5.1 0 1 264.65 141.99
  Q 282.23 143.76 301.08 142.68
  Q 314.54 141.92 332.76 139.01
  Q 333.27 138.93 333.46 139.40
  L 337.87 150.48
  Z"
/>
<path fill="#8f4331" d="
  M 249.17 141.92
  Q 259.77 145.83 264.40 152.96
  L 260.40 161.71
  Q 255.27 152.99 246.56 147.61
  Q 245.20 146.01 244.83 145.83
  Q 240.44 143.77 245.03 142.20
  Q 246.47 141.71 249.17 141.92
  Z"
/>
<ellipse fill="#fdfffe" cx="0.00" cy="0.00" transform="translate(162.52,152.98) rotate(92.8)" rx="8.15" ry="4.10"/>
<path fill="#ffc7a6" d="
  M 335.69 150.51
  Q 335.42 152.36 336.25 155.00
  Q 339.33 164.80 343.27 174.04
  A 1.12 1.12 0.0 0 0 344.05 174.70
  L 348.47 175.68
  Q 342.09 183.63 338.01 191.24
  Q 336.50 193.38 336.08 196.30
  A 2.74 2.74 0.0 0 0 336.40 198.05
  C 340.31 205.00 344.05 212.42 348.86 218.45
  Q 353.27 223.98 358.48 228.55
  A 0.77 0.77 0.0 0 1 358.19 229.87
  L 339.30 235.39
  A 0.66 0.65 -4.3 0 0 338.84 235.92
  Q 338.74 236.56 339.01 236.72
  C 338.06 237.83 336.68 237.24 335.79 238.28
  Q 335.33 238.81 334.68 239.15
  Q 332.31 240.37 330.91 240.31
  Q 328.55 240.21 330.58 241.41
  Q 332.46 242.52 334.49 244.42
  Q 322.47 247.37 310.21 248.36
  Q 302.74 248.97 299.93 249.89
  C 291.84 252.56 285.44 258.94 285.37 267.85
  Q 285.36 268.79 284.49 268.43
  L 279.94 266.56
  Q 279.04 266.18 278.97 265.21
  L 277.96 251.91
  A 1.11 1.11 0.0 0 0 277.13 250.92
  Q 265.51 247.88 254.19 242.37
  Q 248.91 239.80 245.01 238.49
  Q 243.80 238.08 243.72 236.72
  L 241.29 200.39
  Q 250.70 193.90 257.70 184.82
  Q 259.48 182.51 260.75 180.27
  C 261.93 178.19 263.36 176.44 264.34 174.28
  Q 269.18 163.64 268.05 153.20
  A 0.46 0.46 0.0 0 1 268.43 152.69
  C 290.10 148.96 313.05 146.44 334.91 150.07
  Q 335.39 150.15 335.69 150.51
  Z
  M 273.34 186.61
  Q 278.48 188.59 280.03 189.95
  Q 282.12 191.79 284.35 193.49
  L 275.39 201.78
  A 0.41 0.41 0.0 0 0 275.60 202.48
  C 277.36 202.78 278.68 203.37 280.18 204.61
  Q 283.73 207.54 287.80 209.36
  Q 297.75 214.67 309.00 213.74
  C 315.74 213.19 314.28 206.36 314.03 201.88
  Q 313.99 201.19 313.11 201.30
  L 313.49 198.77
  L 331.61 185.01
  L 341.16 175.19
  A 0.66 0.65 -64.2 0 0 340.78 174.08
  Q 317.82 171.01 293.34 167.83
  C 290.70 167.49 285.50 172.47 283.80 174.04
  C 278.36 179.04 272.53 183.65 267.42 188.81
  Q 266.39 189.85 267.71 189.23
  L 273.34 186.61
  Z"
/>
<path fill="#fdfffe" d="
  M 335.69 150.51
  L 337.87 150.48
  L 348.47 175.68
  L 344.05 174.70
  A 1.12 1.12 0.0 0 1 343.27 174.04
  Q 339.33 164.80 336.25 155.00
  Q 335.42 152.36 335.69 150.51
  Z"
/>
<ellipse fill="#d87461" cx="0.00" cy="0.00" transform="translate(195.10,154.38) rotate(67.7)" rx="3.73" ry="2.62"/>
<path fill="#591a12" d="
  M 149.11 153.72
  Q 151.28 164.23 161.19 168.80
  Q 166.95 171.45 173.24 172.34
  Q 186.73 174.24 199.61 169.99
  Q 213.30 165.46 223.91 157.31
  Q 224.62 156.76 225.56 156.63
  Q 226.65 156.48 225.91 157.29
  Q 222.50 161.06 219.74 164.74
  Q 217.08 168.30 214.73 170.47
  C 212.37 172.65 209.90 175.05 207.22 176.74
  C 203.53 179.07 199.35 181.74 195.29 183.35
  Q 194.35 183.72 195.36 183.70
  Q 197.76 183.65 200.19 183.03
  C 206.76 181.34 213.33 179.41 219.46 176.59
  C 225.87 173.64 231.72 169.09 236.69 164.16
  Q 240.14 160.73 237.93 165.06
  Q 235.03 170.75 232.27 175.48
  Q 227.62 183.46 221.06 189.17
  Q 220.90 189.31 221.03 189.48
  L 221.04 189.49
  Q 221.14 189.62 221.28 189.53
  Q 228.50 184.83 235.30 178.84
  C 239.15 175.45 241.89 171.41 245.12 167.57
  C 246.68 165.72 249.11 162.16 249.18 159.72
  Q 251.62 164.73 251.01 170.01
  Q 250.52 174.17 247.94 177.41
  C 238.88 188.78 226.34 195.18 212.29 197.62
  C 208.51 198.27 204.98 197.92 201.27 198.03
  C 192.29 198.29 182.54 202.31 177.58 210.11
  Q 169.06 223.50 173.31 238.55
  Q 174.32 242.17 176.52 246.70
  C 180.39 254.69 186.51 260.90 194.43 265.16
  A 1.12 1.12 0.0 0 1 194.75 266.88
  Q 188.82 273.71 183.09 282.24
  A 1.01 1.01 0.0 0 1 181.32 282.05
  C 178.87 275.88 177.27 269.65 174.31 263.62
  C 169.93 254.71 166.03 246.12 161.08 236.88
  Q 158.66 232.37 156.65 227.73
  Q 154.76 223.35 152.37 218.54
  Q 145.77 205.30 142.41 191.55
  Q 141.84 171.28 149.11 153.72
  Z"
/>
<path fill="#591a12" d="
  M 264.40 152.96
  Q 264.91 158.32 263.77 160.51
  Q 262.45 163.05 261.67 165.36
  Q 261.25 166.61 261.03 165.31
  L 260.40 161.71
  L 264.40 152.96
  Z"
/>
<ellipse fill="#ffc7a6" cx="0.00" cy="0.00" transform="translate(173.76,157.55) rotate(65.9)" rx="2.52" ry="2.00"/>
<ellipse fill="#fdfffe" cx="0.00" cy="0.00" transform="translate(181.70,156.84) rotate(38.1)" rx="2.31" ry="1.38"/>
<path fill="#140101" d="
  M 331.61 185.01
  L 321.52 183.71
  Q 321.04 183.65 320.86 184.10
  Q 318.98 188.83 314.01 191.02
  Q 313.60 191.20 313.59 191.66
  L 313.49 198.77
  L 313.11 201.30
  Q 312.90 203.76 312.08 206.13
  C 310.49 210.70 306.33 211.89 302.91 208.04
  Q 301.08 205.98 299.44 199.78
  L 298.38 195.02
  Q 298.27 194.53 297.80 194.71
  Q 293.18 196.50 288.58 198.37
  Q 283.11 200.59 283.29 203.34
  L 287.80 209.36
  Q 283.73 207.54 280.18 204.61
  C 278.68 203.37 277.36 202.78 275.60 202.48
  A 0.41 0.41 0.0 0 1 275.39 201.78
  L 284.35 193.49
  Q 286.28 192.37 288.19 191.01
  Q 300.75 182.08 315.76 184.18
  Q 316.99 184.35 318.33 183.94
  Q 320.48 183.27 318.23 183.10
  Q 310.09 182.50 300.50 181.50
  Q 286.49 180.04 273.34 186.61
  L 267.71 189.23
  Q 266.39 189.85 267.42 188.81
  C 272.53 183.65 278.36 179.04 283.80 174.04
  C 285.50 172.47 290.70 167.49 293.34 167.83
  Q 317.82 171.01 340.78 174.08
  A 0.66 0.65 -64.2 0 1 341.16 175.19
  L 331.61 185.01
  Z"
/>
<path fill="#d87461" d="
  M 284.35 193.49
  Q 282.12 191.79 280.03 189.95
  Q 278.48 188.59 273.34 186.61
  Q 286.49 180.04 300.50 181.50
  Q 310.09 182.50 318.23 183.10
  Q 320.48 183.27 318.33 183.94
  Q 316.99 184.35 315.76 184.18
  Q 300.75 182.08 288.19 191.01
  Q 286.28 192.37 284.35 193.49
  Z"
/>
<path fill="#d87461" d="
  M 331.61 185.01
  L 313.49 198.77
  L 313.59 191.66
  Q 313.60 191.20 314.01 191.02
  Q 318.98 188.83 320.86 184.10
  Q 321.04 183.65 321.52 183.71
  L 331.61 185.01
  Z"
/>
<path fill="#fdfffe" d="
  M 338.01 191.24
  C 341.92 199.84 346.61 209.93 353.62 217.06
  Q 358.42 221.94 367.57 229.52
  Q 367.69 229.61 367.73 229.76
  Q 367.82 230.08 367.52 230.15
  L 339.01 236.72
  Q 338.74 236.56 338.84 235.92
  A 0.66 0.65 -4.3 0 1 339.30 235.39
  L 358.19 229.87
  A 0.77 0.77 0.0 0 0 358.48 228.55
  Q 353.27 223.98 348.86 218.45
  C 344.05 212.42 340.31 205.00 336.40 198.05
  A 2.74 2.74 0.0 0 1 336.08 196.30
  Q 336.50 193.38 338.01 191.24
  Z"
/>
<path fill="#cbb9c1" d="
  M 299.44 199.78
  L 283.29 203.34
  Q 283.11 200.59 288.58 198.37
  Q 293.18 196.50 297.80 194.71
  Q 298.27 194.53 298.38 195.02
  L 299.44 199.78
  Z"
/>
<path fill="#fdfffe" d="
  M 299.44 199.78
  Q 301.08 205.98 302.91 208.04
  C 306.33 211.89 310.49 210.70 312.08 206.13
  Q 312.90 203.76 313.11 201.30
  Q 313.99 201.19 314.03 201.88
  C 314.28 206.36 315.74 213.19 309.00 213.74
  Q 297.75 214.67 287.80 209.36
  L 283.29 203.34
  L 299.44 199.78
  Z"
/>
<path fill="#fdfffe" d="
  M 223.94 229.42
  Q 217.68 215.71 205.39 210.80
  C 195.95 207.04 187.41 212.49 183.17 220.94
  A 0.66 0.65 30.9 0 1 182.20 221.18
  Q 181.88 220.96 181.90 220.61
  Q 185.13 210.72 194.05 206.81
  C 202.13 203.27 211.78 207.13 217.19 213.56
  Q 222.87 220.32 223.94 229.42
  Z"
/>
<path fill="#ffc7a6" d="
  M 223.94 229.42
  Q 225.03 230.59 225.22 234.50
  Q 225.68 244.52 225.95 254.39
  Q 220.11 256.86 218.25 257.46
  Q 211.27 259.69 202.02 257.44
  A 0.56 0.56 0.0 0 1 201.74 256.52
  L 202.05 256.17
  Q 202.75 255.38 203.80 255.45
  Q 204.98 255.52 206.00 255.14
  Q 206.90 254.81 206.00 254.49
  Q 198.57 251.91 192.75 247.19
  Q 190.58 245.43 187.14 241.12
  Q 184.67 238.03 181.78 234.89
  Q 179.77 228.02 181.90 220.61
  Q 181.88 220.96 182.20 221.18
  A 0.66 0.65 30.9 0 0 183.17 220.94
  C 187.41 212.49 195.95 207.04 205.39 210.80
  Q 217.68 215.71 223.94 229.42
  Z
  M 186.43 222.39
  Q 184.57 224.61 184.03 228.71
  A 0.38 0.38 0.0 0 0 184.72 228.98
  C 187.30 225.34 191.90 224.79 194.03 229.11
  A 4.64 4.60 -56.2 0 1 194.49 231.48
  C 194.28 234.42 193.97 237.23 195.32 240.03
  Q 200.86 251.46 214.71 249.26
  Q 218.68 248.17 221.51 245.62
  Q 221.94 245.23 221.51 244.86
  Q 219.07 242.69 217.08 239.94
  Q 216.71 239.43 216.72 238.80
  C 217.00 227.51 212.74 218.73 201.05 215.75
  C 196.07 214.48 188.46 216.79 186.43 222.39
  Z"
/>
<path fill="#140101" d="
  M 214.71 249.26
  Q 211.91 248.30 209.68 246.51
  C 206.45 243.91 205.42 239.81 202.20 236.95
  Q 200.40 235.34 198.10 236.80
  Q 197.16 237.40 197.82 236.51
  C 200.08 233.45 203.38 232.25 207.10 231.69
  Q 208.42 231.49 207.93 230.25
  Q 205.10 223.12 197.89 220.14
  Q 192.16 217.78 186.43 222.39
  C 188.46 216.79 196.07 214.48 201.05 215.75
  C 212.74 218.73 217.00 227.51 216.72 238.80
  Q 216.71 239.43 217.08 239.94
  Q 219.07 242.69 221.51 244.86
  Q 221.94 245.23 221.51 245.62
  Q 218.68 248.17 214.71 249.26
  Z"
/>
<path fill="#d87461" d="
  M 214.71 249.26
  Q 200.86 251.46 195.32 240.03
  C 193.97 237.23 194.28 234.42 194.49 231.48
  A 4.64 4.60 -56.2 0 0 194.03 229.11
  C 191.90 224.79 187.30 225.34 184.72 228.98
  A 0.38 0.38 0.0 0 1 184.03 228.71
  Q 184.57 224.61 186.43 222.39
  Q 192.16 217.78 197.89 220.14
  Q 205.10 223.12 207.93 230.25
  Q 208.42 231.49 207.10 231.69
  C 203.38 232.25 200.08 233.45 197.82 236.51
  Q 197.16 237.40 198.10 236.80
  Q 200.40 235.34 202.20 236.95
  C 205.42 239.81 206.45 243.91 209.68 246.51
  Q 211.91 248.30 214.71 249.26
  Z"
/>
<path fill="#d87461" d="
  M 367.52 230.15
  Q 364.87 235.69 361.82 238.29
  Q 356.97 242.42 349.47 245.58
  C 343.93 246.09 340.74 244.83 336.06 243.70
  Q 335.31 243.01 334.79 243.15
  Q 334.25 243.29 334.56 243.75
  Q 335.30 244.82 334.49 244.42
  Q 332.46 242.52 330.58 241.41
  Q 328.55 240.21 330.91 240.31
  Q 332.31 240.37 334.68 239.15
  Q 335.33 238.81 335.79 238.28
  C 336.68 237.24 338.06 237.83 339.01 236.72
  L 367.52 230.15
  Z
  M 352.22 242.07
  A 2.36 2.28 20.5 0 0 353.16 241.66
  L 358.24 237.98
  Q 360.06 236.67 357.83 236.86
  Q 350.09 237.54 341.92 239.18
  Q 340.05 239.55 338.09 239.64
  Q 337.19 239.68 337.37 240.58
  Q 337.45 241.02 337.88 241.17
  Q 344.59 243.55 352.22 242.07
  Z"
/>
<path fill="#8f4331" d="
  M 243.72 236.72
  Q 243.80 238.08 245.01 238.49
  Q 248.91 239.80 254.19 242.37
  Q 265.51 247.88 277.13 250.92
  A 1.11 1.11 0.0 0 1 277.96 251.91
  L 278.97 265.21
  Q 279.04 266.18 279.94 266.56
  L 284.49 268.43
  Q 285.36 268.79 285.37 267.85
  C 285.44 258.94 291.84 252.56 299.93 249.89
  Q 302.74 248.97 310.21 248.36
  Q 322.47 247.37 334.49 244.42
  Q 335.30 244.82 334.56 243.75
  Q 334.25 243.29 334.79 243.15
  Q 335.31 243.01 336.06 243.70
  Q 334.90 243.55 335.69 244.68
  A 0.77 0.71 86.2 0 0 335.91 244.89
  Q 340.21 247.57 344.01 250.77
  C 345.41 251.95 347.11 252.70 348.56 253.83
  A 0.57 0.56 53.6 0 1 348.42 254.80
  Q 343.82 256.57 339.06 257.40
  Q 327.69 259.41 317.41 259.10
  Q 313.83 258.99 317.32 258.19
  Q 318.99 257.81 320.66 257.61
  Q 320.76 257.60 320.78 257.50
  L 320.91 256.82
  Q 320.95 256.63 320.76 256.61
  Q 308.21 254.89 296.82 259.21
  Q 296.22 259.44 296.36 260.04
  Q 296.48 260.56 297.01 260.56
  Q 298.16 260.57 299.53 260.54
  Q 302.51 260.48 302.54 263.79
  Q 301.02 267.75 302.71 269.32
  Q 302.61 271.64 302.46 274.49
  Q 302.20 279.66 303.78 283.86
  C 306.47 291.00 313.77 294.45 321.06 292.78
  Q 329.04 290.95 329.90 281.16
  L 334.18 281.74
  Q 334.85 281.83 334.87 282.51
  Q 334.90 283.50 335.78 284.00
  Q 336.59 284.47 336.42 283.55
  L 336.16 282.09
  Q 336.07 281.55 336.57 281.32
  Q 337.89 280.73 339.29 280.29
  Q 341.10 279.71 342.59 280.99
  Q 342.80 281.18 342.95 280.93
  Q 343.49 280.00 344.69 279.73
  Q 345.14 279.62 345.50 279.92
  Q 345.93 280.28 346.76 280.17
  Q 347.30 283.09 347.47 286.01
  Q 347.64 288.81 350.72 296.25
  Q 351.91 299.10 353.01 303.45
  Q 350.14 310.03 346.13 310.45
  L 340.32 294.58
  Q 340.23 294.34 340.05 294.52
  L 339.85 294.73
  Q 339.77 294.81 339.78 294.83
  C 341.74 301.10 343.25 306.29 342.79 312.58
  C 337.60 315.63 328.63 316.71 323.82 312.22
  Q 320.71 309.31 318.51 305.60
  Q 317.97 304.67 318.04 305.74
  Q 318.24 308.51 318.75 311.30
  A 0.61 0.61 0.0 0 1 318.09 312.02
  C 306.56 310.99 301.15 304.02 298.88 293.61
  C 298.46 291.67 297.63 289.92 297.12 287.99
  Q 297.09 287.89 296.98 287.91
  L 296.71 287.96
  Q 296.40 288.03 296.40 288.35
  Q 296.43 289.28 295.97 289.99
  A 0.52 0.52 0.0 0 1 295.05 289.88
  Q 293.57 285.76 293.64 281.50
  Q 293.65 280.55 292.94 279.99
  A 0.39 0.39 0.0 0 0 292.31 280.22
  Q 290.88 288.12 291.16 296.03
  L 292.31 304.47
  Q 287.18 303.81 284.24 301.95
  C 280.85 299.82 277.94 294.81 276.88 291.55
  Q 273.46 281.09 272.20 273.55
  Q 271.34 268.40 271.29 261.48
  Q 271.27 259.01 270.85 256.57
  Q 270.75 256.01 270.22 255.81
  C 266.32 254.35 262.35 253.36 258.61 251.58
  Q 252.76 248.79 246.63 245.56
  Q 244.49 244.43 242.15 242.76
  Q 241.06 241.98 238.45 240.76
  Q 237.97 240.53 237.67 240.09
  Q 236.68 238.64 235.00 239.56
  L 234.95 232.81
  Q 234.95 232.02 235.65 232.40
  L 243.72 236.72
  Z"
/>
<path fill="#d87461" d="
  M 225.95 254.39
  L 226.13 257.56
  A 1.85 1.84 -16.0 0 1 225.18 259.27
  Q 213.32 265.78 201.78 259.37
  Q 198.08 257.32 190.98 251.04
  Q 184.27 245.11 181.78 234.89
  Q 184.67 238.03 187.14 241.12
  Q 190.58 245.43 192.75 247.19
  Q 198.57 251.91 206.00 254.49
  Q 206.90 254.81 206.00 255.14
  Q 204.98 255.52 203.80 255.45
  Q 202.75 255.38 202.05 256.17
  L 201.74 256.52
  A 0.56 0.56 0.0 0 0 202.02 257.44
  Q 211.27 259.69 218.25 257.46
  Q 220.11 256.86 225.95 254.39
  Z"
/>
<path fill="#8f4331" d="
  M 352.22 242.07
  Q 344.59 243.55 337.88 241.17
  Q 337.45 241.02 337.37 240.58
  Q 337.19 239.68 338.09 239.64
  Q 340.05 239.55 341.92 239.18
  Q 350.09 237.54 357.83 236.86
  Q 360.06 236.67 358.24 237.98
  L 353.16 241.66
  A 2.36 2.28 20.5 0 1 352.22 242.07
  Z"
/>
<path fill="#591a12" d="
  M 292.31 304.47
  L 293.53 309.74
  A 0.28 0.27 3.0 0 1 293.17 310.06
  Q 288.64 308.44 284.23 306.79
  Q 279.40 304.98 277.02 300.89
  Q 274.20 296.04 272.70 288.18
  C 271.93 284.11 270.65 280.38 270.86 276.10
  Q 270.94 274.55 270.09 275.85
  Q 269.77 276.34 269.80 277.50
  Q 269.92 281.33 268.82 285.06
  Q 268.48 280.54 268.85 278.49
  Q 270.67 268.56 269.82 258.59
  Q 269.71 257.30 268.51 256.86
  L 256.81 252.51
  Q 255.38 251.98 255.29 253.50
  Q 254.96 259.42 255.50 265.49
  Q 256.06 271.74 257.60 276.31
  Q 259.24 281.17 261.71 286.29
  Q 264.44 291.96 269.08 293.00
  L 270.27 300.08
  A 0.48 0.47 -84.7 0 1 269.64 300.61
  Q 264.58 298.81 259.06 295.75
  C 255.02 293.50 253.66 288.72 253.18 284.49
  Q 252.66 280.01 252.22 275.50
  A 0.58 0.58 0.0 0 0 251.22 275.15
  Q 251.07 275.31 250.44 275.47
  L 253.87 252.48
  A 1.42 1.42 0.0 0 0 253.14 251.03
  L 240.64 244.35
  A 0.60 0.60 0.0 0 0 239.76 244.87
  C 239.63 255.52 239.44 266.44 241.68 276.97
  Q 241.76 277.38 242.18 277.34
  L 242.49 277.31
  Q 242.61 277.30 242.61 277.18
  Q 242.64 271.76 243.16 266.16
  Q 243.29 264.80 243.82 263.44
  Q 244.40 261.96 244.13 260.05
  Q 244.12 259.97 244.20 259.96
  L 244.47 259.92
  Q 244.91 259.86 244.91 260.30
  Q 244.97 263.77 244.66 267.18
  Q 244.17 272.74 244.84 279.58
  Q 244.98 281.09 245.77 282.46
  Q 247.38 285.26 249.34 284.41
  L 249.74 290.42
  A 0.39 0.39 0.0 0 1 249.17 290.78
  Q 242.64 287.30 237.74 281.62
  C 237.08 280.85 236.77 279.74 236.73 278.75
  Q 235.97 259.13 235.00 239.56
  Q 236.68 238.64 237.67 240.09
  Q 237.97 240.53 238.45 240.76
  Q 241.06 241.98 242.15 242.76
  Q 244.49 244.43 246.63 245.56
  Q 252.76 248.79 258.61 251.58
  C 262.35 253.36 266.32 254.35 270.22 255.81
  Q 270.75 256.01 270.85 256.57
  Q 271.27 259.01 271.29 261.48
  Q 271.34 268.40 272.20 273.55
  Q 273.46 281.09 276.88 291.55
  C 277.94 294.81 280.85 299.82 284.24 301.95
  Q 287.18 303.81 292.31 304.47
  Z"
/>
<path fill="#591a12" d="
  M 336.06 243.70
  C 340.74 244.83 343.93 246.09 349.47 245.58
  L 355.27 255.06
  Q 355.76 255.86 355.12 256.55
  C 353.05 258.79 350.89 260.56 347.82 261.34
  C 338.19 263.79 327.97 264.23 318.12 262.42
  Q 313.09 261.49 308.28 260.35
  Q 306.40 259.91 305.01 260.19
  Q 302.88 260.61 302.54 263.79
  Q 302.51 260.48 299.53 260.54
  Q 298.16 260.57 297.01 260.56
  Q 296.48 260.56 296.36 260.04
  Q 296.22 259.44 296.82 259.21
  Q 308.21 254.89 320.76 256.61
  Q 320.95 256.63 320.91 256.82
  L 320.78 257.50
  Q 320.76 257.60 320.66 257.61
  Q 318.99 257.81 317.32 258.19
  Q 313.83 258.99 317.41 259.10
  Q 327.69 259.41 339.06 257.40
  Q 343.82 256.57 348.42 254.80
  A 0.57 0.56 53.6 0 0 348.56 253.83
  C 347.11 252.70 345.41 251.95 344.01 250.77
  Q 340.21 247.57 335.91 244.89
  A 0.77 0.71 86.2 0 1 335.69 244.68
  Q 334.90 243.55 336.06 243.70
  Z"
/>
<path fill="#8f4331" d="
  M 250.44 275.47
  L 249.34 284.41
  Q 247.38 285.26 245.77 282.46
  Q 244.98 281.09 244.84 279.58
  Q 244.17 272.74 244.66 267.18
  Q 244.97 263.77 244.91 260.30
  Q 244.91 259.86 244.47 259.92
  L 244.20 259.96
  Q 244.12 259.97 244.13 260.05
  Q 244.40 261.96 243.82 263.44
  Q 243.29 264.80 243.16 266.16
  Q 242.64 271.76 242.61 277.18
  Q 242.61 277.30 242.49 277.31
  L 242.18 277.34
  Q 241.76 277.38 241.68 276.97
  C 239.44 266.44 239.63 255.52 239.76 244.87
  A 0.60 0.60 0.0 0 1 240.64 244.35
  L 253.14 251.03
  A 1.42 1.42 0.0 0 1 253.87 252.48
  L 250.44 275.47
  Z"
/>
<path fill="#8f4331" d="
  M 268.82 285.06
  L 269.08 293.00
  Q 264.44 291.96 261.71 286.29
  Q 259.24 281.17 257.60 276.31
  Q 256.06 271.74 255.50 265.49
  Q 254.96 259.42 255.29 253.50
  Q 255.38 251.98 256.81 252.51
  L 268.51 256.86
  Q 269.71 257.30 269.82 258.59
  Q 270.67 268.56 268.85 278.49
  Q 268.48 280.54 268.82 285.06
  Z"
/>
<path fill="#ffc7a6" d="
  M 345.23 265.49
  Q 344.99 269.92 346.22 273.77
  L 330.02 277.74
  Q 329.50 277.86 329.57 278.40
  L 329.90 281.16
  Q 329.04 290.95 321.06 292.78
  C 313.77 294.45 306.47 291.00 303.78 283.86
  Q 302.20 279.66 302.46 274.49
  Q 302.61 271.64 302.71 269.32
  L 304.21 264.65
  A 0.95 0.95 0.0 0 1 305.38 264.03
  Q 313.57 266.40 322.25 267.17
  Q 330.81 267.93 345.23 265.49
  Z"
/>
<path fill="#fdfffe" d="
  M 354.58 309.12
  L 353.01 303.45
  Q 351.91 299.10 350.72 296.25
  Q 347.64 288.81 347.47 286.01
  Q 347.30 283.09 346.76 280.17
  L 346.22 273.77
  Q 344.99 269.92 345.23 265.49
  L 346.69 265.01
  A 0.66 0.66 0.0 0 1 347.56 265.62
  Q 347.87 276.04 348.50 283.90
  Q 348.80 287.71 352.19 294.53
  Q 355.44 301.08 354.58 309.12
  Z"
/>
<path fill="#d87461" d="
  M 246.13 363.45
  Q 242.30 357.72 239.46 352.12
  C 237.26 347.78 234.72 343.67 232.58 339.47
  Q 228.21 330.88 223.40 321.13
  Q 220.97 316.22 219.33 311.91
  C 216.17 303.61 212.31 295.55 209.10 287.27
  A 0.61 0.61 0.0 0 0 208.14 287.02
  C 203.94 290.52 199.75 294.78 197.08 299.41
  C 195.42 302.28 193.51 304.75 192.08 307.90
  Q 190.44 311.47 190.02 313.25
  Q 188.49 319.61 186.60 326.11
  Q 182.29 323.00 178.65 319.86
  C 177.89 319.21 177.46 318.45 177.53 317.43
  Q 178.16 308.77 183.52 298.64
  Q 192.36 281.95 209.03 273.92
  Q 218.18 269.51 225.88 266.44
  Q 226.48 266.20 226.52 266.84
  Q 227.01 276.03 227.58 286.30
  Q 227.68 288.08 228.75 289.79
  C 232.84 296.31 237.31 302.48 241.67 308.73
  C 248.37 318.37 256.09 325.86 263.57 334.35
  Q 265.68 336.75 273.97 342.94
  Q 274.43 343.29 274.16 343.79
  L 263.99 362.57
  Q 263.80 362.92 263.82 363.32
  L 265.25 384.72
  Q 265.29 385.31 264.79 384.99
  Q 263.08 383.87 262.21 382.52
  Q 254.83 371.18 246.13 363.45
  Z"
/>
<path fill="#591a12" d="
  M 346.22 273.77
  L 346.76 280.17
  Q 345.93 280.28 345.50 279.92
  Q 345.14 279.62 344.69 279.73
  Q 343.49 280.00 342.95 280.93
  Q 342.80 281.18 342.59 280.99
  Q 341.10 279.71 339.29 280.29
  Q 337.89 280.73 336.57 281.32
  Q 336.07 281.55 336.16 282.09
  L 336.42 283.55
  Q 336.59 284.47 335.78 284.00
  Q 334.90 283.50 334.87 282.51
  Q 334.85 281.83 334.18 281.74
  L 329.90 281.16
  L 329.57 278.40
  Q 329.50 277.86 330.02 277.74
  L 346.22 273.77
  Z"
/>
<path fill="#591a12" d="
  M 342.79 312.58
  Q 343.62 316.19 341.85 319.71
  Q 341.60 320.21 341.06 320.39
  C 336.37 321.93 329.76 321.32 325.31 320.18
  Q 314.31 317.35 304.07 313.58
  C 303.23 313.28 302.33 313.00 301.76 312.25
  Q 297.50 306.66 295.71 300.03
  Q 294.86 296.90 294.08 294.05
  Q 293.30 291.20 292.97 288.34
  Q 292.93 288.00 292.60 287.94
  Q 292.01 287.83 291.76 289.92
  Q 291.65 290.92 291.61 291.92
  Q 291.54 293.99 291.16 296.03
  Q 290.88 288.12 292.31 280.22
  A 0.39 0.39 0.0 0 1 292.94 279.99
  Q 293.65 280.55 293.64 281.50
  Q 293.57 285.76 295.05 289.88
  A 0.52 0.52 0.0 0 0 295.97 289.99
  Q 296.43 289.28 296.40 288.35
  Q 296.40 288.03 296.71 287.96
  L 296.98 287.91
  Q 297.09 287.89 297.12 287.99
  C 297.63 289.92 298.46 291.67 298.88 293.61
  C 301.15 304.02 306.56 310.99 318.09 312.02
  A 0.61 0.61 0.0 0 0 318.75 311.30
  Q 318.24 308.51 318.04 305.74
  Q 317.97 304.67 318.51 305.60
  Q 320.71 309.31 323.82 312.22
  C 328.63 316.71 337.60 315.63 342.79 312.58
  Z"
/>
<path fill="#ffc7a6" d="
  M 246.13 363.45
  Q 229.13 355.82 220.88 350.63
  Q 215.10 347.00 211.37 344.77
  Q 205.01 340.95 201.98 338.72
  Q 193.87 332.71 186.60 326.11
  Q 188.49 319.61 190.02 313.25
  Q 190.44 311.47 192.08 307.90
  C 193.51 304.75 195.42 302.28 197.08 299.41
  C 199.75 294.78 203.94 290.52 208.14 287.02
  A 0.61 0.61 0.0 0 1 209.10 287.27
  C 212.31 295.55 216.17 303.61 219.33 311.91
  Q 220.97 316.22 223.40 321.13
  Q 228.21 330.88 232.58 339.47
  C 234.72 343.67 237.26 347.78 239.46 352.12
  Q 242.30 357.72 246.13 363.45
  Z"
/>
<path fill="#591a12" d="
  M 353.01 303.45
  L 354.58 309.12
  Q 352.20 314.43 346.91 318.55
  Q 345.97 319.28 345.99 318.09
  L 346.13 310.45
  Q 350.14 310.03 353.01 303.45
  Z"
/>
<path fill="#fdfffe" d="
  M 273.40 412.22
  Q 256.12 411.22 239.84 405.61
  L 242.49 398.54
  Q 242.67 398.06 243.18 398.04
  Q 249.76 397.83 256.31 398.75
  Q 257.08 398.86 256.59 398.26
  L 239.90 377.79
  Q 239.67 376.95 238.92 376.22
  Q 238.55 375.87 238.04 375.85
  L 231.41 375.65
  Q 230.88 375.64 230.74 376.15
  L 226.24 393.21
  C 221.70 391.07 217.56 388.26 213.16 386.08
  Q 205.66 382.36 198.97 377.27
  Q 188.92 369.63 179.29 361.46
  Q 174.16 357.11 157.15 337.65
  L 165.39 321.13
  A 0.55 0.55 0.0 0 1 166.25 320.97
  Q 172.85 327.08 179.64 333.69
  Q 185.21 339.12 193.61 344.51
  C 196.30 346.24 198.50 348.45 201.21 350.21
  Q 209.72 355.75 219.54 361.36
  Q 223.39 363.55 227.70 365.30
  Q 232.81 367.37 238.71 370.48
  Q 240.97 371.66 242.44 373.41
  Q 250.18 382.55 257.89 391.82
  Q 258.96 393.11 259.92 394.49
  C 264.04 400.44 268.70 406.06 273.40 412.22
  Z"
/>
<path fill="#e0dce2" d="
  M 157.15 337.65
  Q 174.16 357.11 179.29 361.46
  Q 188.92 369.63 198.97 377.27
  Q 205.66 382.36 213.16 386.08
  C 217.56 388.26 221.70 391.07 226.24 393.21
  L 224.44 400.31
  Q 218.96 399.27 214.73 395.76
  C 212.94 394.27 209.24 393.54 206.70 392.07
  Q 205.43 391.33 204.12 390.77
  Q 202.23 389.96 200.40 388.55
  Q 198.60 387.15 196.61 385.94
  C 194.39 384.58 192.47 382.89 190.28 381.48
  Q 189.99 381.30 189.93 380.96
  L 189.88 380.71
  A 1.20 1.18 -83.9 0 0 189.16 379.80
  Q 186.70 378.78 185.12 376.75
  Q 184.39 375.80 183.25 375.38
  Q 182.21 375.00 181.31 374.38
  Q 177.01 371.39 173.22 367.31
  Q 172.88 366.94 172.43 366.72
  Q 171.73 366.36 171.28 365.73
  Q 169.62 363.39 167.47 361.46
  Q 164.48 358.77 163.39 357.44
  Q 160.52 353.95 157.81 350.60
  Q 157.16 349.80 155.99 347.72
  Q 155.08 346.12 153.82 344.98
  L 157.15 337.65
  Z"
/>
<path fill="#cbb9c1" d="
  M 153.82 344.98
  Q 155.08 346.12 155.99 347.72
  Q 157.16 349.80 157.81 350.60
  Q 160.52 353.95 163.39 357.44
  Q 164.48 358.77 167.47 361.46
  Q 169.62 363.39 171.28 365.73
  Q 171.73 366.36 172.43 366.72
  Q 172.88 366.94 173.22 367.31
  Q 177.01 371.39 181.31 374.38
  Q 182.21 375.00 183.25 375.38
  Q 184.39 375.80 185.12 376.75
  Q 186.70 378.78 189.16 379.80
  A 1.20 1.18 -83.9 0 1 189.88 380.71
  L 189.93 380.96
  Q 189.99 381.30 190.28 381.48
  C 192.47 382.89 194.39 384.58 196.61 385.94
  Q 198.60 387.15 200.40 388.55
  Q 202.23 389.96 204.12 390.77
  Q 205.43 391.33 206.70 392.07
  C 209.24 393.54 212.94 394.27 214.73 395.76
  Q 218.96 399.27 224.44 400.31
  L 223.04 405.89
  Q 222.68 407.30 221.39 406.64
  Q 212.35 402.06 204.16 397.45
  C 198.81 394.44 194.00 390.72 188.84 387.35
  C 178.66 380.69 169.84 372.20 160.96 363.84
  Q 156.42 359.58 150.69 351.92
  Q 150.39 351.52 150.63 351.08
  L 153.82 344.98
  Z"
/>
<path fill="#fdfffe" d="
  M 283.62 383.63
  Q 283.37 377.60 282.69 371.98
  C 282.26 368.40 277.30 366.02 274.18 364.55
  L 276.58 359.88
  A 0.62 0.62 0.0 0 1 277.54 359.70
  Q 282.73 364.17 288.27 367.63
  A 1.31 1.31 0.0 0 1 288.81 369.19
  L 283.62 383.63
  Z"
/>
<path fill="#cbb9c1" d="
  M 274.18 364.55
  C 277.30 366.02 282.26 368.40 282.69 371.98
  Q 283.37 377.60 283.62 383.63
  L 278.04 399.84
  Q 277.38 401.75 277.06 399.75
  Q 274.52 383.82 273.05 367.26
  Q 272.91 365.72 274.18 364.55
  Z"
/>
<path fill="#cbb9c1" d="
  M 239.90 377.79
  L 256.59 398.26
  Q 257.08 398.86 256.31 398.75
  Q 249.76 397.83 243.18 398.04
  Q 242.67 398.06 242.49 398.54
  L 239.84 405.61
  Q 239.09 409.70 237.03 412.48
  L 232.08 410.61
  Q 231.60 410.43 231.73 409.94
  L 239.90 377.79
  Z"
/>
<path fill="#cbb9c1" d="
  M 284.85 407.94
  C 285.93 404.68 286.80 401.33 288.13 398.23
  Q 288.39 397.62 288.63 398.24
  L 293.93 412.42
  A 0.76 0.76 0.0 0 1 293.47 413.41
  L 283.38 416.99
  A 0.41 0.40 -5.7 0 1 282.84 416.55
  Q 283.48 412.08 284.85 407.94
  Z"
/>
<path fill="#e0dce2" d="
  M 239.84 405.61
  Q 256.12 411.22 273.40 412.22
  L 277.13 417.69
  Q 277.43 418.13 276.90 418.15
  Q 256.49 418.77 237.03 412.48
  Q 239.09 409.70 239.84 405.61
  Z"
/>
</svg>
