<?xml version="1.0" encoding="UTF-8" standalone="no"?>
<svg xmlns="http://www.w3.org/2000/svg" version="1.2" baseProfile="tiny" viewBox="0.00 0.00 473.00 527.00">
<g stroke-width="2.00" fill="none" stroke-linecap="butt">
<path stroke="#633f3b" vector-effect="non-scaling-stroke" d="
  M 243.84 509.54
  Q 190.41 496.45 159.64 450.51"
/>
<path stroke="#0e0e21" vector-effect="non-scaling-stroke" d="
  M 159.64 450.51
  Q 158.42 448.70 156.83 446.90
  Q 155.06 444.90 154.04 443.31
  Q 145.45 429.92 136.83 417.02
  C 134.55 413.60 132.70 409.70 130.41 406.11
  Q 124.06 396.16 116.77 385.44
  Q 115.60 383.71 114.41 382.52
  A 0.76 0.76 0.0 0 0 113.11 383.05
  L 112.86 397.28"
/>
<path stroke="#633f3b" vector-effect="non-scaling-stroke" d="
  M 112.86 397.28
  L 113.07 483.36"
/>
<path stroke="#704d4d" vector-effect="non-scaling-stroke" d="
  M 159.64 450.51
  Q 157.68 449.14 156.02 447.33
  Q 154.29 445.44 152.70 443.94
  Q 149.42 440.86 146.30 437.15
  Q 136.51 425.53 127.15 414.46
  Q 123.86 410.57 120.05 405.83
  Q 116.67 401.62 112.86 397.28"
/>
<path stroke="#0e0e21" vector-effect="non-scaling-stroke" d="
  M 165.24 32.85
  Q 154.10 36.21 145.26 43.51
  Q 138.21 49.33 133.91 55.09
  Q 123.29 69.31 122.32 86.95
  Q 121.97 93.32 122.27 98.94
  A 1.29 1.29 0.0 0 0 123.31 100.13
  L 136.03 102.51
  Q 137.17 102.73 137.47 101.60
  Q 139.96 92.09 144.36 82.61
  Q 145.36 80.44 149.26 75.27"
/>
<path stroke="#121d2a" vector-effect="non-scaling-stroke" d="
  M 149.26 75.27
  Q 162.91 59.66 181.75 52.79
  Q 208.01 43.22 236.89 44.24
  Q 241.80 44.41 244.21 44.65
  Q 245.48 44.78 244.28 45.22
  Q 229.34 50.71 217.79 61.17
  Q 211.49 66.88 205.83 72.63
  Q 199.64 78.94 193.25 89.56
  Q 188.36 97.70 185.70 108.03
  Q 184.95 110.92 187.26 109.03
  Q 189.79 106.96 192.62 105.15
  Q 199.64 100.67 207.13 96.57
  Q 213.72 92.96 222.10 89.66
  C 240.50 82.41 259.40 77.48 278.45 73.51
  C 281.19 72.94 284.01 72.81 286.79 72.51
  Q 288.34 72.34 287.07 73.25
  Q 272.15 83.94 257.92 95.43
  Q 254.92 97.86 258.68 97.01
  C 265.42 95.49 272.24 93.50 279.07 92.03
  C 300.99 87.30 324.85 82.33 345.76 76.20
  Q 352.94 74.10 361.33 69.53"
/>
<path stroke="#5f6966" vector-effect="non-scaling-stroke" d="
  M 361.33 69.53
  Q 369.45 67.56 377.45 64.20
  Q 378.55 63.74 377.35 63.77
  Q 367.14 64.04 356.75 62.40
  C 350.00 61.34 342.25 58.93 335.02 57.12"
/>
<path stroke="#121d2a" vector-effect="non-scaling-stroke" d="
  M 335.02 57.12
  Q 326.36 53.83 323.75 53.01
  Q 312.15 49.35 302.48 46.06
  Q 290.21 41.90 276.92 38.03
  Q 254.34 31.46 228.35 28.09
  Q 207.67 25.41 189.01 27.13
  Q 176.79 28.25 165.24 32.85"
/>
<path stroke="#708681" vector-effect="non-scaling-stroke" d="
  M 335.02 57.12
  L 277.24 66.29
  A 0.03 0.03 0.0 0 1 277.22 66.24
  Q 277.34 66.12 277.38 66.35
  Q 277.40 66.49 277.54 66.48
  C 285.10 65.93 293.00 65.34 300.50 66.28
  Q 313.95 67.96 326.49 69.56
  Q 343.53 71.73 361.33 69.53"
/>
<path stroke="#1f2b3c" vector-effect="non-scaling-stroke" d="
  M 149.26 75.27
  Q 148.33 72.77 149.44 68.25
  C 152.00 57.84 154.99 48.08 160.74 39.64
  Q 162.94 36.41 165.24 32.85"
/>
<path stroke="#121d2a" vector-effect="non-scaling-stroke" d="
  M 363.15 84.28
  L 332.87 105.51"
/>
<path stroke="#0e0e21" vector-effect="non-scaling-stroke" d="
  M 332.87 105.51
  Q 326.04 110.49 318.19 115.09
  Q 312.40 118.48 307.55 120.26
  Q 302.08 122.26 296.22 124.26
  Q 293.01 125.35 296.40 125.53
  Q 301.51 125.81 306.75 125.25
  Q 319.98 123.84 330.68 121.09
  Q 341.81 118.23 356.34 111.77
  Q 361.21 109.60 364.54 107.55
  Q 375.09 101.07 386.08 92.51"
/>
<path stroke="#121d2a" vector-effect="non-scaling-stroke" d="
  M 386.08 92.51
  Q 393.10 87.52 399.28 81.28
  Q 403.45 77.08 407.37 72.18"
/>
<path stroke="#5f6966" vector-effect="non-scaling-stroke" d="
  M 407.37 72.18
  Q 409.16 71.04 410.18 69.31
  Q 410.48 68.79 409.88 68.85
  Q 398.57 69.98 387.20 68.12
  A 3.12 3.11 31.7 0 0 384.87 68.67
  L 363.15 84.28"
/>
<path stroke="#708681" vector-effect="non-scaling-stroke" d="
  M 407.37 72.18
  Q 398.15 77.58 388.25 80.01
  Q 375.93 83.03 363.15 84.28"
/>
<path stroke="#1f2b3c" vector-effect="non-scaling-stroke" d="
  M 386.08 92.51
  Q 382.99 93.42 380.02 94.32
  Q 377.35 95.12 374.06 96.43
  Q 363.58 100.63 353.99 102.72
  Q 345.13 104.64 332.87 105.51"
/>
<path stroke="#0e0e21" vector-effect="non-scaling-stroke" d="
  M 68.17 122.59
  Q 65.66 124.91 64.97 125.98
  Q 58.38 136.18 55.74 145.91
  Q 52.82 156.72 52.94 175.10
  C 52.96 176.81 52.87 178.59 53.61 180.15
  A 0.91 0.91 0.0 0 0 55.14 180.33
  Q 66.57 166.24 80.34 155.37"
/>
<path stroke="#121d2a" vector-effect="non-scaling-stroke" d="
  M 80.34 155.37
  Q 82.11 154.14 85.91 150.91
  Q 98.72 139.99 114.72 130.87"
/>
<path stroke="#0e0e21" vector-effect="non-scaling-stroke" d="
  M 114.72 130.87
  Q 115.86 130.71 116.24 131.08
  Q 116.58 131.41 116.24 131.74
  Q 109.50 138.17 104.14 149.09
  Q 95.97 165.74 92.86 176.70
  C 92.30 178.70 92.12 180.96 91.77 183.01
  A 0.52 0.52 0.0 0 0 92.54 183.55
  Q 93.17 183.18 93.56 182.56
  Q 96.05 178.54 98.44 175.73
  Q 105.25 167.70 112.38 160.70"
/>
<path stroke="#121d2a" vector-effect="non-scaling-stroke" d="
  M 112.38 160.70
  Q 134.15 139.51 161.09 126.64
  Q 162.25 126.09 161.68 127.24
  C 158.90 132.80 156.48 138.49 155.04 144.46
  Q 150.51 163.16 147.49 173.00
  Q 146.53 176.08 142.75 184.42"
/>
<path stroke="#0e0e21" vector-effect="non-scaling-stroke" d="
  M 142.75 184.42
  Q 137.37 197.92 130.05 209.83
  Q 129.40 210.88 129.12 211.45
  Q 127.89 213.97 130.33 212.59
  Q 141.98 205.98 153.00 196.36"
/>
<path stroke="#121d2a" vector-effect="non-scaling-stroke" d="
  M 153.00 196.36
  Q 165.17 185.53 174.45 172.18
  C 178.48 166.37 180.73 160.82 183.28 154.64
  Q 187.73 143.87 188.95 131.13
  A 1.04 1.03 -80.0 0 0 188.18 130.02
  Q 171.94 125.92 155.39 120.54
  Q 138.88 115.17 122.28 111.51
  Q 106.80 108.10 92.75 110.29
  Q 78.86 112.46 68.17 122.59"
/>
<path stroke="#1f2b3c" vector-effect="non-scaling-stroke" d="
  M 153.00 196.36
  Q 147.79 193.28 145.92 190.00
  Q 144.52 187.56 142.75 184.42"
/>
<path stroke="#1f2b3c" vector-effect="non-scaling-stroke" d="
  M 112.38 160.70
  Q 112.35 151.82 114.77 143.49
  Q 117.27 134.89 122.55 127.64
  Q 122.63 127.53 122.63 127.40
  L 122.63 126.99
  A 0.25 0.24 75.8 0 0 122.27 126.77
  L 114.72 130.87"
/>
<path stroke="#1f2b3c" vector-effect="non-scaling-stroke" d="
  M 80.34 155.37
  Q 75.32 147.31 72.16 140.07
  Q 68.72 132.21 68.17 122.59"
/>
<path stroke="#7d6557" vector-effect="non-scaling-stroke" d="
  M 215.22 216.12
  Q 223.58 201.54 239.82 195.92
  C 241.43 195.37 243.36 195.27 244.89 195.58
  Q 271.91 201.17 300.75 206.66
  C 303.63 207.20 310.72 208.07 310.24 212.39
  Q 309.40 219.96 308.93 227.44
  Q 308.85 228.81 308.28 230.05
  Q 308.07 230.51 308.40 230.89
  Q 313.71 236.82 316.71 243.20
  Q 316.96 243.75 317.47 243.43
  C 324.25 239.20 330.85 239.37 338.01 241.88
  A 0.71 0.71 0.0 0 0 338.87 241.55
  L 340.61 238.31"
/>
<path stroke="#5d3837" vector-effect="non-scaling-stroke" d="
  M 340.61 238.31
  Q 342.42 236.54 343.02 234.94"
/>
<path stroke="#7d6557" vector-effect="non-scaling-stroke" d="
  M 343.02 234.94
  L 346.40 231.11
  Q 346.75 230.72 346.23 230.64
  Q 344.81 230.44 343.62 231.45"
/>
<path stroke="#5d3837" vector-effect="non-scaling-stroke" d="
  M 343.62 231.45
  Q 342.80 231.52 342.40 231.25"
/>
<path stroke="#7d6557" vector-effect="non-scaling-stroke" d="
  M 342.40 231.25
  Q 343.47 223.44 345.17 215.72
  Q 345.80 212.87 348.49 212.47
  Q 363.25 210.23 377.14 207.99"
/>
<path stroke="#808087" vector-effect="non-scaling-stroke" d="
  M 377.14 207.99
  L 384.50 206.95
  A 0.53 0.53 0.0 0 0 384.96 206.36
  Q 384.24 199.81 382.93 193.23
  Q 378.41 170.48 372.70 147.92"
/>
<path stroke="#633f3b" vector-effect="non-scaling-stroke" d="
  M 372.70 147.92
  L 369.33 134.58
  Q 369.21 134.08 368.73 134.28
  Q 346.85 143.39 322.58 142.17
  Q 309.60 141.52 294.00 138.11
  Q 276.26 134.22 261.13 130.84
  Q 248.98 128.12 234.90 126.31
  Q 219.08 124.28 203.90 128.57
  C 198.88 129.99 191.70 133.26 189.07 137.58
  Q 188.83 137.98 188.94 138.44
  Q 193.86 157.93 191.34 179.21
  Q 187.64 210.47 165.96 230.37
  Q 165.50 230.79 166.13 230.76
  C 181.54 230.12 197.69 227.37 213.32 227.57
  Q 222.10 227.68 231.80 227.74
  Q 233.43 227.74 234.73 227.02
  Q 240.03 224.08 247.25 224.03
  Q 258.34 223.96 269.43 223.98
  Q 269.49 223.98 269.50 223.92
  Q 269.51 223.88 269.51 223.83
  Q 269.50 223.71 269.39 223.69
  Q 260.50 221.75 250.39 220.34
  Q 239.83 218.88 232.30 220.15
  Q 221.68 221.94 213.12 226.59
  A 0.60 0.60 0.0 0 1 212.26 225.89
  L 215.22 216.12"
/>
<path stroke="#e2beb3" vector-effect="non-scaling-stroke" d="
  M 372.70 147.92
  L 364.91 150.19"
/>
<path stroke="#dfa383" vector-effect="non-scaling-stroke" d="
  M 364.91 150.19
  C 360.07 151.21 355.29 152.37 350.33 152.85
  Q 331.13 154.71 312.71 151.41
  C 294.68 148.19 273.32 142.96 253.21 138.90
  C 244.95 137.24 209.00 128.40 207.58 142.48
  Q 207.36 144.67 208.32 148.44
  Q 216.79 181.85 215.22 216.12"
/>
<path stroke="#fce4cf" vector-effect="non-scaling-stroke" d="
  M 364.91 150.19
  Q 371.17 174.19 375.78 198.25
  Q 376.68 202.96 377.14 207.99"
/>
<path stroke="#d89c7e" vector-effect="non-scaling-stroke" d="
  M 342.40 231.25
  L 340.61 238.31"
/>
<path stroke="#d89c7e" vector-effect="non-scaling-stroke" d="
  M 343.02 234.94
  Q 342.76 233.62 343.62 231.45"
/>
<path stroke="#7d6557" vector-effect="non-scaling-stroke" d="
  M 65.34 248.87
  C 57.50 258.25 54.67 268.98 54.79 281.22"
/>
<path stroke="#633f3b" vector-effect="non-scaling-stroke" d="
  M 54.79 281.22
  Q 54.63 286.23 55.26 289.54
  Q 58.80 307.85 71.01 320.83
  Q 78.76 329.08 86.94 332.57
  C 99.28 337.83 114.51 337.78 126.44 330.72
  Q 127.34 330.19 127.13 331.21
  Q 126.93 332.23 126.90 333.09
  Q 126.67 341.41 126.75 350.87
  Q 126.83 361.46 128.62 368.70
  C 134.27 391.70 148.98 410.46 171.14 419.65
  Q 217.52 438.88 262.23 455.03
  Q 274.09 459.32 281.18 460.65
  C 298.78 463.95 316.31 461.61 331.18 450.78"
/>
<path stroke="#7d6557" vector-effect="non-scaling-stroke" d="
  M 331.18 450.78
  Q 340.21 444.36 346.81 434.82
  Q 353.58 425.04 357.57 414.41"
/>
<path stroke="#808087" vector-effect="non-scaling-stroke" d="
  M 357.57 414.41
  Q 365.96 397.16 372.98 379.80
  Q 378.16 367.00 379.47 359.50
  Q 380.78 351.98 381.35 343.72
  Q 382.08 333.27 382.72 321.96
  Q 382.77 321.03 381.85 321.05
  L 378.71 321.10"
/>
<path stroke="#7d6557" vector-effect="non-scaling-stroke" d="
  M 378.71 321.10
  L 371.30 321.06
  Q 370.05 321.06 370.51 322.22
  L 373.53 329.90
  Q 373.70 330.35 373.38 330.71
  L 358.36 347.63"
/>
<path stroke="#5d3837" vector-effect="non-scaling-stroke" d="
  M 358.36 347.63
  L 340.56 350.26
  Q 339.95 350.35 340.37 349.89
  L 361.37 326.71"
/>
<path stroke="#808087" vector-effect="non-scaling-stroke" d="
  M 361.37 326.71
  Q 361.88 325.35 361.38 323.69
  Q 353.41 296.90 342.66 265.72"
/>
<path stroke="#5d3837" vector-effect="non-scaling-stroke" d="
  M 342.66 265.72
  Q 341.17 262.26 340.24 261.49
  Q 330.94 253.92 320.59 260.31
  Q 318.27 261.75 318.25 263.49
  Q 318.21 267.61 318.26 270.90"
/>
<path stroke="#7d6557" vector-effect="non-scaling-stroke" d="
  M 318.26 270.90
  Q 318.13 273.94 318.02 276.65
  C 317.67 285.47 314.60 293.88 309.66 301.18
  Q 299.56 316.09 281.73 320.58"
/>
<path stroke="#633f3b" vector-effect="non-scaling-stroke" d="
  M 281.73 320.58
  Q 271.36 321.31 261.00 321.02
  Q 254.73 320.84 248.67 319.33
  Q 233.57 315.57 224.27 303.23
  Q 223.10 301.67 221.73 299.90"
/>
<path stroke="#7d6557" vector-effect="non-scaling-stroke" d="
  M 221.73 299.90
  Q 215.60 290.11 214.55 281.00
  Q 214.14 277.36 214.50 266.25"
/>
<path stroke="#633f3b" vector-effect="non-scaling-stroke" d="
  M 214.50 266.25
  L 214.48 255.79
  Q 214.48 254.90 213.76 254.38
  Q 210.31 251.88 207.13 249.50
  Q 206.32 248.90 205.32 248.97
  Q 181.61 250.59 159.73 253.41
  A 0.58 0.58 0.0 0 0 159.22 253.99
  L 159.25 321.61
  Q 159.25 322.46 158.39 322.45
  L 133.88 322.25
  A 1.37 1.37 0.0 0 1 132.52 320.88
  Q 132.49 297.57 132.44 274.51
  Q 132.41 262.79 124.66 251.88"
/>
<path stroke="#808087" vector-effect="non-scaling-stroke" d="
  M 124.66 251.88
  Q 114.14 236.81 96.50 235.75
  Q 77.94 234.64 65.34 248.87"
/>
<path stroke="#e2beb3" vector-effect="non-scaling-stroke" d="
  M 124.66 251.88
  Q 122.50 254.60 121.10 259.33"
/>
<path stroke="#fce4cf" vector-effect="non-scaling-stroke" d="
  M 121.10 259.33
  Q 117.26 252.21 111.47 247.92
  C 104.84 243.01 96.62 240.13 87.93 240.70
  Q 74.41 241.61 66.06 249.77
  A 0.38 0.38 0.0 0 1 65.42 249.54
  L 65.34 248.87"
/>
<path stroke="#dfa383" vector-effect="non-scaling-stroke" d="
  M 214.50 266.25
  L 172.38 270.09
  A 0.62 0.62 0.0 0 0 171.82 270.73
  Q 171.97 276.06 172.29 281.51
  Q 174.20 314.16 176.23 349.28
  Q 176.85 360.00 178.12 368.55
  Q 179.15 375.50 182.35 384.18
  Q 185.42 392.53 189.60 398.58
  Q 200.51 414.38 218.88 422.09
  C 227.59 425.74 236.44 429.41 245.45 432.65
  Q 256.46 436.62 270.47 442.00
  Q 287.39 448.50 294.78 449.93
  Q 310.39 452.96 320.00 451.70
  Q 327.60 450.70 331.18 450.78"
/>
<path stroke="#633f3b" vector-effect="non-scaling-stroke" d="
  M 68.00 279.93
  Q 72.59 276.24 79.77 273.08
  Q 93.55 267.02 102.04 277.79
  Q 105.01 281.55 103.56 286.77
  C 102.88 289.25 99.71 289.15 98.27 291.21
  Q 95.40 295.33 98.69 299.28
  C 103.61 305.19 110.35 302.30 114.22 297.05
  C 119.72 289.58 119.24 278.28 115.48 270.23"
/>
<path stroke="#dfa383" vector-effect="non-scaling-stroke" d="
  M 121.10 259.33
  L 115.48 270.23"
/>
<path stroke="#7d6557" vector-effect="non-scaling-stroke" d="
  M 115.48 270.23
  Q 106.75 256.42 92.13 256.12
  Q 81.79 255.91 75.25 261.70
  Q 68.03 268.08 68.00 279.93"
/>
<path stroke="#dfa383" vector-effect="non-scaling-stroke" d="
  M 68.00 279.93
  L 68.19 283.63
  Q 68.21 284.16 67.68 284.18
  Q 60.72 284.42 54.79 281.22"
/>
<path stroke="#fce4cf" vector-effect="non-scaling-stroke" d="
  M 335.47 263.61
  Q 334.99 263.59 334.70 263.76
  Q 334.24 264.02 334.40 264.52
  Q 339.51 280.27 344.68 296.00
  Q 344.73 296.15 348.72 309.05
  Q 351.40 317.73 354.93 326.25"
/>
<path stroke="#d89c7e" vector-effect="non-scaling-stroke" d="
  M 354.93 326.25
  Q 346.67 326.80 335.93 330.18
  Q 322.50 334.39 310.30 340.11
  A 1.49 1.48 61.7 0 0 309.67 342.23
  C 317.20 354.47 330.61 361.42 344.52 357.32
  Q 352.84 354.87 358.36 347.63"
/>
<path stroke="#fce4cf" vector-effect="non-scaling-stroke" d="
  M 378.71 321.10
  Q 376.69 320.86 376.68 322.24
  Q 376.62 329.72 376.26 334.44
  Q 375.53 343.91 373.58 354.37
  Q 372.03 362.71 368.91 373.90
  Q 363.30 394.02 357.57 414.41"
/>
<path stroke="#dfa383" vector-effect="non-scaling-stroke" d="
  M 221.73 299.90
  Q 221.70 305.35 225.58 310.70
  Q 234.71 323.28 249.51 325.76
  Q 267.30 328.74 281.73 320.58"
/>
<path stroke="#dcb7af" vector-effect="non-scaling-stroke" d="
  M 361.37 326.71
  L 354.93 326.25"
/>
<path stroke="#dcb7af" vector-effect="non-scaling-stroke" d="
  M 342.66 265.72
  L 335.47 263.61"
/>
<path stroke="#d89c7e" vector-effect="non-scaling-stroke" d="
  M 335.47 263.61
  Q 323.03 262.07 318.26 270.90"
/>
<path stroke="#7d6557" vector-effect="non-scaling-stroke" d="
  M 228.83 264.81
  Q 228.83 270.93 229.06 276.50
  Q 229.43 285.85 235.73 293.88"
/>
<path stroke="#808087" vector-effect="non-scaling-stroke" d="
  M 235.73 293.88
  Q 239.77 299.71 245.72 303.08
  Q 250.96 306.04 257.00 306.26
  Q 267.56 306.64 278.09 306.15
  Q 283.07 305.91 288.00 302.78"
/>
<path stroke="#7d6557" vector-effect="non-scaling-stroke" d="
  M 288.00 302.78
  Q 303.27 292.44 303.72 274.49
  Q 303.88 267.64 303.94 261.08"
/>
<path stroke="#5d3837" vector-effect="non-scaling-stroke" d="
  M 303.94 261.08
  Q 304.04 253.55 303.67 251.61
  Q 302.91 247.52 297.93 242.43
  C 295.96 240.41 292.84 239.80 290.09 239.75
  Q 283.23 239.64 276.47 239.82
  Q 274.76 239.86 276.34 240.52
  Q 290.87 246.57 292.20 262.32"
/>
<path stroke="#7d6557" vector-effect="non-scaling-stroke" d="
  M 292.20 262.32
  Q 292.73 268.62 291.41 273.44
  Q 290.69 276.05 288.91 278.62"
/>
<path stroke="#808087" vector-effect="non-scaling-stroke" d="
  M 288.91 278.62
  Q 283.86 284.39 281.18 285.74
  Q 269.44 291.67 259.49 286.09
  C 251.21 281.44 246.95 272.62 247.49 263.17"
/>
<path stroke="#5d3837" vector-effect="non-scaling-stroke" d="
  M 247.49 263.17
  Q 248.18 259.01 248.54 257.77
  Q 252.38 244.31 265.61 240.35
  Q 266.88 239.96 265.55 239.92
  Q 256.19 239.62 245.69 239.87
  C 237.78 240.05 229.12 245.00 228.86 253.75
  Q 228.69 259.57 228.83 264.81"
/>
<path stroke="#dcb7af" vector-effect="non-scaling-stroke" d="
  M 247.49 263.17
  L 235.31 264.26"
/>
<path stroke="#d89c7e" vector-effect="non-scaling-stroke" d="
  M 235.31 264.26
  L 228.83 264.81"
/>
<path stroke="#fce4cf" vector-effect="non-scaling-stroke" d="
  M 235.73 293.88
  L 235.31 264.26"
/>
<path stroke="#fce4cf" vector-effect="non-scaling-stroke" d="
  M 288.00 302.78
  Q 287.02 292.99 287.80 283.49
  Q 287.87 282.59 288.49 281.12
  Q 289.03 279.82 288.91 278.62"
/>
<path stroke="#d89c7e" vector-effect="non-scaling-stroke" d="
  M 303.94 261.08
  L 292.20 262.32"
/>
<path stroke="#808087" vector-effect="non-scaling-stroke" d="
  M 382.74 259.54
  C 384.24 269.31 381.83 278.56 373.55 284.62
  Q 366.41 289.84 359.36 289.05
  A 0.52 0.51 86.0 0 0 358.81 289.69
  Q 360.23 295.34 362.29 301.05
  C 363.51 304.47 368.67 306.34 372.00 306.29
  Q 377.55 306.21 382.85 306.23
  A 0.65 0.65 0.0 0 0 383.50 305.59
  Q 383.77 284.81 384.47 263.92
  Q 384.48 263.81 385.10 254.59
  Q 385.47 249.19 385.07 243.49"
/>
<path stroke="#5d3837" vector-effect="non-scaling-stroke" d="
  M 385.07 243.49
  Q 386.26 242.44 385.57 240.30
  Q 385.43 239.87 384.97 239.87
  L 368.28 239.86
  Q 366.85 239.85 368.12 240.50
  Q 370.43 241.66 372.77 243.07
  Q 378.61 246.59 381.04 253.81
  Q 381.96 256.54 382.74 259.54"
/>
<path stroke="#dcb7af" vector-effect="non-scaling-stroke" d="
  M 385.07 243.49
  Q 383.05 251.37 382.74 259.54"
/>
<path stroke="#3d7f87" vector-effect="non-scaling-stroke" d="
  M 397.16 263.67
  L 396.30 301.39
  A 0.38 0.38 0.0 0 0 396.84 301.74
  C 404.78 297.98 409.78 287.05 411.04 278.75
  Q 411.42 276.25 411.24 268.88"
/>
<path stroke="#1b5787" vector-effect="non-scaling-stroke" d="
  M 411.24 268.88
  Q 411.40 262.24 411.26 256.19
  Q 411.14 251.10 410.02 248.98
  C 408.09 245.31 403.27 242.84 398.96 243.02
  Q 398.25 243.05 398.21 243.77
  L 397.16 263.67"
/>
<path stroke="#56d6ff" vector-effect="non-scaling-stroke" d="
  M 411.24 268.88
  Q 404.02 265.32 397.16 263.67"
/>
<path stroke="#7d6557" vector-effect="non-scaling-stroke" d="
  M 292.35 371.26
  Q 289.43 369.87 286.54 368.43
  C 283.05 366.70 279.25 368.50 278.40 372.26
  Q 277.10 378.06 282.53 380.99
  C 300.22 390.51 319.75 393.30 338.64 385.97
  C 343.70 384.01 349.66 380.60 345.74 374.24
  C 343.90 371.24 340.59 370.78 337.59 372.35
  C 323.85 379.53 306.34 377.92 292.35 371.26"
/>
</g>
<path fill="#01000f" d="
  M 243.84 509.54
  Q 190.41 496.45 159.64 450.51
  Q 158.42 448.70 156.83 446.90
  Q 155.06 444.90 154.04 443.31
  Q 145.45 429.92 136.83 417.02
  C 134.55 413.60 132.70 409.70 130.41 406.11
  Q 124.06 396.16 116.77 385.44
  Q 115.60 383.71 114.41 382.52
  A 0.76 0.76 0.0 0 0 113.11 383.05
  L 112.86 397.28
  L 113.07 483.36
  Q 104.99 477.19 98.65 469.20
  A 0.79 0.77 26.9 0 1 98.49 468.73
  L 98.50 381.35
  Q 98.50 380.59 97.79 380.32
  Q 97.19 380.09 96.76 380.60
  Q 93.86 384.03 91.32 386.83
  A 0.58 0.58 0.0 0 1 90.33 386.60
  Q 87.69 377.49 84.20 368.68
  Q 77.64 352.08 68.53 340.50
  Q 62.23 332.50 55.94 324.40
  Q 36.40 299.23 41.88 268.01
  Q 42.13 266.59 41.52 265.28
  C 33.94 248.79 28.88 232.15 25.85 214.75
  Q 21.48 189.69 24.73 165.90
  Q 27.22 147.70 36.04 131.39
  C 46.30 112.41 63.18 98.44 83.47 91.29
  A 1.07 1.06 86.2 0 0 84.16 90.49
  Q 90.02 59.11 114.15 39.25
  Q 128.89 27.12 147.91 20.54
  Q 176.32 10.71 206.32 11.94
  Q 221.20 12.55 237.65 16.04
  C 248.97 18.44 259.85 21.20 271.31 24.70
  C 288.45 29.93 305.76 35.20 322.75 33.81
  C 335.42 32.78 345.82 27.45 355.66 19.50
  Q 356.45 18.87 356.45 19.88
  C 356.44 30.89 354.24 41.25 347.75 50.24
  Q 346.42 52.09 348.63 52.65
  Q 364.24 56.61 381.40 54.88
  C 399.13 53.10 414.77 44.03 425.00 29.24
  Q 425.77 28.13 426.25 29.40
  Q 430.06 39.64 430.99 50.98
  Q 432.88 74.17 423.45 95.75
  Q 416.44 111.79 403.60 122.78
  A 1.47 1.47 0.0 0 0 403.56 124.98
  Q 417.08 137.35 435.03 133.81
  C 436.67 133.48 438.21 132.87 439.81 132.43
  Q 441.32 132.02 440.68 133.44
  Q 430.72 155.80 406.24 161.03
  Q 398.89 162.60 391.83 161.85
  A 1.27 1.27 0.0 0 0 390.45 163.39
  Q 393.58 177.35 395.76 189.50
  C 397.02 196.47 397.99 203.82 398.18 211.04
  Q 398.40 219.15 398.27 227.16
  A 0.97 0.97 0.0 0 0 399.24 228.15
  L 432.80 228.25
  A 0.90 0.90 0.0 0 1 433.70 229.18
  Q 433.40 237.89 433.51 247.16
  Q 433.53 248.95 432.10 249.92
  Q 429.15 251.92 426.57 253.94
  Q 425.18 255.03 425.13 256.72
  C 424.82 265.79 425.75 275.82 423.99 284.23
  Q 419.09 307.54 396.74 317.54
  Q 395.12 318.26 395.13 320.01
  Q 395.15 329.66 394.85 339.95
  Q 394.12 364.04 385.29 385.62
  Q 376.96 405.98 368.37 424.93
  Q 364.35 433.79 358.07 443.10
  C 339.46 470.70 305.75 480.94 273.68 473.08
  Q 267.69 471.61 261.51 469.51
  Q 260.62 469.21 260.35 470.11
  Q 260.13 470.86 260.13 471.62
  Q 260.28 487.10 260.23 501.45
  A 2.23 2.22 76.3 0 1 259.05 503.40
  Q 251.80 507.16 243.84 509.54
  Z
  M 165.24 32.85
  Q 154.10 36.21 145.26 43.51
  Q 138.21 49.33 133.91 55.09
  Q 123.29 69.31 122.32 86.95
  Q 121.97 93.32 122.27 98.94
  A 1.29 1.29 0.0 0 0 123.31 100.13
  L 136.03 102.51
  Q 137.17 102.73 137.47 101.60
  Q 139.96 92.09 144.36 82.61
  Q 145.36 80.44 149.26 75.27
  Q 162.91 59.66 181.75 52.79
  Q 208.01 43.22 236.89 44.24
  Q 241.80 44.41 244.21 44.65
  Q 245.48 44.78 244.28 45.22
  Q 229.34 50.71 217.79 61.17
  Q 211.49 66.88 205.83 72.63
  Q 199.64 78.94 193.25 89.56
  Q 188.36 97.70 185.70 108.03
  Q 184.95 110.92 187.26 109.03
  Q 189.79 106.96 192.62 105.15
  Q 199.64 100.67 207.13 96.57
  Q 213.72 92.96 222.10 89.66
  C 240.50 82.41 259.40 77.48 278.45 73.51
  C 281.19 72.94 284.01 72.81 286.79 72.51
  Q 288.34 72.34 287.07 73.25
  Q 272.15 83.94 257.92 95.43
  Q 254.92 97.86 258.68 97.01
  C 265.42 95.49 272.24 93.50 279.07 92.03
  C 300.99 87.30 324.85 82.33 345.76 76.20
  Q 352.94 74.10 361.33 69.53
  Q 369.45 67.56 377.45 64.20
  Q 378.55 63.74 377.35 63.77
  Q 367.14 64.04 356.75 62.40
  C 350.00 61.34 342.25 58.93 335.02 57.12
  Q 326.36 53.83 323.75 53.01
  Q 312.15 49.35 302.48 46.06
  Q 290.21 41.90 276.92 38.03
  Q 254.34 31.46 228.35 28.09
  Q 207.67 25.41 189.01 27.13
  Q 176.79 28.25 165.24 32.85
  Z
  M 363.15 84.28
  L 332.87 105.51
  Q 326.04 110.49 318.19 115.09
  Q 312.40 118.48 307.55 120.26
  Q 302.08 122.26 296.22 124.26
  Q 293.01 125.35 296.40 125.53
  Q 301.51 125.81 306.75 125.25
  Q 319.98 123.84 330.68 121.09
  Q 341.81 118.23 356.34 111.77
  Q 361.21 109.60 364.54 107.55
  Q 375.09 101.07 386.08 92.51
  Q 393.10 87.52 399.28 81.28
  Q 403.45 77.08 407.37 72.18
  Q 409.16 71.04 410.18 69.31
  Q 410.48 68.79 409.88 68.85
  Q 398.57 69.98 387.20 68.12
  A 3.12 3.11 31.7 0 0 384.87 68.67
  L 363.15 84.28
  Z
  M 68.17 122.59
  Q 65.66 124.91 64.97 125.98
  Q 58.38 136.18 55.74 145.91
  Q 52.82 156.72 52.94 175.10
  C 52.96 176.81 52.87 178.59 53.61 180.15
  A 0.91 0.91 0.0 0 0 55.14 180.33
  Q 66.57 166.24 80.34 155.37
  Q 82.11 154.14 85.91 150.91
  Q 98.72 139.99 114.72 130.87
  Q 115.86 130.71 116.24 131.08
  Q 116.58 131.41 116.24 131.74
  Q 109.50 138.17 104.14 149.09
  Q 95.97 165.74 92.86 176.70
  C 92.30 178.70 92.12 180.96 91.77 183.01
  A 0.52 0.52 0.0 0 0 92.54 183.55
  Q 93.17 183.18 93.56 182.56
  Q 96.05 178.54 98.44 175.73
  Q 105.25 167.70 112.38 160.70
  Q 134.15 139.51 161.09 126.64
  Q 162.25 126.09 161.68 127.24
  C 158.90 132.80 156.48 138.49 155.04 144.46
  Q 150.51 163.16 147.49 173.00
  Q 146.53 176.08 142.75 184.42
  Q 137.37 197.92 130.05 209.83
  Q 129.40 210.88 129.12 211.45
  Q 127.89 213.97 130.33 212.59
  Q 141.98 205.98 153.00 196.36
  Q 165.17 185.53 174.45 172.18
  C 178.48 166.37 180.73 160.82 183.28 154.64
  Q 187.73 143.87 188.95 131.13
  A 1.04 1.03 -80.0 0 0 188.18 130.02
  Q 171.94 125.92 155.39 120.54
  Q 138.88 115.17 122.28 111.51
  Q 106.80 108.10 92.75 110.29
  Q 78.86 112.46 68.17 122.59
  Z
  M 215.22 216.12
  Q 223.58 201.54 239.82 195.92
  C 241.43 195.37 243.36 195.27 244.89 195.58
  Q 271.91 201.17 300.75 206.66
  C 303.63 207.20 310.72 208.07 310.24 212.39
  Q 309.40 219.96 308.93 227.44
  Q 308.85 228.81 308.28 230.05
  Q 308.07 230.51 308.40 230.89
  Q 313.71 236.82 316.71 243.20
  Q 316.96 243.75 317.47 243.43
  C 324.25 239.20 330.85 239.37 338.01 241.88
  A 0.71 0.71 0.0 0 0 338.87 241.55
  L 340.61 238.31
  Q 342.42 236.54 343.02 234.94
  L 346.40 231.11
  Q 346.75 230.72 346.23 230.64
  Q 344.81 230.44 343.62 231.45
  Q 342.80 231.52 342.40 231.25
  Q 343.47 223.44 345.17 215.72
  Q 345.80 212.87 348.49 212.47
  Q 363.25 210.23 377.14 207.99
  L 384.50 206.95
  A 0.53 0.53 0.0 0 0 384.96 206.36
  Q 384.24 199.81 382.93 193.23
  Q 378.41 170.48 372.70 147.92
  L 369.33 134.58
  Q 369.21 134.08 368.73 134.28
  Q 346.85 143.39 322.58 142.17
  Q 309.60 141.52 294.00 138.11
  Q 276.26 134.22 261.13 130.84
  Q 248.98 128.12 234.90 126.31
  Q 219.08 124.28 203.90 128.57
  C 198.88 129.99 191.70 133.26 189.07 137.58
  Q 188.83 137.98 188.94 138.44
  Q 193.86 157.93 191.34 179.21
  Q 187.64 210.47 165.96 230.37
  Q 165.50 230.79 166.13 230.76
  C 181.54 230.12 197.69 227.37 213.32 227.57
  Q 222.10 227.68 231.80 227.74
  Q 233.43 227.74 234.73 227.02
  Q 240.03 224.08 247.25 224.03
  Q 258.34 223.96 269.43 223.98
  Q 269.49 223.98 269.50 223.92
  Q 269.51 223.88 269.51 223.83
  Q 269.50 223.71 269.39 223.69
  Q 260.50 221.75 250.39 220.34
  Q 239.83 218.88 232.30 220.15
  Q 221.68 221.94 213.12 226.59
  A 0.60 0.60 0.0 0 1 212.26 225.89
  L 215.22 216.12
  Z
  M 65.34 248.87
  C 57.50 258.25 54.67 268.98 54.79 281.22
  Q 54.63 286.23 55.26 289.54
  Q 58.80 307.85 71.01 320.83
  Q 78.76 329.08 86.94 332.57
  C 99.28 337.83 114.51 337.78 126.44 330.72
  Q 127.34 330.19 127.13 331.21
  Q 126.93 332.23 126.90 333.09
  Q 126.67 341.41 126.75 350.87
  Q 126.83 361.46 128.62 368.70
  C 134.27 391.70 148.98 410.46 171.14 419.65
  Q 217.52 438.88 262.23 455.03
  Q 274.09 459.32 281.18 460.65
  C 298.78 463.95 316.31 461.61 331.18 450.78
  Q 340.21 444.36 346.81 434.82
  Q 353.58 425.04 357.57 414.41
  Q 365.96 397.16 372.98 379.80
  Q 378.16 367.00 379.47 359.50
  Q 380.78 351.98 381.35 343.72
  Q 382.08 333.27 382.72 321.96
  Q 382.77 321.03 381.85 321.05
  L 378.71 321.10
  L 371.30 321.06
  Q 370.05 321.06 370.51 322.22
  L 373.53 329.90
  Q 373.70 330.35 373.38 330.71
  L 358.36 347.63
  L 340.56 350.26
  Q 339.95 350.35 340.37 349.89
  L 361.37 326.71
  Q 361.88 325.35 361.38 323.69
  Q 353.41 296.90 342.66 265.72
  Q 341.17 262.26 340.24 261.49
  Q 330.94 253.92 320.59 260.31
  Q 318.27 261.75 318.25 263.49
  Q 318.21 267.61 318.26 270.90
  Q 318.13 273.94 318.02 276.65
  C 317.67 285.47 314.60 293.88 309.66 301.18
  Q 299.56 316.09 281.73 320.58
  Q 271.36 321.31 261.00 321.02
  Q 254.73 320.84 248.67 319.33
  Q 233.57 315.57 224.27 303.23
  Q 223.10 301.67 221.73 299.90
  Q 215.60 290.11 214.55 281.00
  Q 214.14 277.36 214.50 266.25
  L 214.48 255.79
  Q 214.48 254.90 213.76 254.38
  Q 210.31 251.88 207.13 249.50
  Q 206.32 248.90 205.32 248.97
  Q 181.61 250.59 159.73 253.41
  A 0.58 0.58 0.0 0 0 159.22 253.99
  L 159.25 321.61
  Q 159.25 322.46 158.39 322.45
  L 133.88 322.25
  A 1.37 1.37 0.0 0 1 132.52 320.88
  Q 132.49 297.57 132.44 274.51
  Q 132.41 262.79 124.66 251.88
  Q 114.14 236.81 96.50 235.75
  Q 77.94 234.64 65.34 248.87
  Z
  M 228.83 264.81
  Q 228.83 270.93 229.06 276.50
  Q 229.43 285.85 235.73 293.88
  Q 239.77 299.71 245.72 303.08
  Q 250.96 306.04 257.00 306.26
  Q 267.56 306.64 278.09 306.15
  Q 283.07 305.91 288.00 302.78
  Q 303.27 292.44 303.72 274.49
  Q 303.88 267.64 303.94 261.08
  Q 304.04 253.55 303.67 251.61
  Q 302.91 247.52 297.93 242.43
  C 295.96 240.41 292.84 239.80 290.09 239.75
  Q 283.23 239.64 276.47 239.82
  Q 274.76 239.86 276.34 240.52
  Q 290.87 246.57 292.20 262.32
  Q 292.73 268.62 291.41 273.44
  Q 290.69 276.05 288.91 278.62
  Q 283.86 284.39 281.18 285.74
  Q 269.44 291.67 259.49 286.09
  C 251.21 281.44 246.95 272.62 247.49 263.17
  Q 248.18 259.01 248.54 257.77
  Q 252.38 244.31 265.61 240.35
  Q 266.88 239.96 265.55 239.92
  Q 256.19 239.62 245.69 239.87
  C 237.78 240.05 229.12 245.00 228.86 253.75
  Q 228.69 259.57 228.83 264.81
  Z
  M 382.74 259.54
  C 384.24 269.31 381.83 278.56 373.55 284.62
  Q 366.41 289.84 359.36 289.05
  A 0.52 0.51 86.0 0 0 358.81 289.69
  Q 360.23 295.34 362.29 301.05
  C 363.51 304.47 368.67 306.34 372.00 306.29
  Q 377.55 306.21 382.85 306.23
  A 0.65 0.65 0.0 0 0 383.50 305.59
  Q 383.77 284.81 384.47 263.92
  Q 384.48 263.81 385.10 254.59
  Q 385.47 249.19 385.07 243.49
  Q 386.26 242.44 385.57 240.30
  Q 385.43 239.87 384.97 239.87
  L 368.28 239.86
  Q 366.85 239.85 368.12 240.50
  Q 370.43 241.66 372.77 243.07
  Q 378.61 246.59 381.04 253.81
  Q 381.96 256.54 382.74 259.54
  Z
  M 397.16 263.67
  L 396.30 301.39
  A 0.38 0.38 0.0 0 0 396.84 301.74
  C 404.78 297.98 409.78 287.05 411.04 278.75
  Q 411.42 276.25 411.24 268.88
  Q 411.40 262.24 411.26 256.19
  Q 411.14 251.10 410.02 248.98
  C 408.09 245.31 403.27 242.84 398.96 243.02
  Q 398.25 243.05 398.21 243.77
  L 397.16 263.67
  Z"
/>
<path fill="#233a45" d="
  M 335.02 57.12
  L 277.24 66.29
  A 0.03 0.03 0.0 0 1 277.22 66.24
  Q 277.34 66.12 277.38 66.35
  Q 277.40 66.49 277.54 66.48
  C 285.10 65.93 293.00 65.34 300.50 66.28
  Q 313.95 67.96 326.49 69.56
  Q 343.53 71.73 361.33 69.53
  Q 352.94 74.10 345.76 76.20
  C 324.85 82.33 300.99 87.30 279.07 92.03
  C 272.24 93.50 265.42 95.49 258.68 97.01
  Q 254.92 97.86 257.92 95.43
  Q 272.15 83.94 287.07 73.25
  Q 288.34 72.34 286.79 72.51
  C 284.01 72.81 281.19 72.94 278.45 73.51
  C 259.40 77.48 240.50 82.41 222.10 89.66
  Q 213.72 92.96 207.13 96.57
  Q 199.64 100.67 192.62 105.15
  Q 189.79 106.96 187.26 109.03
  Q 184.95 110.92 185.70 108.03
  Q 188.36 97.70 193.25 89.56
  Q 199.64 78.94 205.83 72.63
  Q 211.49 66.88 217.79 61.17
  Q 229.34 50.71 244.28 45.22
  Q 245.48 44.78 244.21 44.65
  Q 241.80 44.41 236.89 44.24
  Q 208.01 43.22 181.75 52.79
  Q 162.91 59.66 149.26 75.27
  Q 148.33 72.77 149.44 68.25
  C 152.00 57.84 154.99 48.08 160.74 39.64
  Q 162.94 36.41 165.24 32.85
  Q 176.79 28.25 189.01 27.13
  Q 207.67 25.41 228.35 28.09
  Q 254.34 31.46 276.92 38.03
  Q 290.21 41.90 302.48 46.06
  Q 312.15 49.35 323.75 53.01
  Q 326.36 53.83 335.02 57.12
  Z"
/>
<path fill="#1a1c33" d="
  M 165.24 32.85
  Q 162.94 36.41 160.74 39.64
  C 154.99 48.08 152.00 57.84 149.44 68.25
  Q 148.33 72.77 149.26 75.27
  Q 145.36 80.44 144.36 82.61
  Q 139.96 92.09 137.47 101.60
  Q 137.17 102.73 136.03 102.51
  L 123.31 100.13
  A 1.29 1.29 0.0 0 1 122.27 98.94
  Q 121.97 93.32 122.32 86.95
  Q 123.29 69.31 133.91 55.09
  Q 138.21 49.33 145.26 43.51
  Q 154.10 36.21 165.24 32.85
  Z"
/>
<path fill="#bdd1bd" d="
  M 335.02 57.12
  C 342.25 58.93 350.00 61.34 356.75 62.40
  Q 367.14 64.04 377.35 63.77
  Q 378.55 63.74 377.45 64.20
  Q 369.45 67.56 361.33 69.53
  Q 343.53 71.73 326.49 69.56
  Q 313.95 67.96 300.50 66.28
  C 293.00 65.34 285.10 65.93 277.54 66.48
  Q 277.40 66.49 277.38 66.35
  Q 277.34 66.12 277.22 66.24
  A 0.03 0.03 0.0 0 0 277.24 66.29
  L 335.02 57.12
  Z"
/>
<path fill="#bdd1bd" d="
  M 407.37 72.18
  Q 398.15 77.58 388.25 80.01
  Q 375.93 83.03 363.15 84.28
  L 384.87 68.67
  A 3.12 3.11 31.7 0 1 387.20 68.12
  Q 398.57 69.98 409.88 68.85
  Q 410.48 68.79 410.18 69.31
  Q 409.16 71.04 407.37 72.18
  Z"
/>
<path fill="#233a45" d="
  M 407.37 72.18
  Q 403.45 77.08 399.28 81.28
  Q 393.10 87.52 386.08 92.51
  Q 382.99 93.42 380.02 94.32
  Q 377.35 95.12 374.06 96.43
  Q 363.58 100.63 353.99 102.72
  Q 345.13 104.64 332.87 105.51
  L 363.15 84.28
  Q 375.93 83.03 388.25 80.01
  Q 398.15 77.58 407.37 72.18
  Z"
/>
<path fill="#1a1c33" d="
  M 386.08 92.51
  Q 375.09 101.07 364.54 107.55
  Q 361.21 109.60 356.34 111.77
  Q 341.81 118.23 330.68 121.09
  Q 319.98 123.84 306.75 125.25
  Q 301.51 125.81 296.40 125.53
  Q 293.01 125.35 296.22 124.26
  Q 302.08 122.26 307.55 120.26
  Q 312.40 118.48 318.19 115.09
  Q 326.04 110.49 332.87 105.51
  Q 345.13 104.64 353.99 102.72
  Q 363.58 100.63 374.06 96.43
  Q 377.35 95.12 380.02 94.32
  Q 382.99 93.42 386.08 92.51
  Z"
/>
<path fill="#233a45" d="
  M 153.00 196.36
  Q 147.79 193.28 145.92 190.00
  Q 144.52 187.56 142.75 184.42
  Q 146.53 176.08 147.49 173.00
  Q 150.51 163.16 155.04 144.46
  C 156.48 138.49 158.90 132.80 161.68 127.24
  Q 162.25 126.09 161.09 126.64
  Q 134.15 139.51 112.38 160.70
  Q 112.35 151.82 114.77 143.49
  Q 117.27 134.89 122.55 127.64
  Q 122.63 127.53 122.63 127.40
  L 122.63 126.99
  A 0.25 0.24 75.8 0 0 122.27 126.77
  L 114.72 130.87
  Q 98.72 139.99 85.91 150.91
  Q 82.11 154.14 80.34 155.37
  Q 75.32 147.31 72.16 140.07
  Q 68.72 132.21 68.17 122.59
  Q 78.86 112.46 92.75 110.29
  Q 106.80 108.10 122.28 111.51
  Q 138.88 115.17 155.39 120.54
  Q 171.94 125.92 188.18 130.02
  A 1.04 1.03 -80.0 0 1 188.95 131.13
  Q 187.73 143.87 183.28 154.64
  C 180.73 160.82 178.48 166.37 174.45 172.18
  Q 165.17 185.53 153.00 196.36
  Z"
/>
<path fill="#1a1c33" d="
  M 68.17 122.59
  Q 68.72 132.21 72.16 140.07
  Q 75.32 147.31 80.34 155.37
  Q 66.57 166.24 55.14 180.33
  A 0.91 0.91 0.0 0 1 53.61 180.15
  C 52.87 178.59 52.96 176.81 52.94 175.10
  Q 52.82 156.72 55.74 145.91
  Q 58.38 136.18 64.97 125.98
  Q 65.66 124.91 68.17 122.59
  Z"
/>
<path fill="#c57d67" d="
  M 372.70 147.92
  L 364.91 150.19
  C 360.07 151.21 355.29 152.37 350.33 152.85
  Q 331.13 154.71 312.71 151.41
  C 294.68 148.19 273.32 142.96 253.21 138.90
  C 244.95 137.24 209.00 128.40 207.58 142.48
  Q 207.36 144.67 208.32 148.44
  Q 216.79 181.85 215.22 216.12
  L 212.26 225.89
  A 0.60 0.60 0.0 0 0 213.12 226.59
  Q 221.68 221.94 232.30 220.15
  Q 239.83 218.88 250.39 220.34
  Q 260.50 221.75 269.39 223.69
  Q 269.50 223.71 269.51 223.83
  Q 269.51 223.88 269.50 223.92
  Q 269.49 223.98 269.43 223.98
  Q 258.34 223.96 247.25 224.03
  Q 240.03 224.08 234.73 227.02
  Q 233.43 227.74 231.80 227.74
  Q 222.10 227.68 213.32 227.57
  C 197.69 227.37 181.54 230.12 166.13 230.76
  Q 165.50 230.79 165.96 230.37
  Q 187.64 210.47 191.34 179.21
  Q 193.86 157.93 188.94 138.44
  Q 188.83 137.98 189.07 137.58
  C 191.70 133.26 198.88 129.99 203.90 128.57
  Q 219.08 124.28 234.90 126.31
  Q 248.98 128.12 261.13 130.84
  Q 276.26 134.22 294.00 138.11
  Q 309.60 141.52 322.58 142.17
  Q 346.85 143.39 368.73 134.28
  Q 369.21 134.08 369.33 134.58
  L 372.70 147.92
  Z"
/>
<path fill="#1a1c33" d="
  M 112.38 160.70
  Q 105.25 167.70 98.44 175.73
  Q 96.05 178.54 93.56 182.56
  Q 93.17 183.18 92.54 183.55
  A 0.52 0.52 0.0 0 1 91.77 183.01
  C 92.12 180.96 92.30 178.70 92.86 176.70
  Q 95.97 165.74 104.14 149.09
  Q 109.50 138.17 116.24 131.74
  Q 116.58 131.41 116.24 131.08
  Q 115.86 130.71 114.72 130.87
  L 122.27 126.77
  A 0.25 0.24 75.8 0 1 122.63 126.99
  L 122.63 127.40
  Q 122.63 127.53 122.55 127.64
  Q 117.27 134.89 114.77 143.49
  Q 112.35 151.82 112.38 160.70
  Z"
/>
<path fill="#f8c99e" d="
  M 364.91 150.19
  Q 371.17 174.19 375.78 198.25
  Q 376.68 202.96 377.14 207.99
  Q 363.25 210.23 348.49 212.47
  Q 345.80 212.87 345.17 215.72
  Q 343.47 223.44 342.40 231.25
  L 340.61 238.31
  L 338.87 241.55
  A 0.71 0.71 0.0 0 1 338.01 241.88
  C 330.85 239.37 324.25 239.20 317.47 243.43
  Q 316.96 243.75 316.71 243.20
  Q 313.71 236.82 308.40 230.89
  Q 308.07 230.51 308.28 230.05
  Q 308.85 228.81 308.93 227.44
  Q 309.40 219.96 310.24 212.39
  C 310.72 208.07 303.63 207.20 300.75 206.66
  Q 271.91 201.17 244.89 195.58
  C 243.36 195.27 241.43 195.37 239.82 195.92
  Q 223.58 201.54 215.22 216.12
  Q 216.79 181.85 208.32 148.44
  Q 207.36 144.67 207.58 142.48
  C 209.00 128.40 244.95 137.24 253.21 138.90
  C 273.32 142.96 294.68 148.19 312.71 151.41
  Q 331.13 154.71 350.33 152.85
  C 355.29 152.37 360.07 151.21 364.91 150.19
  Z"
/>
<path fill="#ffffff" d="
  M 372.70 147.92
  Q 378.41 170.48 382.93 193.23
  Q 384.24 199.81 384.96 206.36
  A 0.53 0.53 0.0 0 1 384.50 206.95
  L 377.14 207.99
  Q 376.68 202.96 375.78 198.25
  Q 371.17 174.19 364.91 150.19
  L 372.70 147.92
  Z"
/>
<path fill="#1a1c33" d="
  M 142.75 184.42
  Q 144.52 187.56 145.92 190.00
  Q 147.79 193.28 153.00 196.36
  Q 141.98 205.98 130.33 212.59
  Q 127.89 213.97 129.12 211.45
  Q 129.40 210.88 130.05 209.83
  Q 137.37 197.92 142.75 184.42
  Z"
/>
<path fill="#f8c99e" d="
  M 343.02 234.94
  Q 342.76 233.62 343.62 231.45
  Q 344.81 230.44 346.23 230.64
  Q 346.75 230.72 346.40 231.11
  L 343.02 234.94
  Z"
/>
<path fill="#b86f5e" d="
  M 342.40 231.25
  Q 342.80 231.52 343.62 231.45
  Q 342.76 233.62 343.02 234.94
  Q 342.42 236.54 340.61 238.31
  L 342.40 231.25
  Z"
/>
<path fill="#ffffff" d="
  M 124.66 251.88
  Q 122.50 254.60 121.10 259.33
  Q 117.26 252.21 111.47 247.92
  C 104.84 243.01 96.62 240.13 87.93 240.70
  Q 74.41 241.61 66.06 249.77
  A 0.38 0.38 0.0 0 1 65.42 249.54
  L 65.34 248.87
  Q 77.94 234.64 96.50 235.75
  Q 114.14 236.81 124.66 251.88
  Z"
/>
<path fill="#b86f5e" d="
  M 247.49 263.17
  L 235.31 264.26
  L 228.83 264.81
  Q 228.69 259.57 228.86 253.75
  C 229.12 245.00 237.78 240.05 245.69 239.87
  Q 256.19 239.62 265.55 239.92
  Q 266.88 239.96 265.61 240.35
  Q 252.38 244.31 248.54 257.77
  Q 248.18 259.01 247.49 263.17
  Z"
/>
<path fill="#b86f5e" d="
  M 303.94 261.08
  L 292.20 262.32
  Q 290.87 246.57 276.34 240.52
  Q 274.76 239.86 276.47 239.82
  Q 283.23 239.64 290.09 239.75
  C 292.84 239.80 295.96 240.41 297.93 242.43
  Q 302.91 247.52 303.67 251.61
  Q 304.04 253.55 303.94 261.08
  Z"
/>
<path fill="#b86f5e" d="
  M 385.07 243.49
  Q 383.05 251.37 382.74 259.54
  Q 381.96 256.54 381.04 253.81
  Q 378.61 246.59 372.77 243.07
  Q 370.43 241.66 368.12 240.50
  Q 366.85 239.85 368.28 239.86
  L 384.97 239.87
  Q 385.43 239.87 385.57 240.30
  Q 386.26 242.44 385.07 243.49
  Z"
/>
<path fill="#f8c99e" d="
  M 121.10 259.33
  L 115.48 270.23
  Q 106.75 256.42 92.13 256.12
  Q 81.79 255.91 75.25 261.70
  Q 68.03 268.08 68.00 279.93
  L 68.19 283.63
  Q 68.21 284.16 67.68 284.18
  Q 60.72 284.42 54.79 281.22
  C 54.67 268.98 57.50 258.25 65.34 248.87
  L 65.42 249.54
  A 0.38 0.38 0.0 0 0 66.06 249.77
  Q 74.41 241.61 87.93 240.70
  C 96.62 240.13 104.84 243.01 111.47 247.92
  Q 117.26 252.21 121.10 259.33
  Z"
/>
<path fill="#34adfe" d="
  M 411.24 268.88
  Q 404.02 265.32 397.16 263.67
  L 398.21 243.77
  Q 398.25 243.05 398.96 243.02
  C 403.27 242.84 408.09 245.31 410.02 248.98
  Q 411.14 251.10 411.26 256.19
  Q 411.40 262.24 411.24 268.88
  Z"
/>
<path fill="#ffffff" d="
  M 385.07 243.49
  Q 385.47 249.19 385.10 254.59
  Q 384.48 263.81 384.47 263.92
  Q 383.77 284.81 383.50 305.59
  A 0.65 0.65 0.0 0 1 382.85 306.23
  Q 377.55 306.21 372.00 306.29
  C 368.67 306.34 363.51 304.47 362.29 301.05
  Q 360.23 295.34 358.81 289.69
  A 0.52 0.51 86.0 0 1 359.36 289.05
  Q 366.41 289.84 373.55 284.62
  C 381.83 278.56 384.24 269.31 382.74 259.54
  Q 383.05 251.37 385.07 243.49
  Z"
/>
<path fill="#c57d67" d="
  M 214.50 266.25
  L 172.38 270.09
  A 0.62 0.62 0.0 0 0 171.82 270.73
  Q 171.97 276.06 172.29 281.51
  Q 174.20 314.16 176.23 349.28
  Q 176.85 360.00 178.12 368.55
  Q 179.15 375.50 182.35 384.18
  Q 185.42 392.53 189.60 398.58
  Q 200.51 414.38 218.88 422.09
  C 227.59 425.74 236.44 429.41 245.45 432.65
  Q 256.46 436.62 270.47 442.00
  Q 287.39 448.50 294.78 449.93
  Q 310.39 452.96 320.00 451.70
  Q 327.60 450.70 331.18 450.78
  C 316.31 461.61 298.78 463.95 281.18 460.65
  Q 274.09 459.32 262.23 455.03
  Q 217.52 438.88 171.14 419.65
  C 148.98 410.46 134.27 391.70 128.62 368.70
  Q 126.83 361.46 126.75 350.87
  Q 126.67 341.41 126.90 333.09
  Q 126.93 332.23 127.13 331.21
  Q 127.34 330.19 126.44 330.72
  C 114.51 337.78 99.28 337.83 86.94 332.57
  Q 78.76 329.08 71.01 320.83
  Q 58.80 307.85 55.26 289.54
  Q 54.63 286.23 54.79 281.22
  Q 60.72 284.42 67.68 284.18
  Q 68.21 284.16 68.19 283.63
  L 68.00 279.93
  Q 72.59 276.24 79.77 273.08
  Q 93.55 267.02 102.04 277.79
  Q 105.01 281.55 103.56 286.77
  C 102.88 289.25 99.71 289.15 98.27 291.21
  Q 95.40 295.33 98.69 299.28
  C 103.61 305.19 110.35 302.30 114.22 297.05
  C 119.72 289.58 119.24 278.28 115.48 270.23
  L 121.10 259.33
  Q 122.50 254.60 124.66 251.88
  Q 132.41 262.79 132.44 274.51
  Q 132.49 297.57 132.52 320.88
  A 1.37 1.37 0.0 0 0 133.88 322.25
  L 158.39 322.45
  Q 159.25 322.46 159.25 321.61
  L 159.22 253.99
  A 0.58 0.58 0.0 0 1 159.73 253.41
  Q 181.61 250.59 205.32 248.97
  Q 206.32 248.90 207.13 249.50
  Q 210.31 251.88 213.76 254.38
  Q 214.48 254.90 214.48 255.79
  L 214.50 266.25
  Z"
/>
<path fill="#01000f" d="
  M 115.48 270.23
  C 119.24 278.28 119.72 289.58 114.22 297.05
  C 110.35 302.30 103.61 305.19 98.69 299.28
  Q 95.40 295.33 98.27 291.21
  C 99.71 289.15 102.88 289.25 103.56 286.77
  Q 105.01 281.55 102.04 277.79
  Q 93.55 267.02 79.77 273.08
  Q 72.59 276.24 68.00 279.93
  Q 68.03 268.08 75.25 261.70
  Q 81.79 255.91 92.13 256.12
  Q 106.75 256.42 115.48 270.23
  Z"
/>
<path fill="#b86f5e" d="
  M 342.66 265.72
  L 335.47 263.61
  Q 323.03 262.07 318.26 270.90
  Q 318.21 267.61 318.25 263.49
  Q 318.27 261.75 320.59 260.31
  Q 330.94 253.92 340.24 261.49
  Q 341.17 262.26 342.66 265.72
  Z"
/>
<path fill="#f8c99e" d="
  M 303.94 261.08
  Q 303.88 267.64 303.72 274.49
  Q 303.27 292.44 288.00 302.78
  Q 287.02 292.99 287.80 283.49
  Q 287.87 282.59 288.49 281.12
  Q 289.03 279.82 288.91 278.62
  Q 290.69 276.05 291.41 273.44
  Q 292.73 268.62 292.20 262.32
  L 303.94 261.08
  Z"
/>
<path fill="#ffffff" d="
  M 247.49 263.17
  C 246.95 272.62 251.21 281.44 259.49 286.09
  Q 269.44 291.67 281.18 285.74
  Q 283.86 284.39 288.91 278.62
  Q 289.03 279.82 288.49 281.12
  Q 287.87 282.59 287.80 283.49
  Q 287.02 292.99 288.00 302.78
  Q 283.07 305.91 278.09 306.15
  Q 267.56 306.64 257.00 306.26
  Q 250.96 306.04 245.72 303.08
  Q 239.77 299.71 235.73 293.88
  L 235.31 264.26
  L 247.49 263.17
  Z"
/>
<path fill="#f8c99e" d="
  M 335.47 263.61
  Q 334.99 263.59 334.70 263.76
  Q 334.24 264.02 334.40 264.52
  Q 339.51 280.27 344.68 296.00
  Q 344.73 296.15 348.72 309.05
  Q 351.40 317.73 354.93 326.25
  Q 346.67 326.80 335.93 330.18
  Q 322.50 334.39 310.30 340.11
  A 1.49 1.48 61.7 0 0 309.67 342.23
  C 317.20 354.47 330.61 361.42 344.52 357.32
  Q 352.84 354.87 358.36 347.63
  L 373.38 330.71
  Q 373.70 330.35 373.53 329.90
  L 370.51 322.22
  Q 370.05 321.06 371.30 321.06
  L 378.71 321.10
  Q 376.69 320.86 376.68 322.24
  Q 376.62 329.72 376.26 334.44
  Q 375.53 343.91 373.58 354.37
  Q 372.03 362.71 368.91 373.90
  Q 363.30 394.02 357.57 414.41
  Q 353.58 425.04 346.81 434.82
  Q 340.21 444.36 331.18 450.78
  Q 327.60 450.70 320.00 451.70
  Q 310.39 452.96 294.78 449.93
  Q 287.39 448.50 270.47 442.00
  Q 256.46 436.62 245.45 432.65
  C 236.44 429.41 227.59 425.74 218.88 422.09
  Q 200.51 414.38 189.60 398.58
  Q 185.42 392.53 182.35 384.18
  Q 179.15 375.50 178.12 368.55
  Q 176.85 360.00 176.23 349.28
  Q 174.20 314.16 172.29 281.51
  Q 171.97 276.06 171.82 270.73
  A 0.62 0.62 0.0 0 1 172.38 270.09
  L 214.50 266.25
  Q 214.14 277.36 214.55 281.00
  Q 215.60 290.11 221.73 299.90
  Q 221.70 305.35 225.58 310.70
  Q 234.71 323.28 249.51 325.76
  Q 267.30 328.74 281.73 320.58
  Q 299.56 316.09 309.66 301.18
  C 314.60 293.88 317.67 285.47 318.02 276.65
  Q 318.13 273.94 318.26 270.90
  Q 323.03 262.07 335.47 263.61
  Z
  M 292.35 371.26
  Q 289.43 369.87 286.54 368.43
  C 283.05 366.70 279.25 368.50 278.40 372.26
  Q 277.10 378.06 282.53 380.99
  C 300.22 390.51 319.75 393.30 338.64 385.97
  C 343.70 384.01 349.66 380.60 345.74 374.24
  C 343.90 371.24 340.59 370.78 337.59 372.35
  C 323.85 379.53 306.34 377.92 292.35 371.26
  Z"
/>
<path fill="#ffffff" d="
  M 335.47 263.61
  L 342.66 265.72
  Q 353.41 296.90 361.38 323.69
  Q 361.88 325.35 361.37 326.71
  L 354.93 326.25
  Q 351.40 317.73 348.72 309.05
  Q 344.73 296.15 344.68 296.00
  Q 339.51 280.27 334.40 264.52
  Q 334.24 264.02 334.70 263.76
  Q 334.99 263.59 335.47 263.61
  Z"
/>
<path fill="#78feff" d="
  M 411.24 268.88
  Q 411.42 276.25 411.04 278.75
  C 409.78 287.05 404.78 297.98 396.84 301.74
  A 0.38 0.38 0.0 0 1 396.30 301.39
  L 397.16 263.67
  Q 404.02 265.32 411.24 268.88
  Z"
/>
<path fill="#f8c99e" d="
  M 235.31 264.26
  L 235.73 293.88
  Q 229.43 285.85 229.06 276.50
  Q 228.83 270.93 228.83 264.81
  L 235.31 264.26
  Z"
/>
<path fill="#c57d67" d="
  M 221.73 299.90
  Q 223.10 301.67 224.27 303.23
  Q 233.57 315.57 248.67 319.33
  Q 254.73 320.84 261.00 321.02
  Q 271.36 321.31 281.73 320.58
  Q 267.30 328.74 249.51 325.76
  Q 234.71 323.28 225.58 310.70
  Q 221.70 305.35 221.73 299.90
  Z"
/>
<path fill="#ffffff" d="
  M 378.71 321.10
  L 381.85 321.05
  Q 382.77 321.03 382.72 321.96
  Q 382.08 333.27 381.35 343.72
  Q 380.78 351.98 379.47 359.50
  Q 378.16 367.00 372.98 379.80
  Q 365.96 397.16 357.57 414.41
  Q 363.30 394.02 368.91 373.90
  Q 372.03 362.71 373.58 354.37
  Q 375.53 343.91 376.26 334.44
  Q 376.62 329.72 376.68 322.24
  Q 376.69 320.86 378.71 321.10
  Z"
/>
<path fill="#b86f5e" d="
  M 354.93 326.25
  L 361.37 326.71
  L 340.37 349.89
  Q 339.95 350.35 340.56 350.26
  L 358.36 347.63
  Q 352.84 354.87 344.52 357.32
  C 330.61 361.42 317.20 354.47 309.67 342.23
  A 1.49 1.48 61.7 0 1 310.30 340.11
  Q 322.50 334.39 335.93 330.18
  Q 346.67 326.80 354.93 326.25
  Z"
/>
<path fill="#01000f" d="
  M 292.35 371.26
  C 306.34 377.92 323.85 379.53 337.59 372.35
  C 340.59 370.78 343.90 371.24 345.74 374.24
  C 349.66 380.60 343.70 384.01 338.64 385.97
  C 319.75 393.30 300.22 390.51 282.53 380.99
  Q 277.10 378.06 278.40 372.26
  C 279.25 368.50 283.05 366.70 286.54 368.43
  Q 289.43 369.87 292.35 371.26
  Z"
/>
<path fill="#1a1c33" d="
  M 159.64 450.51
  Q 157.68 449.14 156.02 447.33
  Q 154.29 445.44 152.70 443.94
  Q 149.42 440.86 146.30 437.15
  Q 136.51 425.53 127.15 414.46
  Q 123.86 410.57 120.05 405.83
  Q 116.67 401.62 112.86 397.28
  L 113.11 383.05
  A 0.76 0.76 0.0 0 1 114.41 382.52
  Q 115.60 383.71 116.77 385.44
  Q 124.06 396.16 130.41 406.11
  C 132.70 409.70 134.55 413.60 136.83 417.02
  Q 145.45 429.92 154.04 443.31
  Q 155.06 444.90 156.83 446.90
  Q 158.42 448.70 159.64 450.51
  Z"
/>
<path fill="#c57d67" d="
  M 159.64 450.51
  Q 190.41 496.45 243.84 509.54
  Q 230.73 514.46 215.50 515.55
  C 200.68 516.61 186.42 516.27 172.17 513.15
  Q 139.02 505.90 113.07 483.36
  L 112.86 397.28
  Q 116.67 401.62 120.05 405.83
  Q 123.86 410.57 127.15 414.46
  Q 136.51 425.53 146.30 437.15
  Q 149.42 440.86 152.70 443.94
  Q 154.29 445.44 156.02 447.33
  Q 157.68 449.14 159.64 450.51
  Z"
/>
</svg>
