<?xml version="1.0" encoding="UTF-8" standalone="no"?>
<svg xmlns="http://www.w3.org/2000/svg" version="1.2" baseProfile="tiny" viewBox="0.00 0.00 576.00 642.00">
<g stroke-width="2.00" fill="none" stroke-linecap="butt">
<path stroke="#e2beb3" vector-effect="non-scaling-stroke" d="
  M 137.58 589.62
  Q 150.63 601.38 165.69 609.57
  Q 201.53 629.05 243.43 629.74
  Q 269.49 630.16 292.70 623.42
  C 294.73 622.83 296.61 621.96 298.56 621.14"
/>
<path stroke="#808088" vector-effect="non-scaling-stroke" d="
  M 298.56 621.14
  Q 308.00 617.84 316.93 613.24
  A 1.08 1.07 76.3 0 0 317.50 612.29
  L 317.49 572.75
  A 0.43 0.43 0.0 0 1 318.06 572.35
  C 337.97 579.40 359.30 582.45 380.15 577.98
  C 402.69 573.15 422.30 560.34 435.73 541.30
  Q 443.64 530.10 448.35 519.67
  Q 458.73 496.73 469.37 470.94
  Q 480.07 444.98 481.16 418.20
  Q 481.74 404.01 481.79 388.99
  A 1.15 1.15 0.0 0 1 482.44 387.97
  C 491.55 383.66 499.19 378.79 505.21 371.26
  Q 513.94 360.35 516.84 346.53
  Q 518.24 339.82 518.17 329.81
  Q 518.10 320.54 518.30 312.20
  A 3.01 2.97 73.3 0 1 519.55 309.84
  L 527.36 304.28
  A 2.37 2.36 -17.4 0 0 528.36 302.37
  L 528.57 278.25
  A 0.57 0.57 0.0 0 0 528.00 277.68
  L 485.81 277.57
  A 0.31 0.31 0.0 0 1 485.50 277.26
  C 485.48 266.73 485.92 256.39 484.69 245.96
  C 482.84 230.20 479.41 214.58 475.94 198.79
  A 0.75 0.75 0.0 0 1 476.66 197.88
  C 483.14 197.81 489.72 197.96 496.13 196.46
  C 515.20 191.99 529.89 179.99 537.52 161.46
  A 0.65 0.65 0.0 0 0 537.30 160.68
  Q 536.86 160.37 536.35 160.56
  C 520.71 166.57 502.78 163.22 491.39 151.24
  A 0.56 0.56 0.0 0 1 491.43 150.42
  Q 504.20 139.72 512.00 125.12
  Q 531.08 89.37 523.70 50.24
  C 522.68 44.81 520.61 39.44 518.98 34.20
  A 0.56 0.56 0.0 0 0 517.97 34.06
  Q 511.33 44.44 502.18 51.37
  C 479.60 68.45 450.98 70.03 423.81 63.35
  Q 422.88 63.13 423.46 62.37
  C 432.26 50.67 434.67 36.97 434.63 22.78
  A 0.46 0.46 0.0 0 0 433.87 22.44
  Q 423.70 31.26 412.71 35.83
  C 396.58 42.53 378.52 41.74 361.81 38.05
  Q 355.00 36.55 332.38 29.98
  C 317.83 25.75 302.58 21.63 288.98 18.90
  C 265.73 14.25 242.20 12.89 217.83 15.78
  C 192.03 18.85 165.46 27.80 144.59 43.01
  Q 109.83 68.35 102.16 110.08
  Q 102.07 110.61 101.60 110.90
  C 100.99 111.27 100.13 111.37 99.44 111.63
  C 75.20 120.79 55.42 137.48 43.27 160.28
  C 29.00 187.06 25.70 218.20 29.09 248.16
  Q 33.54 287.42 50.50 324.38
  Q 50.81 325.04 50.67 325.75
  C 47.49 342.08 48.86 359.88 55.70 375.22
  C 61.86 389.05 70.51 399.38 79.79 410.80
  C 94.18 428.52 103.59 450.31 109.82 472.46
  A 0.64 0.64 0.0 0 0 110.92 472.70
  L 118.49 463.76
  Q 119.07 463.08 119.08 463.97
  Q 119.76 517.41 119.29 571.17
  Q 119.29 571.67 119.61 572.05
  Q 127.63 581.40 137.58 589.62"
/>
<path stroke="#633f3c" vector-effect="non-scaling-stroke" d="
  M 298.56 621.14
  Q 291.39 619.14 284.56 617.03
  Q 267.34 611.72 253.34 604.01
  C 233.51 593.08 216.34 577.68 202.46 559.80
  Q 197.45 553.35 192.68 547.31"
/>
<path stroke="#0e0e22" vector-effect="non-scaling-stroke" d="
  M 192.68 547.31
  Q 188.80 540.87 184.33 535.25
  C 182.25 532.64 180.73 528.93 178.69 526.03
  Q 169.53 512.98 164.19 503.84
  Q 158.60 494.30 152.70 485.28
  Q 149.82 480.89 147.18 476.59
  Q 144.26 471.84 141.46 468.49
  C 140.63 467.50 140.49 466.30 139.32 465.63
  A 0.75 0.74 -67.5 0 0 138.22 466.09
  Q 137.42 469.16 137.34 472.36
  Q 137.27 475.47 137.13 478.63
  Q 136.97 482.17 137.57 485.72"
/>
<path stroke="#633f3c" vector-effect="non-scaling-stroke" d="
  M 137.57 485.72
  L 137.58 589.62"
/>
<path stroke="#704c4d" vector-effect="non-scaling-stroke" d="
  M 192.68 547.31
  Q 186.80 542.66 183.66 538.84
  Q 175.77 529.26 167.69 520.06
  Q 152.65 502.92 138.58 484.80
  A 0.48 0.48 0.0 0 0 137.73 484.99
  L 137.57 485.72"
/>
<path stroke="#0e0e22" vector-effect="non-scaling-stroke" d="
  M 202.93 39.32
  Q 195.19 41.32 186.45 46.46
  Q 176.59 52.26 169.91 59.40
  Q 163.73 66.01 161.18 69.71
  Q 157.01 75.72 153.36 84.59
  Q 151.25 89.71 150.04 96.88
  Q 148.99 103.09 148.86 108.43
  Q 148.70 114.86 148.57 120.48
  A 1.59 1.59 0.0 0 0 149.97 122.10
  Q 158.21 123.07 165.61 124.90
  Q 166.96 125.24 167.34 123.90
  Q 169.70 115.42 172.69 107.75
  C 173.29 106.23 174.16 104.93 174.60 103.34
  Q 175.06 101.65 176.06 100.10
  Q 179.06 95.43 182.30 90.97"
/>
<path stroke="#121e2b" vector-effect="non-scaling-stroke" d="
  M 182.30 90.97
  C 185.68 87.93 188.58 84.18 191.56 81.67
  C 207.57 68.19 225.57 61.75 246.84 57.10
  Q 256.01 55.10 267.01 54.38
  C 277.61 53.69 287.66 53.37 297.57 54.41
  Q 298.87 54.55 297.66 55.03
  C 291.56 57.45 285.72 59.76 280.16 63.33
  Q 269.45 70.20 260.24 79.02"
/>
<path stroke="#0e0e22" vector-effect="non-scaling-stroke" d="
  M 260.24 79.02
  Q 257.62 81.25 255.27 83.76
  Q 253.84 85.31 252.19 86.68
  C 248.44 89.80 245.36 94.33 242.28 98.42
  C 240.37 100.96 239.13 103.82 237.06 106.26
  Q 235.18 108.49 234.02 111.94
  Q 233.88 112.36 233.47 112.52
  Q 232.95 112.72 232.70 113.22
  Q 229.68 119.10 228.29 125.07
  Q 227.83 127.05 227.06 128.97
  Q 226.29 130.89 226.28 133.07
  A 0.62 0.61 -18.6 0 0 227.27 133.56
  Q 229.96 131.49 232.79 129.19
  Q 234.78 127.58 237.13 126.34
  Q 239.46 125.11 241.84 123.88"
/>
<path stroke="#121e2b" vector-effect="non-scaling-stroke" d="
  M 241.84 123.88
  Q 253.37 116.59 261.62 112.90
  Q 280.70 104.35 305.87 97.56
  Q 319.59 93.86 333.41 90.67
  Q 341.46 88.81 349.88 88.27
  Q 352.40 88.11 350.11 89.18
  Q 347.86 90.22 345.75 91.83
  Q 338.41 97.40 330.36 103.40
  Q 321.70 109.86 312.82 117.39
  Q 311.26 118.72 313.27 118.32
  Q 320.38 116.91 327.05 115.20
  Q 333.59 113.52 340.76 111.89
  Q 352.06 109.31 363.49 106.97
  Q 396.51 100.23 423.08 92.03
  Q 428.59 90.33 435.52 86.89
  Q 436.89 86.21 438.21 85.64
  Q 439.00 85.30 438.15 85.18
  Q 437.08 85.03 436.09 85.29"
/>
<path stroke="#5f6966" vector-effect="non-scaling-stroke" d="
  M 436.09 85.29
  Q 444.85 83.93 454.51 80.33
  Q 457.17 79.34 458.92 78.29
  Q 459.72 77.80 458.78 77.79
  C 450.36 77.69 442.22 77.32 433.54 75.83
  C 425.13 74.40 416.57 71.71 408.02 69.57"
/>
<path stroke="#121e2b" vector-effect="non-scaling-stroke" d="
  M 408.02 69.57
  Q 403.10 67.82 398.16 65.95
  Q 392.72 63.88 388.19 62.60
  C 383.60 61.31 379.21 60.10 374.65 58.31
  Q 370.05 56.50 365.13 54.95
  Q 353.38 51.24 341.56 47.59
  C 320.61 41.14 297.53 36.56 274.86 33.83
  Q 251.17 30.97 229.25 33.16
  Q 216.59 34.42 202.93 39.32"
/>
<path stroke="#708581" vector-effect="non-scaling-stroke" d="
  M 408.02 69.57
  Q 378.39 74.05 348.75 78.58
  Q 343.04 79.45 337.40 80.68
  Q 337.36 80.69 337.37 80.73
  L 337.42 81.03
  A 0.21 0.21 0.0 0 0 337.65 81.21
  Q 356.36 79.09 375.00 81.85
  C 394.53 84.75 415.67 87.28 436.09 85.29"
/>
<path stroke="#1f2b3c" vector-effect="non-scaling-stroke" d="
  M 241.84 123.88
  L 240.18 123.56
  Q 239.60 123.45 239.80 122.90
  Q 240.67 120.49 240.92 118.03
  Q 241.17 115.57 242.43 113.40
  Q 243.57 111.43 244.19 109.07
  Q 244.72 107.06 245.78 105.16
  C 247.69 101.73 248.81 97.93 250.74 94.43
  Q 253.59 89.24 256.26 83.68
  Q 256.45 83.28 256.83 83.07
  L 257.25 82.84
  Q 257.69 82.60 257.76 82.10
  Q 257.83 81.57 258.34 81.39
  Q 258.81 81.23 259.07 80.82
  L 260.24 79.02"
/>
<path stroke="#1f2b3c" vector-effect="non-scaling-stroke" d="
  M 182.30 90.97
  Q 180.57 88.25 181.94 82.63
  Q 185.53 67.95 191.29 55.75
  Q 194.96 47.98 202.93 39.32"
/>
<path stroke="#121e2b" vector-effect="non-scaling-stroke" d="
  M 442.87 102.28
  L 407.21 127.10"
/>
<path stroke="#0e0e22" vector-effect="non-scaling-stroke" d="
  M 407.21 127.10
  Q 404.94 128.68 402.88 130.49
  Q 400.68 132.42 398.69 133.45
  Q 394.15 135.79 389.13 139.17
  Q 380.06 145.28 368.81 148.43
  C 365.16 149.45 361.87 151.37 358.08 151.92
  Q 357.70 151.98 357.50 152.30
  Q 357.19 152.78 357.76 152.81
  Q 366.32 153.23 372.48 152.64
  Q 382.07 151.73 391.66 150.01
  Q 400.04 148.51 408.22 145.99
  Q 419.34 142.55 424.48 140.29
  Q 430.69 137.55 436.44 135.16
  C 441.54 133.03 445.64 129.76 450.25 126.85
  Q 460.46 120.41 469.58 112.58"
/>
<path stroke="#121e2b" vector-effect="non-scaling-stroke" d="
  M 469.58 112.58
  Q 477.38 108.59 483.25 102.50
  Q 489.15 96.37 495.22 88.49"
/>
<path stroke="#5f6966" vector-effect="non-scaling-stroke" d="
  M 495.22 88.49
  Q 497.83 86.71 499.72 84.22
  Q 500.09 83.74 499.48 83.82
  C 489.85 85.06 480.73 84.21 471.14 83.05
  A 3.60 3.58 30.4 0 0 468.57 83.71
  L 442.87 102.28"
/>
<path stroke="#708581" vector-effect="non-scaling-stroke" d="
  M 495.22 88.49
  Q 483.59 95.00 468.06 98.56
  Q 453.92 101.81 442.87 102.28"
/>
<path stroke="#1f2b3c" vector-effect="non-scaling-stroke" d="
  M 469.58 112.58
  Q 456.10 117.23 442.39 121.99
  C 439.18 123.11 435.86 123.85 432.60 124.78
  Q 429.15 125.77 425.26 126.34
  Q 416.78 127.58 407.73 128.74
  A 0.84 0.84 0.0 0 1 406.99 127.34
  L 407.21 127.10"
/>
<path stroke="#0e0e22" vector-effect="non-scaling-stroke" d="
  M 84.01 148.53
  Q 83.54 148.89 82.82 149.35
  Q 82.15 149.77 81.67 150.39
  C 75.47 158.46 70.43 167.72 67.98 177.63
  C 65.10 189.29 64.31 201.58 64.55 213.67
  Q 64.61 216.56 65.52 219.05
  A 0.90 0.90 0.0 0 0 67.03 219.35
  Q 74.36 211.36 81.36 203.36
  Q 84.81 199.42 98.20 189.14"
/>
<path stroke="#121e2b" vector-effect="non-scaling-stroke" d="
  M 98.20 189.14
  Q 99.51 188.23 100.02 187.77
  Q 112.04 177.09 125.52 168.33
  Q 131.78 164.26 137.91 160.07"
/>
<path stroke="#0e0e22" vector-effect="non-scaling-stroke" d="
  M 137.91 160.07
  L 139.24 160.18
  A 1.06 1.06 0.0 0 0 140.00 159.93
  Q 140.64 159.39 141.56 159.31
  Q 142.46 159.23 141.87 159.90
  C 137.96 164.40 133.86 168.29 130.83 173.65
  Q 127.06 180.33 123.93 187.75
  Q 121.99 192.35 118.89 198.88
  C 117.33 202.17 116.63 205.39 115.30 208.66
  C 114.60 210.39 115.21 211.91 114.36 213.57
  Q 113.90 214.46 113.84 215.41
  Q 113.77 216.64 113.86 217.91
  Q 113.95 219.22 114.89 218.30
  Q 115.36 217.84 115.32 217.28
  Q 115.31 216.98 115.54 216.82
  Q 115.71 216.70 115.91 216.67
  Q 116.41 216.61 116.76 216.26
  L 138.47 194.33"
/>
<path stroke="#121e2b" vector-effect="non-scaling-stroke" d="
  M 138.47 194.33
  C 142.51 191.03 146.10 187.32 150.06 183.97
  C 153.48 181.08 156.74 178.11 160.41 175.55
  Q 177.12 163.92 195.86 154.23
  Q 197.69 153.28 196.76 155.11
  Q 191.14 166.15 188.01 179.15
  C 185.90 187.98 183.48 197.06 181.02 205.95
  Q 179.79 210.39 177.82 215.22
  Q 175.93 219.83 174.17 224.35"
/>
<path stroke="#0e0e22" vector-effect="non-scaling-stroke" d="
  M 174.17 224.35
  Q 171.55 230.02 169.20 235.57
  Q 166.32 242.37 163.79 246.76
  Q 160.43 252.59 157.14 258.07
  Q 155.85 260.21 158.05 259.01
  Q 160.20 257.83 163.31 256.06
  C 168.00 253.40 175.29 248.16 180.74 243.68
  Q 183.76 241.20 186.90 238.76"
/>
<path stroke="#121e2b" vector-effect="non-scaling-stroke" d="
  M 186.90 238.76
  Q 187.44 238.15 188.21 237.44
  Q 199.24 227.19 208.33 215.46
  Q 214.92 206.95 218.66 198.91
  Q 225.36 184.48 228.68 170.87
  Q 229.39 167.97 229.59 165.02
  Q 229.77 162.24 230.09 159.50
  A 1.11 1.10 9.4 0 0 229.22 158.29
  Q 221.89 156.80 214.77 154.56
  Q 207.74 152.34 200.64 150.26
  Q 192.56 147.89 183.58 145.01
  Q 170.19 140.73 150.86 136.25
  Q 135.34 132.65 119.40 133.72
  C 107.88 134.49 97.01 138.40 87.99 144.99
  Q 87.07 145.67 84.01 148.53"
/>
<path stroke="#1f2b3c" vector-effect="non-scaling-stroke" d="
  M 186.90 238.76
  Q 177.39 234.63 174.17 224.35"
/>
<path stroke="#1f2b3c" vector-effect="non-scaling-stroke" d="
  M 138.47 194.33
  Q 137.95 194.43 137.52 194.37
  Q 137.02 194.30 136.98 193.79
  Q 136.39 186.26 138.34 179.22
  Q 141.90 166.36 148.51 156.50
  Q 150.58 153.41 147.29 155.14
  L 137.91 160.07"
/>
<path stroke="#1f2b3c" vector-effect="non-scaling-stroke" d="
  M 98.20 189.14
  Q 88.30 175.57 84.55 160.50
  Q 83.19 155.01 84.01 148.53"
/>
<path stroke="#7d6557" vector-effect="non-scaling-stroke" d="
  M 261.62 264.04
  Q 271.99 245.48 292.33 238.63
  Q 295.25 237.65 298.40 238.30
  Q 332.61 245.32 371.52 252.80
  Q 374.50 253.37 376.58 255.41
  Q 377.95 256.75 377.76 258.63
  Q 376.78 268.40 376.15 277.78
  Q 376.06 279.13 375.14 280.17
  Q 374.84 280.50 375.14 280.83
  Q 380.31 286.43 384.27 293.32
  Q 385.02 294.62 385.45 296.08
  A 0.79 0.79 0.0 0 0 386.62 296.52
  C 393.44 292.34 399.60 291.50 406.87 293.32
  Q 409.48 293.98 411.88 294.67
  Q 412.44 294.83 412.71 294.33
  L 415.59 289.02"
/>
<path stroke="#5d3837" vector-effect="non-scaling-stroke" d="
  M 415.59 289.02
  Q 416.80 287.94 417.28 286.77"
/>
<path stroke="#7d6557" vector-effect="non-scaling-stroke" d="
  M 417.28 286.77
  L 421.59 281.53
  Q 421.94 281.10 421.38 281.07
  Q 420.40 281.01 419.14 281.51"
/>
<path stroke="#5d3837" vector-effect="non-scaling-stroke" d="
  M 419.14 281.51
  L 418.07 281.40
  Q 417.56 281.34 417.33 280.89
  Q 417.08 280.40 417.29 279.79"
/>
<path stroke="#7d6557" vector-effect="non-scaling-stroke" d="
  M 417.29 279.79
  Q 418.39 272.52 419.81 265.25
  Q 420.29 262.81 421.34 260.50
  Q 421.55 260.04 422.00 259.80
  Q 423.88 258.81 425.99 258.51
  Q 443.03 256.05 459.54 253.34"
/>
<path stroke="#808088" vector-effect="non-scaling-stroke" d="
  M 459.54 253.34
  L 468.16 252.11
  Q 468.86 252.01 468.79 251.31
  Q 468.25 246.22 467.42 241.76
  Q 461.60 210.76 453.83 180.19"
/>
<path stroke="#633f3c" vector-effect="non-scaling-stroke" d="
  M 453.83 180.19
  L 450.19 164.05
  A 0.83 0.81 72.0 0 0 449.07 163.47
  C 428.22 172.48 406.13 174.81 383.49 172.49
  Q 378.24 171.96 375.00 171.40
  C 356.41 168.22 340.17 164.31 322.81 160.40
  C 310.37 157.59 296.35 155.05 284.25 153.69
  Q 265.94 151.63 248.03 156.72
  C 241.97 158.44 233.08 162.53 230.28 167.69
  Q 230.03 168.16 230.15 168.67
  Q 235.95 192.87 233.07 218.20
  C 230.36 242.06 219.92 264.89 201.90 280.69
  Q 201.40 281.13 202.07 281.15
  Q 204.84 281.22 207.25 280.97
  Q 230.31 278.54 250.72 277.38
  Q 257.16 277.02 266.25 277.30
  Q 273.81 277.54 282.24 277.42
  Q 284.69 277.38 286.61 276.26
  C 290.40 274.07 294.79 272.93 299.25 272.95
  Q 312.99 273.01 328.05 272.74
  Q 328.12 272.74 328.12 272.67
  Q 328.12 272.62 328.13 272.57
  Q 328.15 272.42 328.00 272.39
  Q 318.49 270.37 309.09 268.99
  Q 296.32 267.12 288.79 267.63
  Q 273.23 268.68 259.50 276.08
  Q 257.94 276.92 258.43 275.22
  L 261.62 264.04"
/>
<path stroke="#e2beb3" vector-effect="non-scaling-stroke" d="
  M 453.83 180.19
  L 444.41 182.91"
/>
<path stroke="#dfa383" vector-effect="non-scaling-stroke" d="
  M 444.41 182.91
  Q 434.63 185.20 429.25 185.95
  Q 418.92 187.39 406.00 187.00
  Q 389.94 186.52 374.53 183.35
  C 348.56 178.00 320.78 171.57 293.49 166.19
  C 284.32 164.38 258.47 160.18 253.44 171.15
  Q 251.95 174.39 252.96 178.23
  Q 263.32 217.36 262.44 258.31
  Q 262.41 259.49 261.78 261.08
  Q 261.00 263.03 261.62 264.04"
/>
<path stroke="#fce4cf" vector-effect="non-scaling-stroke" d="
  M 444.41 182.91
  Q 446.96 193.33 449.51 203.59
  Q 451.98 213.56 453.84 223.11
  Q 455.81 233.20 457.74 243.30
  Q 458.67 248.15 459.54 253.34"
/>
<path stroke="#d89c7e" vector-effect="non-scaling-stroke" d="
  M 417.29 279.79
  Q 415.56 284.40 415.59 289.02"
/>
<path stroke="#d89c7e" vector-effect="non-scaling-stroke" d="
  M 419.14 281.51
  L 416.84 286.40
  Q 416.75 286.58 416.96 286.62
  Q 417.11 286.64 417.28 286.77"
/>
<path stroke="#7d6557" vector-effect="non-scaling-stroke" d="
  M 75.63 308.72
  C 69.10 318.35 66.99 329.28 66.69 340.75
  Q 66.66 341.77 67.05 342.75"
/>
<path stroke="#633f3c" vector-effect="non-scaling-stroke" d="
  M 67.05 342.75
  L 66.78 343.01
  Q 66.49 343.30 66.51 343.72
  C 67.37 365.48 78.01 385.34 95.04 398.64
  C 109.60 410.00 128.43 412.22 145.91 406.67
  C 148.84 405.75 151.57 404.12 154.33 402.71
  A 0.36 0.36 0.0 0 1 154.84 403.13
  Q 154.51 404.25 154.52 405.21
  Q 154.57 416.06 154.42 427.84
  Q 154.30 437.45 155.76 444.95
  C 159.86 465.99 171.19 486.69 188.53 499.68
  Q 198.11 506.87 207.09 510.63
  Q 255.76 531.05 315.04 552.76
  Q 325.18 556.47 332.92 558.82
  Q 348.10 563.42 364.24 562.73
  Q 387.16 561.75 405.27 547.88"
/>
<path stroke="#7d6557" vector-effect="non-scaling-stroke" d="
  M 405.27 547.88
  C 419.75 536.39 428.52 521.66 435.72 504.79"
/>
<path stroke="#808088" vector-effect="non-scaling-stroke" d="
  M 435.72 504.79
  Q 450.52 472.77 454.83 461.33
  C 459.83 448.06 463.10 436.46 464.08 422.88
  Q 465.20 407.25 466.06 392.03
  A 0.83 0.82 1.6 0 0 465.23 391.16
  L 458.64 391.17"
/>
<path stroke="#7d6557" vector-effect="non-scaling-stroke" d="
  M 458.64 391.17
  L 451.86 391.29
  Q 451.01 391.30 451.26 392.12
  Q 452.75 397.03 454.89 401.78
  A 0.90 0.90 0.0 0 1 454.74 402.76
  L 436.37 423.55"
/>
<path stroke="#5d3837" vector-effect="non-scaling-stroke" d="
  M 436.37 423.55
  L 414.60 426.59
  Q 414.04 426.67 414.42 426.25
  L 440.18 398.10"
/>
<path stroke="#808088" vector-effect="non-scaling-stroke" d="
  M 440.18 398.10
  Q 440.60 396.06 440.20 394.74
  Q 429.36 358.78 417.26 323.63"
/>
<path stroke="#5d3837" vector-effect="non-scaling-stroke" d="
  M 417.26 323.63
  Q 414.89 317.70 408.23 314.95
  C 401.66 312.24 393.02 314.14 388.15 319.24
  Q 387.77 319.63 387.76 320.18
  L 387.59 330.26"
/>
<path stroke="#7d6557" vector-effect="non-scaling-stroke" d="
  M 387.59 330.26
  C 387.45 334.74 387.46 339.37 386.69 343.54
  Q 384.52 355.42 377.91 365.66
  Q 365.74 384.52 344.02 390.31"
/>
<path stroke="#633f3c" vector-effect="non-scaling-stroke" d="
  M 344.02 390.31
  Q 325.46 391.99 310.49 390.49
  C 293.09 388.75 278.81 379.19 269.51 364.41"
/>
<path stroke="#7d6557" vector-effect="non-scaling-stroke" d="
  M 269.51 364.41
  Q 263.11 354.17 261.29 342.00
  Q 260.66 337.81 261.28 324.60"
/>
<path stroke="#633f3c" vector-effect="non-scaling-stroke" d="
  M 261.28 324.60
  L 261.22 311.42
  A 1.57 1.57 0.0 0 0 260.60 310.17
  L 252.03 303.77
  A 1.56 1.54 64.6 0 0 251.23 303.48
  Q 248.62 303.32 246.00 303.53
  Q 220.24 305.54 194.72 308.63
  A 1.02 1.01 86.5 0 0 193.83 309.64
  L 193.81 392.32
  A 0.45 0.45 0.0 0 1 193.36 392.77
  L 162.79 392.55
  A 1.28 1.28 0.0 0 1 161.52 391.29
  Q 161.14 366.64 161.41 344.41
  Q 161.49 337.26 161.12 332.72
  Q 159.95 318.34 151.69 306.56"
/>
<path stroke="#808088" vector-effect="non-scaling-stroke" d="
  M 151.69 306.56
  Q 145.41 298.18 139.41 294.34
  C 118.21 280.73 89.37 286.76 75.63 308.72"
/>
<path stroke="#e2beb3" vector-effect="non-scaling-stroke" d="
  M 151.69 306.56
  L 147.23 316.23"
/>
<path stroke="#fce4cf" vector-effect="non-scaling-stroke" d="
  M 147.23 316.23
  Q 144.65 310.96 143.59 309.69
  Q 135.46 300.03 123.59 295.54
  C 112.25 291.26 98.48 292.94 87.75 298.65
  Q 82.08 301.66 77.37 308.32
  Q 77.11 308.70 76.72 308.94
  Q 75.79 309.50 75.63 308.72"
/>
<path stroke="#dfa383" vector-effect="non-scaling-stroke" d="
  M 147.23 316.23
  L 140.62 329.40"
/>
<path stroke="#7d6557" vector-effect="non-scaling-stroke" d="
  M 140.62 329.40
  Q 130.63 312.09 111.00 311.88
  Q 93.05 311.70 85.54 327.02
  Q 82.68 332.85 82.87 340.85"
/>
<path stroke="#dfa383" vector-effect="non-scaling-stroke" d="
  M 82.87 340.85
  L 83.17 345.49
  Q 83.20 346.00 82.69 346.05
  Q 74.25 346.76 67.05 342.75"
/>
<path stroke="#dfa383" vector-effect="non-scaling-stroke" d="
  M 261.28 324.60
  Q 235.19 326.18 209.72 329.14
  A 0.61 0.61 0.0 0 0 209.19 329.80
  C 209.54 333.82 209.46 338.26 209.68 341.73
  Q 212.38 384.98 214.45 423.00
  Q 215.11 435.16 216.44 445.83
  Q 218.23 460.23 225.03 475.11
  Q 233.01 492.57 249.61 504.74
  Q 257.58 510.59 269.81 515.65
  Q 288.05 523.21 305.42 529.44
  C 317.08 533.63 328.60 538.36 341.60 542.95
  Q 359.01 549.11 374.50 550.42
  Q 387.54 551.52 405.27 547.88"
/>
<path stroke="#633f3c" vector-effect="non-scaling-stroke" d="
  M 82.87 340.85
  Q 90.70 334.91 99.52 331.72
  C 106.71 329.13 113.88 329.18 120.12 334.25
  Q 124.14 337.52 125.60 340.52
  C 126.92 343.24 127.64 350.78 123.57 352.06
  C 118.30 353.71 116.46 359.77 119.79 364.14
  C 124.65 370.52 131.93 369.58 137.19 364.06
  C 145.77 355.06 145.75 340.02 140.62 329.40"
/>
<path stroke="#fce4cf" vector-effect="non-scaling-stroke" d="
  M 409.10 321.12
  L 408.38 321.09
  A 1.14 1.14 0.0 0 0 407.26 322.58
  Q 414.91 345.98 422.52 369.23
  C 424.15 374.22 426.00 381.53 428.24 387.40
  Q 430.21 392.56 432.23 397.63"
/>
<path stroke="#d89c7e" vector-effect="non-scaling-stroke" d="
  M 432.23 397.63
  Q 431.42 397.59 429.91 397.53
  Q 428.76 397.48 427.64 397.66
  C 414.03 399.88 401.01 404.62 388.08 409.80
  Q 382.33 412.11 377.38 414.81
  A 1.15 1.15 0.0 0 0 376.93 416.38
  Q 381.27 424.01 387.88 429.15
  Q 395.78 435.28 405.78 436.28
  Q 425.03 438.21 436.37 423.55"
/>
<path stroke="#fce4cf" vector-effect="non-scaling-stroke" d="
  M 458.64 391.17
  C 458.98 393.18 459.47 394.93 459.28 396.98
  Q 458.38 406.73 457.24 416.42
  C 456.30 424.49 454.51 432.64 453.02 440.73
  C 451.55 448.71 448.67 456.98 446.60 465.09
  Q 444.15 474.70 440.80 485.46
  Q 439.63 489.22 438.57 493.64
  Q 437.33 498.76 434.77 503.70
  A 0.98 0.97 30.7 0 0 435.10 504.96
  Q 435.18 505.01 435.72 504.79"
/>
<path stroke="#dfa383" vector-effect="non-scaling-stroke" d="
  M 269.51 364.41
  Q 270.27 373.15 275.84 380.18
  Q 284.14 390.65 296.35 394.96
  Q 300.80 396.53 307.30 397.22
  Q 313.74 397.90 318.51 397.73
  Q 331.48 397.27 344.02 390.31"
/>
<path stroke="#dcb7af" vector-effect="non-scaling-stroke" d="
  M 440.18 398.10
  Q 436.82 397.12 432.23 397.63"
/>
<path stroke="#dcb7af" vector-effect="non-scaling-stroke" d="
  M 417.26 323.63
  L 409.10 321.12"
/>
<path stroke="#d89c7e" vector-effect="non-scaling-stroke" d="
  M 409.10 321.12
  C 400.85 319.82 391.25 322.06 387.59 330.26"
/>
<path stroke="#7d6557" vector-effect="non-scaling-stroke" d="
  M 278.73 322.35
  Q 278.76 328.73 278.90 335.25
  Q 279.22 349.42 288.50 360.02"
/>
<path stroke="#808088" vector-effect="non-scaling-stroke" d="
  M 288.50 360.02
  Q 293.57 365.65 297.87 368.38
  C 305.17 372.98 312.47 373.33 321.26 373.32
  Q 328.96 373.32 335.74 373.13
  Q 343.88 372.90 350.43 368.95"
/>
<path stroke="#7d6557" vector-effect="non-scaling-stroke" d="
  M 350.43 368.95
  Q 354.49 366.47 357.47 363.47
  Q 369.96 350.91 370.03 332.99
  Q 370.06 325.85 370.17 318.31"
/>
<path stroke="#5d3837" vector-effect="non-scaling-stroke" d="
  M 370.17 318.31
  Q 370.15 312.84 369.82 307.00
  Q 369.74 305.60 369.12 304.30
  C 367.02 299.88 363.32 294.00 358.49 292.82
  Q 355.03 291.98 350.18 291.97
  Q 342.88 291.95 336.29 292.26
  Q 334.76 292.33 336.18 292.91
  Q 354.63 300.46 355.79 320.26"
/>
<path stroke="#7d6557" vector-effect="non-scaling-stroke" d="
  M 355.79 320.26
  Q 356.27 326.42 355.45 330.75
  Q 354.40 336.26 350.93 340.48"
/>
<path stroke="#808088" vector-effect="non-scaling-stroke" d="
  M 350.93 340.48
  Q 345.33 346.67 341.68 348.47
  C 328.37 355.03 314.13 351.50 306.12 339.28
  Q 300.87 331.27 301.44 320.82"
/>
<path stroke="#5d3837" vector-effect="non-scaling-stroke" d="
  M 301.44 320.82
  Q 302.77 305.49 314.48 296.88
  C 317.18 294.89 320.32 294.08 323.36 292.90
  Q 324.95 292.27 323.24 292.24
  Q 313.12 292.07 302.48 292.12
  Q 295.84 292.14 291.97 293.37
  C 286.87 294.98 282.03 298.78 279.72 303.72
  Q 278.81 305.65 278.76 308.76
  Q 278.63 315.52 278.73 322.35"
/>
<path stroke="#dcb7af" vector-effect="non-scaling-stroke" d="
  M 301.44 320.82
  L 286.74 321.88"
/>
<path stroke="#d89c7e" vector-effect="non-scaling-stroke" d="
  M 286.74 321.88
  L 278.73 322.35"
/>
<path stroke="#fce4cf" vector-effect="non-scaling-stroke" d="
  M 288.50 360.02
  Q 287.37 358.14 287.47 356.67
  Q 287.58 354.88 287.58 354.83
  Q 286.19 338.60 286.74 321.88"
/>
<path stroke="#fce4cf" vector-effect="non-scaling-stroke" d="
  M 350.43 368.95
  Q 349.67 354.89 350.93 340.48"
/>
<path stroke="#d89c7e" vector-effect="non-scaling-stroke" d="
  M 370.17 318.31
  Q 362.61 318.30 355.79 320.26"
/>
<path stroke="#808088" vector-effect="non-scaling-stroke" d="
  M 466.17 315.68
  C 468.26 328.65 464.38 340.73 453.23 347.88
  Q 445.07 353.10 437.60 352.17
  A 0.57 0.57 0.0 0 0 436.98 352.87
  Q 438.71 360.04 441.34 367.16
  C 442.81 371.16 449.61 373.19 453.38 373.08
  Q 459.66 372.91 466.32 372.88
  A 0.81 0.81 0.0 0 0 467.12 372.08
  Q 467.31 345.93 468.23 319.06
  C 468.43 313.16 469.39 304.28 469.25 296.82"
/>
<path stroke="#5d3837" vector-effect="non-scaling-stroke" d="
  M 469.25 296.82
  Q 469.85 294.91 469.56 292.96
  Q 469.49 292.47 468.99 292.46
  L 448.19 292.26
  A 0.37 0.37 0.0 0 0 447.85 292.77
  Q 447.91 292.93 448.02 293.05
  Q 448.21 293.26 448.45 293.35
  Q 458.72 297.07 463.39 306.87
  Q 464.65 309.51 466.17 315.68"
/>
<path stroke="#dcb7af" vector-effect="non-scaling-stroke" d="
  M 469.25 296.82
  L 469.10 295.60
  Q 469.07 295.35 468.81 295.33
  Q 468.66 295.32 468.57 295.42
  Q 468.39 295.61 468.37 295.88
  Q 467.57 305.84 466.17 315.68"
/>
<path stroke="#3d8087" vector-effect="non-scaling-stroke" d="
  M 483.66 320.54
  L 482.64 367.41
  A 0.39 0.39 0.0 0 0 483.23 367.75
  C 493.07 361.87 498.96 350.60 500.55 339.50
  Q 500.95 336.73 500.69 327.06"
/>
<path stroke="#1a5887" vector-effect="non-scaling-stroke" d="
  M 500.69 327.06
  Q 501.03 319.63 500.78 313.24
  C 500.65 309.82 500.93 306.03 499.19 303.19
  Q 494.80 296.01 485.60 296.13
  Q 484.90 296.14 484.87 296.83
  L 483.66 320.54"
/>
<path stroke="#56d6fe" vector-effect="non-scaling-stroke" d="
  M 500.69 327.06
  L 483.66 320.54"
/>
<path stroke="#7d6557" vector-effect="non-scaling-stroke" d="
  M 346.00 465.23
  C 351.91 467.95 357.86 470.53 364.16 472.37
  Q 377.10 476.14 392.24 475.02
  Q 404.36 474.13 416.77 468.12
  C 421.51 465.83 424.41 461.48 421.31 456.30
  C 419.35 453.02 415.68 451.35 412.16 453.11
  C 409.88 454.26 407.66 455.36 405.25 456.22
  C 388.46 462.19 367.14 459.17 351.33 449.88
  C 346.25 446.90 340.41 447.22 338.89 454.11
  C 337.69 459.56 341.50 463.16 346.00 465.23"
/>
</g>
<path fill="#ffffff" d="
  M 0.00 0.00
  L 576.00 0.00
  L 576.00 642.00
  L 0.00 642.00
  L 0.00 0.00
  Z
  M 137.58 589.62
  Q 150.63 601.38 165.69 609.57
  Q 201.53 629.05 243.43 629.74
  Q 269.49 630.16 292.70 623.42
  C 294.73 622.83 296.61 621.96 298.56 621.14
  Q 308.00 617.84 316.93 613.24
  A 1.08 1.07 76.3 0 0 317.50 612.29
  L 317.49 572.75
  A 0.43 0.43 0.0 0 1 318.06 572.35
  C 337.97 579.40 359.30 582.45 380.15 577.98
  C 402.69 573.15 422.30 560.34 435.73 541.30
  Q 443.64 530.10 448.35 519.67
  Q 458.73 496.73 469.37 470.94
  Q 480.07 444.98 481.16 418.20
  Q 481.74 404.01 481.79 388.99
  A 1.15 1.15 0.0 0 1 482.44 387.97
  C 491.55 383.66 499.19 378.79 505.21 371.26
  Q 513.94 360.35 516.84 346.53
  Q 518.24 339.82 518.17 329.81
  Q 518.10 320.54 518.30 312.20
  A 3.01 2.97 73.3 0 1 519.55 309.84
  L 527.36 304.28
  A 2.37 2.36 -17.4 0 0 528.36 302.37
  L 528.57 278.25
  A 0.57 0.57 0.0 0 0 528.00 277.68
  L 485.81 277.57
  A 0.31 0.31 0.0 0 1 485.50 277.26
  C 485.48 266.73 485.92 256.39 484.69 245.96
  C 482.84 230.20 479.41 214.58 475.94 198.79
  A 0.75 0.75 0.0 0 1 476.66 197.88
  C 483.14 197.81 489.72 197.96 496.13 196.46
  C 515.20 191.99 529.89 179.99 537.52 161.46
  A 0.65 0.65 0.0 0 0 537.30 160.68
  Q 536.86 160.37 536.35 160.56
  C 520.71 166.57 502.78 163.22 491.39 151.24
  A 0.56 0.56 0.0 0 1 491.43 150.42
  Q 504.20 139.72 512.00 125.12
  Q 531.08 89.37 523.70 50.24
  C 522.68 44.81 520.61 39.44 518.98 34.20
  A 0.56 0.56 0.0 0 0 517.97 34.06
  Q 511.33 44.44 502.18 51.37
  C 479.60 68.45 450.98 70.03 423.81 63.35
  Q 422.88 63.13 423.46 62.37
  C 432.26 50.67 434.67 36.97 434.63 22.78
  A 0.46 0.46 0.0 0 0 433.87 22.44
  Q 423.70 31.26 412.71 35.83
  C 396.58 42.53 378.52 41.74 361.81 38.05
  Q 355.00 36.55 332.38 29.98
  C 317.83 25.75 302.58 21.63 288.98 18.90
  C 265.73 14.25 242.20 12.89 217.83 15.78
  C 192.03 18.85 165.46 27.80 144.59 43.01
  Q 109.83 68.35 102.16 110.08
  Q 102.07 110.61 101.60 110.90
  C 100.99 111.27 100.13 111.37 99.44 111.63
  C 75.20 120.79 55.42 137.48 43.27 160.28
  C 29.00 187.06 25.70 218.20 29.09 248.16
  Q 33.54 287.42 50.50 324.38
  Q 50.81 325.04 50.67 325.75
  C 47.49 342.08 48.86 359.88 55.70 375.22
  C 61.86 389.05 70.51 399.38 79.79 410.80
  C 94.18 428.52 103.59 450.31 109.82 472.46
  A 0.64 0.64 0.0 0 0 110.92 472.70
  L 118.49 463.76
  Q 119.07 463.08 119.08 463.97
  Q 119.76 517.41 119.29 571.17
  Q 119.29 571.67 119.61 572.05
  Q 127.63 581.40 137.58 589.62
  Z"
/>
<path fill="#010110" d="
  M 298.56 621.14
  Q 291.39 619.14 284.56 617.03
  Q 267.34 611.72 253.34 604.01
  C 233.51 593.08 216.34 577.68 202.46 559.80
  Q 197.45 553.35 192.68 547.31
  Q 188.80 540.87 184.33 535.25
  C 182.25 532.64 180.73 528.93 178.69 526.03
  Q 169.53 512.98 164.19 503.84
  Q 158.60 494.30 152.70 485.28
  Q 149.82 480.89 147.18 476.59
  Q 144.26 471.84 141.46 468.49
  C 140.63 467.50 140.49 466.30 139.32 465.63
  A 0.75 0.74 -67.5 0 0 138.22 466.09
  Q 137.42 469.16 137.34 472.36
  Q 137.27 475.47 137.13 478.63
  Q 136.97 482.17 137.57 485.72
  L 137.58 589.62
  Q 127.63 581.40 119.61 572.05
  Q 119.29 571.67 119.29 571.17
  Q 119.76 517.41 119.08 463.97
  Q 119.07 463.08 118.49 463.76
  L 110.92 472.70
  A 0.64 0.64 0.0 0 1 109.82 472.46
  C 103.59 450.31 94.18 428.52 79.79 410.80
  C 70.51 399.38 61.86 389.05 55.70 375.22
  C 48.86 359.88 47.49 342.08 50.67 325.75
  Q 50.81 325.04 50.50 324.38
  Q 33.54 287.42 29.09 248.16
  C 25.70 218.20 29.00 187.06 43.27 160.28
  C 55.42 137.48 75.20 120.79 99.44 111.63
  C 100.13 111.37 100.99 111.27 101.60 110.90
  Q 102.07 110.61 102.16 110.08
  Q 109.83 68.35 144.59 43.01
  C 165.46 27.80 192.03 18.85 217.83 15.78
  C 242.20 12.89 265.73 14.25 288.98 18.90
  C 302.58 21.63 317.83 25.75 332.38 29.98
  Q 355.00 36.55 361.81 38.05
  C 378.52 41.74 396.58 42.53 412.71 35.83
  Q 423.70 31.26 433.87 22.44
  A 0.46 0.46 0.0 0 1 434.63 22.78
  C 434.67 36.97 432.26 50.67 423.46 62.37
  Q 422.88 63.13 423.81 63.35
  C 450.98 70.03 479.60 68.45 502.18 51.37
  Q 511.33 44.44 517.97 34.06
  A 0.56 0.56 0.0 0 1 518.98 34.20
  C 520.61 39.44 522.68 44.81 523.70 50.24
  Q 531.08 89.37 512.00 125.12
  Q 504.20 139.72 491.43 150.42
  A 0.56 0.56 0.0 0 0 491.39 151.24
  C 502.78 163.22 520.71 166.57 536.35 160.56
  Q 536.86 160.37 537.30 160.68
  A 0.65 0.65 0.0 0 1 537.52 161.46
  C 529.89 179.99 515.20 191.99 496.13 196.46
  C 489.72 197.96 483.14 197.81 476.66 197.88
  A 0.75 0.75 0.0 0 0 475.94 198.79
  C 479.41 214.58 482.84 230.20 484.69 245.96
  C 485.92 256.39 485.48 266.73 485.50 277.26
  A 0.31 0.31 0.0 0 0 485.81 277.57
  L 528.00 277.68
  A 0.57 0.57 0.0 0 1 528.57 278.25
  L 528.36 302.37
  A 2.37 2.36 -17.4 0 1 527.36 304.28
  L 519.55 309.84
  A 3.01 2.97 73.3 0 0 518.30 312.20
  Q 518.10 320.54 518.17 329.81
  Q 518.24 339.82 516.84 346.53
  Q 513.94 360.35 505.21 371.26
  C 499.19 378.79 491.55 383.66 482.44 387.97
  A 1.15 1.15 0.0 0 0 481.79 388.99
  Q 481.74 404.01 481.16 418.20
  Q 480.07 444.98 469.37 470.94
  Q 458.73 496.73 448.35 519.67
  Q 443.64 530.10 435.73 541.30
  C 422.30 560.34 402.69 573.15 380.15 577.98
  C 359.30 582.45 337.97 579.40 318.06 572.35
  A 0.43 0.43 0.0 0 0 317.49 572.75
  L 317.50 612.29
  A 1.08 1.07 76.3 0 1 316.93 613.24
  Q 308.00 617.84 298.56 621.14
  Z
  M 202.93 39.32
  Q 195.19 41.32 186.45 46.46
  Q 176.59 52.26 169.91 59.40
  Q 163.73 66.01 161.18 69.71
  Q 157.01 75.72 153.36 84.59
  Q 151.25 89.71 150.04 96.88
  Q 148.99 103.09 148.86 108.43
  Q 148.70 114.86 148.57 120.48
  A 1.59 1.59 0.0 0 0 149.97 122.10
  Q 158.21 123.07 165.61 124.90
  Q 166.96 125.24 167.34 123.90
  Q 169.70 115.42 172.69 107.75
  C 173.29 106.23 174.16 104.93 174.60 103.34
  Q 175.06 101.65 176.06 100.10
  Q 179.06 95.43 182.30 90.97
  C 185.68 87.93 188.58 84.18 191.56 81.67
  C 207.57 68.19 225.57 61.75 246.84 57.10
  Q 256.01 55.10 267.01 54.38
  C 277.61 53.69 287.66 53.37 297.57 54.41
  Q 298.87 54.55 297.66 55.03
  C 291.56 57.45 285.72 59.76 280.16 63.33
  Q 269.45 70.20 260.24 79.02
  Q 257.62 81.25 255.27 83.76
  Q 253.84 85.31 252.19 86.68
  C 248.44 89.80 245.36 94.33 242.28 98.42
  C 240.37 100.96 239.13 103.82 237.06 106.26
  Q 235.18 108.49 234.02 111.94
  Q 233.88 112.36 233.47 112.52
  Q 232.95 112.72 232.70 113.22
  Q 229.68 119.10 228.29 125.07
  Q 227.83 127.05 227.06 128.97
  Q 226.29 130.89 226.28 133.07
  A 0.62 0.61 -18.6 0 0 227.27 133.56
  Q 229.96 131.49 232.79 129.19
  Q 234.78 127.58 237.13 126.34
  Q 239.46 125.11 241.84 123.88
  Q 253.37 116.59 261.62 112.90
  Q 280.70 104.35 305.87 97.56
  Q 319.59 93.86 333.41 90.67
  Q 341.46 88.81 349.88 88.27
  Q 352.40 88.11 350.11 89.18
  Q 347.86 90.22 345.75 91.83
  Q 338.41 97.40 330.36 103.40
  Q 321.70 109.86 312.82 117.39
  Q 311.26 118.72 313.27 118.32
  Q 320.38 116.91 327.05 115.20
  Q 333.59 113.52 340.76 111.89
  Q 352.06 109.31 363.49 106.97
  Q 396.51 100.23 423.08 92.03
  Q 428.59 90.33 435.52 86.89
  Q 436.89 86.21 438.21 85.64
  Q 439.00 85.30 438.15 85.18
  Q 437.08 85.03 436.09 85.29
  Q 444.85 83.93 454.51 80.33
  Q 457.17 79.34 458.92 78.29
  Q 459.72 77.80 458.78 77.79
  C 450.36 77.69 442.22 77.32 433.54 75.83
  C 425.13 74.40 416.57 71.71 408.02 69.57
  Q 403.10 67.82 398.16 65.95
  Q 392.72 63.88 388.19 62.60
  C 383.60 61.31 379.21 60.10 374.65 58.31
  Q 370.05 56.50 365.13 54.95
  Q 353.38 51.24 341.56 47.59
  C 320.61 41.14 297.53 36.56 274.86 33.83
  Q 251.17 30.97 229.25 33.16
  Q 216.59 34.42 202.93 39.32
  Z
  M 442.87 102.28
  L 407.21 127.10
  Q 404.94 128.68 402.88 130.49
  Q 400.68 132.42 398.69 133.45
  Q 394.15 135.79 389.13 139.17
  Q 380.06 145.28 368.81 148.43
  C 365.16 149.45 361.87 151.37 358.08 151.92
  Q 357.70 151.98 357.50 152.30
  Q 357.19 152.78 357.76 152.81
  Q 366.32 153.23 372.48 152.64
  Q 382.07 151.73 391.66 150.01
  Q 400.04 148.51 408.22 145.99
  Q 419.34 142.55 424.48 140.29
  Q 430.69 137.55 436.44 135.16
  C 441.54 133.03 445.64 129.76 450.25 126.85
  Q 460.46 120.41 469.58 112.58
  Q 477.38 108.59 483.25 102.50
  Q 489.15 96.37 495.22 88.49
  Q 497.83 86.71 499.72 84.22
  Q 500.09 83.74 499.48 83.82
  C 489.85 85.06 480.73 84.21 471.14 83.05
  A 3.60 3.58 30.4 0 0 468.57 83.71
  L 442.87 102.28
  Z
  M 84.01 148.53
  Q 83.54 148.89 82.82 149.35
  Q 82.15 149.77 81.67 150.39
  C 75.47 158.46 70.43 167.72 67.98 177.63
  C 65.10 189.29 64.31 201.58 64.55 213.67
  Q 64.61 216.56 65.52 219.05
  A 0.90 0.90 0.0 0 0 67.03 219.35
  Q 74.36 211.36 81.36 203.36
  Q 84.81 199.42 98.20 189.14
  Q 99.51 188.23 100.02 187.77
  Q 112.04 177.09 125.52 168.33
  Q 131.78 164.26 137.91 160.07
  L 139.24 160.18
  A 1.06 1.06 0.0 0 0 140.00 159.93
  Q 140.64 159.39 141.56 159.31
  Q 142.46 159.23 141.87 159.90
  C 137.96 164.40 133.86 168.29 130.83 173.65
  Q 127.06 180.33 123.93 187.75
  Q 121.99 192.35 118.89 198.88
  C 117.33 202.17 116.63 205.39 115.30 208.66
  C 114.60 210.39 115.21 211.91 114.36 213.57
  Q 113.90 214.46 113.84 215.41
  Q 113.77 216.64 113.86 217.91
  Q 113.95 219.22 114.89 218.30
  Q 115.36 217.84 115.32 217.28
  Q 115.31 216.98 115.54 216.82
  Q 115.71 216.70 115.91 216.67
  Q 116.41 216.61 116.76 216.26
  L 138.47 194.33
  C 142.51 191.03 146.10 187.32 150.06 183.97
  C 153.48 181.08 156.74 178.11 160.41 175.55
  Q 177.12 163.92 195.86 154.23
  Q 197.69 153.28 196.76 155.11
  Q 191.14 166.15 188.01 179.15
  C 185.90 187.98 183.48 197.06 181.02 205.95
  Q 179.79 210.39 177.82 215.22
  Q 175.93 219.83 174.17 224.35
  Q 171.55 230.02 169.20 235.57
  Q 166.32 242.37 163.79 246.76
  Q 160.43 252.59 157.14 258.07
  Q 155.85 260.21 158.05 259.01
  Q 160.20 257.83 163.31 256.06
  C 168.00 253.40 175.29 248.16 180.74 243.68
  Q 183.76 241.20 186.90 238.76
  Q 187.44 238.15 188.21 237.44
  Q 199.24 227.19 208.33 215.46
  Q 214.92 206.95 218.66 198.91
  Q 225.36 184.48 228.68 170.87
  Q 229.39 167.97 229.59 165.02
  Q 229.77 162.24 230.09 159.50
  A 1.11 1.10 9.4 0 0 229.22 158.29
  Q 221.89 156.80 214.77 154.56
  Q 207.74 152.34 200.64 150.26
  Q 192.56 147.89 183.58 145.01
  Q 170.19 140.73 150.86 136.25
  Q 135.34 132.65 119.40 133.72
  C 107.88 134.49 97.01 138.40 87.99 144.99
  Q 87.07 145.67 84.01 148.53
  Z
  M 261.62 264.04
  Q 271.99 245.48 292.33 238.63
  Q 295.25 237.65 298.40 238.30
  Q 332.61 245.32 371.52 252.80
  Q 374.50 253.37 376.58 255.41
  Q 377.95 256.75 377.76 258.63
  Q 376.78 268.40 376.15 277.78
  Q 376.06 279.13 375.14 280.17
  Q 374.84 280.50 375.14 280.83
  Q 380.31 286.43 384.27 293.32
  Q 385.02 294.62 385.45 296.08
  A 0.79 0.79 0.0 0 0 386.62 296.52
  C 393.44 292.34 399.60 291.50 406.87 293.32
  Q 409.48 293.98 411.88 294.67
  Q 412.44 294.83 412.71 294.33
  L 415.59 289.02
  Q 416.80 287.94 417.28 286.77
  L 421.59 281.53
  Q 421.94 281.10 421.38 281.07
  Q 420.40 281.01 419.14 281.51
  L 418.07 281.40
  Q 417.56 281.34 417.33 280.89
  Q 417.08 280.40 417.29 279.79
  Q 418.39 272.52 419.81 265.25
  Q 420.29 262.81 421.34 260.50
  Q 421.55 260.04 422.00 259.80
  Q 423.88 258.81 425.99 258.51
  Q 443.03 256.05 459.54 253.34
  L 468.16 252.11
  Q 468.86 252.01 468.79 251.31
  Q 468.25 246.22 467.42 241.76
  Q 461.60 210.76 453.83 180.19
  L 450.19 164.05
  A 0.83 0.81 72.0 0 0 449.07 163.47
  C 428.22 172.48 406.13 174.81 383.49 172.49
  Q 378.24 171.96 375.00 171.40
  C 356.41 168.22 340.17 164.31 322.81 160.40
  C 310.37 157.59 296.35 155.05 284.25 153.69
  Q 265.94 151.63 248.03 156.72
  C 241.97 158.44 233.08 162.53 230.28 167.69
  Q 230.03 168.16 230.15 168.67
  Q 235.95 192.87 233.07 218.20
  C 230.36 242.06 219.92 264.89 201.90 280.69
  Q 201.40 281.13 202.07 281.15
  Q 204.84 281.22 207.25 280.97
  Q 230.31 278.54 250.72 277.38
  Q 257.16 277.02 266.25 277.30
  Q 273.81 277.54 282.24 277.42
  Q 284.69 277.38 286.61 276.26
  C 290.40 274.07 294.79 272.93 299.25 272.95
  Q 312.99 273.01 328.05 272.74
  Q 328.12 272.74 328.12 272.67
  Q 328.12 272.62 328.13 272.57
  Q 328.15 272.42 328.00 272.39
  Q 318.49 270.37 309.09 268.99
  Q 296.32 267.12 288.79 267.63
  Q 273.23 268.68 259.50 276.08
  Q 257.94 276.92 258.43 275.22
  L 261.62 264.04
  Z
  M 75.63 308.72
  C 69.10 318.35 66.99 329.28 66.69 340.75
  Q 66.66 341.77 67.05 342.75
  L 66.78 343.01
  Q 66.49 343.30 66.51 343.72
  C 67.37 365.48 78.01 385.34 95.04 398.64
  C 109.60 410.00 128.43 412.22 145.91 406.67
  C 148.84 405.75 151.57 404.12 154.33 402.71
  A 0.36 0.36 0.0 0 1 154.84 403.13
  Q 154.51 404.25 154.52 405.21
  Q 154.57 416.06 154.42 427.84
  Q 154.30 437.45 155.76 444.95
  C 159.86 465.99 171.19 486.69 188.53 499.68
  Q 198.11 506.87 207.09 510.63
  Q 255.76 531.05 315.04 552.76
  Q 325.18 556.47 332.92 558.82
  Q 348.10 563.42 364.24 562.73
  Q 387.16 561.75 405.27 547.88
  C 419.75 536.39 428.52 521.66 435.72 504.79
  Q 450.52 472.77 454.83 461.33
  C 459.83 448.06 463.10 436.46 464.08 422.88
  Q 465.20 407.25 466.06 392.03
  A 0.83 0.82 1.6 0 0 465.23 391.16
  L 458.64 391.17
  L 451.86 391.29
  Q 451.01 391.30 451.26 392.12
  Q 452.75 397.03 454.89 401.78
  A 0.90 0.90 0.0 0 1 454.74 402.76
  L 436.37 423.55
  L 414.60 426.59
  Q 414.04 426.67 414.42 426.25
  L 440.18 398.10
  Q 440.60 396.06 440.20 394.74
  Q 429.36 358.78 417.26 323.63
  Q 414.89 317.70 408.23 314.95
  C 401.66 312.24 393.02 314.14 388.15 319.24
  Q 387.77 319.63 387.76 320.18
  L 387.59 330.26
  C 387.45 334.74 387.46 339.37 386.69 343.54
  Q 384.52 355.42 377.91 365.66
  Q 365.74 384.52 344.02 390.31
  Q 325.46 391.99 310.49 390.49
  C 293.09 388.75 278.81 379.19 269.51 364.41
  Q 263.11 354.17 261.29 342.00
  Q 260.66 337.81 261.28 324.60
  L 261.22 311.42
  A 1.57 1.57 0.0 0 0 260.60 310.17
  L 252.03 303.77
  A 1.56 1.54 64.6 0 0 251.23 303.48
  Q 248.62 303.32 246.00 303.53
  Q 220.24 305.54 194.72 308.63
  A 1.02 1.01 86.5 0 0 193.83 309.64
  L 193.81 392.32
  A 0.45 0.45 0.0 0 1 193.36 392.77
  L 162.79 392.55
  A 1.28 1.28 0.0 0 1 161.52 391.29
  Q 161.14 366.64 161.41 344.41
  Q 161.49 337.26 161.12 332.72
  Q 159.95 318.34 151.69 306.56
  Q 145.41 298.18 139.41 294.34
  C 118.21 280.73 89.37 286.76 75.63 308.72
  Z
  M 278.73 322.35
  Q 278.76 328.73 278.90 335.25
  Q 279.22 349.42 288.50 360.02
  Q 293.57 365.65 297.87 368.38
  C 305.17 372.98 312.47 373.33 321.26 373.32
  Q 328.96 373.32 335.74 373.13
  Q 343.88 372.90 350.43 368.95
  Q 354.49 366.47 357.47 363.47
  Q 369.96 350.91 370.03 332.99
  Q 370.06 325.85 370.17 318.31
  Q 370.15 312.84 369.82 307.00
  Q 369.74 305.60 369.12 304.30
  C 367.02 299.88 363.32 294.00 358.49 292.82
  Q 355.03 291.98 350.18 291.97
  Q 342.88 291.95 336.29 292.26
  Q 334.76 292.33 336.18 292.91
  Q 354.63 300.46 355.79 320.26
  Q 356.27 326.42 355.45 330.75
  Q 354.40 336.26 350.93 340.48
  Q 345.33 346.67 341.68 348.47
  C 328.37 355.03 314.13 351.50 306.12 339.28
  Q 300.87 331.27 301.44 320.82
  Q 302.77 305.49 314.48 296.88
  C 317.18 294.89 320.32 294.08 323.36 292.90
  Q 324.95 292.27 323.24 292.24
  Q 313.12 292.07 302.48 292.12
  Q 295.84 292.14 291.97 293.37
  C 286.87 294.98 282.03 298.78 279.72 303.72
  Q 278.81 305.65 278.76 308.76
  Q 278.63 315.52 278.73 322.35
  Z
  M 466.17 315.68
  C 468.26 328.65 464.38 340.73 453.23 347.88
  Q 445.07 353.10 437.60 352.17
  A 0.57 0.57 0.0 0 0 436.98 352.87
  Q 438.71 360.04 441.34 367.16
  C 442.81 371.16 449.61 373.19 453.38 373.08
  Q 459.66 372.91 466.32 372.88
  A 0.81 0.81 0.0 0 0 467.12 372.08
  Q 467.31 345.93 468.23 319.06
  C 468.43 313.16 469.39 304.28 469.25 296.82
  Q 469.85 294.91 469.56 292.96
  Q 469.49 292.47 468.99 292.46
  L 448.19 292.26
  A 0.37 0.37 0.0 0 0 447.85 292.77
  Q 447.91 292.93 448.02 293.05
  Q 448.21 293.26 448.45 293.35
  Q 458.72 297.07 463.39 306.87
  Q 464.65 309.51 466.17 315.68
  Z
  M 483.66 320.54
  L 482.64 367.41
  A 0.39 0.39 0.0 0 0 483.23 367.75
  C 493.07 361.87 498.96 350.60 500.55 339.50
  Q 500.95 336.73 500.69 327.06
  Q 501.03 319.63 500.78 313.24
  C 500.65 309.82 500.93 306.03 499.19 303.19
  Q 494.80 296.01 485.60 296.13
  Q 484.90 296.14 484.87 296.83
  L 483.66 320.54
  Z"
/>
<path fill="#233a45" d="
  M 408.02 69.57
  Q 378.39 74.05 348.75 78.58
  Q 343.04 79.45 337.40 80.68
  Q 337.36 80.69 337.37 80.73
  L 337.42 81.03
  A 0.21 0.21 0.0 0 0 337.65 81.21
  Q 356.36 79.09 375.00 81.85
  C 394.53 84.75 415.67 87.28 436.09 85.29
  Q 437.08 85.03 438.15 85.18
  Q 439.00 85.30 438.21 85.64
  Q 436.89 86.21 435.52 86.89
  Q 428.59 90.33 423.08 92.03
  Q 396.51 100.23 363.49 106.97
  Q 352.06 109.31 340.76 111.89
  Q 333.59 113.52 327.05 115.20
  Q 320.38 116.91 313.27 118.32
  Q 311.26 118.72 312.82 117.39
  Q 321.70 109.86 330.36 103.40
  Q 338.41 97.40 345.75 91.83
  Q 347.86 90.22 350.11 89.18
  Q 352.40 88.11 349.88 88.27
  Q 341.46 88.81 333.41 90.67
  Q 319.59 93.86 305.87 97.56
  Q 280.70 104.35 261.62 112.90
  Q 253.37 116.59 241.84 123.88
  L 240.18 123.56
  Q 239.60 123.45 239.80 122.90
  Q 240.67 120.49 240.92 118.03
  Q 241.17 115.57 242.43 113.40
  Q 243.57 111.43 244.19 109.07
  Q 244.72 107.06 245.78 105.16
  C 247.69 101.73 248.81 97.93 250.74 94.43
  Q 253.59 89.24 256.26 83.68
  Q 256.45 83.28 256.83 83.07
  L 257.25 82.84
  Q 257.69 82.60 257.76 82.10
  Q 257.83 81.57 258.34 81.39
  Q 258.81 81.23 259.07 80.82
  L 260.24 79.02
  Q 269.45 70.20 280.16 63.33
  C 285.72 59.76 291.56 57.45 297.66 55.03
  Q 298.87 54.55 297.57 54.41
  C 287.66 53.37 277.61 53.69 267.01 54.38
  Q 256.01 55.10 246.84 57.10
  C 225.57 61.75 207.57 68.19 191.56 81.67
  C 188.58 84.18 185.68 87.93 182.30 90.97
  Q 180.57 88.25 181.94 82.63
  Q 185.53 67.95 191.29 55.75
  Q 194.96 47.98 202.93 39.32
  Q 216.59 34.42 229.25 33.16
  Q 251.17 30.97 274.86 33.83
  C 297.53 36.56 320.61 41.14 341.56 47.59
  Q 353.38 51.24 365.13 54.95
  Q 370.05 56.50 374.65 58.31
  C 379.21 60.10 383.60 61.31 388.19 62.60
  Q 392.72 63.88 398.16 65.95
  Q 403.10 67.82 408.02 69.57
  Z"
/>
<path fill="#1a1b33" d="
  M 202.93 39.32
  Q 194.96 47.98 191.29 55.75
  Q 185.53 67.95 181.94 82.63
  Q 180.57 88.25 182.30 90.97
  Q 179.06 95.43 176.06 100.10
  Q 175.06 101.65 174.60 103.34
  C 174.16 104.93 173.29 106.23 172.69 107.75
  Q 169.70 115.42 167.34 123.90
  Q 166.96 125.24 165.61 124.90
  Q 158.21 123.07 149.97 122.10
  A 1.59 1.59 0.0 0 1 148.57 120.48
  Q 148.70 114.86 148.86 108.43
  Q 148.99 103.09 150.04 96.88
  Q 151.25 89.71 153.36 84.59
  Q 157.01 75.72 161.18 69.71
  Q 163.73 66.01 169.91 59.40
  Q 176.59 52.26 186.45 46.46
  Q 195.19 41.32 202.93 39.32
  Z"
/>
<path fill="#bdd0bc" d="
  M 408.02 69.57
  C 416.57 71.71 425.13 74.40 433.54 75.83
  C 442.22 77.32 450.36 77.69 458.78 77.79
  Q 459.72 77.80 458.92 78.29
  Q 457.17 79.34 454.51 80.33
  Q 444.85 83.93 436.09 85.29
  C 415.67 87.28 394.53 84.75 375.00 81.85
  Q 356.36 79.09 337.65 81.21
  A 0.21 0.21 0.0 0 1 337.42 81.03
  L 337.37 80.73
  Q 337.36 80.69 337.40 80.68
  Q 343.04 79.45 348.75 78.58
  Q 378.39 74.05 408.02 69.57
  Z"
/>
<path fill="#1a1b33" d="
  M 260.24 79.02
  L 259.07 80.82
  Q 258.81 81.23 258.34 81.39
  Q 257.83 81.57 257.76 82.10
  Q 257.69 82.60 257.25 82.84
  L 256.83 83.07
  Q 256.45 83.28 256.26 83.68
  Q 253.59 89.24 250.74 94.43
  C 248.81 97.93 247.69 101.73 245.78 105.16
  Q 244.72 107.06 244.19 109.07
  Q 243.57 111.43 242.43 113.40
  Q 241.17 115.57 240.92 118.03
  Q 240.67 120.49 239.80 122.90
  Q 239.60 123.45 240.18 123.56
  L 241.84 123.88
  Q 239.46 125.11 237.13 126.34
  Q 234.78 127.58 232.79 129.19
  Q 229.96 131.49 227.27 133.56
  A 0.62 0.61 -18.6 0 1 226.28 133.07
  Q 226.29 130.89 227.06 128.97
  Q 227.83 127.05 228.29 125.07
  Q 229.68 119.10 232.70 113.22
  Q 232.95 112.72 233.47 112.52
  Q 233.88 112.36 234.02 111.94
  Q 235.18 108.49 237.06 106.26
  C 239.13 103.82 240.37 100.96 242.28 98.42
  C 245.36 94.33 248.44 89.80 252.19 86.68
  Q 253.84 85.31 255.27 83.76
  Q 257.62 81.25 260.24 79.02
  Z"
/>
<path fill="#bdd0bc" d="
  M 495.22 88.49
  Q 483.59 95.00 468.06 98.56
  Q 453.92 101.81 442.87 102.28
  L 468.57 83.71
  A 3.60 3.58 30.4 0 1 471.14 83.05
  C 480.73 84.21 489.85 85.06 499.48 83.82
  Q 500.09 83.74 499.72 84.22
  Q 497.83 86.71 495.22 88.49
  Z"
/>
<path fill="#233a45" d="
  M 495.22 88.49
  Q 489.15 96.37 483.25 102.50
  Q 477.38 108.59 469.58 112.58
  Q 456.10 117.23 442.39 121.99
  C 439.18 123.11 435.86 123.85 432.60 124.78
  Q 429.15 125.77 425.26 126.34
  Q 416.78 127.58 407.73 128.74
  A 0.84 0.84 0.0 0 1 406.99 127.34
  L 407.21 127.10
  L 442.87 102.28
  Q 453.92 101.81 468.06 98.56
  Q 483.59 95.00 495.22 88.49
  Z"
/>
<path fill="#1a1b33" d="
  M 469.58 112.58
  Q 460.46 120.41 450.25 126.85
  C 445.64 129.76 441.54 133.03 436.44 135.16
  Q 430.69 137.55 424.48 140.29
  Q 419.34 142.55 408.22 145.99
  Q 400.04 148.51 391.66 150.01
  Q 382.07 151.73 372.48 152.64
  Q 366.32 153.23 357.76 152.81
  Q 357.19 152.78 357.50 152.30
  Q 357.70 151.98 358.08 151.92
  C 361.87 151.37 365.16 149.45 368.81 148.43
  Q 380.06 145.28 389.13 139.17
  Q 394.15 135.79 398.69 133.45
  Q 400.68 132.42 402.88 130.49
  Q 404.94 128.68 407.21 127.10
  L 406.99 127.34
  A 0.84 0.84 0.0 0 0 407.73 128.74
  Q 416.78 127.58 425.26 126.34
  Q 429.15 125.77 432.60 124.78
  C 435.86 123.85 439.18 123.11 442.39 121.99
  Q 456.10 117.23 469.58 112.58
  Z"
/>
<path fill="#233a45" d="
  M 186.90 238.76
  Q 177.39 234.63 174.17 224.35
  Q 175.93 219.83 177.82 215.22
  Q 179.79 210.39 181.02 205.95
  C 183.48 197.06 185.90 187.98 188.01 179.15
  Q 191.14 166.15 196.76 155.11
  Q 197.69 153.28 195.86 154.23
  Q 177.12 163.92 160.41 175.55
  C 156.74 178.11 153.48 181.08 150.06 183.97
  C 146.10 187.32 142.51 191.03 138.47 194.33
  Q 137.95 194.43 137.52 194.37
  Q 137.02 194.30 136.98 193.79
  Q 136.39 186.26 138.34 179.22
  Q 141.90 166.36 148.51 156.50
  Q 150.58 153.41 147.29 155.14
  L 137.91 160.07
  Q 131.78 164.26 125.52 168.33
  Q 112.04 177.09 100.02 187.77
  Q 99.51 188.23 98.20 189.14
  Q 88.30 175.57 84.55 160.50
  Q 83.19 155.01 84.01 148.53
  Q 87.07 145.67 87.99 144.99
  C 97.01 138.40 107.88 134.49 119.40 133.72
  Q 135.34 132.65 150.86 136.25
  Q 170.19 140.73 183.58 145.01
  Q 192.56 147.89 200.64 150.26
  Q 207.74 152.34 214.77 154.56
  Q 221.89 156.80 229.22 158.29
  A 1.11 1.10 9.4 0 1 230.09 159.50
  Q 229.77 162.24 229.59 165.02
  Q 229.39 167.97 228.68 170.87
  Q 225.36 184.48 218.66 198.91
  Q 214.92 206.95 208.33 215.46
  Q 199.24 227.19 188.21 237.44
  Q 187.44 238.15 186.90 238.76
  Z"
/>
<path fill="#1a1b33" d="
  M 84.01 148.53
  Q 83.19 155.01 84.55 160.50
  Q 88.30 175.57 98.20 189.14
  Q 84.81 199.42 81.36 203.36
  Q 74.36 211.36 67.03 219.35
  A 0.90 0.90 0.0 0 1 65.52 219.05
  Q 64.61 216.56 64.55 213.67
  C 64.31 201.58 65.10 189.29 67.98 177.63
  C 70.43 167.72 75.47 158.46 81.67 150.39
  Q 82.15 149.77 82.82 149.35
  Q 83.54 148.89 84.01 148.53
  Z"
/>
<path fill="#c57d67" d="
  M 453.83 180.19
  L 444.41 182.91
  Q 434.63 185.20 429.25 185.95
  Q 418.92 187.39 406.00 187.00
  Q 389.94 186.52 374.53 183.35
  C 348.56 178.00 320.78 171.57 293.49 166.19
  C 284.32 164.38 258.47 160.18 253.44 171.15
  Q 251.95 174.39 252.96 178.23
  Q 263.32 217.36 262.44 258.31
  Q 262.41 259.49 261.78 261.08
  Q 261.00 263.03 261.62 264.04
  L 258.43 275.22
  Q 257.94 276.92 259.50 276.08
  Q 273.23 268.68 288.79 267.63
  Q 296.32 267.12 309.09 268.99
  Q 318.49 270.37 328.00 272.39
  Q 328.15 272.42 328.13 272.57
  Q 328.12 272.62 328.12 272.67
  Q 328.12 272.74 328.05 272.74
  Q 312.99 273.01 299.25 272.95
  C 294.79 272.93 290.40 274.07 286.61 276.26
  Q 284.69 277.38 282.24 277.42
  Q 273.81 277.54 266.25 277.30
  Q 257.16 277.02 250.72 277.38
  Q 230.31 278.54 207.25 280.97
  Q 204.84 281.22 202.07 281.15
  Q 201.40 281.13 201.90 280.69
  C 219.92 264.89 230.36 242.06 233.07 218.20
  Q 235.95 192.87 230.15 168.67
  Q 230.03 168.16 230.28 167.69
  C 233.08 162.53 241.97 158.44 248.03 156.72
  Q 265.94 151.63 284.25 153.69
  C 296.35 155.05 310.37 157.59 322.81 160.40
  C 340.17 164.31 356.41 168.22 375.00 171.40
  Q 378.24 171.96 383.49 172.49
  C 406.13 174.81 428.22 172.48 449.07 163.47
  A 0.83 0.81 72.0 0 1 450.19 164.05
  L 453.83 180.19
  Z"
/>
<path fill="#1a1b33" d="
  M 138.47 194.33
  L 116.76 216.26
  Q 116.41 216.61 115.91 216.67
  Q 115.71 216.70 115.54 216.82
  Q 115.31 216.98 115.32 217.28
  Q 115.36 217.84 114.89 218.30
  Q 113.95 219.22 113.86 217.91
  Q 113.77 216.64 113.84 215.41
  Q 113.90 214.46 114.36 213.57
  C 115.21 211.91 114.60 210.39 115.30 208.66
  C 116.63 205.39 117.33 202.17 118.89 198.88
  Q 121.99 192.35 123.93 187.75
  Q 127.06 180.33 130.83 173.65
  C 133.86 168.29 137.96 164.40 141.87 159.90
  Q 142.46 159.23 141.56 159.31
  Q 140.64 159.39 140.00 159.93
  A 1.06 1.06 0.0 0 1 139.24 160.18
  L 137.91 160.07
  L 147.29 155.14
  Q 150.58 153.41 148.51 156.50
  Q 141.90 166.36 138.34 179.22
  Q 136.39 186.26 136.98 193.79
  Q 137.02 194.30 137.52 194.37
  Q 137.95 194.43 138.47 194.33
  Z"
/>
<path fill="#f8c89e" d="
  M 444.41 182.91
  Q 446.96 193.33 449.51 203.59
  Q 451.98 213.56 453.84 223.11
  Q 455.81 233.20 457.74 243.30
  Q 458.67 248.15 459.54 253.34
  Q 443.03 256.05 425.99 258.51
  Q 423.88 258.81 422.00 259.80
  Q 421.55 260.04 421.34 260.50
  Q 420.29 262.81 419.81 265.25
  Q 418.39 272.52 417.29 279.79
  Q 415.56 284.40 415.59 289.02
  L 412.71 294.33
  Q 412.44 294.83 411.88 294.67
  Q 409.48 293.98 406.87 293.32
  C 399.60 291.50 393.44 292.34 386.62 296.52
  A 0.79 0.79 0.0 0 1 385.45 296.08
  Q 385.02 294.62 384.27 293.32
  Q 380.31 286.43 375.14 280.83
  Q 374.84 280.50 375.14 280.17
  Q 376.06 279.13 376.15 277.78
  Q 376.78 268.40 377.76 258.63
  Q 377.95 256.75 376.58 255.41
  Q 374.50 253.37 371.52 252.80
  Q 332.61 245.32 298.40 238.30
  Q 295.25 237.65 292.33 238.63
  Q 271.99 245.48 261.62 264.04
  Q 261.00 263.03 261.78 261.08
  Q 262.41 259.49 262.44 258.31
  Q 263.32 217.36 252.96 178.23
  Q 251.95 174.39 253.44 171.15
  C 258.47 160.18 284.32 164.38 293.49 166.19
  C 320.78 171.57 348.56 178.00 374.53 183.35
  Q 389.94 186.52 406.00 187.00
  Q 418.92 187.39 429.25 185.95
  Q 434.63 185.20 444.41 182.91
  Z"
/>
<path fill="#ffffff" d="
  M 453.83 180.19
  Q 461.60 210.76 467.42 241.76
  Q 468.25 246.22 468.79 251.31
  Q 468.86 252.01 468.16 252.11
  L 459.54 253.34
  Q 458.67 248.15 457.74 243.30
  Q 455.81 233.20 453.84 223.11
  Q 451.98 213.56 449.51 203.59
  Q 446.96 193.33 444.41 182.91
  L 453.83 180.19
  Z"
/>
<path fill="#1a1b33" d="
  M 174.17 224.35
  Q 177.39 234.63 186.90 238.76
  Q 183.76 241.20 180.74 243.68
  C 175.29 248.16 168.00 253.40 163.31 256.06
  Q 160.20 257.83 158.05 259.01
  Q 155.85 260.21 157.14 258.07
  Q 160.43 252.59 163.79 246.76
  Q 166.32 242.37 169.20 235.57
  Q 171.55 230.02 174.17 224.35
  Z"
/>
<path fill="#b86f5e" d="
  M 417.29 279.79
  Q 417.08 280.40 417.33 280.89
  Q 417.56 281.34 418.07 281.40
  L 419.14 281.51
  L 416.84 286.40
  Q 416.75 286.58 416.96 286.62
  Q 417.11 286.64 417.28 286.77
  Q 416.80 287.94 415.59 289.02
  Q 415.56 284.40 417.29 279.79
  Z"
/>
<path fill="#f8c89e" d="
  M 417.28 286.77
  Q 417.11 286.64 416.96 286.62
  Q 416.75 286.58 416.84 286.40
  L 419.14 281.51
  Q 420.40 281.01 421.38 281.07
  Q 421.94 281.10 421.59 281.53
  L 417.28 286.77
  Z"
/>
<path fill="#ffffff" d="
  M 151.69 306.56
  L 147.23 316.23
  Q 144.65 310.96 143.59 309.69
  Q 135.46 300.03 123.59 295.54
  C 112.25 291.26 98.48 292.94 87.75 298.65
  Q 82.08 301.66 77.37 308.32
  Q 77.11 308.70 76.72 308.94
  Q 75.79 309.50 75.63 308.72
  C 89.37 286.76 118.21 280.73 139.41 294.34
  Q 145.41 298.18 151.69 306.56
  Z"
/>
<path fill="#b86f5e" d="
  M 301.44 320.82
  L 286.74 321.88
  L 278.73 322.35
  Q 278.63 315.52 278.76 308.76
  Q 278.81 305.65 279.72 303.72
  C 282.03 298.78 286.87 294.98 291.97 293.37
  Q 295.84 292.14 302.48 292.12
  Q 313.12 292.07 323.24 292.24
  Q 324.95 292.27 323.36 292.90
  C 320.32 294.08 317.18 294.89 314.48 296.88
  Q 302.77 305.49 301.44 320.82
  Z"
/>
<path fill="#b86f5e" d="
  M 370.17 318.31
  Q 362.61 318.30 355.79 320.26
  Q 354.63 300.46 336.18 292.91
  Q 334.76 292.33 336.29 292.26
  Q 342.88 291.95 350.18 291.97
  Q 355.03 291.98 358.49 292.82
  C 363.32 294.00 367.02 299.88 369.12 304.30
  Q 369.74 305.60 369.82 307.00
  Q 370.15 312.84 370.17 318.31
  Z"
/>
<path fill="#b86f5e" d="
  M 469.25 296.82
  L 469.10 295.60
  Q 469.07 295.35 468.81 295.33
  Q 468.66 295.32 468.57 295.42
  Q 468.39 295.61 468.37 295.88
  Q 467.57 305.84 466.17 315.68
  Q 464.65 309.51 463.39 306.87
  Q 458.72 297.07 448.45 293.35
  Q 448.21 293.26 448.02 293.05
  Q 447.91 292.93 447.85 292.77
  A 0.37 0.37 0.0 0 1 448.19 292.26
  L 468.99 292.46
  Q 469.49 292.47 469.56 292.96
  Q 469.85 294.91 469.25 296.82
  Z"
/>
<path fill="#f8c89e" d="
  M 147.23 316.23
  L 140.62 329.40
  Q 130.63 312.09 111.00 311.88
  Q 93.05 311.70 85.54 327.02
  Q 82.68 332.85 82.87 340.85
  L 83.17 345.49
  Q 83.20 346.00 82.69 346.05
  Q 74.25 346.76 67.05 342.75
  Q 66.66 341.77 66.69 340.75
  C 66.99 329.28 69.10 318.35 75.63 308.72
  Q 75.79 309.50 76.72 308.94
  Q 77.11 308.70 77.37 308.32
  Q 82.08 301.66 87.75 298.65
  C 98.48 292.94 112.25 291.26 123.59 295.54
  Q 135.46 300.03 143.59 309.69
  Q 144.65 310.96 147.23 316.23
  Z"
/>
<path fill="#ffffff" d="
  M 469.25 296.82
  C 469.39 304.28 468.43 313.16 468.23 319.06
  Q 467.31 345.93 467.12 372.08
  A 0.81 0.81 0.0 0 1 466.32 372.88
  Q 459.66 372.91 453.38 373.08
  C 449.61 373.19 442.81 371.16 441.34 367.16
  Q 438.71 360.04 436.98 352.87
  A 0.57 0.57 0.0 0 1 437.60 352.17
  Q 445.07 353.10 453.23 347.88
  C 464.38 340.73 468.26 328.65 466.17 315.68
  Q 467.57 305.84 468.37 295.88
  Q 468.39 295.61 468.57 295.42
  Q 468.66 295.32 468.81 295.33
  Q 469.07 295.35 469.10 295.60
  L 469.25 296.82
  Z"
/>
<path fill="#33aefd" d="
  M 500.69 327.06
  L 483.66 320.54
  L 484.87 296.83
  Q 484.90 296.14 485.60 296.13
  Q 494.80 296.01 499.19 303.19
  C 500.93 306.03 500.65 309.82 500.78 313.24
  Q 501.03 319.63 500.69 327.06
  Z"
/>
<path fill="#c57d67" d="
  M 261.28 324.60
  Q 235.19 326.18 209.72 329.14
  A 0.61 0.61 0.0 0 0 209.19 329.80
  C 209.54 333.82 209.46 338.26 209.68 341.73
  Q 212.38 384.98 214.45 423.00
  Q 215.11 435.16 216.44 445.83
  Q 218.23 460.23 225.03 475.11
  Q 233.01 492.57 249.61 504.74
  Q 257.58 510.59 269.81 515.65
  Q 288.05 523.21 305.42 529.44
  C 317.08 533.63 328.60 538.36 341.60 542.95
  Q 359.01 549.11 374.50 550.42
  Q 387.54 551.52 405.27 547.88
  Q 387.16 561.75 364.24 562.73
  Q 348.10 563.42 332.92 558.82
  Q 325.18 556.47 315.04 552.76
  Q 255.76 531.05 207.09 510.63
  Q 198.11 506.87 188.53 499.68
  C 171.19 486.69 159.86 465.99 155.76 444.95
  Q 154.30 437.45 154.42 427.84
  Q 154.57 416.06 154.52 405.21
  Q 154.51 404.25 154.84 403.13
  A 0.36 0.36 0.0 0 0 154.33 402.71
  C 151.57 404.12 148.84 405.75 145.91 406.67
  C 128.43 412.22 109.60 410.00 95.04 398.64
  C 78.01 385.34 67.37 365.48 66.51 343.72
  Q 66.49 343.30 66.78 343.01
  L 67.05 342.75
  Q 74.25 346.76 82.69 346.05
  Q 83.20 346.00 83.17 345.49
  L 82.87 340.85
  Q 90.70 334.91 99.52 331.72
  C 106.71 329.13 113.88 329.18 120.12 334.25
  Q 124.14 337.52 125.60 340.52
  C 126.92 343.24 127.64 350.78 123.57 352.06
  C 118.30 353.71 116.46 359.77 119.79 364.14
  C 124.65 370.52 131.93 369.58 137.19 364.06
  C 145.77 355.06 145.75 340.02 140.62 329.40
  L 147.23 316.23
  L 151.69 306.56
  Q 159.95 318.34 161.12 332.72
  Q 161.49 337.26 161.41 344.41
  Q 161.14 366.64 161.52 391.29
  A 1.28 1.28 0.0 0 0 162.79 392.55
  L 193.36 392.77
  A 0.45 0.45 0.0 0 0 193.81 392.32
  L 193.83 309.64
  A 1.02 1.01 86.5 0 1 194.72 308.63
  Q 220.24 305.54 246.00 303.53
  Q 248.62 303.32 251.23 303.48
  A 1.56 1.54 64.6 0 1 252.03 303.77
  L 260.60 310.17
  A 1.57 1.57 0.0 0 1 261.22 311.42
  L 261.28 324.60
  Z"
/>
<path fill="#010110" d="
  M 140.62 329.40
  C 145.75 340.02 145.77 355.06 137.19 364.06
  C 131.93 369.58 124.65 370.52 119.79 364.14
  C 116.46 359.77 118.30 353.71 123.57 352.06
  C 127.64 350.78 126.92 343.24 125.60 340.52
  Q 124.14 337.52 120.12 334.25
  C 113.88 329.18 106.71 329.13 99.52 331.72
  Q 90.70 334.91 82.87 340.85
  Q 82.68 332.85 85.54 327.02
  Q 93.05 311.70 111.00 311.88
  Q 130.63 312.09 140.62 329.40
  Z"
/>
<path fill="#b86f5e" d="
  M 417.26 323.63
  L 409.10 321.12
  C 400.85 319.82 391.25 322.06 387.59 330.26
  L 387.76 320.18
  Q 387.77 319.63 388.15 319.24
  C 393.02 314.14 401.66 312.24 408.23 314.95
  Q 414.89 317.70 417.26 323.63
  Z"
/>
<path fill="#f8c89e" d="
  M 370.17 318.31
  Q 370.06 325.85 370.03 332.99
  Q 369.96 350.91 357.47 363.47
  Q 354.49 366.47 350.43 368.95
  Q 349.67 354.89 350.93 340.48
  Q 354.40 336.26 355.45 330.75
  Q 356.27 326.42 355.79 320.26
  Q 362.61 318.30 370.17 318.31
  Z"
/>
<path fill="#ffffff" d="
  M 301.44 320.82
  Q 300.87 331.27 306.12 339.28
  C 314.13 351.50 328.37 355.03 341.68 348.47
  Q 345.33 346.67 350.93 340.48
  Q 349.67 354.89 350.43 368.95
  Q 343.88 372.90 335.74 373.13
  Q 328.96 373.32 321.26 373.32
  C 312.47 373.33 305.17 372.98 297.87 368.38
  Q 293.57 365.65 288.50 360.02
  Q 287.37 358.14 287.47 356.67
  Q 287.58 354.88 287.58 354.83
  Q 286.19 338.60 286.74 321.88
  L 301.44 320.82
  Z"
/>
<path fill="#f8c89e" d="
  M 409.10 321.12
  L 408.38 321.09
  A 1.14 1.14 0.0 0 0 407.26 322.58
  Q 414.91 345.98 422.52 369.23
  C 424.15 374.22 426.00 381.53 428.24 387.40
  Q 430.21 392.56 432.23 397.63
  Q 431.42 397.59 429.91 397.53
  Q 428.76 397.48 427.64 397.66
  C 414.03 399.88 401.01 404.62 388.08 409.80
  Q 382.33 412.11 377.38 414.81
  A 1.15 1.15 0.0 0 0 376.93 416.38
  Q 381.27 424.01 387.88 429.15
  Q 395.78 435.28 405.78 436.28
  Q 425.03 438.21 436.37 423.55
  L 454.74 402.76
  A 0.90 0.90 0.0 0 0 454.89 401.78
  Q 452.75 397.03 451.26 392.12
  Q 451.01 391.30 451.86 391.29
  L 458.64 391.17
  C 458.98 393.18 459.47 394.93 459.28 396.98
  Q 458.38 406.73 457.24 416.42
  C 456.30 424.49 454.51 432.64 453.02 440.73
  C 451.55 448.71 448.67 456.98 446.60 465.09
  Q 444.15 474.70 440.80 485.46
  Q 439.63 489.22 438.57 493.64
  Q 437.33 498.76 434.77 503.70
  A 0.98 0.97 30.7 0 0 435.10 504.96
  Q 435.18 505.01 435.72 504.79
  C 428.52 521.66 419.75 536.39 405.27 547.88
  Q 387.54 551.52 374.50 550.42
  Q 359.01 549.11 341.60 542.95
  C 328.60 538.36 317.08 533.63 305.42 529.44
  Q 288.05 523.21 269.81 515.65
  Q 257.58 510.59 249.61 504.74
  Q 233.01 492.57 225.03 475.11
  Q 218.23 460.23 216.44 445.83
  Q 215.11 435.16 214.45 423.00
  Q 212.38 384.98 209.68 341.73
  C 209.46 338.26 209.54 333.82 209.19 329.80
  A 0.61 0.61 0.0 0 1 209.72 329.14
  Q 235.19 326.18 261.28 324.60
  Q 260.66 337.81 261.29 342.00
  Q 263.11 354.17 269.51 364.41
  Q 270.27 373.15 275.84 380.18
  Q 284.14 390.65 296.35 394.96
  Q 300.80 396.53 307.30 397.22
  Q 313.74 397.90 318.51 397.73
  Q 331.48 397.27 344.02 390.31
  Q 365.74 384.52 377.91 365.66
  Q 384.52 355.42 386.69 343.54
  C 387.46 339.37 387.45 334.74 387.59 330.26
  C 391.25 322.06 400.85 319.82 409.10 321.12
  Z
  M 346.00 465.23
  C 351.91 467.95 357.86 470.53 364.16 472.37
  Q 377.10 476.14 392.24 475.02
  Q 404.36 474.13 416.77 468.12
  C 421.51 465.83 424.41 461.48 421.31 456.30
  C 419.35 453.02 415.68 451.35 412.16 453.11
  C 409.88 454.26 407.66 455.36 405.25 456.22
  C 388.46 462.19 367.14 459.17 351.33 449.88
  C 346.25 446.90 340.41 447.22 338.89 454.11
  C 337.69 459.56 341.50 463.16 346.00 465.23
  Z"
/>
<path fill="#78fefe" d="
  M 483.66 320.54
  L 500.69 327.06
  Q 500.95 336.73 500.55 339.50
  C 498.96 350.60 493.07 361.87 483.23 367.75
  A 0.39 0.39 0.0 0 1 482.64 367.41
  L 483.66 320.54
  Z"
/>
<path fill="#ffffff" d="
  M 409.10 321.12
  L 417.26 323.63
  Q 429.36 358.78 440.20 394.74
  Q 440.60 396.06 440.18 398.10
  Q 436.82 397.12 432.23 397.63
  Q 430.21 392.56 428.24 387.40
  C 426.00 381.53 424.15 374.22 422.52 369.23
  Q 414.91 345.98 407.26 322.58
  A 1.14 1.14 0.0 0 1 408.38 321.09
  L 409.10 321.12
  Z"
/>
<path fill="#f8c89e" d="
  M 286.74 321.88
  Q 286.19 338.60 287.58 354.83
  Q 287.58 354.88 287.47 356.67
  Q 287.37 358.14 288.50 360.02
  Q 279.22 349.42 278.90 335.25
  Q 278.76 328.73 278.73 322.35
  L 286.74 321.88
  Z"
/>
<path fill="#c57d67" d="
  M 269.51 364.41
  C 278.81 379.19 293.09 388.75 310.49 390.49
  Q 325.46 391.99 344.02 390.31
  Q 331.48 397.27 318.51 397.73
  Q 313.74 397.90 307.30 397.22
  Q 300.80 396.53 296.35 394.96
  Q 284.14 390.65 275.84 380.18
  Q 270.27 373.15 269.51 364.41
  Z"
/>
<path fill="#ffffff" d="
  M 435.72 504.79
  Q 435.18 505.01 435.10 504.96
  A 0.98 0.97 30.7 0 1 434.77 503.70
  Q 437.33 498.76 438.57 493.64
  Q 439.63 489.22 440.80 485.46
  Q 444.15 474.70 446.60 465.09
  C 448.67 456.98 451.55 448.71 453.02 440.73
  C 454.51 432.64 456.30 424.49 457.24 416.42
  Q 458.38 406.73 459.28 396.98
  C 459.47 394.93 458.98 393.18 458.64 391.17
  L 465.23 391.16
  A 0.83 0.82 1.6 0 1 466.06 392.03
  Q 465.20 407.25 464.08 422.88
  C 463.10 436.46 459.83 448.06 454.83 461.33
  Q 450.52 472.77 435.72 504.79
  Z"
/>
<path fill="#b86f5e" d="
  M 432.23 397.63
  Q 436.82 397.12 440.18 398.10
  L 414.42 426.25
  Q 414.04 426.67 414.60 426.59
  L 436.37 423.55
  Q 425.03 438.21 405.78 436.28
  Q 395.78 435.28 387.88 429.15
  Q 381.27 424.01 376.93 416.38
  A 1.15 1.15 0.0 0 1 377.38 414.81
  Q 382.33 412.11 388.08 409.80
  C 401.01 404.62 414.03 399.88 427.64 397.66
  Q 428.76 397.48 429.91 397.53
  Q 431.42 397.59 432.23 397.63
  Z"
/>
<path fill="#010110" d="
  M 346.00 465.23
  C 341.50 463.16 337.69 459.56 338.89 454.11
  C 340.41 447.22 346.25 446.90 351.33 449.88
  C 367.14 459.17 388.46 462.19 405.25 456.22
  C 407.66 455.36 409.88 454.26 412.16 453.11
  C 415.68 451.35 419.35 453.02 421.31 456.30
  C 424.41 461.48 421.51 465.83 416.77 468.12
  Q 404.36 474.13 392.24 475.02
  Q 377.10 476.14 364.16 472.37
  C 357.86 470.53 351.91 467.95 346.00 465.23
  Z"
/>
<path fill="#1a1b33" d="
  M 192.68 547.31
  Q 186.80 542.66 183.66 538.84
  Q 175.77 529.26 167.69 520.06
  Q 152.65 502.92 138.58 484.80
  A 0.48 0.48 0.0 0 0 137.73 484.99
  L 137.57 485.72
  Q 136.97 482.17 137.13 478.63
  Q 137.27 475.47 137.34 472.36
  Q 137.42 469.16 138.22 466.09
  A 0.75 0.74 -67.5 0 1 139.32 465.63
  C 140.49 466.30 140.63 467.50 141.46 468.49
  Q 144.26 471.84 147.18 476.59
  Q 149.82 480.89 152.70 485.28
  Q 158.60 494.30 164.19 503.84
  Q 169.53 512.98 178.69 526.03
  C 180.73 528.93 182.25 532.64 184.33 535.25
  Q 188.80 540.87 192.68 547.31
  Z"
/>
<path fill="#c57d67" d="
  M 192.68 547.31
  Q 197.45 553.35 202.46 559.80
  C 216.34 577.68 233.51 593.08 253.34 604.01
  Q 267.34 611.72 284.56 617.03
  Q 291.39 619.14 298.56 621.14
  C 296.61 621.96 294.73 622.83 292.70 623.42
  Q 269.49 630.16 243.43 629.74
  Q 201.53 629.05 165.69 609.57
  Q 150.63 601.38 137.58 589.62
  L 137.57 485.72
  L 137.73 484.99
  A 0.48 0.48 0.0 0 1 138.58 484.80
  Q 152.65 502.92 167.69 520.06
  Q 175.77 529.26 183.66 538.84
  Q 186.80 542.66 192.68 547.31
  Z"
/>
</svg>
