<?xml version="1.0" standalone="no"?>
<!DOCTYPE svg PUBLIC "-//W3C//DTD SVG 20010904//EN"
 "http://www.w3.org/TR/2001/REC-SVG-20010904/DTD/svg10.dtd">
<svg version="1.0" xmlns="http://www.w3.org/2000/svg"
 width="512.000000pt" height="512.000000pt" viewBox="0 0 512.000000 512.000000"
 preserveAspectRatio="xMidYMid meet">

<g transform="translate(0.000000,512.000000) scale(0.100000,-0.100000)"
fill="#000000" stroke="none">
<path d="M2062 5109 c-46 -14 -118 -88 -131 -135 -6 -22 -11 -97 -11 -167 0
-94 -3 -128 -12 -131 -7 -1 -69 -17 -138 -33 -274 -67 -490 -191 -700 -402
-205 -206 -336 -450 -401 -746 -20 -92 -22 -140 -29 -590 -7 -446 -9 -499 -29
-587 -67 -305 -200 -538 -442 -773 -135 -132 -164 -188 -164 -320 0 -82 3 -97
33 -157 40 -82 119 -157 200 -190 l57 -23 1800 -3 c1313 -2 1816 0 1860 8 160
31 273 144 305 306 25 128 -20 245 -138 354 -148 137 -269 294 -343 446 l-32
64 -75 0 c-164 0 -388 47 -570 120 -538 216 -924 680 -1044 1256 -31 148 -33
476 -4 629 38 208 134 448 246 620 l52 79 -4 116 c-4 105 -7 121 -31 163 -49
83 -160 125 -255 96z"/>
<path d="M3561 5110 c-167 -24 -311 -69 -454 -142 -378 -194 -642 -539 -733
-958 -22 -100 -30 -355 -15 -461 88 -620 570 -1102 1190 -1190 106 -15 361 -7
461 15 265 58 492 179 685 367 207 201 334 431 397 717 32 145 32 407 0 551
-64 285 -182 502 -381 702 -260 260 -571 394 -936 404 -82 2 -179 0 -214 -5z
m269 -850 c45 -12 97 -65 110 -111 13 -46 13 -892 0 -941 -14 -49 -76 -104
-129 -113 -33 -5 -51 -2 -88 17 -91 45 -87 28 -93 456 l-5 377 -82 5 c-61 4
-88 10 -109 26 -70 52 -92 130 -56 200 41 80 80 93 272 94 80 0 161 -5 180
-10z"/>
<path d="M1350 636 c0 -17 47 -151 67 -191 99 -197 291 -355 508 -417 104 -29
305 -32 405 -4 158 42 320 146 420 269 56 68 131 211 154 295 l15 52 -785 0
c-431 0 -784 -2 -784 -4z"/>
</g>
</svg>
