<?xml version="1.0" encoding="UTF-8" standalone="no"?>
<svg xmlns="http://www.w3.org/2000/svg" version="1.2" baseProfile="tiny" viewBox="0.00 0.00 512.00 512.00">
<path fill="#000000" d="
  M 252.34 0.00
  L 261.84 0.00
  Q 318.88 1.33 368.22 25.57
  Q 413.53 47.83 446.00 84.00
  Q 509.06 154.26 512.00 250.29
  L 512.00 259.84
  Q 510.67 316.29 486.88 365.65
  C 457.97 425.65 407.06 472.91 344.74 496.18
  Q 305.12 510.98 261.66 512.00
  L 252.17 512.00
  Q 195.40 510.58 146.10 486.38
  C 85.67 456.73 39.02 405.37 15.55 342.24
  Q 1.04 303.23 0.00 259.67
  L 0.00 250.16
  Q 1.05 207.04 15.34 168.56
  C 38.79 105.39 85.71 54.33 146.36 25.12
  Q 195.82 1.29 252.34 0.00
  Z
  M 226.33 224.89
  Q 172.32 225.10 120.75 225.08
  Q 107.98 225.07 99.14 233.63
  C 87.28 245.10 87.05 264.41 98.86 276.11
  Q 107.76 284.91 120.75 284.93
  Q 172.32 285.01 226.21 285.00
  A 0.73 0.73 0.0 0 1 226.94 285.73
  Q 227.07 338.39 226.95 387.97
  Q 226.93 395.68 228.24 400.27
  C 234.38 421.80 261.93 429.26 277.89 413.35
  Q 286.96 404.30 286.98 391.12
  Q 287.02 338.84 287.00 286.16
  Q 287.00 285.18 287.98 285.10
  Q 289.61 284.96 291.53 284.96
  Q 338.68 285.00 385.92 285.04
  Q 395.67 285.04 400.11 283.80
  C 421.87 277.74 429.27 250.06 413.23 234.00
  Q 404.27 225.04 391.09 225.03
  Q 338.97 224.97 287.89 225.01
  A 0.88 0.87 90.0 0 1 287.02 224.13
  Q 286.94 178.35 287.05 126.00
  Q 287.07 116.38 285.77 111.79
  C 282.14 98.94 270.21 90.11 256.96 90.15
  C 239.76 90.20 227.06 103.89 227.03 121.01
  Q 226.97 170.44 227.01 224.21
  A 0.68 0.68 0.0 0 1 226.33 224.89
  Z"
/>
</svg>
